<svg width="512" height="512" viewBox="0 0 512 512" fill="none" xmlns="http://www.w3.org/2000/svg">
<mask id="path-1-outside-1_154_2" maskUnits="userSpaceOnUse" x="9.01196" y="92.5181" width="496" height="333" fill="black">
<rect fill="white" x="9.01196" y="92.5181" width="496" height="333"/>
<path d="M25.1575 402.147C36.7485 366.847 47.8127 332.469 58.3501 299.013C62.8284 285.314 67.4385 270.694 72.1803 255.151C76.9221 239.609 81.6639 224.066 86.4057 208.524C91.1475 192.718 95.6259 177.57 99.8408 163.081C104.056 148.592 107.612 135.684 110.51 124.357C124.999 124.357 138.697 123.566 151.606 121.986C158.191 121.195 164.909 120.405 171.758 119.615C178.871 118.824 186.115 118.166 193.491 117.639L191.121 137.001C190.594 140.689 190.067 144.509 189.54 148.461C189.013 152.149 188.486 155.969 187.959 159.92C187.432 163.872 186.774 167.955 185.984 172.17C185.193 176.121 184.535 180.204 184.008 184.419C182.954 192.586 181.373 204.045 179.266 218.797C177.159 233.286 174.656 249.092 171.758 266.216H176.895C184.535 246.195 190.857 229.598 195.862 216.427C200.868 202.991 204.951 192.059 208.112 183.629C212.59 171.248 217.464 158.735 222.733 146.09C228.001 133.445 232.348 123.698 235.772 116.849C242.095 116.322 249.603 115.532 258.296 114.478C267.253 113.161 276.21 111.712 285.166 110.131C294.386 108.551 302.289 107.233 308.875 106.18C305.187 128.308 301.763 150.7 298.601 173.355C295.704 195.747 293.069 217.217 290.698 237.765C288.591 258.049 286.747 276.358 285.166 292.691C283.586 309.023 282.137 325.225 280.82 341.294C279.502 357.1 278.185 372.774 276.868 388.317L208.112 400.567C208.112 400.04 208.507 394.112 209.297 382.785C210.088 371.457 211.405 357.363 213.249 340.504C215.093 323.644 216.937 307.706 218.781 292.691C220.625 277.411 222.469 264.898 224.313 255.151H220.757C214.171 275.172 206.136 297.037 196.653 320.746C187.432 344.455 178.344 370.667 169.387 399.381C160.167 399.645 152.264 400.04 145.678 400.567C139.092 400.83 131.453 401.225 122.76 401.752L135.404 255.151H129.477C129.214 258.049 128.028 263.713 125.921 272.143C123.813 280.309 121.311 289.793 118.413 300.594C115.515 311.131 112.486 321.668 109.324 332.206C97.4699 373.565 91.1475 395.43 90.3572 397.801L25.1575 402.147ZM286.407 405.308C289.305 384.497 292.335 363.554 295.496 342.479C298.92 321.405 302.345 301.12 305.77 281.626C309.458 261.869 312.882 244.087 316.044 228.281C319.468 211.158 322.893 193.771 326.317 176.121C329.742 158.471 333.298 140.689 336.986 122.776L406.138 113.688L385.59 202.991C381.902 218.534 378.082 235.262 374.131 253.176C370.443 270.826 367.018 287.949 363.857 304.545C360.695 321.141 358.193 335.894 356.349 348.802C362.935 348.275 369.916 348.012 377.292 348.012C384.931 347.748 391.649 347.616 397.444 347.616C397.708 353.675 398.235 360.13 399.025 366.979C399.815 373.565 400.606 379.36 401.396 384.365C402.45 389.107 402.977 391.742 402.977 392.268C401.923 392.268 400.869 392.268 399.815 392.268C399.025 392.268 398.103 392.137 397.049 391.873H390.727C380.453 391.873 368.994 392.4 356.349 393.454C343.967 394.244 331.586 395.693 319.205 397.801C307.087 399.645 296.154 402.147 286.407 405.308ZM442.55 413.607C434.647 413.607 428.061 411.631 422.793 407.679C417.788 403.991 413.968 399.381 411.333 393.849C408.962 388.053 407.777 382.258 407.777 376.462C407.777 365.925 411.202 356.837 418.051 349.197C425.164 341.294 434.911 337.343 447.292 337.343C462.571 337.343 474.031 341.031 481.67 348.407C489.31 355.519 493.129 363.686 493.129 372.906C493.129 383.443 488.783 392.927 480.09 401.357C471.396 409.523 458.883 413.607 442.55 413.607Z"/>
</mask>
<path d="M25.1575 402.147C36.7485 366.847 47.8127 332.469 58.3501 299.013C62.8284 285.314 67.4385 270.694 72.1803 255.151C76.9221 239.609 81.6639 224.066 86.4057 208.524C91.1475 192.718 95.6259 177.57 99.8408 163.081C104.056 148.592 107.612 135.684 110.51 124.357C124.999 124.357 138.697 123.566 151.606 121.986C158.191 121.195 164.909 120.405 171.758 119.615C178.871 118.824 186.115 118.166 193.491 117.639L191.121 137.001C190.594 140.689 190.067 144.509 189.54 148.461C189.013 152.149 188.486 155.969 187.959 159.92C187.432 163.872 186.774 167.955 185.984 172.17C185.193 176.121 184.535 180.204 184.008 184.419C182.954 192.586 181.373 204.045 179.266 218.797C177.159 233.286 174.656 249.092 171.758 266.216H176.895C184.535 246.195 190.857 229.598 195.862 216.427C200.868 202.991 204.951 192.059 208.112 183.629C212.59 171.248 217.464 158.735 222.733 146.09C228.001 133.445 232.348 123.698 235.772 116.849C242.095 116.322 249.603 115.532 258.296 114.478C267.253 113.161 276.21 111.712 285.166 110.131C294.386 108.551 302.289 107.233 308.875 106.18C305.187 128.308 301.763 150.7 298.601 173.355C295.704 195.747 293.069 217.217 290.698 237.765C288.591 258.049 286.747 276.358 285.166 292.691C283.586 309.023 282.137 325.225 280.82 341.294C279.502 357.1 278.185 372.774 276.868 388.317L208.112 400.567C208.112 400.04 208.507 394.112 209.297 382.785C210.088 371.457 211.405 357.363 213.249 340.504C215.093 323.644 216.937 307.706 218.781 292.691C220.625 277.411 222.469 264.898 224.313 255.151H220.757C214.171 275.172 206.136 297.037 196.653 320.746C187.432 344.455 178.344 370.667 169.387 399.381C160.167 399.645 152.264 400.04 145.678 400.567C139.092 400.83 131.453 401.225 122.76 401.752L135.404 255.151H129.477C129.214 258.049 128.028 263.713 125.921 272.143C123.813 280.309 121.311 289.793 118.413 300.594C115.515 311.131 112.486 321.668 109.324 332.206C97.4699 373.565 91.1475 395.43 90.3572 397.801L25.1575 402.147ZM286.407 405.308C289.305 384.497 292.335 363.554 295.496 342.479C298.92 321.405 302.345 301.12 305.77 281.626C309.458 261.869 312.882 244.087 316.044 228.281C319.468 211.158 322.893 193.771 326.317 176.121C329.742 158.471 333.298 140.689 336.986 122.776L406.138 113.688L385.59 202.991C381.902 218.534 378.082 235.262 374.131 253.176C370.443 270.826 367.018 287.949 363.857 304.545C360.695 321.141 358.193 335.894 356.349 348.802C362.935 348.275 369.916 348.012 377.292 348.012C384.931 347.748 391.649 347.616 397.444 347.616C397.708 353.675 398.235 360.13 399.025 366.979C399.815 373.565 400.606 379.36 401.396 384.365C402.45 389.107 402.977 391.742 402.977 392.268C401.923 392.268 400.869 392.268 399.815 392.268C399.025 392.268 398.103 392.137 397.049 391.873H390.727C380.453 391.873 368.994 392.4 356.349 393.454C343.967 394.244 331.586 395.693 319.205 397.801C307.087 399.645 296.154 402.147 286.407 405.308ZM442.55 413.607C434.647 413.607 428.061 411.631 422.793 407.679C417.788 403.991 413.968 399.381 411.333 393.849C408.962 388.053 407.777 382.258 407.777 376.462C407.777 365.925 411.202 356.837 418.051 349.197C425.164 341.294 434.911 337.343 447.292 337.343C462.571 337.343 474.031 341.031 481.67 348.407C489.31 355.519 493.129 363.686 493.129 372.906C493.129 383.443 488.783 392.927 480.09 401.357C471.396 409.523 458.883 413.607 442.55 413.607Z" fill="white"/>
<path d="M25.1575 402.147L14.7064 398.715L9.61954 414.207L25.8892 413.123L25.1575 402.147ZM58.3501 299.013L47.8946 295.595L47.8761 295.652L47.8582 295.708L58.3501 299.013ZM72.1803 255.151L61.6591 251.941L61.6591 251.941L72.1803 255.151ZM86.4057 208.524L96.927 211.733L96.9345 211.709L96.9418 211.684L86.4057 208.524ZM99.8408 163.081L110.403 166.154L110.403 166.154L99.8408 163.081ZM110.51 124.357V113.357H101.97L99.8531 121.63L110.51 124.357ZM151.606 121.986L150.295 111.064L150.282 111.066L150.269 111.067L151.606 121.986ZM171.758 119.615L170.543 108.682L170.52 108.685L170.497 108.687L171.758 119.615ZM193.491 117.639L204.41 118.976L206.034 105.715L192.708 106.667L193.491 117.639ZM191.121 137.001L202.01 138.557L202.026 138.448L202.039 138.338L191.121 137.001ZM189.54 148.461L200.429 150.016L200.437 149.966L200.443 149.915L189.54 148.461ZM187.959 159.92L198.863 161.374L198.863 161.374L187.959 159.92ZM185.984 172.17L196.77 174.327L196.783 174.262L196.795 174.197L185.984 172.17ZM184.008 184.419L194.917 185.827L194.92 185.805L194.923 185.784L184.008 184.419ZM179.266 218.797L190.151 220.381L190.153 220.367L190.155 220.353L179.266 218.797ZM171.758 266.216L160.912 264.38L158.74 277.216H171.758V266.216ZM176.895 266.216V277.216H184.471L187.172 270.137L176.895 266.216ZM195.862 216.427L206.145 220.334L206.158 220.3L206.17 220.267L195.862 216.427ZM208.112 183.629L218.412 187.491L218.434 187.431L218.456 187.371L208.112 183.629ZM222.733 146.09L232.886 150.321L232.886 150.321L222.733 146.09ZM235.772 116.849L234.859 105.887L228.698 106.4L225.934 111.929L235.772 116.849ZM258.296 114.478L259.62 125.398L259.758 125.381L259.896 125.361L258.296 114.478ZM285.166 110.131L283.308 99.2893L283.281 99.2939L283.255 99.2986L285.166 110.131ZM308.875 106.18L319.726 107.988L322.24 92.9014L307.137 95.3178L308.875 106.18ZM298.601 173.355L287.707 171.835L287.699 171.889L287.692 171.943L298.601 173.355ZM290.698 237.765L279.771 236.504L279.764 236.566L279.757 236.628L290.698 237.765ZM280.82 341.294L291.782 342.208L291.782 342.2L291.783 342.193L280.82 341.294ZM276.868 388.317L278.798 399.146L287.115 397.664L287.829 389.246L276.868 388.317ZM208.112 400.567H197.112V413.7L210.041 411.396L208.112 400.567ZM209.297 382.785L198.324 382.019L209.297 382.785ZM213.249 340.504L224.184 341.7L224.184 341.7L213.249 340.504ZM218.781 292.691L229.699 294.031L229.7 294.02L229.702 294.009L218.781 292.691ZM224.313 255.151L235.121 257.196L237.589 244.151H224.313V255.151ZM220.757 255.151V244.151H212.795L210.308 251.714L220.757 255.151ZM196.653 320.746L186.439 316.661L186.42 316.71L186.401 316.759L196.653 320.746ZM169.387 399.381L169.701 410.377L177.55 410.152L179.888 402.657L169.387 399.381ZM145.678 400.567L146.118 411.558L146.337 411.549L146.555 411.532L145.678 400.567ZM122.76 401.752L111.8 400.807L110.705 413.503L123.425 412.732L122.76 401.752ZM135.404 255.151L146.364 256.097L147.394 244.151H135.404V255.151ZM129.477 255.151V244.151H119.432L118.522 254.155L129.477 255.151ZM125.921 272.143L136.572 274.891L136.582 274.851L136.592 274.811L125.921 272.143ZM118.413 300.594L129.019 303.51L129.028 303.477L129.037 303.444L118.413 300.594ZM109.324 332.206L98.7884 329.045L98.7689 329.11L98.7502 329.175L109.324 332.206ZM90.3572 397.801L91.0889 408.776L98.4574 408.285L100.793 401.279L90.3572 397.801ZM25.1575 402.147L35.6085 405.579C47.2126 370.239 58.2905 335.818 68.842 302.318L58.3501 299.013L47.8582 295.708C37.335 329.12 26.2844 363.455 14.7064 398.715L25.1575 402.147ZM58.3501 299.013L68.8055 302.431C73.3091 288.655 77.9412 273.965 82.7016 258.361L72.1803 255.151L61.6591 251.941C56.9359 267.423 52.3477 281.974 47.8946 295.595L58.3501 299.013ZM72.1803 255.151L82.7016 258.361C87.4434 242.819 92.1852 227.276 96.927 211.733L86.4057 208.524L75.8845 205.314C71.1427 220.856 66.4009 236.399 61.6591 251.941L72.1803 255.151ZM86.4057 208.524L96.9418 211.684C101.692 195.852 106.179 180.675 110.403 166.154L99.8408 163.081L89.2787 160.009C85.0731 174.466 80.6034 189.583 75.8696 205.363L86.4057 208.524ZM99.8408 163.081L110.403 166.154C114.642 151.581 118.232 138.554 121.167 127.083L110.51 124.357L99.8531 121.63C96.992 132.815 93.4692 145.604 89.2787 160.009L99.8408 163.081ZM110.51 124.357V135.357C125.396 135.357 139.544 134.545 152.942 132.904L151.606 121.986L150.269 111.067C137.851 112.588 124.602 113.357 110.51 113.357V124.357ZM151.606 121.986L152.916 132.907C159.485 132.119 166.186 131.331 173.019 130.542L171.758 119.615L170.497 108.687C163.632 109.479 156.898 110.272 150.295 111.064L151.606 121.986ZM171.758 119.615L172.973 130.548C179.938 129.774 187.038 129.128 194.275 128.611L193.491 117.639L192.708 106.667C185.192 107.204 177.804 107.875 170.543 108.682L171.758 119.615ZM193.491 117.639L182.573 116.302L180.202 135.664L191.121 137.001L202.039 138.338L204.41 118.976L193.491 117.639ZM191.121 137.001L180.231 135.446C179.699 139.17 179.168 143.024 178.636 147.007L189.54 148.461L200.443 149.915C200.966 145.995 201.488 142.209 202.01 138.557L191.121 137.001ZM189.54 148.461L178.65 146.905C178.118 150.629 177.587 154.483 177.056 158.466L187.959 159.92L198.863 161.374C199.385 157.454 199.908 153.668 200.429 150.016L189.54 148.461ZM187.959 159.92L177.056 158.466C176.556 162.212 175.929 166.104 175.172 170.143L185.984 172.17L196.795 174.197C197.618 169.806 198.309 165.531 198.863 161.374L187.959 159.92ZM185.984 172.17L175.197 170.013C174.352 174.24 173.651 178.589 173.093 183.055L184.008 184.419L194.923 185.784C195.418 181.82 196.035 178.002 196.77 174.327L185.984 172.17ZM184.008 184.419L173.098 183.012C172.054 191.104 170.482 202.506 168.377 217.242L179.266 218.797L190.155 220.353C192.265 205.584 193.854 194.067 194.917 185.827L184.008 184.419ZM179.266 218.797L168.381 217.214C166.287 231.605 163.798 247.326 160.912 264.38L171.758 266.216L182.604 268.051C185.513 250.859 188.03 234.968 190.151 220.381L179.266 218.797ZM171.758 266.216V277.216H176.895V266.216V255.216H171.758V266.216ZM176.895 266.216L187.172 270.137C194.813 250.114 201.137 233.512 206.145 220.334L195.862 216.427L185.58 212.519C180.577 225.684 174.256 242.276 166.618 262.294L176.895 266.216ZM195.862 216.427L206.17 220.267C211.174 206.835 215.254 195.911 218.412 187.491L208.112 183.629L197.812 179.767C194.647 188.207 190.561 199.148 185.554 212.586L195.862 216.427ZM208.112 183.629L218.456 187.371C222.873 175.16 227.682 162.81 232.886 150.321L222.733 146.09L212.579 141.859C207.245 154.659 202.308 167.335 197.768 179.888L208.112 183.629ZM222.733 146.09L232.886 150.321C238.121 137.758 242.354 128.282 245.611 121.768L235.772 116.849L225.934 111.929C222.341 119.114 217.882 129.132 212.579 141.859L222.733 146.09ZM235.772 116.849L236.686 127.811C243.186 127.269 250.837 126.462 259.62 125.398L258.296 114.478L256.972 103.558C248.368 104.601 241.004 105.375 234.859 105.887L235.772 116.849ZM258.296 114.478L259.896 125.361C268.958 124.028 278.018 122.563 287.078 120.964L285.166 110.131L283.255 99.2986C274.401 100.861 265.548 102.293 256.696 103.595L258.296 114.478ZM285.166 110.131L287.025 120.973C296.219 119.397 304.08 118.087 310.613 117.042L308.875 106.18L307.137 95.3178C300.499 96.38 292.553 97.7044 283.308 99.2893L285.166 110.131ZM308.875 106.18L298.025 104.371C294.321 126.597 290.881 149.085 287.707 171.835L298.601 173.355L309.496 174.875C312.644 152.314 316.054 130.019 319.726 107.988L308.875 106.18ZM298.601 173.355L287.692 171.943C284.789 194.381 282.148 215.901 279.771 236.504L290.698 237.765L301.626 239.026C303.99 218.532 306.619 197.113 309.51 174.767L298.601 173.355ZM290.698 237.765L279.757 236.628C277.648 256.932 275.801 275.267 274.217 291.631L285.166 292.691L296.115 293.75C297.693 277.448 299.534 259.166 301.639 238.901L290.698 237.765ZM285.166 292.691L274.217 291.631C272.632 308.017 271.178 324.271 269.856 340.395L280.82 341.294L291.783 342.193C293.096 326.178 294.54 310.03 296.115 293.75L285.166 292.691ZM280.82 341.294L269.858 340.381C268.541 356.182 267.224 371.851 265.907 387.388L276.868 388.317L287.829 389.246C289.146 373.698 290.464 358.019 291.782 342.208L280.82 341.294ZM276.868 388.317L274.939 377.487L206.183 389.737L208.112 400.567L210.041 411.396L278.798 399.146L276.868 388.317ZM208.112 400.567H219.112C219.112 400.785 219.164 399.756 219.384 396.458C219.58 393.511 219.876 389.211 220.271 383.55L209.297 382.785L198.324 382.019C197.563 392.925 197.112 399.531 197.112 400.567H208.112ZM209.297 382.785L220.271 383.55C221.047 372.418 222.349 358.479 224.184 341.7L213.249 340.504L202.314 339.308C200.461 356.248 199.128 370.497 198.324 382.019L209.297 382.785ZM213.249 340.504L224.184 341.7C226.023 324.883 227.862 308.993 229.699 294.031L218.781 292.691L207.863 291.35C206.012 306.419 204.163 322.405 202.314 339.308L213.249 340.504ZM218.781 292.691L229.702 294.009C231.531 278.856 233.341 266.609 235.121 257.196L224.313 255.151L213.505 253.106C211.598 263.187 209.72 275.967 207.86 291.373L218.781 292.691ZM224.313 255.151V244.151H220.757V255.151V266.151H224.313V255.151ZM220.757 255.151L210.308 251.714C203.807 271.477 195.855 293.123 186.439 316.661L196.653 320.746L206.866 324.832C216.418 300.952 224.535 278.868 231.206 258.589L220.757 255.151ZM196.653 320.746L186.401 316.759C177.075 340.74 167.905 367.193 158.886 396.106L169.387 399.381L179.888 402.657C188.783 374.14 197.79 348.17 206.905 324.733L196.653 320.746ZM169.387 399.381L169.073 388.386C159.732 388.652 151.631 389.055 144.801 389.602L145.678 400.567L146.555 411.532C152.897 411.024 160.602 410.637 169.701 410.377L169.387 399.381ZM145.678 400.567L145.239 389.575C138.558 389.843 130.84 390.242 122.094 390.772L122.76 401.752L123.425 412.732C132.065 412.208 139.627 411.817 146.118 411.558L145.678 400.567ZM122.76 401.752L133.719 402.697L146.364 256.097L135.404 255.151L124.445 254.206L111.8 400.807L122.76 401.752ZM135.404 255.151V244.151H129.477V255.151V266.151H135.404V255.151ZM129.477 255.151L118.522 254.155C118.349 256.066 117.391 260.908 115.249 269.475L125.921 272.143L136.592 274.811C138.666 266.518 140.079 260.032 140.432 256.147L129.477 255.151ZM125.921 272.143L115.27 269.394C113.173 277.518 110.68 286.966 107.789 297.743L118.413 300.594L129.037 303.444C131.941 292.619 134.453 283.101 136.572 274.891L125.921 272.143ZM118.413 300.594L107.807 297.677C104.931 308.132 101.925 318.588 98.7884 329.045L109.324 332.206L119.861 335.366C123.046 324.749 126.099 314.13 129.019 303.51L118.413 300.594ZM109.324 332.206L98.7502 329.175C92.8237 349.852 88.2822 365.648 85.1247 376.568C83.5455 382.029 82.3153 386.261 81.4324 389.27C80.9905 390.775 80.6394 391.962 80.3768 392.837C80.2454 393.275 80.1398 393.623 80.0582 393.888C80.0176 394.019 79.9852 394.123 79.9603 394.202C79.948 394.241 79.9385 394.27 79.9314 394.292C79.9243 394.314 79.9212 394.324 79.9217 394.322L90.3572 397.801L100.793 401.279C101.681 398.613 108.112 376.359 119.899 335.236L109.324 332.206ZM90.3572 397.801L89.6255 386.825L24.4257 391.172L25.1575 402.147L25.8892 413.123L91.0889 408.776L90.3572 397.801ZM286.407 405.308L275.512 403.791L273.09 421.192L289.801 415.772L286.407 405.308ZM295.496 342.479L284.638 340.715L284.627 340.781L284.617 340.848L295.496 342.479ZM305.77 281.626L294.956 279.608L294.946 279.665L294.936 279.723L305.77 281.626ZM316.044 228.281L326.83 230.438L326.83 230.438L316.044 228.281ZM326.317 176.121L337.116 178.217L337.116 178.217L326.317 176.121ZM336.986 122.776L335.553 111.87L327.791 112.89L326.212 120.558L336.986 122.776ZM406.138 113.688L416.858 116.154L420.41 100.717L404.704 102.781L406.138 113.688ZM385.59 202.991L396.293 205.531L396.301 205.495L396.31 205.458L385.59 202.991ZM374.131 253.176L363.389 250.806L363.376 250.866L363.363 250.926L374.131 253.176ZM363.857 304.545L353.051 302.487L353.051 302.487L363.857 304.545ZM356.349 348.802L345.459 347.246L343.514 360.864L357.226 359.767L356.349 348.802ZM377.292 348.012V359.012H377.481L377.671 359.005L377.292 348.012ZM397.444 347.616L408.434 347.139L407.977 336.616H397.444V347.616ZM399.025 366.979L388.098 368.24L388.1 368.265L388.103 368.289L399.025 366.979ZM401.396 384.365L390.531 386.081L390.584 386.418L390.658 386.752L401.396 384.365ZM402.977 392.268V403.268H413.977V392.268H402.977ZM397.049 391.873L399.717 381.202L398.403 380.873H397.049V391.873ZM356.349 393.454L357.05 404.432L357.156 404.425L357.262 404.416L356.349 393.454ZM319.205 397.801L320.86 408.675L320.955 408.661L321.051 408.645L319.205 397.801ZM286.407 405.308L297.302 406.825C300.195 386.053 303.218 365.148 306.374 344.111L295.496 342.479L284.617 340.848C281.451 361.96 278.416 382.941 275.512 403.791L286.407 405.308ZM295.496 342.479L306.353 344.244C309.771 323.212 313.188 302.974 316.604 283.53L305.77 281.626L294.936 279.723C291.502 299.267 288.07 319.598 284.638 340.715L295.496 342.479ZM305.77 281.626L316.583 283.645C320.264 263.923 323.68 246.189 326.83 230.438L316.044 228.281L305.257 226.124C302.085 241.986 298.651 259.815 294.956 279.608L305.77 281.626ZM316.044 228.281L326.83 230.438C330.259 213.294 333.688 195.887 337.116 178.217L326.317 176.121L315.519 174.026C312.098 191.656 308.678 209.022 305.257 226.124L316.044 228.281ZM326.317 176.121L337.116 178.217C340.533 160.608 344.081 142.867 347.761 124.994L336.986 122.776L326.212 120.558C322.516 138.512 318.952 156.334 315.519 174.026L326.317 176.121ZM336.986 122.776L338.42 133.682L407.571 124.594L406.138 113.688L404.704 102.781L335.553 111.87L336.986 122.776ZM406.138 113.688L395.418 111.221L374.87 200.525L385.59 202.991L396.31 205.458L416.858 116.154L406.138 113.688ZM385.59 202.991L374.887 200.452C371.184 216.059 367.351 232.844 363.389 250.806L374.131 253.176L384.872 255.545C388.813 237.68 392.62 221.01 396.293 205.531L385.59 202.991ZM374.131 253.176L363.363 250.926C359.663 268.635 356.225 285.822 353.051 302.487L363.857 304.545L374.662 306.603C377.811 290.075 381.222 273.016 384.898 255.425L374.131 253.176ZM363.857 304.545L353.051 302.487C349.867 319.204 347.333 334.129 345.459 347.246L356.349 348.802L367.238 350.358C369.053 337.658 371.524 323.079 374.662 306.603L363.857 304.545ZM356.349 348.802L357.226 359.767C363.489 359.266 370.175 359.012 377.292 359.012V348.012V337.012C369.656 337.012 362.381 337.284 355.472 337.837L356.349 348.802ZM377.292 348.012L377.671 359.005C385.221 358.745 391.808 358.616 397.444 358.616V347.616V336.616C391.49 336.616 384.641 336.752 376.913 337.018L377.292 348.012ZM397.444 347.616L386.455 348.094C386.731 354.447 387.281 361.165 388.098 368.24L399.025 366.979L409.953 365.718C409.188 359.094 408.685 352.903 408.434 347.139L397.444 347.616ZM399.025 366.979L388.103 368.289C388.905 374.972 389.714 380.907 390.531 386.081L401.396 384.365L412.261 382.65C411.498 377.813 410.725 372.157 409.947 365.668L399.025 366.979ZM401.396 384.365L390.658 386.752C391.179 389.097 391.554 390.852 391.795 392.055C391.917 392.663 391.99 393.06 392.027 393.287C392.047 393.402 392.046 393.407 392.037 393.336C392.032 393.299 392.02 393.2 392.008 393.058C391.998 392.939 391.977 392.651 391.977 392.268H402.977H413.977C413.977 391.071 413.767 389.903 413.728 389.67C413.634 389.106 413.51 388.449 413.368 387.74C413.082 386.309 412.667 384.376 412.134 381.979L401.396 384.365ZM402.977 392.268V381.268C402.975 381.268 402.972 381.268 402.97 381.268C402.968 381.268 402.966 381.268 402.964 381.268C402.962 381.268 402.96 381.268 402.958 381.268C402.956 381.268 402.954 381.268 402.952 381.268C402.95 381.268 402.948 381.268 402.946 381.268C402.944 381.268 402.942 381.268 402.94 381.268C402.937 381.268 402.935 381.268 402.933 381.268C402.931 381.268 402.929 381.268 402.927 381.268C402.925 381.268 402.923 381.268 402.921 381.268C402.919 381.268 402.917 381.268 402.915 381.268C402.913 381.268 402.911 381.268 402.909 381.268C402.907 381.268 402.905 381.268 402.902 381.268C402.9 381.268 402.898 381.268 402.896 381.268C402.894 381.268 402.892 381.268 402.89 381.268C402.888 381.268 402.886 381.268 402.884 381.268C402.882 381.268 402.88 381.268 402.878 381.268C402.876 381.268 402.874 381.268 402.872 381.268C402.87 381.268 402.867 381.268 402.865 381.268C402.863 381.268 402.861 381.268 402.859 381.268C402.857 381.268 402.855 381.268 402.853 381.268C402.851 381.268 402.849 381.268 402.847 381.268C402.845 381.268 402.843 381.268 402.841 381.268C402.839 381.268 402.837 381.268 402.835 381.268C402.833 381.268 402.83 381.268 402.828 381.268C402.826 381.268 402.824 381.268 402.822 381.268C402.82 381.268 402.818 381.268 402.816 381.268C402.814 381.268 402.812 381.268 402.81 381.268C402.808 381.268 402.806 381.268 402.804 381.268C402.802 381.268 402.8 381.268 402.798 381.268C402.795 381.268 402.793 381.268 402.791 381.268C402.789 381.268 402.787 381.268 402.785 381.268C402.783 381.268 402.781 381.268 402.779 381.268C402.777 381.268 402.775 381.268 402.773 381.268C402.771 381.268 402.769 381.268 402.767 381.268C402.765 381.268 402.763 381.268 402.76 381.268C402.758 381.268 402.756 381.268 402.754 381.268C402.752 381.268 402.75 381.268 402.748 381.268C402.746 381.268 402.744 381.268 402.742 381.268C402.74 381.268 402.738 381.268 402.736 381.268C402.734 381.268 402.732 381.268 402.73 381.268C402.728 381.268 402.725 381.268 402.723 381.268C402.721 381.268 402.719 381.268 402.717 381.268C402.715 381.268 402.713 381.268 402.711 381.268C402.709 381.268 402.707 381.268 402.705 381.268C402.703 381.268 402.701 381.268 402.699 381.268C402.697 381.268 402.695 381.268 402.693 381.268C402.69 381.268 402.688 381.268 402.686 381.268C402.684 381.268 402.682 381.268 402.68 381.268C402.678 381.268 402.676 381.268 402.674 381.268C402.672 381.268 402.67 381.268 402.668 381.268C402.666 381.268 402.664 381.268 402.662 381.268C402.66 381.268 402.658 381.268 402.656 381.268C402.653 381.268 402.651 381.268 402.649 381.268C402.647 381.268 402.645 381.268 402.643 381.268C402.641 381.268 402.639 381.268 402.637 381.268C402.635 381.268 402.633 381.268 402.631 381.268C402.629 381.268 402.627 381.268 402.625 381.268C402.623 381.268 402.621 381.268 402.618 381.268C402.616 381.268 402.614 381.268 402.612 381.268C402.61 381.268 402.608 381.268 402.606 381.268C402.604 381.268 402.602 381.268 402.6 381.268C402.598 381.268 402.596 381.268 402.594 381.268C402.592 381.268 402.59 381.268 402.588 381.268C402.586 381.268 402.583 381.268 402.581 381.268C402.579 381.268 402.577 381.268 402.575 381.268C402.573 381.268 402.571 381.268 402.569 381.268C402.567 381.268 402.565 381.268 402.563 381.268C402.561 381.268 402.559 381.268 402.557 381.268C402.555 381.268 402.553 381.268 402.551 381.268C402.548 381.268 402.546 381.268 402.544 381.268C402.542 381.268 402.54 381.268 402.538 381.268C402.536 381.268 402.534 381.268 402.532 381.268C402.53 381.268 402.528 381.268 402.526 381.268C402.524 381.268 402.522 381.268 402.52 381.268C402.518 381.268 402.516 381.268 402.513 381.268C402.511 381.268 402.509 381.268 402.507 381.268C402.505 381.268 402.503 381.268 402.501 381.268C402.499 381.268 402.497 381.268 402.495 381.268C402.493 381.268 402.491 381.268 402.489 381.268C402.487 381.268 402.485 381.268 402.483 381.268C402.481 381.268 402.479 381.268 402.476 381.268C402.474 381.268 402.472 381.268 402.47 381.268C402.468 381.268 402.466 381.268 402.464 381.268C402.462 381.268 402.46 381.268 402.458 381.268C402.456 381.268 402.454 381.268 402.452 381.268C402.45 381.268 402.448 381.268 402.446 381.268C402.444 381.268 402.441 381.268 402.439 381.268C402.437 381.268 402.435 381.268 402.433 381.268C402.431 381.268 402.429 381.268 402.427 381.268C402.425 381.268 402.423 381.268 402.421 381.268C402.419 381.268 402.417 381.268 402.415 381.268C402.413 381.268 402.411 381.268 402.409 381.268C402.406 381.268 402.404 381.268 402.402 381.268C402.4 381.268 402.398 381.268 402.396 381.268C402.394 381.268 402.392 381.268 402.39 381.268C402.388 381.268 402.386 381.268 402.384 381.268C402.382 381.268 402.38 381.268 402.378 381.268C402.376 381.268 402.374 381.268 402.371 381.268C402.369 381.268 402.367 381.268 402.365 381.268C402.363 381.268 402.361 381.268 402.359 381.268C402.357 381.268 402.355 381.268 402.353 381.268C402.351 381.268 402.349 381.268 402.347 381.268C402.345 381.268 402.343 381.268 402.341 381.268C402.339 381.268 402.337 381.268 402.334 381.268C402.332 381.268 402.33 381.268 402.328 381.268C402.326 381.268 402.324 381.268 402.322 381.268C402.32 381.268 402.318 381.268 402.316 381.268C402.314 381.268 402.312 381.268 402.31 381.268C402.308 381.268 402.306 381.268 402.304 381.268C402.302 381.268 402.299 381.268 402.297 381.268C402.295 381.268 402.293 381.268 402.291 381.268C402.289 381.268 402.287 381.268 402.285 381.268C402.283 381.268 402.281 381.268 402.279 381.268C402.277 381.268 402.275 381.268 402.273 381.268C402.271 381.268 402.269 381.268 402.267 381.268C402.264 381.268 402.262 381.268 402.26 381.268C402.258 381.268 402.256 381.268 402.254 381.268C402.252 381.268 402.25 381.268 402.248 381.268C402.246 381.268 402.244 381.268 402.242 381.268C402.24 381.268 402.238 381.268 402.236 381.268C402.234 381.268 402.232 381.268 402.229 381.268C402.227 381.268 402.225 381.268 402.223 381.268C402.221 381.268 402.219 381.268 402.217 381.268C402.215 381.268 402.213 381.268 402.211 381.268C402.209 381.268 402.207 381.268 402.205 381.268C402.203 381.268 402.201 381.268 402.199 381.268C402.197 381.268 402.194 381.268 402.192 381.268C402.19 381.268 402.188 381.268 402.186 381.268C402.184 381.268 402.182 381.268 402.18 381.268C402.178 381.268 402.176 381.268 402.174 381.268C402.172 381.268 402.17 381.268 402.168 381.268C402.166 381.268 402.164 381.268 402.162 381.268C402.16 381.268 402.157 381.268 402.155 381.268C402.153 381.268 402.151 381.268 402.149 381.268C402.147 381.268 402.145 381.268 402.143 381.268C402.141 381.268 402.139 381.268 402.137 381.268C402.135 381.268 402.133 381.268 402.131 381.268C402.129 381.268 402.127 381.268 402.125 381.268C402.122 381.268 402.12 381.268 402.118 381.268C402.116 381.268 402.114 381.268 402.112 381.268C402.11 381.268 402.108 381.268 402.106 381.268C402.104 381.268 402.102 381.268 402.1 381.268C402.098 381.268 402.096 381.268 402.094 381.268C402.092 381.268 402.09 381.268 402.087 381.268C402.085 381.268 402.083 381.268 402.081 381.268C402.079 381.268 402.077 381.268 402.075 381.268C402.073 381.268 402.071 381.268 402.069 381.268C402.067 381.268 402.065 381.268 402.063 381.268C402.061 381.268 402.059 381.268 402.057 381.268C402.055 381.268 402.052 381.268 402.05 381.268C402.048 381.268 402.046 381.268 402.044 381.268C402.042 381.268 402.04 381.268 402.038 381.268C402.036 381.268 402.034 381.268 402.032 381.268C402.03 381.268 402.028 381.268 402.026 381.268C402.024 381.268 402.022 381.268 402.02 381.268C402.018 381.268 402.015 381.268 402.013 381.268C402.011 381.268 402.009 381.268 402.007 381.268C402.005 381.268 402.003 381.268 402.001 381.268C401.999 381.268 401.997 381.268 401.995 381.268C401.993 381.268 401.991 381.268 401.989 381.268C401.987 381.268 401.985 381.268 401.983 381.268C401.98 381.268 401.978 381.268 401.976 381.268C401.974 381.268 401.972 381.268 401.97 381.268C401.968 381.268 401.966 381.268 401.964 381.268C401.962 381.268 401.96 381.268 401.958 381.268C401.956 381.268 401.954 381.268 401.952 381.268C401.95 381.268 401.948 381.268 401.945 381.268C401.943 381.268 401.941 381.268 401.939 381.268C401.937 381.268 401.935 381.268 401.933 381.268C401.931 381.268 401.929 381.268 401.927 381.268C401.925 381.268 401.923 381.268 401.921 381.268C401.919 381.268 401.917 381.268 401.915 381.268C401.913 381.268 401.91 381.268 401.908 381.268C401.906 381.268 401.904 381.268 401.902 381.268C401.9 381.268 401.898 381.268 401.896 381.268C401.894 381.268 401.892 381.268 401.89 381.268C401.888 381.268 401.886 381.268 401.884 381.268C401.882 381.268 401.88 381.268 401.878 381.268C401.875 381.268 401.873 381.268 401.871 381.268C401.869 381.268 401.867 381.268 401.865 381.268C401.863 381.268 401.861 381.268 401.859 381.268C401.857 381.268 401.855 381.268 401.853 381.268C401.851 381.268 401.849 381.268 401.847 381.268C401.845 381.268 401.843 381.268 401.841 381.268C401.838 381.268 401.836 381.268 401.834 381.268C401.832 381.268 401.83 381.268 401.828 381.268C401.826 381.268 401.824 381.268 401.822 381.268C401.82 381.268 401.818 381.268 401.816 381.268C401.814 381.268 401.812 381.268 401.81 381.268C401.808 381.268 401.806 381.268 401.803 381.268C401.801 381.268 401.799 381.268 401.797 381.268C401.795 381.268 401.793 381.268 401.791 381.268C401.789 381.268 401.787 381.268 401.785 381.268C401.783 381.268 401.781 381.268 401.779 381.268C401.777 381.268 401.775 381.268 401.773 381.268C401.771 381.268 401.768 381.268 401.766 381.268C401.764 381.268 401.762 381.268 401.76 381.268C401.758 381.268 401.756 381.268 401.754 381.268C401.752 381.268 401.75 381.268 401.748 381.268C401.746 381.268 401.744 381.268 401.742 381.268C401.74 381.268 401.738 381.268 401.736 381.268C401.733 381.268 401.731 381.268 401.729 381.268C401.727 381.268 401.725 381.268 401.723 381.268C401.721 381.268 401.719 381.268 401.717 381.268C401.715 381.268 401.713 381.268 401.711 381.268C401.709 381.268 401.707 381.268 401.705 381.268C401.703 381.268 401.701 381.268 401.699 381.268C401.696 381.268 401.694 381.268 401.692 381.268C401.69 381.268 401.688 381.268 401.686 381.268C401.684 381.268 401.682 381.268 401.68 381.268C401.678 381.268 401.676 381.268 401.674 381.268C401.672 381.268 401.67 381.268 401.668 381.268C401.666 381.268 401.664 381.268 401.661 381.268C401.659 381.268 401.657 381.268 401.655 381.268C401.653 381.268 401.651 381.268 401.649 381.268C401.647 381.268 401.645 381.268 401.643 381.268C401.641 381.268 401.639 381.268 401.637 381.268C401.635 381.268 401.633 381.268 401.631 381.268C401.629 381.268 401.626 381.268 401.624 381.268C401.622 381.268 401.62 381.268 401.618 381.268C401.616 381.268 401.614 381.268 401.612 381.268C401.61 381.268 401.608 381.268 401.606 381.268C401.604 381.268 401.602 381.268 401.6 381.268C401.598 381.268 401.596 381.268 401.594 381.268C401.591 381.268 401.589 381.268 401.587 381.268C401.585 381.268 401.583 381.268 401.581 381.268C401.579 381.268 401.577 381.268 401.575 381.268C401.573 381.268 401.571 381.268 401.569 381.268C401.567 381.268 401.565 381.268 401.563 381.268C401.561 381.268 401.559 381.268 401.556 381.268C401.554 381.268 401.552 381.268 401.55 381.268C401.548 381.268 401.546 381.268 401.544 381.268C401.542 381.268 401.54 381.268 401.538 381.268C401.536 381.268 401.534 381.268 401.532 381.268C401.53 381.268 401.528 381.268 401.526 381.268C401.524 381.268 401.522 381.268 401.519 381.268C401.517 381.268 401.515 381.268 401.513 381.268C401.511 381.268 401.509 381.268 401.507 381.268C401.505 381.268 401.503 381.268 401.501 381.268C401.499 381.268 401.497 381.268 401.495 381.268C401.493 381.268 401.491 381.268 401.489 381.268C401.487 381.268 401.484 381.268 401.482 381.268C401.48 381.268 401.478 381.268 401.476 381.268C401.474 381.268 401.472 381.268 401.47 381.268C401.468 381.268 401.466 381.268 401.464 381.268C401.462 381.268 401.46 381.268 401.458 381.268C401.456 381.268 401.454 381.268 401.452 381.268C401.449 381.268 401.447 381.268 401.445 381.268C401.443 381.268 401.441 381.268 401.439 381.268C401.437 381.268 401.435 381.268 401.433 381.268C401.431 381.268 401.429 381.268 401.427 381.268C401.425 381.268 401.423 381.268 401.421 381.268C401.419 381.268 401.417 381.268 401.414 381.268C401.412 381.268 401.41 381.268 401.408 381.268C401.406 381.268 401.404 381.268 401.402 381.268C401.4 381.268 401.398 381.268 401.396 381.268C401.394 381.268 401.392 381.268 401.39 381.268C401.388 381.268 401.386 381.268 401.384 381.268C401.382 381.268 401.38 381.268 401.377 381.268C401.375 381.268 401.373 381.268 401.371 381.268C401.369 381.268 401.367 381.268 401.365 381.268C401.363 381.268 401.361 381.268 401.359 381.268C401.357 381.268 401.355 381.268 401.353 381.268C401.351 381.268 401.349 381.268 401.347 381.268C401.345 381.268 401.342 381.268 401.34 381.268C401.338 381.268 401.336 381.268 401.334 381.268C401.332 381.268 401.33 381.268 401.328 381.268C401.326 381.268 401.324 381.268 401.322 381.268C401.32 381.268 401.318 381.268 401.316 381.268C401.314 381.268 401.312 381.268 401.31 381.268C401.307 381.268 401.305 381.268 401.303 381.268C401.301 381.268 401.299 381.268 401.297 381.268C401.295 381.268 401.293 381.268 401.291 381.268C401.289 381.268 401.287 381.268 401.285 381.268C401.283 381.268 401.281 381.268 401.279 381.268C401.277 381.268 401.275 381.268 401.272 381.268C401.27 381.268 401.268 381.268 401.266 381.268C401.264 381.268 401.262 381.268 401.26 381.268C401.258 381.268 401.256 381.268 401.254 381.268C401.252 381.268 401.25 381.268 401.248 381.268C401.246 381.268 401.244 381.268 401.242 381.268C401.24 381.268 401.237 381.268 401.235 381.268C401.233 381.268 401.231 381.268 401.229 381.268C401.227 381.268 401.225 381.268 401.223 381.268C401.221 381.268 401.219 381.268 401.217 381.268C401.215 381.268 401.213 381.268 401.211 381.268C401.209 381.268 401.207 381.268 401.205 381.268C401.203 381.268 401.2 381.268 401.198 381.268C401.196 381.268 401.194 381.268 401.192 381.268C401.19 381.268 401.188 381.268 401.186 381.268C401.184 381.268 401.182 381.268 401.18 381.268C401.178 381.268 401.176 381.268 401.174 381.268C401.172 381.268 401.17 381.268 401.168 381.268C401.165 381.268 401.163 381.268 401.161 381.268C401.159 381.268 401.157 381.268 401.155 381.268C401.153 381.268 401.151 381.268 401.149 381.268C401.147 381.268 401.145 381.268 401.143 381.268C401.141 381.268 401.139 381.268 401.137 381.268C401.135 381.268 401.133 381.268 401.13 381.268C401.128 381.268 401.126 381.268 401.124 381.268C401.122 381.268 401.12 381.268 401.118 381.268C401.116 381.268 401.114 381.268 401.112 381.268C401.11 381.268 401.108 381.268 401.106 381.268C401.104 381.268 401.102 381.268 401.1 381.268C401.098 381.268 401.095 381.268 401.093 381.268C401.091 381.268 401.089 381.268 401.087 381.268C401.085 381.268 401.083 381.268 401.081 381.268C401.079 381.268 401.077 381.268 401.075 381.268C401.073 381.268 401.071 381.268 401.069 381.268C401.067 381.268 401.065 381.268 401.063 381.268C401.06 381.268 401.058 381.268 401.056 381.268C401.054 381.268 401.052 381.268 401.05 381.268C401.048 381.268 401.046 381.268 401.044 381.268C401.042 381.268 401.04 381.268 401.038 381.268C401.036 381.268 401.034 381.268 401.032 381.268C401.03 381.268 401.028 381.268 401.026 381.268C401.023 381.268 401.021 381.268 401.019 381.268C401.017 381.268 401.015 381.268 401.013 381.268C401.011 381.268 401.009 381.268 401.007 381.268C401.005 381.268 401.003 381.268 401.001 381.268C400.999 381.268 400.997 381.268 400.995 381.268C400.993 381.268 400.991 381.268 400.988 381.268C400.986 381.268 400.984 381.268 400.982 381.268C400.98 381.268 400.978 381.268 400.976 381.268C400.974 381.268 400.972 381.268 400.97 381.268C400.968 381.268 400.966 381.268 400.964 381.268C400.962 381.268 400.96 381.268 400.958 381.268C400.956 381.268 400.953 381.268 400.951 381.268C400.949 381.268 400.947 381.268 400.945 381.268C400.943 381.268 400.941 381.268 400.939 381.268C400.937 381.268 400.935 381.268 400.933 381.268C400.931 381.268 400.929 381.268 400.927 381.268C400.925 381.268 400.923 381.268 400.921 381.268C400.918 381.268 400.916 381.268 400.914 381.268C400.912 381.268 400.91 381.268 400.908 381.268C400.906 381.268 400.904 381.268 400.902 381.268C400.9 381.268 400.898 381.268 400.896 381.268C400.894 381.268 400.892 381.268 400.89 381.268C400.888 381.268 400.886 381.268 400.884 381.268C400.881 381.268 400.879 381.268 400.877 381.268C400.875 381.268 400.873 381.268 400.871 381.268C400.869 381.268 400.867 381.268 400.865 381.268C400.863 381.268 400.861 381.268 400.859 381.268C400.857 381.268 400.855 381.268 400.853 381.268C400.851 381.268 400.849 381.268 400.846 381.268C400.844 381.268 400.842 381.268 400.84 381.268C400.838 381.268 400.836 381.268 400.834 381.268C400.832 381.268 400.83 381.268 400.828 381.268C400.826 381.268 400.824 381.268 400.822 381.268C400.82 381.268 400.818 381.268 400.816 381.268C400.814 381.268 400.811 381.268 400.809 381.268C400.807 381.268 400.805 381.268 400.803 381.268C400.801 381.268 400.799 381.268 400.797 381.268C400.795 381.268 400.793 381.268 400.791 381.268C400.789 381.268 400.787 381.268 400.785 381.268C400.783 381.268 400.781 381.268 400.779 381.268C400.776 381.268 400.774 381.268 400.772 381.268C400.77 381.268 400.768 381.268 400.766 381.268C400.764 381.268 400.762 381.268 400.76 381.268C400.758 381.268 400.756 381.268 400.754 381.268C400.752 381.268 400.75 381.268 400.748 381.268C400.746 381.268 400.744 381.268 400.741 381.268C400.739 381.268 400.737 381.268 400.735 381.268C400.733 381.268 400.731 381.268 400.729 381.268C400.727 381.268 400.725 381.268 400.723 381.268C400.721 381.268 400.719 381.268 400.717 381.268C400.715 381.268 400.713 381.268 400.711 381.268C400.709 381.268 400.707 381.268 400.704 381.268C400.702 381.268 400.7 381.268 400.698 381.268C400.696 381.268 400.694 381.268 400.692 381.268C400.69 381.268 400.688 381.268 400.686 381.268C400.684 381.268 400.682 381.268 400.68 381.268C400.678 381.268 400.676 381.268 400.674 381.268C400.672 381.268 400.669 381.268 400.667 381.268C400.665 381.268 400.663 381.268 400.661 381.268C400.659 381.268 400.657 381.268 400.655 381.268C400.653 381.268 400.651 381.268 400.649 381.268C400.647 381.268 400.645 381.268 400.643 381.268C400.641 381.268 400.639 381.268 400.637 381.268C400.634 381.268 400.632 381.268 400.63 381.268C400.628 381.268 400.626 381.268 400.624 381.268C400.622 381.268 400.62 381.268 400.618 381.268C400.616 381.268 400.614 381.268 400.612 381.268C400.61 381.268 400.608 381.268 400.606 381.268C400.604 381.268 400.602 381.268 400.599 381.268C400.597 381.268 400.595 381.268 400.593 381.268C400.591 381.268 400.589 381.268 400.587 381.268C400.585 381.268 400.583 381.268 400.581 381.268C400.579 381.268 400.577 381.268 400.575 381.268C400.573 381.268 400.571 381.268 400.569 381.268C400.567 381.268 400.565 381.268 400.562 381.268C400.56 381.268 400.558 381.268 400.556 381.268C400.554 381.268 400.552 381.268 400.55 381.268C400.548 381.268 400.546 381.268 400.544 381.268C400.542 381.268 400.54 381.268 400.538 381.268C400.536 381.268 400.534 381.268 400.532 381.268C400.53 381.268 400.527 381.268 400.525 381.268C400.523 381.268 400.521 381.268 400.519 381.268C400.517 381.268 400.515 381.268 400.513 381.268C400.511 381.268 400.509 381.268 400.507 381.268C400.505 381.268 400.503 381.268 400.501 381.268C400.499 381.268 400.497 381.268 400.495 381.268C400.492 381.268 400.49 381.268 400.488 381.268C400.486 381.268 400.484 381.268 400.482 381.268C400.48 381.268 400.478 381.268 400.476 381.268C400.474 381.268 400.472 381.268 400.47 381.268C400.468 381.268 400.466 381.268 400.464 381.268C400.462 381.268 400.46 381.268 400.457 381.268C400.455 381.268 400.453 381.268 400.451 381.268C400.449 381.268 400.447 381.268 400.445 381.268C400.443 381.268 400.441 381.268 400.439 381.268C400.437 381.268 400.435 381.268 400.433 381.268C400.431 381.268 400.429 381.268 400.427 381.268C400.425 381.268 400.422 381.268 400.42 381.268C400.418 381.268 400.416 381.268 400.414 381.268C400.412 381.268 400.41 381.268 400.408 381.268C400.406 381.268 400.404 381.268 400.402 381.268C400.4 381.268 400.398 381.268 400.396 381.268C400.394 381.268 400.392 381.268 400.39 381.268C400.388 381.268 400.385 381.268 400.383 381.268C400.381 381.268 400.379 381.268 400.377 381.268C400.375 381.268 400.373 381.268 400.371 381.268C400.369 381.268 400.367 381.268 400.365 381.268C400.363 381.268 400.361 381.268 400.359 381.268C400.357 381.268 400.355 381.268 400.353 381.268C400.35 381.268 400.348 381.268 400.346 381.268C400.344 381.268 400.342 381.268 400.34 381.268C400.338 381.268 400.336 381.268 400.334 381.268C400.332 381.268 400.33 381.268 400.328 381.268C400.326 381.268 400.324 381.268 400.322 381.268C400.32 381.268 400.318 381.268 400.315 381.268C400.313 381.268 400.311 381.268 400.309 381.268C400.307 381.268 400.305 381.268 400.303 381.268C400.301 381.268 400.299 381.268 400.297 381.268C400.295 381.268 400.293 381.268 400.291 381.268C400.289 381.268 400.287 381.268 400.285 381.268C400.283 381.268 400.28 381.268 400.278 381.268C400.276 381.268 400.274 381.268 400.272 381.268C400.27 381.268 400.268 381.268 400.266 381.268C400.264 381.268 400.262 381.268 400.26 381.268C400.258 381.268 400.256 381.268 400.254 381.268C400.252 381.268 400.25 381.268 400.248 381.268C400.246 381.268 400.243 381.268 400.241 381.268C400.239 381.268 400.237 381.268 400.235 381.268C400.233 381.268 400.231 381.268 400.229 381.268C400.227 381.268 400.225 381.268 400.223 381.268C400.221 381.268 400.219 381.268 400.217 381.268C400.215 381.268 400.213 381.268 400.211 381.268C400.208 381.268 400.206 381.268 400.204 381.268C400.202 381.268 400.2 381.268 400.198 381.268C400.196 381.268 400.194 381.268 400.192 381.268C400.19 381.268 400.188 381.268 400.186 381.268C400.184 381.268 400.182 381.268 400.18 381.268C400.178 381.268 400.176 381.268 400.173 381.268C400.171 381.268 400.169 381.268 400.167 381.268C400.165 381.268 400.163 381.268 400.161 381.268C400.159 381.268 400.157 381.268 400.155 381.268C400.153 381.268 400.151 381.268 400.149 381.268C400.147 381.268 400.145 381.268 400.143 381.268C400.141 381.268 400.138 381.268 400.136 381.268C400.134 381.268 400.132 381.268 400.13 381.268C400.128 381.268 400.126 381.268 400.124 381.268C400.122 381.268 400.12 381.268 400.118 381.268C400.116 381.268 400.114 381.268 400.112 381.268C400.11 381.268 400.108 381.268 400.106 381.268C400.103 381.268 400.101 381.268 400.099 381.268C400.097 381.268 400.095 381.268 400.093 381.268C400.091 381.268 400.089 381.268 400.087 381.268C400.085 381.268 400.083 381.268 400.081 381.268C400.079 381.268 400.077 381.268 400.075 381.268C400.073 381.268 400.071 381.268 400.069 381.268C400.066 381.268 400.064 381.268 400.062 381.268C400.06 381.268 400.058 381.268 400.056 381.268C400.054 381.268 400.052 381.268 400.05 381.268C400.048 381.268 400.046 381.268 400.044 381.268C400.042 381.268 400.04 381.268 400.038 381.268C400.036 381.268 400.034 381.268 400.031 381.268C400.029 381.268 400.027 381.268 400.025 381.268C400.023 381.268 400.021 381.268 400.019 381.268C400.017 381.268 400.015 381.268 400.013 381.268C400.011 381.268 400.009 381.268 400.007 381.268C400.005 381.268 400.003 381.268 400.001 381.268C399.999 381.268 399.996 381.268 399.994 381.268C399.992 381.268 399.99 381.268 399.988 381.268C399.986 381.268 399.984 381.268 399.982 381.268C399.98 381.268 399.978 381.268 399.976 381.268C399.974 381.268 399.972 381.268 399.97 381.268C399.968 381.268 399.966 381.268 399.964 381.268C399.961 381.268 399.959 381.268 399.957 381.268C399.955 381.268 399.953 381.268 399.951 381.268C399.949 381.268 399.947 381.268 399.945 381.268C399.943 381.268 399.941 381.268 399.939 381.268C399.937 381.268 399.935 381.268 399.933 381.268C399.931 381.268 399.929 381.268 399.927 381.268C399.924 381.268 399.922 381.268 399.92 381.268C399.918 381.268 399.916 381.268 399.914 381.268C399.912 381.268 399.91 381.268 399.908 381.268C399.906 381.268 399.904 381.268 399.902 381.268C399.9 381.268 399.898 381.268 399.896 381.268C399.894 381.268 399.892 381.268 399.889 381.268C399.887 381.268 399.885 381.268 399.883 381.268C399.881 381.268 399.879 381.268 399.877 381.268C399.875 381.268 399.873 381.268 399.871 381.268C399.869 381.268 399.867 381.268 399.865 381.268C399.863 381.268 399.861 381.268 399.859 381.268C399.857 381.268 399.854 381.268 399.852 381.268C399.85 381.268 399.848 381.268 399.846 381.268C399.844 381.268 399.842 381.268 399.84 381.268C399.838 381.268 399.836 381.268 399.834 381.268C399.832 381.268 399.83 381.268 399.828 381.268C399.826 381.268 399.824 381.268 399.822 381.268C399.819 381.268 399.817 381.268 399.815 381.268V392.268V403.268C399.817 403.268 399.819 403.268 399.822 403.268C399.824 403.268 399.826 403.268 399.828 403.268C399.83 403.268 399.832 403.268 399.834 403.268C399.836 403.268 399.838 403.268 399.84 403.268C399.842 403.268 399.844 403.268 399.846 403.268C399.848 403.268 399.85 403.268 399.852 403.268C399.854 403.268 399.857 403.268 399.859 403.268C399.861 403.268 399.863 403.268 399.865 403.268C399.867 403.268 399.869 403.268 399.871 403.268C399.873 403.268 399.875 403.268 399.877 403.268C399.879 403.268 399.881 403.268 399.883 403.268C399.885 403.268 399.887 403.268 399.889 403.268C399.892 403.268 399.894 403.268 399.896 403.268C399.898 403.268 399.9 403.268 399.902 403.268C399.904 403.268 399.906 403.268 399.908 403.268C399.91 403.268 399.912 403.268 399.914 403.268C399.916 403.268 399.918 403.268 399.92 403.268C399.922 403.268 399.924 403.268 399.927 403.268C399.929 403.268 399.931 403.268 399.933 403.268C399.935 403.268 399.937 403.268 399.939 403.268C399.941 403.268 399.943 403.268 399.945 403.268C399.947 403.268 399.949 403.268 399.951 403.268C399.953 403.268 399.955 403.268 399.957 403.268C399.959 403.268 399.961 403.268 399.964 403.268C399.966 403.268 399.968 403.268 399.97 403.268C399.972 403.268 399.974 403.268 399.976 403.268C399.978 403.268 399.98 403.268 399.982 403.268C399.984 403.268 399.986 403.268 399.988 403.268C399.99 403.268 399.992 403.268 399.994 403.268C399.996 403.268 399.999 403.268 400.001 403.268C400.003 403.268 400.005 403.268 400.007 403.268C400.009 403.268 400.011 403.268 400.013 403.268C400.015 403.268 400.017 403.268 400.019 403.268C400.021 403.268 400.023 403.268 400.025 403.268C400.027 403.268 400.029 403.268 400.031 403.268C400.034 403.268 400.036 403.268 400.038 403.268C400.04 403.268 400.042 403.268 400.044 403.268C400.046 403.268 400.048 403.268 400.05 403.268C400.052 403.268 400.054 403.268 400.056 403.268C400.058 403.268 400.06 403.268 400.062 403.268C400.064 403.268 400.066 403.268 400.069 403.268C400.071 403.268 400.073 403.268 400.075 403.268C400.077 403.268 400.079 403.268 400.081 403.268C400.083 403.268 400.085 403.268 400.087 403.268C400.089 403.268 400.091 403.268 400.093 403.268C400.095 403.268 400.097 403.268 400.099 403.268C400.101 403.268 400.103 403.268 400.106 403.268C400.108 403.268 400.11 403.268 400.112 403.268C400.114 403.268 400.116 403.268 400.118 403.268C400.12 403.268 400.122 403.268 400.124 403.268C400.126 403.268 400.128 403.268 400.13 403.268C400.132 403.268 400.134 403.268 400.136 403.268C400.138 403.268 400.141 403.268 400.143 403.268C400.145 403.268 400.147 403.268 400.149 403.268C400.151 403.268 400.153 403.268 400.155 403.268C400.157 403.268 400.159 403.268 400.161 403.268C400.163 403.268 400.165 403.268 400.167 403.268C400.169 403.268 400.171 403.268 400.173 403.268C400.176 403.268 400.178 403.268 400.18 403.268C400.182 403.268 400.184 403.268 400.186 403.268C400.188 403.268 400.19 403.268 400.192 403.268C400.194 403.268 400.196 403.268 400.198 403.268C400.2 403.268 400.202 403.268 400.204 403.268C400.206 403.268 400.208 403.268 400.211 403.268C400.213 403.268 400.215 403.268 400.217 403.268C400.219 403.268 400.221 403.268 400.223 403.268C400.225 403.268 400.227 403.268 400.229 403.268C400.231 403.268 400.233 403.268 400.235 403.268C400.237 403.268 400.239 403.268 400.241 403.268C400.243 403.268 400.246 403.268 400.248 403.268C400.25 403.268 400.252 403.268 400.254 403.268C400.256 403.268 400.258 403.268 400.26 403.268C400.262 403.268 400.264 403.268 400.266 403.268C400.268 403.268 400.27 403.268 400.272 403.268C400.274 403.268 400.276 403.268 400.278 403.268C400.28 403.268 400.283 403.268 400.285 403.268C400.287 403.268 400.289 403.268 400.291 403.268C400.293 403.268 400.295 403.268 400.297 403.268C400.299 403.268 400.301 403.268 400.303 403.268C400.305 403.268 400.307 403.268 400.309 403.268C400.311 403.268 400.313 403.268 400.315 403.268C400.318 403.268 400.32 403.268 400.322 403.268C400.324 403.268 400.326 403.268 400.328 403.268C400.33 403.268 400.332 403.268 400.334 403.268C400.336 403.268 400.338 403.268 400.34 403.268C400.342 403.268 400.344 403.268 400.346 403.268C400.348 403.268 400.35 403.268 400.353 403.268C400.355 403.268 400.357 403.268 400.359 403.268C400.361 403.268 400.363 403.268 400.365 403.268C400.367 403.268 400.369 403.268 400.371 403.268C400.373 403.268 400.375 403.268 400.377 403.268C400.379 403.268 400.381 403.268 400.383 403.268C400.385 403.268 400.388 403.268 400.39 403.268C400.392 403.268 400.394 403.268 400.396 403.268C400.398 403.268 400.4 403.268 400.402 403.268C400.404 403.268 400.406 403.268 400.408 403.268C400.41 403.268 400.412 403.268 400.414 403.268C400.416 403.268 400.418 403.268 400.42 403.268C400.422 403.268 400.425 403.268 400.427 403.268C400.429 403.268 400.431 403.268 400.433 403.268C400.435 403.268 400.437 403.268 400.439 403.268C400.441 403.268 400.443 403.268 400.445 403.268C400.447 403.268 400.449 403.268 400.451 403.268C400.453 403.268 400.455 403.268 400.457 403.268C400.46 403.268 400.462 403.268 400.464 403.268C400.466 403.268 400.468 403.268 400.47 403.268C400.472 403.268 400.474 403.268 400.476 403.268C400.478 403.268 400.48 403.268 400.482 403.268C400.484 403.268 400.486 403.268 400.488 403.268C400.49 403.268 400.492 403.268 400.495 403.268C400.497 403.268 400.499 403.268 400.501 403.268C400.503 403.268 400.505 403.268 400.507 403.268C400.509 403.268 400.511 403.268 400.513 403.268C400.515 403.268 400.517 403.268 400.519 403.268C400.521 403.268 400.523 403.268 400.525 403.268C400.527 403.268 400.53 403.268 400.532 403.268C400.534 403.268 400.536 403.268 400.538 403.268C400.54 403.268 400.542 403.268 400.544 403.268C400.546 403.268 400.548 403.268 400.55 403.268C400.552 403.268 400.554 403.268 400.556 403.268C400.558 403.268 400.56 403.268 400.562 403.268C400.565 403.268 400.567 403.268 400.569 403.268C400.571 403.268 400.573 403.268 400.575 403.268C400.577 403.268 400.579 403.268 400.581 403.268C400.583 403.268 400.585 403.268 400.587 403.268C400.589 403.268 400.591 403.268 400.593 403.268C400.595 403.268 400.597 403.268 400.599 403.268C400.602 403.268 400.604 403.268 400.606 403.268C400.608 403.268 400.61 403.268 400.612 403.268C400.614 403.268 400.616 403.268 400.618 403.268C400.62 403.268 400.622 403.268 400.624 403.268C400.626 403.268 400.628 403.268 400.63 403.268C400.632 403.268 400.634 403.268 400.637 403.268C400.639 403.268 400.641 403.268 400.643 403.268C400.645 403.268 400.647 403.268 400.649 403.268C400.651 403.268 400.653 403.268 400.655 403.268C400.657 403.268 400.659 403.268 400.661 403.268C400.663 403.268 400.665 403.268 400.667 403.268C400.669 403.268 400.672 403.268 400.674 403.268C400.676 403.268 400.678 403.268 400.68 403.268C400.682 403.268 400.684 403.268 400.686 403.268C400.688 403.268 400.69 403.268 400.692 403.268C400.694 403.268 400.696 403.268 400.698 403.268C400.7 403.268 400.702 403.268 400.704 403.268C400.707 403.268 400.709 403.268 400.711 403.268C400.713 403.268 400.715 403.268 400.717 403.268C400.719 403.268 400.721 403.268 400.723 403.268C400.725 403.268 400.727 403.268 400.729 403.268C400.731 403.268 400.733 403.268 400.735 403.268C400.737 403.268 400.739 403.268 400.741 403.268C400.744 403.268 400.746 403.268 400.748 403.268C400.75 403.268 400.752 403.268 400.754 403.268C400.756 403.268 400.758 403.268 400.76 403.268C400.762 403.268 400.764 403.268 400.766 403.268C400.768 403.268 400.77 403.268 400.772 403.268C400.774 403.268 400.776 403.268 400.779 403.268C400.781 403.268 400.783 403.268 400.785 403.268C400.787 403.268 400.789 403.268 400.791 403.268C400.793 403.268 400.795 403.268 400.797 403.268C400.799 403.268 400.801 403.268 400.803 403.268C400.805 403.268 400.807 403.268 400.809 403.268C400.811 403.268 400.814 403.268 400.816 403.268C400.818 403.268 400.82 403.268 400.822 403.268C400.824 403.268 400.826 403.268 400.828 403.268C400.83 403.268 400.832 403.268 400.834 403.268C400.836 403.268 400.838 403.268 400.84 403.268C400.842 403.268 400.844 403.268 400.846 403.268C400.849 403.268 400.851 403.268 400.853 403.268C400.855 403.268 400.857 403.268 400.859 403.268C400.861 403.268 400.863 403.268 400.865 403.268C400.867 403.268 400.869 403.268 400.871 403.268C400.873 403.268 400.875 403.268 400.877 403.268C400.879 403.268 400.881 403.268 400.884 403.268C400.886 403.268 400.888 403.268 400.89 403.268C400.892 403.268 400.894 403.268 400.896 403.268C400.898 403.268 400.9 403.268 400.902 403.268C400.904 403.268 400.906 403.268 400.908 403.268C400.91 403.268 400.912 403.268 400.914 403.268C400.916 403.268 400.918 403.268 400.921 403.268C400.923 403.268 400.925 403.268 400.927 403.268C400.929 403.268 400.931 403.268 400.933 403.268C400.935 403.268 400.937 403.268 400.939 403.268C400.941 403.268 400.943 403.268 400.945 403.268C400.947 403.268 400.949 403.268 400.951 403.268C400.953 403.268 400.956 403.268 400.958 403.268C400.96 403.268 400.962 403.268 400.964 403.268C400.966 403.268 400.968 403.268 400.97 403.268C400.972 403.268 400.974 403.268 400.976 403.268C400.978 403.268 400.98 403.268 400.982 403.268C400.984 403.268 400.986 403.268 400.988 403.268C400.991 403.268 400.993 403.268 400.995 403.268C400.997 403.268 400.999 403.268 401.001 403.268C401.003 403.268 401.005 403.268 401.007 403.268C401.009 403.268 401.011 403.268 401.013 403.268C401.015 403.268 401.017 403.268 401.019 403.268C401.021 403.268 401.023 403.268 401.026 403.268C401.028 403.268 401.03 403.268 401.032 403.268C401.034 403.268 401.036 403.268 401.038 403.268C401.04 403.268 401.042 403.268 401.044 403.268C401.046 403.268 401.048 403.268 401.05 403.268C401.052 403.268 401.054 403.268 401.056 403.268C401.058 403.268 401.06 403.268 401.063 403.268C401.065 403.268 401.067 403.268 401.069 403.268C401.071 403.268 401.073 403.268 401.075 403.268C401.077 403.268 401.079 403.268 401.081 403.268C401.083 403.268 401.085 403.268 401.087 403.268C401.089 403.268 401.091 403.268 401.093 403.268C401.095 403.268 401.098 403.268 401.1 403.268C401.102 403.268 401.104 403.268 401.106 403.268C401.108 403.268 401.11 403.268 401.112 403.268C401.114 403.268 401.116 403.268 401.118 403.268C401.12 403.268 401.122 403.268 401.124 403.268C401.126 403.268 401.128 403.268 401.13 403.268C401.133 403.268 401.135 403.268 401.137 403.268C401.139 403.268 401.141 403.268 401.143 403.268C401.145 403.268 401.147 403.268 401.149 403.268C401.151 403.268 401.153 403.268 401.155 403.268C401.157 403.268 401.159 403.268 401.161 403.268C401.163 403.268 401.165 403.268 401.168 403.268C401.17 403.268 401.172 403.268 401.174 403.268C401.176 403.268 401.178 403.268 401.18 403.268C401.182 403.268 401.184 403.268 401.186 403.268C401.188 403.268 401.19 403.268 401.192 403.268C401.194 403.268 401.196 403.268 401.198 403.268C401.2 403.268 401.203 403.268 401.205 403.268C401.207 403.268 401.209 403.268 401.211 403.268C401.213 403.268 401.215 403.268 401.217 403.268C401.219 403.268 401.221 403.268 401.223 403.268C401.225 403.268 401.227 403.268 401.229 403.268C401.231 403.268 401.233 403.268 401.235 403.268C401.237 403.268 401.24 403.268 401.242 403.268C401.244 403.268 401.246 403.268 401.248 403.268C401.25 403.268 401.252 403.268 401.254 403.268C401.256 403.268 401.258 403.268 401.26 403.268C401.262 403.268 401.264 403.268 401.266 403.268C401.268 403.268 401.27 403.268 401.272 403.268C401.275 403.268 401.277 403.268 401.279 403.268C401.281 403.268 401.283 403.268 401.285 403.268C401.287 403.268 401.289 403.268 401.291 403.268C401.293 403.268 401.295 403.268 401.297 403.268C401.299 403.268 401.301 403.268 401.303 403.268C401.305 403.268 401.307 403.268 401.31 403.268C401.312 403.268 401.314 403.268 401.316 403.268C401.318 403.268 401.32 403.268 401.322 403.268C401.324 403.268 401.326 403.268 401.328 403.268C401.33 403.268 401.332 403.268 401.334 403.268C401.336 403.268 401.338 403.268 401.34 403.268C401.342 403.268 401.345 403.268 401.347 403.268C401.349 403.268 401.351 403.268 401.353 403.268C401.355 403.268 401.357 403.268 401.359 403.268C401.361 403.268 401.363 403.268 401.365 403.268C401.367 403.268 401.369 403.268 401.371 403.268C401.373 403.268 401.375 403.268 401.377 403.268C401.38 403.268 401.382 403.268 401.384 403.268C401.386 403.268 401.388 403.268 401.39 403.268C401.392 403.268 401.394 403.268 401.396 403.268C401.398 403.268 401.4 403.268 401.402 403.268C401.404 403.268 401.406 403.268 401.408 403.268C401.41 403.268 401.412 403.268 401.414 403.268C401.417 403.268 401.419 403.268 401.421 403.268C401.423 403.268 401.425 403.268 401.427 403.268C401.429 403.268 401.431 403.268 401.433 403.268C401.435 403.268 401.437 403.268 401.439 403.268C401.441 403.268 401.443 403.268 401.445 403.268C401.447 403.268 401.449 403.268 401.452 403.268C401.454 403.268 401.456 403.268 401.458 403.268C401.46 403.268 401.462 403.268 401.464 403.268C401.466 403.268 401.468 403.268 401.47 403.268C401.472 403.268 401.474 403.268 401.476 403.268C401.478 403.268 401.48 403.268 401.482 403.268C401.484 403.268 401.487 403.268 401.489 403.268C401.491 403.268 401.493 403.268 401.495 403.268C401.497 403.268 401.499 403.268 401.501 403.268C401.503 403.268 401.505 403.268 401.507 403.268C401.509 403.268 401.511 403.268 401.513 403.268C401.515 403.268 401.517 403.268 401.519 403.268C401.522 403.268 401.524 403.268 401.526 403.268C401.528 403.268 401.53 403.268 401.532 403.268C401.534 403.268 401.536 403.268 401.538 403.268C401.54 403.268 401.542 403.268 401.544 403.268C401.546 403.268 401.548 403.268 401.55 403.268C401.552 403.268 401.554 403.268 401.556 403.268C401.559 403.268 401.561 403.268 401.563 403.268C401.565 403.268 401.567 403.268 401.569 403.268C401.571 403.268 401.573 403.268 401.575 403.268C401.577 403.268 401.579 403.268 401.581 403.268C401.583 403.268 401.585 403.268 401.587 403.268C401.589 403.268 401.591 403.268 401.594 403.268C401.596 403.268 401.598 403.268 401.6 403.268C401.602 403.268 401.604 403.268 401.606 403.268C401.608 403.268 401.61 403.268 401.612 403.268C401.614 403.268 401.616 403.268 401.618 403.268C401.62 403.268 401.622 403.268 401.624 403.268C401.626 403.268 401.629 403.268 401.631 403.268C401.633 403.268 401.635 403.268 401.637 403.268C401.639 403.268 401.641 403.268 401.643 403.268C401.645 403.268 401.647 403.268 401.649 403.268C401.651 403.268 401.653 403.268 401.655 403.268C401.657 403.268 401.659 403.268 401.661 403.268C401.664 403.268 401.666 403.268 401.668 403.268C401.67 403.268 401.672 403.268 401.674 403.268C401.676 403.268 401.678 403.268 401.68 403.268C401.682 403.268 401.684 403.268 401.686 403.268C401.688 403.268 401.69 403.268 401.692 403.268C401.694 403.268 401.696 403.268 401.699 403.268C401.701 403.268 401.703 403.268 401.705 403.268C401.707 403.268 401.709 403.268 401.711 403.268C401.713 403.268 401.715 403.268 401.717 403.268C401.719 403.268 401.721 403.268 401.723 403.268C401.725 403.268 401.727 403.268 401.729 403.268C401.731 403.268 401.733 403.268 401.736 403.268C401.738 403.268 401.74 403.268 401.742 403.268C401.744 403.268 401.746 403.268 401.748 403.268C401.75 403.268 401.752 403.268 401.754 403.268C401.756 403.268 401.758 403.268 401.76 403.268C401.762 403.268 401.764 403.268 401.766 403.268C401.768 403.268 401.771 403.268 401.773 403.268C401.775 403.268 401.777 403.268 401.779 403.268C401.781 403.268 401.783 403.268 401.785 403.268C401.787 403.268 401.789 403.268 401.791 403.268C401.793 403.268 401.795 403.268 401.797 403.268C401.799 403.268 401.801 403.268 401.803 403.268C401.806 403.268 401.808 403.268 401.81 403.268C401.812 403.268 401.814 403.268 401.816 403.268C401.818 403.268 401.82 403.268 401.822 403.268C401.824 403.268 401.826 403.268 401.828 403.268C401.83 403.268 401.832 403.268 401.834 403.268C401.836 403.268 401.838 403.268 401.841 403.268C401.843 403.268 401.845 403.268 401.847 403.268C401.849 403.268 401.851 403.268 401.853 403.268C401.855 403.268 401.857 403.268 401.859 403.268C401.861 403.268 401.863 403.268 401.865 403.268C401.867 403.268 401.869 403.268 401.871 403.268C401.873 403.268 401.875 403.268 401.878 403.268C401.88 403.268 401.882 403.268 401.884 403.268C401.886 403.268 401.888 403.268 401.89 403.268C401.892 403.268 401.894 403.268 401.896 403.268C401.898 403.268 401.9 403.268 401.902 403.268C401.904 403.268 401.906 403.268 401.908 403.268C401.91 403.268 401.913 403.268 401.915 403.268C401.917 403.268 401.919 403.268 401.921 403.268C401.923 403.268 401.925 403.268 401.927 403.268C401.929 403.268 401.931 403.268 401.933 403.268C401.935 403.268 401.937 403.268 401.939 403.268C401.941 403.268 401.943 403.268 401.945 403.268C401.948 403.268 401.95 403.268 401.952 403.268C401.954 403.268 401.956 403.268 401.958 403.268C401.96 403.268 401.962 403.268 401.964 403.268C401.966 403.268 401.968 403.268 401.97 403.268C401.972 403.268 401.974 403.268 401.976 403.268C401.978 403.268 401.98 403.268 401.983 403.268C401.985 403.268 401.987 403.268 401.989 403.268C401.991 403.268 401.993 403.268 401.995 403.268C401.997 403.268 401.999 403.268 402.001 403.268C402.003 403.268 402.005 403.268 402.007 403.268C402.009 403.268 402.011 403.268 402.013 403.268C402.015 403.268 402.018 403.268 402.02 403.268C402.022 403.268 402.024 403.268 402.026 403.268C402.028 403.268 402.03 403.268 402.032 403.268C402.034 403.268 402.036 403.268 402.038 403.268C402.04 403.268 402.042 403.268 402.044 403.268C402.046 403.268 402.048 403.268 402.05 403.268C402.052 403.268 402.055 403.268 402.057 403.268C402.059 403.268 402.061 403.268 402.063 403.268C402.065 403.268 402.067 403.268 402.069 403.268C402.071 403.268 402.073 403.268 402.075 403.268C402.077 403.268 402.079 403.268 402.081 403.268C402.083 403.268 402.085 403.268 402.087 403.268C402.09 403.268 402.092 403.268 402.094 403.268C402.096 403.268 402.098 403.268 402.1 403.268C402.102 403.268 402.104 403.268 402.106 403.268C402.108 403.268 402.11 403.268 402.112 403.268C402.114 403.268 402.116 403.268 402.118 403.268C402.12 403.268 402.122 403.268 402.125 403.268C402.127 403.268 402.129 403.268 402.131 403.268C402.133 403.268 402.135 403.268 402.137 403.268C402.139 403.268 402.141 403.268 402.143 403.268C402.145 403.268 402.147 403.268 402.149 403.268C402.151 403.268 402.153 403.268 402.155 403.268C402.157 403.268 402.16 403.268 402.162 403.268C402.164 403.268 402.166 403.268 402.168 403.268C402.17 403.268 402.172 403.268 402.174 403.268C402.176 403.268 402.178 403.268 402.18 403.268C402.182 403.268 402.184 403.268 402.186 403.268C402.188 403.268 402.19 403.268 402.192 403.268C402.194 403.268 402.197 403.268 402.199 403.268C402.201 403.268 402.203 403.268 402.205 403.268C402.207 403.268 402.209 403.268 402.211 403.268C402.213 403.268 402.215 403.268 402.217 403.268C402.219 403.268 402.221 403.268 402.223 403.268C402.225 403.268 402.227 403.268 402.229 403.268C402.232 403.268 402.234 403.268 402.236 403.268C402.238 403.268 402.24 403.268 402.242 403.268C402.244 403.268 402.246 403.268 402.248 403.268C402.25 403.268 402.252 403.268 402.254 403.268C402.256 403.268 402.258 403.268 402.26 403.268C402.262 403.268 402.264 403.268 402.267 403.268C402.269 403.268 402.271 403.268 402.273 403.268C402.275 403.268 402.277 403.268 402.279 403.268C402.281 403.268 402.283 403.268 402.285 403.268C402.287 403.268 402.289 403.268 402.291 403.268C402.293 403.268 402.295 403.268 402.297 403.268C402.299 403.268 402.302 403.268 402.304 403.268C402.306 403.268 402.308 403.268 402.31 403.268C402.312 403.268 402.314 403.268 402.316 403.268C402.318 403.268 402.32 403.268 402.322 403.268C402.324 403.268 402.326 403.268 402.328 403.268C402.33 403.268 402.332 403.268 402.334 403.268C402.337 403.268 402.339 403.268 402.341 403.268C402.343 403.268 402.345 403.268 402.347 403.268C402.349 403.268 402.351 403.268 402.353 403.268C402.355 403.268 402.357 403.268 402.359 403.268C402.361 403.268 402.363 403.268 402.365 403.268C402.367 403.268 402.369 403.268 402.371 403.268C402.374 403.268 402.376 403.268 402.378 403.268C402.38 403.268 402.382 403.268 402.384 403.268C402.386 403.268 402.388 403.268 402.39 403.268C402.392 403.268 402.394 403.268 402.396 403.268C402.398 403.268 402.4 403.268 402.402 403.268C402.404 403.268 402.406 403.268 402.409 403.268C402.411 403.268 402.413 403.268 402.415 403.268C402.417 403.268 402.419 403.268 402.421 403.268C402.423 403.268 402.425 403.268 402.427 403.268C402.429 403.268 402.431 403.268 402.433 403.268C402.435 403.268 402.437 403.268 402.439 403.268C402.441 403.268 402.444 403.268 402.446 403.268C402.448 403.268 402.45 403.268 402.452 403.268C402.454 403.268 402.456 403.268 402.458 403.268C402.46 403.268 402.462 403.268 402.464 403.268C402.466 403.268 402.468 403.268 402.47 403.268C402.472 403.268 402.474 403.268 402.476 403.268C402.479 403.268 402.481 403.268 402.483 403.268C402.485 403.268 402.487 403.268 402.489 403.268C402.491 403.268 402.493 403.268 402.495 403.268C402.497 403.268 402.499 403.268 402.501 403.268C402.503 403.268 402.505 403.268 402.507 403.268C402.509 403.268 402.511 403.268 402.513 403.268C402.516 403.268 402.518 403.268 402.52 403.268C402.522 403.268 402.524 403.268 402.526 403.268C402.528 403.268 402.53 403.268 402.532 403.268C402.534 403.268 402.536 403.268 402.538 403.268C402.54 403.268 402.542 403.268 402.544 403.268C402.546 403.268 402.548 403.268 402.551 403.268C402.553 403.268 402.555 403.268 402.557 403.268C402.559 403.268 402.561 403.268 402.563 403.268C402.565 403.268 402.567 403.268 402.569 403.268C402.571 403.268 402.573 403.268 402.575 403.268C402.577 403.268 402.579 403.268 402.581 403.268C402.583 403.268 402.586 403.268 402.588 403.268C402.59 403.268 402.592 403.268 402.594 403.268C402.596 403.268 402.598 403.268 402.6 403.268C402.602 403.268 402.604 403.268 402.606 403.268C402.608 403.268 402.61 403.268 402.612 403.268C402.614 403.268 402.616 403.268 402.618 403.268C402.621 403.268 402.623 403.268 402.625 403.268C402.627 403.268 402.629 403.268 402.631 403.268C402.633 403.268 402.635 403.268 402.637 403.268C402.639 403.268 402.641 403.268 402.643 403.268C402.645 403.268 402.647 403.268 402.649 403.268C402.651 403.268 402.653 403.268 402.656 403.268C402.658 403.268 402.66 403.268 402.662 403.268C402.664 403.268 402.666 403.268 402.668 403.268C402.67 403.268 402.672 403.268 402.674 403.268C402.676 403.268 402.678 403.268 402.68 403.268C402.682 403.268 402.684 403.268 402.686 403.268C402.688 403.268 402.69 403.268 402.693 403.268C402.695 403.268 402.697 403.268 402.699 403.268C402.701 403.268 402.703 403.268 402.705 403.268C402.707 403.268 402.709 403.268 402.711 403.268C402.713 403.268 402.715 403.268 402.717 403.268C402.719 403.268 402.721 403.268 402.723 403.268C402.725 403.268 402.728 403.268 402.73 403.268C402.732 403.268 402.734 403.268 402.736 403.268C402.738 403.268 402.74 403.268 402.742 403.268C402.744 403.268 402.746 403.268 402.748 403.268C402.75 403.268 402.752 403.268 402.754 403.268C402.756 403.268 402.758 403.268 402.76 403.268C402.763 403.268 402.765 403.268 402.767 403.268C402.769 403.268 402.771 403.268 402.773 403.268C402.775 403.268 402.777 403.268 402.779 403.268C402.781 403.268 402.783 403.268 402.785 403.268C402.787 403.268 402.789 403.268 402.791 403.268C402.793 403.268 402.795 403.268 402.798 403.268C402.8 403.268 402.802 403.268 402.804 403.268C402.806 403.268 402.808 403.268 402.81 403.268C402.812 403.268 402.814 403.268 402.816 403.268C402.818 403.268 402.82 403.268 402.822 403.268C402.824 403.268 402.826 403.268 402.828 403.268C402.83 403.268 402.833 403.268 402.835 403.268C402.837 403.268 402.839 403.268 402.841 403.268C402.843 403.268 402.845 403.268 402.847 403.268C402.849 403.268 402.851 403.268 402.853 403.268C402.855 403.268 402.857 403.268 402.859 403.268C402.861 403.268 402.863 403.268 402.865 403.268C402.867 403.268 402.87 403.268 402.872 403.268C402.874 403.268 402.876 403.268 402.878 403.268C402.88 403.268 402.882 403.268 402.884 403.268C402.886 403.268 402.888 403.268 402.89 403.268C402.892 403.268 402.894 403.268 402.896 403.268C402.898 403.268 402.9 403.268 402.902 403.268C402.905 403.268 402.907 403.268 402.909 403.268C402.911 403.268 402.913 403.268 402.915 403.268C402.917 403.268 402.919 403.268 402.921 403.268C402.923 403.268 402.925 403.268 402.927 403.268C402.929 403.268 402.931 403.268 402.933 403.268C402.935 403.268 402.937 403.268 402.94 403.268C402.942 403.268 402.944 403.268 402.946 403.268C402.948 403.268 402.95 403.268 402.952 403.268C402.954 403.268 402.956 403.268 402.958 403.268C402.96 403.268 402.962 403.268 402.964 403.268C402.966 403.268 402.968 403.268 402.97 403.268C402.972 403.268 402.975 403.268 402.977 403.268V392.268ZM399.815 392.268V381.268C399.922 381.268 399.999 381.273 400.042 381.276C400.085 381.279 400.1 381.282 400.087 381.28C400.073 381.278 400.036 381.272 399.972 381.26C399.909 381.247 399.824 381.228 399.717 381.202L397.049 391.873L394.381 402.545C396.008 402.951 397.862 403.268 399.815 403.268V392.268ZM397.049 391.873V380.873H390.727V391.873V402.873H397.049V391.873ZM390.727 391.873V380.873C380.087 380.873 368.317 381.418 355.435 382.492L356.349 393.454L357.262 404.416C369.671 403.382 380.819 402.873 390.727 402.873V391.873ZM356.349 393.454L355.648 382.476C342.878 383.291 330.115 384.785 317.359 386.956L319.205 397.801L321.051 408.645C333.057 406.601 345.057 405.197 357.05 404.432L356.349 393.454ZM319.205 397.801L317.55 386.926C304.953 388.843 293.426 391.468 283.014 394.845L286.407 405.308L289.801 415.772C298.883 412.826 309.221 410.446 320.86 408.675L319.205 397.801ZM422.793 407.679L429.393 398.879L429.355 398.851L429.318 398.824L422.793 407.679ZM411.333 393.849L401.152 398.014L401.269 398.3L401.402 398.578L411.333 393.849ZM418.051 349.197L409.875 341.838L409.868 341.846L409.861 341.854L418.051 349.197ZM481.67 348.407L474.03 356.32L474.101 356.39L474.175 356.458L481.67 348.407ZM480.09 401.357L487.621 409.374L487.685 409.314L487.747 409.254L480.09 401.357ZM442.55 413.607V402.607C436.538 402.607 432.4 401.135 429.393 398.879L422.793 407.679L416.193 416.479C423.723 422.127 432.757 424.607 442.55 424.607V413.607ZM422.793 407.679L429.318 398.824C425.748 396.193 423.109 392.992 421.265 389.12L411.333 393.849L401.402 398.578C404.827 405.77 409.827 411.789 416.268 416.535L422.793 407.679ZM411.333 393.849L421.514 389.684C419.64 385.103 418.777 380.718 418.777 376.462H407.777H396.777C396.777 383.798 398.285 391.004 401.152 398.014L411.333 393.849ZM407.777 376.462H418.777C418.777 368.555 421.254 362.102 426.241 356.54L418.051 349.197L409.861 341.854C401.149 351.571 396.777 363.295 396.777 376.462H407.777ZM418.051 349.197L426.227 356.556C430.904 351.359 437.465 348.343 447.292 348.343V337.343V326.343C432.356 326.343 419.423 331.229 409.875 341.838L418.051 349.197ZM447.292 337.343V348.343C460.97 348.343 469.192 351.649 474.03 356.32L481.67 348.407L489.311 340.493C478.87 330.412 464.172 326.343 447.292 326.343V337.343ZM481.67 348.407L474.175 356.458C479.904 361.792 482.129 367.157 482.129 372.906H493.129H504.129C504.129 360.214 498.715 349.247 489.166 340.356L481.67 348.407ZM493.129 372.906H482.129C482.129 380.016 479.336 386.765 472.432 393.46L480.09 401.357L487.747 409.254C498.23 399.089 504.129 386.871 504.129 372.906H493.129ZM480.09 401.357L472.558 393.34C466.558 398.976 457.132 402.607 442.55 402.607V413.607V424.607C460.634 424.607 476.235 420.07 487.621 409.374L480.09 401.357Z" fill="#C6913B" mask="url(#path-1-outside-1_154_2)"/>
</svg>
