<svg width="512" height="512" viewBox="0 0 512 512" fill="none" xmlns="http://www.w3.org/2000/svg">
<mask id="path-1-outside-1_139_2" maskUnits="userSpaceOnUse" x="6.01196" y="89.5181" width="501" height="338" fill="black">
<rect fill="white" x="6.01196" y="89.5181" width="501" height="338"/>
<path d="M25.1575 402.147C36.7485 366.847 47.8127 332.469 58.3501 299.013C62.8284 285.314 67.4385 270.694 72.1803 255.151C76.9221 239.609 81.6639 224.066 86.4057 208.524C91.1475 192.718 95.6259 177.57 99.8408 163.081C104.056 148.592 107.612 135.684 110.51 124.357C124.999 124.357 138.697 123.566 151.606 121.986C158.191 121.195 164.909 120.405 171.758 119.615C178.871 118.824 186.115 118.166 193.491 117.639L191.121 137.001C190.594 140.689 190.067 144.509 189.54 148.461C189.013 152.149 188.486 155.969 187.959 159.92C187.432 163.872 186.774 167.955 185.984 172.17C185.193 176.121 184.535 180.204 184.008 184.419C182.954 192.586 181.373 204.045 179.266 218.797C177.159 233.286 174.656 249.092 171.758 266.216H176.895C184.535 246.195 190.857 229.598 195.862 216.427C200.868 202.991 204.951 192.059 208.112 183.629C212.59 171.248 217.464 158.735 222.733 146.09C228.001 133.445 232.348 123.698 235.772 116.849C242.095 116.322 249.603 115.532 258.296 114.478C267.253 113.161 276.21 111.712 285.166 110.131C294.386 108.551 302.289 107.233 308.875 106.18C305.187 128.308 301.763 150.7 298.601 173.355C295.704 195.747 293.069 217.217 290.698 237.765C288.591 258.049 286.747 276.358 285.166 292.691C283.586 309.023 282.137 325.225 280.82 341.294C279.502 357.1 278.185 372.774 276.868 388.317L208.112 400.567C208.112 400.04 208.507 394.112 209.297 382.785C210.088 371.457 211.405 357.363 213.249 340.504C215.093 323.644 216.937 307.706 218.781 292.691C220.625 277.411 222.469 264.898 224.313 255.151H220.757C214.171 275.172 206.136 297.037 196.653 320.746C187.432 344.455 178.344 370.667 169.387 399.381C160.167 399.645 152.264 400.04 145.678 400.567C139.092 400.83 131.453 401.225 122.76 401.752L135.404 255.151H129.477C129.214 258.049 128.028 263.713 125.921 272.143C123.813 280.309 121.311 289.793 118.413 300.594C115.515 311.131 112.486 321.668 109.324 332.206C97.4699 373.565 91.1475 395.43 90.3572 397.801L25.1575 402.147ZM286.407 405.308C289.305 384.497 292.335 363.554 295.496 342.479C298.92 321.405 302.345 301.12 305.77 281.626C309.458 261.869 312.882 244.087 316.044 228.281C319.468 211.158 322.893 193.771 326.317 176.121C329.742 158.471 333.298 140.689 336.986 122.776L406.138 113.688L385.59 202.991C381.902 218.534 378.082 235.262 374.131 253.176C370.443 270.826 367.018 287.949 363.857 304.545C360.695 321.141 358.193 335.894 356.349 348.802C362.935 348.275 369.916 348.012 377.292 348.012C384.931 347.748 391.649 347.616 397.444 347.616C397.708 353.675 398.235 360.13 399.025 366.979C399.815 373.565 400.606 379.36 401.396 384.365C402.45 389.107 402.977 391.742 402.977 392.268C401.923 392.268 400.869 392.268 399.815 392.268C399.025 392.268 398.103 392.137 397.049 391.873H390.727C380.453 391.873 368.994 392.4 356.349 393.454C343.967 394.244 331.586 395.693 319.205 397.801C307.087 399.645 296.154 402.147 286.407 405.308ZM442.55 413.607C434.647 413.607 428.061 411.631 422.793 407.679C417.788 403.991 413.968 399.381 411.333 393.849C408.962 388.053 407.777 382.258 407.777 376.462C407.777 365.925 411.202 356.837 418.051 349.197C425.164 341.294 434.911 337.343 447.292 337.343C462.571 337.343 474.031 341.031 481.67 348.407C489.31 355.519 493.129 363.686 493.129 372.906C493.129 383.443 488.783 392.927 480.09 401.357C471.396 409.523 458.883 413.607 442.55 413.607Z"/>
</mask>
<path d="M25.1575 402.147C36.7485 366.847 47.8127 332.469 58.3501 299.013C62.8284 285.314 67.4385 270.694 72.1803 255.151C76.9221 239.609 81.6639 224.066 86.4057 208.524C91.1475 192.718 95.6259 177.57 99.8408 163.081C104.056 148.592 107.612 135.684 110.51 124.357C124.999 124.357 138.697 123.566 151.606 121.986C158.191 121.195 164.909 120.405 171.758 119.615C178.871 118.824 186.115 118.166 193.491 117.639L191.121 137.001C190.594 140.689 190.067 144.509 189.54 148.461C189.013 152.149 188.486 155.969 187.959 159.92C187.432 163.872 186.774 167.955 185.984 172.17C185.193 176.121 184.535 180.204 184.008 184.419C182.954 192.586 181.373 204.045 179.266 218.797C177.159 233.286 174.656 249.092 171.758 266.216H176.895C184.535 246.195 190.857 229.598 195.862 216.427C200.868 202.991 204.951 192.059 208.112 183.629C212.59 171.248 217.464 158.735 222.733 146.09C228.001 133.445 232.348 123.698 235.772 116.849C242.095 116.322 249.603 115.532 258.296 114.478C267.253 113.161 276.21 111.712 285.166 110.131C294.386 108.551 302.289 107.233 308.875 106.18C305.187 128.308 301.763 150.7 298.601 173.355C295.704 195.747 293.069 217.217 290.698 237.765C288.591 258.049 286.747 276.358 285.166 292.691C283.586 309.023 282.137 325.225 280.82 341.294C279.502 357.1 278.185 372.774 276.868 388.317L208.112 400.567C208.112 400.04 208.507 394.112 209.297 382.785C210.088 371.457 211.405 357.363 213.249 340.504C215.093 323.644 216.937 307.706 218.781 292.691C220.625 277.411 222.469 264.898 224.313 255.151H220.757C214.171 275.172 206.136 297.037 196.653 320.746C187.432 344.455 178.344 370.667 169.387 399.381C160.167 399.645 152.264 400.04 145.678 400.567C139.092 400.83 131.453 401.225 122.76 401.752L135.404 255.151H129.477C129.214 258.049 128.028 263.713 125.921 272.143C123.813 280.309 121.311 289.793 118.413 300.594C115.515 311.131 112.486 321.668 109.324 332.206C97.4699 373.565 91.1475 395.43 90.3572 397.801L25.1575 402.147ZM286.407 405.308C289.305 384.497 292.335 363.554 295.496 342.479C298.92 321.405 302.345 301.12 305.77 281.626C309.458 261.869 312.882 244.087 316.044 228.281C319.468 211.158 322.893 193.771 326.317 176.121C329.742 158.471 333.298 140.689 336.986 122.776L406.138 113.688L385.59 202.991C381.902 218.534 378.082 235.262 374.131 253.176C370.443 270.826 367.018 287.949 363.857 304.545C360.695 321.141 358.193 335.894 356.349 348.802C362.935 348.275 369.916 348.012 377.292 348.012C384.931 347.748 391.649 347.616 397.444 347.616C397.708 353.675 398.235 360.13 399.025 366.979C399.815 373.565 400.606 379.36 401.396 384.365C402.45 389.107 402.977 391.742 402.977 392.268C401.923 392.268 400.869 392.268 399.815 392.268C399.025 392.268 398.103 392.137 397.049 391.873H390.727C380.453 391.873 368.994 392.4 356.349 393.454C343.967 394.244 331.586 395.693 319.205 397.801C307.087 399.645 296.154 402.147 286.407 405.308ZM442.55 413.607C434.647 413.607 428.061 411.631 422.793 407.679C417.788 403.991 413.968 399.381 411.333 393.849C408.962 388.053 407.777 382.258 407.777 376.462C407.777 365.925 411.202 356.837 418.051 349.197C425.164 341.294 434.911 337.343 447.292 337.343C462.571 337.343 474.031 341.031 481.67 348.407C489.31 355.519 493.129 363.686 493.129 372.906C493.129 383.443 488.783 392.927 480.09 401.357C471.396 409.523 458.883 413.607 442.55 413.607Z" fill="white"/>
<path d="M25.1575 402.147L12.5986 398.023L6.4857 416.64L26.0367 415.336L25.1575 402.147ZM58.3501 299.013L45.7859 294.905L45.7636 294.974L45.7421 295.042L58.3501 299.013ZM72.1803 255.151L59.537 251.294L59.537 251.294L72.1803 255.151ZM86.4057 208.524L99.049 212.381L99.058 212.351L99.0668 212.322L86.4057 208.524ZM99.8408 163.081L112.533 166.774L112.533 166.774L99.8408 163.081ZM110.51 124.357V111.138H100.247L97.7037 121.081L110.51 124.357ZM151.606 121.986L150.031 108.861L150.015 108.863L149.999 108.865L151.606 121.986ZM171.758 119.615L170.298 106.477L170.271 106.48L170.243 106.483L171.758 119.615ZM193.491 117.639L206.612 119.246L208.563 103.31L192.55 104.454L193.491 117.639ZM191.121 137.001L204.206 138.871L204.225 138.74L204.241 138.608L191.121 137.001ZM189.54 148.461L202.626 150.33L202.634 150.269L202.643 150.208L189.54 148.461ZM187.959 159.92L201.062 161.667L201.062 161.667L187.959 159.92ZM185.984 172.17L198.945 174.762L198.961 174.684L198.976 174.606L185.984 172.17ZM184.008 184.419L197.118 186.111L197.121 186.085L197.124 186.059L184.008 184.419ZM179.266 218.797L192.347 220.7L192.349 220.684L192.352 220.667L179.266 218.797ZM171.758 266.216L158.725 264.01L156.115 279.434H171.758V266.216ZM176.895 266.216V279.434H185.999L189.245 270.928L176.895 266.216ZM195.862 216.427L208.219 221.122L208.234 221.082L208.249 221.041L195.862 216.427ZM208.112 183.629L220.489 188.27L220.516 188.198L220.542 188.125L208.112 183.629ZM222.733 146.09L234.934 151.174L234.934 151.174L222.733 146.09ZM235.772 116.849L234.675 103.676L227.272 104.293L223.949 110.937L235.772 116.849ZM258.296 114.478L259.887 127.6L260.053 127.58L260.219 127.556L258.296 114.478ZM285.166 110.131L282.933 97.1026L282.901 97.1081L282.869 97.1137L285.166 110.131ZM308.875 106.18L321.914 108.353L324.936 90.2233L306.787 93.1271L308.875 106.18ZM298.601 173.355L285.51 171.528L285.501 171.594L285.492 171.659L298.601 173.355ZM290.698 237.765L277.567 236.25L277.558 236.324L277.551 236.399L290.698 237.765ZM280.82 341.294L293.993 342.392L293.993 342.383L293.994 342.374L280.82 341.294ZM276.868 388.317L279.187 401.331L289.182 399.55L290.039 389.433L276.868 388.317ZM208.112 400.567H194.893V416.348L210.431 413.58L208.112 400.567ZM209.297 382.785L196.111 381.865L209.297 382.785ZM213.249 340.504L226.389 341.941L226.389 341.941L213.249 340.504ZM218.781 292.691L231.901 294.302L231.903 294.288L231.904 294.274L218.781 292.691ZM224.313 255.151L237.301 257.609L240.267 241.933H224.313V255.151ZM220.757 255.151V241.933H211.19L208.2 251.021L220.757 255.151ZM196.653 320.746L184.379 315.837L184.356 315.896L184.333 315.955L196.653 320.746ZM169.387 399.381L169.765 412.594L179.197 412.325L182.006 403.317L169.387 399.381ZM145.678 400.567L146.207 413.775L146.47 413.764L146.732 413.743L145.678 400.567ZM122.76 401.752L109.59 400.616L108.274 415.873L123.559 414.946L122.76 401.752ZM135.404 255.151L148.574 256.287L149.812 241.933H135.404V255.151ZM129.477 255.151V241.933H117.406L116.313 253.955L129.477 255.151ZM125.921 272.143L138.72 275.446L138.733 275.397L138.745 275.349L125.921 272.143ZM118.413 300.594L131.158 304.099L131.169 304.059L131.18 304.019L118.413 300.594ZM109.324 332.206L96.6633 328.407L96.6399 328.485L96.6175 328.563L109.324 332.206ZM90.3572 397.801L91.2365 410.99L100.091 410.4L102.897 401.981L90.3572 397.801ZM25.1575 402.147L37.7163 406.271C49.3231 370.923 60.4038 336.494 70.9581 302.984L58.3501 299.013L45.7421 295.042C35.2217 328.444 24.1739 362.771 12.5986 398.023L25.1575 402.147ZM58.3501 299.013L70.9143 303.12C75.423 289.329 80.0594 274.624 84.8236 259.009L72.1803 255.151L59.537 251.294C54.8176 266.763 50.2339 281.3 45.7859 294.905L58.3501 299.013ZM72.1803 255.151L84.8236 259.009C89.5654 243.466 94.3072 227.923 99.049 212.381L86.4057 208.524L73.7624 204.666C69.0207 220.209 64.2788 235.751 59.537 251.294L72.1803 255.151ZM86.4057 208.524L99.0668 212.322C103.818 196.484 108.307 181.301 112.533 166.774L99.8408 163.081L87.1484 159.389C82.9447 173.839 78.4768 188.951 73.7446 204.725L86.4057 208.524ZM99.8408 163.081L112.533 166.774C116.778 152.184 120.374 139.133 123.316 127.633L110.51 124.357L97.7037 121.081C94.8501 132.236 91.334 145.001 87.1484 159.389L99.8408 163.081ZM110.51 124.357V137.575C125.476 137.575 139.715 136.759 153.212 135.106L151.606 121.986L149.999 108.865C137.68 110.374 124.521 111.138 110.51 111.138V124.357ZM151.606 121.986L153.18 135.11C159.746 134.322 166.443 133.534 173.273 132.746L171.758 119.615L170.243 106.483C163.375 107.276 156.637 108.068 150.031 108.861L151.606 121.986ZM171.758 119.615L173.218 132.753C180.153 131.982 187.224 131.339 194.433 130.824L193.491 117.639L192.55 104.454C185.006 104.993 177.589 105.667 170.298 106.477L171.758 119.615ZM193.491 117.639L180.371 116.032L178 135.395L191.121 137.001L204.241 138.608L206.612 119.246L193.491 117.639ZM191.121 137.001L178.035 135.132C177.502 138.864 176.969 142.724 176.437 146.714L189.54 148.461L202.643 150.208C203.164 146.294 203.686 142.515 204.206 138.871L191.121 137.001ZM189.54 148.461L176.454 146.591C175.921 150.323 175.389 154.184 174.857 158.173L187.959 159.92L201.062 161.667C201.584 157.754 202.105 153.975 202.626 150.33L189.54 148.461ZM187.959 159.92L174.857 158.173C174.363 161.877 173.742 165.73 172.991 169.734L185.984 172.17L198.976 174.606C199.806 170.179 200.502 165.866 201.062 161.667L187.959 159.92ZM185.984 172.17L173.022 169.577C172.165 173.861 171.456 178.263 170.891 182.78L184.008 184.419L197.124 186.059C197.613 182.146 198.222 178.382 198.945 174.762L185.984 172.17ZM184.008 184.419L170.898 182.728C169.856 190.806 168.285 202.196 166.18 216.928L179.266 218.797L192.352 220.667C194.462 205.894 196.053 194.366 197.118 186.111L184.008 184.419ZM179.266 218.797L166.185 216.895C164.095 231.266 161.609 246.97 158.725 264.01L171.758 266.216L184.791 268.421C187.703 251.215 190.222 235.307 192.347 220.7L179.266 218.797ZM171.758 266.216V279.434H176.895V266.216V252.997H171.758V266.216ZM176.895 266.216L189.245 270.928C196.886 250.904 203.211 234.302 208.219 221.122L195.862 216.427L183.506 211.731C178.504 224.895 172.183 241.485 164.545 261.503L176.895 266.216ZM195.862 216.427L208.249 221.041C213.253 207.611 217.332 196.688 220.489 188.27L208.112 183.629L195.735 178.988C192.569 187.43 188.482 198.372 183.475 211.812L195.862 216.427ZM208.112 183.629L220.542 188.125C224.946 175.949 229.743 163.632 234.934 151.174L222.733 146.09L210.531 141.006C205.184 153.837 200.234 166.546 195.682 179.133L208.112 183.629ZM222.733 146.09L234.934 151.174C240.162 138.628 244.373 129.206 247.596 122.76L235.772 116.849L223.949 110.937C220.323 118.19 215.841 128.262 210.531 141.006L222.733 146.09ZM235.772 116.849L236.87 130.022C243.406 129.477 251.086 128.667 259.887 127.6L258.296 114.478L256.705 101.355C248.12 102.396 240.784 103.167 234.675 103.676L235.772 116.849ZM258.296 114.478L260.219 127.556C269.302 126.22 278.383 124.751 287.463 123.149L285.166 110.131L282.869 97.1137C274.036 98.6725 265.204 100.101 256.373 101.4L258.296 114.478ZM285.166 110.131L287.4 123.16C296.589 121.584 304.441 120.276 310.964 119.232L308.875 106.18L306.787 93.1271C300.138 94.191 292.184 95.5168 282.933 97.1026L285.166 110.131ZM308.875 106.18L295.837 104.007C292.129 126.252 288.687 148.76 285.51 171.528L298.601 173.355L311.693 175.182C314.839 152.64 318.246 130.364 321.914 108.353L308.875 106.18ZM298.601 173.355L285.492 171.659C282.587 194.106 279.945 215.636 277.567 236.25L290.698 237.765L303.83 239.28C306.193 218.798 308.82 197.389 311.711 175.052L298.601 173.355ZM290.698 237.765L277.551 236.399C275.441 256.707 273.593 275.047 272.009 291.417L285.166 292.691L298.323 293.964C299.9 277.668 301.741 259.391 303.846 239.131L290.698 237.765ZM285.166 292.691L272.009 291.417C270.422 307.813 268.968 324.079 267.645 340.214L280.82 341.294L293.994 342.374C295.306 326.37 296.749 310.233 298.323 293.964L285.166 292.691ZM280.82 341.294L267.647 340.196C266.33 355.996 265.013 371.664 263.697 387.201L276.868 388.317L290.039 389.433C291.357 373.884 292.675 358.204 293.993 342.392L280.82 341.294ZM276.868 388.317L274.55 375.303L205.793 387.553L208.112 400.567L210.431 413.58L279.187 401.331L276.868 388.317ZM208.112 400.567H221.331C221.331 400.953 221.315 401.031 221.38 399.967C221.427 399.196 221.499 398.079 221.598 396.605C221.794 393.662 222.089 389.365 222.484 383.705L209.297 382.785L196.111 381.865C195.356 392.686 194.893 399.428 194.893 400.567H208.112ZM209.297 382.785L222.484 383.705C223.258 372.611 224.556 358.703 226.389 341.941L213.249 340.504L200.109 339.067C198.254 356.023 196.918 370.303 196.111 381.865L209.297 382.785ZM213.249 340.504L226.389 341.941C228.228 325.132 230.065 309.253 231.901 294.302L218.781 292.691L205.661 291.079C203.809 306.159 201.958 322.156 200.109 339.067L213.249 340.504ZM218.781 292.691L231.904 294.274C233.73 279.148 235.533 266.954 237.301 257.609L224.313 255.151L211.325 252.694C209.405 262.842 207.52 275.675 205.658 291.107L218.781 292.691ZM224.313 255.151V241.933H220.757V255.151V268.37H224.313V255.151ZM220.757 255.151L208.2 251.021C201.716 270.731 193.781 292.333 184.379 315.837L196.653 320.746L208.926 325.655C218.491 301.741 226.626 279.613 233.313 259.282L220.757 255.151ZM196.653 320.746L184.333 315.955C174.986 339.991 165.799 366.493 156.768 395.445L169.387 399.381L182.006 403.317C190.889 374.841 199.879 348.92 208.972 325.537L196.653 320.746ZM169.387 399.381L169.01 386.168C159.645 386.435 151.503 386.84 144.624 387.39L145.678 400.567L146.732 413.743C153.025 413.24 160.69 412.854 169.765 412.594L169.387 399.381ZM145.678 400.567L145.15 387.359C138.45 387.627 130.717 388.027 121.96 388.558L122.76 401.752L123.559 414.946C132.189 414.423 139.735 414.033 146.207 413.775L145.678 400.567ZM122.76 401.752L135.929 402.888L148.574 256.287L135.404 255.151L122.235 254.015L109.59 400.616L122.76 401.752ZM135.404 255.151V241.933H129.477V255.151V268.37H135.404V255.151ZM129.477 255.151L116.313 253.955C116.157 255.666 115.245 260.342 113.097 268.937L125.921 272.143L138.745 275.349C140.811 267.083 142.27 260.432 142.641 256.348L129.477 255.151ZM125.921 272.143L113.121 268.84C111.027 276.955 108.536 286.396 105.646 297.168L118.413 300.594L131.18 304.019C134.085 293.19 136.599 283.664 138.72 275.446L125.921 272.143ZM118.413 300.594L105.667 297.089C102.797 307.527 99.7955 317.967 96.6633 328.407L109.324 332.206L121.986 336.004C125.176 325.37 128.233 314.735 131.158 304.099L118.413 300.594ZM109.324 332.206L96.6175 328.563C90.6911 349.24 86.1502 365.034 82.9934 375.952C81.4145 381.412 80.1853 385.64 79.3036 388.645C78.8623 390.149 78.5126 391.33 78.2518 392.199C78.1213 392.634 78.0174 392.977 77.9381 393.234C77.8518 393.514 77.8169 393.621 77.817 393.62L90.3572 397.801L102.897 401.981C103.806 399.256 110.258 376.923 122.031 335.848L109.324 332.206ZM90.3572 397.801L89.4779 384.611L24.2782 388.958L25.1575 402.147L26.0367 415.336L91.2365 410.99L90.3572 397.801ZM286.407 405.308L273.315 403.485L270.403 424.395L290.485 417.882L286.407 405.308ZM295.496 342.479L282.448 340.359L282.435 340.439L282.423 340.519L295.496 342.479ZM305.77 281.626L292.775 279.201L292.763 279.27L292.75 279.339L305.77 281.626ZM316.044 228.281L329.005 230.873L329.005 230.873L316.044 228.281ZM326.317 176.121L339.294 178.639L339.294 178.639L326.317 176.121ZM336.986 122.776L335.264 109.67L325.937 110.896L324.039 120.11L336.986 122.776ZM406.138 113.688L419.02 116.652L423.288 98.1012L404.415 100.582L406.138 113.688ZM385.59 202.991L398.451 206.043L398.462 205.999L398.472 205.955L385.59 202.991ZM374.131 253.176L361.222 250.328L361.207 250.4L361.191 250.472L374.131 253.176ZM363.857 304.545L350.872 302.072L350.872 302.072L363.857 304.545ZM356.349 348.802L343.263 346.933L340.925 363.297L357.403 361.978L356.349 348.802ZM377.292 348.012V361.23H377.52L377.747 361.222L377.292 348.012ZM397.444 347.616L410.651 347.042L410.101 334.398H397.444V347.616ZM399.025 366.979L385.894 368.494L385.897 368.524L385.901 368.554L399.025 366.979ZM401.396 384.365L388.339 386.427L388.403 386.832L388.492 387.233L401.396 384.365ZM402.977 392.268V405.487H416.195V392.268H402.977ZM397.049 391.873L400.255 379.049L398.677 378.655H397.049V391.873ZM356.349 393.454L357.191 406.646L357.319 406.637L357.447 406.627L356.349 393.454ZM319.205 397.801L321.193 410.869L321.308 410.851L321.423 410.832L319.205 397.801ZM286.407 405.308L299.5 407.131C302.391 386.367 305.414 365.47 308.568 344.44L295.496 342.479L282.423 340.519C279.255 361.639 276.219 382.628 273.315 403.485L286.407 405.308ZM295.496 342.479L308.543 344.6C311.959 323.576 315.375 303.348 318.789 283.914L305.77 281.626L292.75 279.339C289.315 298.893 285.881 319.233 282.448 340.359L295.496 342.479ZM305.77 281.626L318.764 284.052C322.444 264.337 325.858 246.612 329.005 230.873L316.044 228.281L303.082 225.689C299.907 241.562 296.472 259.401 292.775 279.201L305.77 281.626ZM316.044 228.281L329.005 230.873C332.435 213.725 335.865 196.313 339.294 178.639L326.317 176.121L313.341 173.603C309.921 191.229 306.501 208.591 303.082 225.689L316.044 228.281ZM326.317 176.121L339.294 178.639C342.709 161.039 346.255 143.307 349.934 125.442L336.986 122.776L324.039 120.11C320.341 138.072 316.775 155.903 313.341 173.603L326.317 176.121ZM336.986 122.776L338.709 135.882L407.86 126.793L406.138 113.688L404.415 100.582L335.264 109.67L336.986 122.776ZM406.138 113.688L393.256 110.724L372.708 200.027L385.59 202.991L398.472 205.955L419.02 116.652L406.138 113.688ZM385.59 202.991L372.728 199.94C369.022 215.559 365.187 232.356 361.222 250.328L374.131 253.176L387.039 256.023C390.977 238.168 394.782 221.509 398.451 206.043L385.59 202.991ZM374.131 253.176L361.191 250.472C357.488 268.193 354.048 285.394 350.872 302.072L363.857 304.545L376.842 307.018C379.987 290.504 383.397 273.458 387.07 255.879L374.131 253.176ZM363.857 304.545L350.872 302.072C347.683 318.814 345.143 333.773 343.263 346.933L356.349 348.802L369.435 350.671C371.243 338.014 373.708 323.469 376.842 307.018L363.857 304.545ZM356.349 348.802L357.403 361.978C363.601 361.483 370.228 361.23 377.292 361.23V348.012V334.793C369.604 334.793 362.269 335.067 355.295 335.625L356.349 348.802ZM377.292 348.012L377.747 361.222C385.28 360.963 391.84 360.835 397.444 360.835V347.616V334.398C391.458 334.398 384.583 334.534 376.836 334.801L377.292 348.012ZM397.444 347.616L384.238 348.191C384.517 354.603 385.072 361.373 385.894 368.494L399.025 366.979L412.157 365.464C411.398 358.886 410.899 352.748 410.651 347.042L397.444 347.616ZM399.025 366.979L385.901 368.554C386.705 375.256 387.517 381.22 388.339 386.427L401.396 384.365L414.453 382.304C413.694 377.501 412.926 371.874 412.149 365.404L399.025 366.979ZM401.396 384.365L388.492 387.233C389.012 389.573 389.384 391.31 389.62 392.49C389.739 393.089 389.807 393.458 389.839 393.651C389.856 393.751 389.849 393.723 389.835 393.612C389.828 393.553 389.812 393.423 389.797 393.243C389.785 393.089 389.758 392.735 389.758 392.268H402.977H416.195C416.195 390.856 415.95 389.506 415.917 389.305C415.817 388.708 415.687 388.024 415.543 387.305C415.252 385.851 414.834 383.9 414.3 381.498L401.396 384.365ZM402.977 392.268V379.05C402.975 379.05 402.972 379.05 402.97 379.05C402.968 379.05 402.966 379.05 402.964 379.05C402.962 379.05 402.96 379.05 402.958 379.05C402.956 379.05 402.954 379.05 402.952 379.05C402.95 379.05 402.948 379.05 402.946 379.05C402.944 379.05 402.942 379.05 402.94 379.05C402.937 379.05 402.935 379.05 402.933 379.05C402.931 379.05 402.929 379.05 402.927 379.05C402.925 379.05 402.923 379.05 402.921 379.05C402.919 379.05 402.917 379.05 402.915 379.05C402.913 379.05 402.911 379.05 402.909 379.05C402.907 379.05 402.905 379.05 402.902 379.05C402.9 379.05 402.898 379.05 402.896 379.05C402.894 379.05 402.892 379.05 402.89 379.05C402.888 379.05 402.886 379.05 402.884 379.05C402.882 379.05 402.88 379.05 402.878 379.05C402.876 379.05 402.874 379.05 402.872 379.05C402.87 379.05 402.867 379.05 402.865 379.05C402.863 379.05 402.861 379.05 402.859 379.05C402.857 379.05 402.855 379.05 402.853 379.05C402.851 379.05 402.849 379.05 402.847 379.05C402.845 379.05 402.843 379.05 402.841 379.05C402.839 379.05 402.837 379.05 402.835 379.05C402.833 379.05 402.83 379.05 402.828 379.05C402.826 379.05 402.824 379.05 402.822 379.05C402.82 379.05 402.818 379.05 402.816 379.05C402.814 379.05 402.812 379.05 402.81 379.05C402.808 379.05 402.806 379.05 402.804 379.05C402.802 379.05 402.8 379.05 402.798 379.05C402.795 379.05 402.793 379.05 402.791 379.05C402.789 379.05 402.787 379.05 402.785 379.05C402.783 379.05 402.781 379.05 402.779 379.05C402.777 379.05 402.775 379.05 402.773 379.05C402.771 379.05 402.769 379.05 402.767 379.05C402.765 379.05 402.763 379.05 402.76 379.05C402.758 379.05 402.756 379.05 402.754 379.05C402.752 379.05 402.75 379.05 402.748 379.05C402.746 379.05 402.744 379.05 402.742 379.05C402.74 379.05 402.738 379.05 402.736 379.05C402.734 379.05 402.732 379.05 402.73 379.05C402.728 379.05 402.725 379.05 402.723 379.05C402.721 379.05 402.719 379.05 402.717 379.05C402.715 379.05 402.713 379.05 402.711 379.05C402.709 379.05 402.707 379.05 402.705 379.05C402.703 379.05 402.701 379.05 402.699 379.05C402.697 379.05 402.695 379.05 402.693 379.05C402.69 379.05 402.688 379.05 402.686 379.05C402.684 379.05 402.682 379.05 402.68 379.05C402.678 379.05 402.676 379.05 402.674 379.05C402.672 379.05 402.67 379.05 402.668 379.05C402.666 379.05 402.664 379.05 402.662 379.05C402.66 379.05 402.658 379.05 402.656 379.05C402.653 379.05 402.651 379.05 402.649 379.05C402.647 379.05 402.645 379.05 402.643 379.05C402.641 379.05 402.639 379.05 402.637 379.05C402.635 379.05 402.633 379.05 402.631 379.05C402.629 379.05 402.627 379.05 402.625 379.05C402.623 379.05 402.621 379.05 402.618 379.05C402.616 379.05 402.614 379.05 402.612 379.05C402.61 379.05 402.608 379.05 402.606 379.05C402.604 379.05 402.602 379.05 402.6 379.05C402.598 379.05 402.596 379.05 402.594 379.05C402.592 379.05 402.59 379.05 402.588 379.05C402.586 379.05 402.583 379.05 402.581 379.05C402.579 379.05 402.577 379.05 402.575 379.05C402.573 379.05 402.571 379.05 402.569 379.05C402.567 379.05 402.565 379.05 402.563 379.05C402.561 379.05 402.559 379.05 402.557 379.05C402.555 379.05 402.553 379.05 402.551 379.05C402.548 379.05 402.546 379.05 402.544 379.05C402.542 379.05 402.54 379.05 402.538 379.05C402.536 379.05 402.534 379.05 402.532 379.05C402.53 379.05 402.528 379.05 402.526 379.05C402.524 379.05 402.522 379.05 402.52 379.05C402.518 379.05 402.516 379.05 402.513 379.05C402.511 379.05 402.509 379.05 402.507 379.05C402.505 379.05 402.503 379.05 402.501 379.05C402.499 379.05 402.497 379.05 402.495 379.05C402.493 379.05 402.491 379.05 402.489 379.05C402.487 379.05 402.485 379.05 402.483 379.05C402.481 379.05 402.479 379.05 402.476 379.05C402.474 379.05 402.472 379.05 402.47 379.05C402.468 379.05 402.466 379.05 402.464 379.05C402.462 379.05 402.46 379.05 402.458 379.05C402.456 379.05 402.454 379.05 402.452 379.05C402.45 379.05 402.448 379.05 402.446 379.05C402.444 379.05 402.441 379.05 402.439 379.05C402.437 379.05 402.435 379.05 402.433 379.05C402.431 379.05 402.429 379.05 402.427 379.05C402.425 379.05 402.423 379.05 402.421 379.05C402.419 379.05 402.417 379.05 402.415 379.05C402.413 379.05 402.411 379.05 402.409 379.05C402.406 379.05 402.404 379.05 402.402 379.05C402.4 379.05 402.398 379.05 402.396 379.05C402.394 379.05 402.392 379.05 402.39 379.05C402.388 379.05 402.386 379.05 402.384 379.05C402.382 379.05 402.38 379.05 402.378 379.05C402.376 379.05 402.374 379.05 402.371 379.05C402.369 379.05 402.367 379.05 402.365 379.05C402.363 379.05 402.361 379.05 402.359 379.05C402.357 379.05 402.355 379.05 402.353 379.05C402.351 379.05 402.349 379.05 402.347 379.05C402.345 379.05 402.343 379.05 402.341 379.05C402.339 379.05 402.337 379.05 402.334 379.05C402.332 379.05 402.33 379.05 402.328 379.05C402.326 379.05 402.324 379.05 402.322 379.05C402.32 379.05 402.318 379.05 402.316 379.05C402.314 379.05 402.312 379.05 402.31 379.05C402.308 379.05 402.306 379.05 402.304 379.05C402.302 379.05 402.299 379.05 402.297 379.05C402.295 379.05 402.293 379.05 402.291 379.05C402.289 379.05 402.287 379.05 402.285 379.05C402.283 379.05 402.281 379.05 402.279 379.05C402.277 379.05 402.275 379.05 402.273 379.05C402.271 379.05 402.269 379.05 402.267 379.05C402.264 379.05 402.262 379.05 402.26 379.05C402.258 379.05 402.256 379.05 402.254 379.05C402.252 379.05 402.25 379.05 402.248 379.05C402.246 379.05 402.244 379.05 402.242 379.05C402.24 379.05 402.238 379.05 402.236 379.05C402.234 379.05 402.232 379.05 402.229 379.05C402.227 379.05 402.225 379.05 402.223 379.05C402.221 379.05 402.219 379.05 402.217 379.05C402.215 379.05 402.213 379.05 402.211 379.05C402.209 379.05 402.207 379.05 402.205 379.05C402.203 379.05 402.201 379.05 402.199 379.05C402.197 379.05 402.194 379.05 402.192 379.05C402.19 379.05 402.188 379.05 402.186 379.05C402.184 379.05 402.182 379.05 402.18 379.05C402.178 379.05 402.176 379.05 402.174 379.05C402.172 379.05 402.17 379.05 402.168 379.05C402.166 379.05 402.164 379.05 402.162 379.05C402.16 379.05 402.157 379.05 402.155 379.05C402.153 379.05 402.151 379.05 402.149 379.05C402.147 379.05 402.145 379.05 402.143 379.05C402.141 379.05 402.139 379.05 402.137 379.05C402.135 379.05 402.133 379.05 402.131 379.05C402.129 379.05 402.127 379.05 402.125 379.05C402.122 379.05 402.12 379.05 402.118 379.05C402.116 379.05 402.114 379.05 402.112 379.05C402.11 379.05 402.108 379.05 402.106 379.05C402.104 379.05 402.102 379.05 402.1 379.05C402.098 379.05 402.096 379.05 402.094 379.05C402.092 379.05 402.09 379.05 402.087 379.05C402.085 379.05 402.083 379.05 402.081 379.05C402.079 379.05 402.077 379.05 402.075 379.05C402.073 379.05 402.071 379.05 402.069 379.05C402.067 379.05 402.065 379.05 402.063 379.05C402.061 379.05 402.059 379.05 402.057 379.05C402.055 379.05 402.052 379.05 402.05 379.05C402.048 379.05 402.046 379.05 402.044 379.05C402.042 379.05 402.04 379.05 402.038 379.05C402.036 379.05 402.034 379.05 402.032 379.05C402.03 379.05 402.028 379.05 402.026 379.05C402.024 379.05 402.022 379.05 402.02 379.05C402.018 379.05 402.015 379.05 402.013 379.05C402.011 379.05 402.009 379.05 402.007 379.05C402.005 379.05 402.003 379.05 402.001 379.05C401.999 379.05 401.997 379.05 401.995 379.05C401.993 379.05 401.991 379.05 401.989 379.05C401.987 379.05 401.985 379.05 401.983 379.05C401.98 379.05 401.978 379.05 401.976 379.05C401.974 379.05 401.972 379.05 401.97 379.05C401.968 379.05 401.966 379.05 401.964 379.05C401.962 379.05 401.96 379.05 401.958 379.05C401.956 379.05 401.954 379.05 401.952 379.05C401.95 379.05 401.948 379.05 401.945 379.05C401.943 379.05 401.941 379.05 401.939 379.05C401.937 379.05 401.935 379.05 401.933 379.05C401.931 379.05 401.929 379.05 401.927 379.05C401.925 379.05 401.923 379.05 401.921 379.05C401.919 379.05 401.917 379.05 401.915 379.05C401.913 379.05 401.91 379.05 401.908 379.05C401.906 379.05 401.904 379.05 401.902 379.05C401.9 379.05 401.898 379.05 401.896 379.05C401.894 379.05 401.892 379.05 401.89 379.05C401.888 379.05 401.886 379.05 401.884 379.05C401.882 379.05 401.88 379.05 401.878 379.05C401.875 379.05 401.873 379.05 401.871 379.05C401.869 379.05 401.867 379.05 401.865 379.05C401.863 379.05 401.861 379.05 401.859 379.05C401.857 379.05 401.855 379.05 401.853 379.05C401.851 379.05 401.849 379.05 401.847 379.05C401.845 379.05 401.843 379.05 401.841 379.05C401.838 379.05 401.836 379.05 401.834 379.05C401.832 379.05 401.83 379.05 401.828 379.05C401.826 379.05 401.824 379.05 401.822 379.05C401.82 379.05 401.818 379.05 401.816 379.05C401.814 379.05 401.812 379.05 401.81 379.05C401.808 379.05 401.806 379.05 401.803 379.05C401.801 379.05 401.799 379.05 401.797 379.05C401.795 379.05 401.793 379.05 401.791 379.05C401.789 379.05 401.787 379.05 401.785 379.05C401.783 379.05 401.781 379.05 401.779 379.05C401.777 379.05 401.775 379.05 401.773 379.05C401.771 379.05 401.768 379.05 401.766 379.05C401.764 379.05 401.762 379.05 401.76 379.05C401.758 379.05 401.756 379.05 401.754 379.05C401.752 379.05 401.75 379.05 401.748 379.05C401.746 379.05 401.744 379.05 401.742 379.05C401.74 379.05 401.738 379.05 401.736 379.05C401.733 379.05 401.731 379.05 401.729 379.05C401.727 379.05 401.725 379.05 401.723 379.05C401.721 379.05 401.719 379.05 401.717 379.05C401.715 379.05 401.713 379.05 401.711 379.05C401.709 379.05 401.707 379.05 401.705 379.05C401.703 379.05 401.701 379.05 401.699 379.05C401.696 379.05 401.694 379.05 401.692 379.05C401.69 379.05 401.688 379.05 401.686 379.05C401.684 379.05 401.682 379.05 401.68 379.05C401.678 379.05 401.676 379.05 401.674 379.05C401.672 379.05 401.67 379.05 401.668 379.05C401.666 379.05 401.664 379.05 401.661 379.05C401.659 379.05 401.657 379.05 401.655 379.05C401.653 379.05 401.651 379.05 401.649 379.05C401.647 379.05 401.645 379.05 401.643 379.05C401.641 379.05 401.639 379.05 401.637 379.05C401.635 379.05 401.633 379.05 401.631 379.05C401.629 379.05 401.626 379.05 401.624 379.05C401.622 379.05 401.62 379.05 401.618 379.05C401.616 379.05 401.614 379.05 401.612 379.05C401.61 379.05 401.608 379.05 401.606 379.05C401.604 379.05 401.602 379.05 401.6 379.05C401.598 379.05 401.596 379.05 401.594 379.05C401.591 379.05 401.589 379.05 401.587 379.05C401.585 379.05 401.583 379.05 401.581 379.05C401.579 379.05 401.577 379.05 401.575 379.05C401.573 379.05 401.571 379.05 401.569 379.05C401.567 379.05 401.565 379.05 401.563 379.05C401.561 379.05 401.559 379.05 401.556 379.05C401.554 379.05 401.552 379.05 401.55 379.05C401.548 379.05 401.546 379.05 401.544 379.05C401.542 379.05 401.54 379.05 401.538 379.05C401.536 379.05 401.534 379.05 401.532 379.05C401.53 379.05 401.528 379.05 401.526 379.05C401.524 379.05 401.522 379.05 401.519 379.05C401.517 379.05 401.515 379.05 401.513 379.05C401.511 379.05 401.509 379.05 401.507 379.05C401.505 379.05 401.503 379.05 401.501 379.05C401.499 379.05 401.497 379.05 401.495 379.05C401.493 379.05 401.491 379.05 401.489 379.05C401.487 379.05 401.484 379.05 401.482 379.05C401.48 379.05 401.478 379.05 401.476 379.05C401.474 379.05 401.472 379.05 401.47 379.05C401.468 379.05 401.466 379.05 401.464 379.05C401.462 379.05 401.46 379.05 401.458 379.05C401.456 379.05 401.454 379.05 401.452 379.05C401.449 379.05 401.447 379.05 401.445 379.05C401.443 379.05 401.441 379.05 401.439 379.05C401.437 379.05 401.435 379.05 401.433 379.05C401.431 379.05 401.429 379.05 401.427 379.05C401.425 379.05 401.423 379.05 401.421 379.05C401.419 379.05 401.417 379.05 401.414 379.05C401.412 379.05 401.41 379.05 401.408 379.05C401.406 379.05 401.404 379.05 401.402 379.05C401.4 379.05 401.398 379.05 401.396 379.05C401.394 379.05 401.392 379.05 401.39 379.05C401.388 379.05 401.386 379.05 401.384 379.05C401.382 379.05 401.38 379.05 401.377 379.05C401.375 379.05 401.373 379.05 401.371 379.05C401.369 379.05 401.367 379.05 401.365 379.05C401.363 379.05 401.361 379.05 401.359 379.05C401.357 379.05 401.355 379.05 401.353 379.05C401.351 379.05 401.349 379.05 401.347 379.05C401.345 379.05 401.342 379.05 401.34 379.05C401.338 379.05 401.336 379.05 401.334 379.05C401.332 379.05 401.33 379.05 401.328 379.05C401.326 379.05 401.324 379.05 401.322 379.05C401.32 379.05 401.318 379.05 401.316 379.05C401.314 379.05 401.312 379.05 401.31 379.05C401.307 379.05 401.305 379.05 401.303 379.05C401.301 379.05 401.299 379.05 401.297 379.05C401.295 379.05 401.293 379.05 401.291 379.05C401.289 379.05 401.287 379.05 401.285 379.05C401.283 379.05 401.281 379.05 401.279 379.05C401.277 379.05 401.275 379.05 401.272 379.05C401.27 379.05 401.268 379.05 401.266 379.05C401.264 379.05 401.262 379.05 401.26 379.05C401.258 379.05 401.256 379.05 401.254 379.05C401.252 379.05 401.25 379.05 401.248 379.05C401.246 379.05 401.244 379.05 401.242 379.05C401.24 379.05 401.237 379.05 401.235 379.05C401.233 379.05 401.231 379.05 401.229 379.05C401.227 379.05 401.225 379.05 401.223 379.05C401.221 379.05 401.219 379.05 401.217 379.05C401.215 379.05 401.213 379.05 401.211 379.05C401.209 379.05 401.207 379.05 401.205 379.05C401.203 379.05 401.2 379.05 401.198 379.05C401.196 379.05 401.194 379.05 401.192 379.05C401.19 379.05 401.188 379.05 401.186 379.05C401.184 379.05 401.182 379.05 401.18 379.05C401.178 379.05 401.176 379.05 401.174 379.05C401.172 379.05 401.17 379.05 401.168 379.05C401.165 379.05 401.163 379.05 401.161 379.05C401.159 379.05 401.157 379.05 401.155 379.05C401.153 379.05 401.151 379.05 401.149 379.05C401.147 379.05 401.145 379.05 401.143 379.05C401.141 379.05 401.139 379.05 401.137 379.05C401.135 379.05 401.133 379.05 401.13 379.05C401.128 379.05 401.126 379.05 401.124 379.05C401.122 379.05 401.12 379.05 401.118 379.05C401.116 379.05 401.114 379.05 401.112 379.05C401.11 379.05 401.108 379.05 401.106 379.05C401.104 379.05 401.102 379.05 401.1 379.05C401.098 379.05 401.095 379.05 401.093 379.05C401.091 379.05 401.089 379.05 401.087 379.05C401.085 379.05 401.083 379.05 401.081 379.05C401.079 379.05 401.077 379.05 401.075 379.05C401.073 379.05 401.071 379.05 401.069 379.05C401.067 379.05 401.065 379.05 401.063 379.05C401.06 379.05 401.058 379.05 401.056 379.05C401.054 379.05 401.052 379.05 401.05 379.05C401.048 379.05 401.046 379.05 401.044 379.05C401.042 379.05 401.04 379.05 401.038 379.05C401.036 379.05 401.034 379.05 401.032 379.05C401.03 379.05 401.028 379.05 401.026 379.05C401.023 379.05 401.021 379.05 401.019 379.05C401.017 379.05 401.015 379.05 401.013 379.05C401.011 379.05 401.009 379.05 401.007 379.05C401.005 379.05 401.003 379.05 401.001 379.05C400.999 379.05 400.997 379.05 400.995 379.05C400.993 379.05 400.991 379.05 400.988 379.05C400.986 379.05 400.984 379.05 400.982 379.05C400.98 379.05 400.978 379.05 400.976 379.05C400.974 379.05 400.972 379.05 400.97 379.05C400.968 379.05 400.966 379.05 400.964 379.05C400.962 379.05 400.96 379.05 400.958 379.05C400.956 379.05 400.953 379.05 400.951 379.05C400.949 379.05 400.947 379.05 400.945 379.05C400.943 379.05 400.941 379.05 400.939 379.05C400.937 379.05 400.935 379.05 400.933 379.05C400.931 379.05 400.929 379.05 400.927 379.05C400.925 379.05 400.923 379.05 400.921 379.05C400.918 379.05 400.916 379.05 400.914 379.05C400.912 379.05 400.91 379.05 400.908 379.05C400.906 379.05 400.904 379.05 400.902 379.05C400.9 379.05 400.898 379.05 400.896 379.05C400.894 379.05 400.892 379.05 400.89 379.05C400.888 379.05 400.886 379.05 400.884 379.05C400.881 379.05 400.879 379.05 400.877 379.05C400.875 379.05 400.873 379.05 400.871 379.05C400.869 379.05 400.867 379.05 400.865 379.05C400.863 379.05 400.861 379.05 400.859 379.05C400.857 379.05 400.855 379.05 400.853 379.05C400.851 379.05 400.849 379.05 400.846 379.05C400.844 379.05 400.842 379.05 400.84 379.05C400.838 379.05 400.836 379.05 400.834 379.05C400.832 379.05 400.83 379.05 400.828 379.05C400.826 379.05 400.824 379.05 400.822 379.05C400.82 379.05 400.818 379.05 400.816 379.05C400.814 379.05 400.811 379.05 400.809 379.05C400.807 379.05 400.805 379.05 400.803 379.05C400.801 379.05 400.799 379.05 400.797 379.05C400.795 379.05 400.793 379.05 400.791 379.05C400.789 379.05 400.787 379.05 400.785 379.05C400.783 379.05 400.781 379.05 400.779 379.05C400.776 379.05 400.774 379.05 400.772 379.05C400.77 379.05 400.768 379.05 400.766 379.05C400.764 379.05 400.762 379.05 400.76 379.05C400.758 379.05 400.756 379.05 400.754 379.05C400.752 379.05 400.75 379.05 400.748 379.05C400.746 379.05 400.744 379.05 400.741 379.05C400.739 379.05 400.737 379.05 400.735 379.05C400.733 379.05 400.731 379.05 400.729 379.05C400.727 379.05 400.725 379.05 400.723 379.05C400.721 379.05 400.719 379.05 400.717 379.05C400.715 379.05 400.713 379.05 400.711 379.05C400.709 379.05 400.707 379.05 400.704 379.05C400.702 379.05 400.7 379.05 400.698 379.05C400.696 379.05 400.694 379.05 400.692 379.05C400.69 379.05 400.688 379.05 400.686 379.05C400.684 379.05 400.682 379.05 400.68 379.05C400.678 379.05 400.676 379.05 400.674 379.05C400.672 379.05 400.669 379.05 400.667 379.05C400.665 379.05 400.663 379.05 400.661 379.05C400.659 379.05 400.657 379.05 400.655 379.05C400.653 379.05 400.651 379.05 400.649 379.05C400.647 379.05 400.645 379.05 400.643 379.05C400.641 379.05 400.639 379.05 400.637 379.05C400.634 379.05 400.632 379.05 400.63 379.05C400.628 379.05 400.626 379.05 400.624 379.05C400.622 379.05 400.62 379.05 400.618 379.05C400.616 379.05 400.614 379.05 400.612 379.05C400.61 379.05 400.608 379.05 400.606 379.05C400.604 379.05 400.602 379.05 400.599 379.05C400.597 379.05 400.595 379.05 400.593 379.05C400.591 379.05 400.589 379.05 400.587 379.05C400.585 379.05 400.583 379.05 400.581 379.05C400.579 379.05 400.577 379.05 400.575 379.05C400.573 379.05 400.571 379.05 400.569 379.05C400.567 379.05 400.565 379.05 400.562 379.05C400.56 379.05 400.558 379.05 400.556 379.05C400.554 379.05 400.552 379.05 400.55 379.05C400.548 379.05 400.546 379.05 400.544 379.05C400.542 379.05 400.54 379.05 400.538 379.05C400.536 379.05 400.534 379.05 400.532 379.05C400.53 379.05 400.527 379.05 400.525 379.05C400.523 379.05 400.521 379.05 400.519 379.05C400.517 379.05 400.515 379.05 400.513 379.05C400.511 379.05 400.509 379.05 400.507 379.05C400.505 379.05 400.503 379.05 400.501 379.05C400.499 379.05 400.497 379.05 400.495 379.05C400.492 379.05 400.49 379.05 400.488 379.05C400.486 379.05 400.484 379.05 400.482 379.05C400.48 379.05 400.478 379.05 400.476 379.05C400.474 379.05 400.472 379.05 400.47 379.05C400.468 379.05 400.466 379.05 400.464 379.05C400.462 379.05 400.46 379.05 400.457 379.05C400.455 379.05 400.453 379.05 400.451 379.05C400.449 379.05 400.447 379.05 400.445 379.05C400.443 379.05 400.441 379.05 400.439 379.05C400.437 379.05 400.435 379.05 400.433 379.05C400.431 379.05 400.429 379.05 400.427 379.05C400.425 379.05 400.422 379.05 400.42 379.05C400.418 379.05 400.416 379.05 400.414 379.05C400.412 379.05 400.41 379.05 400.408 379.05C400.406 379.05 400.404 379.05 400.402 379.05C400.4 379.05 400.398 379.05 400.396 379.05C400.394 379.05 400.392 379.05 400.39 379.05C400.388 379.05 400.385 379.05 400.383 379.05C400.381 379.05 400.379 379.05 400.377 379.05C400.375 379.05 400.373 379.05 400.371 379.05C400.369 379.05 400.367 379.05 400.365 379.05C400.363 379.05 400.361 379.05 400.359 379.05C400.357 379.05 400.355 379.05 400.353 379.05C400.35 379.05 400.348 379.05 400.346 379.05C400.344 379.05 400.342 379.05 400.34 379.05C400.338 379.05 400.336 379.05 400.334 379.05C400.332 379.05 400.33 379.05 400.328 379.05C400.326 379.05 400.324 379.05 400.322 379.05C400.32 379.05 400.318 379.05 400.315 379.05C400.313 379.05 400.311 379.05 400.309 379.05C400.307 379.05 400.305 379.05 400.303 379.05C400.301 379.05 400.299 379.05 400.297 379.05C400.295 379.05 400.293 379.05 400.291 379.05C400.289 379.05 400.287 379.05 400.285 379.05C400.283 379.05 400.28 379.05 400.278 379.05C400.276 379.05 400.274 379.05 400.272 379.05C400.27 379.05 400.268 379.05 400.266 379.05C400.264 379.05 400.262 379.05 400.26 379.05C400.258 379.05 400.256 379.05 400.254 379.05C400.252 379.05 400.25 379.05 400.248 379.05C400.246 379.05 400.243 379.05 400.241 379.05C400.239 379.05 400.237 379.05 400.235 379.05C400.233 379.05 400.231 379.05 400.229 379.05C400.227 379.05 400.225 379.05 400.223 379.05C400.221 379.05 400.219 379.05 400.217 379.05C400.215 379.05 400.213 379.05 400.211 379.05C400.208 379.05 400.206 379.05 400.204 379.05C400.202 379.05 400.2 379.05 400.198 379.05C400.196 379.05 400.194 379.05 400.192 379.05C400.19 379.05 400.188 379.05 400.186 379.05C400.184 379.05 400.182 379.05 400.18 379.05C400.178 379.05 400.176 379.05 400.173 379.05C400.171 379.05 400.169 379.05 400.167 379.05C400.165 379.05 400.163 379.05 400.161 379.05C400.159 379.05 400.157 379.05 400.155 379.05C400.153 379.05 400.151 379.05 400.149 379.05C400.147 379.05 400.145 379.05 400.143 379.05C400.141 379.05 400.138 379.05 400.136 379.05C400.134 379.05 400.132 379.05 400.13 379.05C400.128 379.05 400.126 379.05 400.124 379.05C400.122 379.05 400.12 379.05 400.118 379.05C400.116 379.05 400.114 379.05 400.112 379.05C400.11 379.05 400.108 379.05 400.106 379.05C400.103 379.05 400.101 379.05 400.099 379.05C400.097 379.05 400.095 379.05 400.093 379.05C400.091 379.05 400.089 379.05 400.087 379.05C400.085 379.05 400.083 379.05 400.081 379.05C400.079 379.05 400.077 379.05 400.075 379.05C400.073 379.05 400.071 379.05 400.069 379.05C400.066 379.05 400.064 379.05 400.062 379.05C400.06 379.05 400.058 379.05 400.056 379.05C400.054 379.05 400.052 379.05 400.05 379.05C400.048 379.05 400.046 379.05 400.044 379.05C400.042 379.05 400.04 379.05 400.038 379.05C400.036 379.05 400.034 379.05 400.031 379.05C400.029 379.05 400.027 379.05 400.025 379.05C400.023 379.05 400.021 379.05 400.019 379.05C400.017 379.05 400.015 379.05 400.013 379.05C400.011 379.05 400.009 379.05 400.007 379.05C400.005 379.05 400.003 379.05 400.001 379.05C399.999 379.05 399.996 379.05 399.994 379.05C399.992 379.05 399.99 379.05 399.988 379.05C399.986 379.05 399.984 379.05 399.982 379.05C399.98 379.05 399.978 379.05 399.976 379.05C399.974 379.05 399.972 379.05 399.97 379.05C399.968 379.05 399.966 379.05 399.964 379.05C399.961 379.05 399.959 379.05 399.957 379.05C399.955 379.05 399.953 379.05 399.951 379.05C399.949 379.05 399.947 379.05 399.945 379.05C399.943 379.05 399.941 379.05 399.939 379.05C399.937 379.05 399.935 379.05 399.933 379.05C399.931 379.05 399.929 379.05 399.927 379.05C399.924 379.05 399.922 379.05 399.92 379.05C399.918 379.05 399.916 379.05 399.914 379.05C399.912 379.05 399.91 379.05 399.908 379.05C399.906 379.05 399.904 379.05 399.902 379.05C399.9 379.05 399.898 379.05 399.896 379.05C399.894 379.05 399.892 379.05 399.889 379.05C399.887 379.05 399.885 379.05 399.883 379.05C399.881 379.05 399.879 379.05 399.877 379.05C399.875 379.05 399.873 379.05 399.871 379.05C399.869 379.05 399.867 379.05 399.865 379.05C399.863 379.05 399.861 379.05 399.859 379.05C399.857 379.05 399.854 379.05 399.852 379.05C399.85 379.05 399.848 379.05 399.846 379.05C399.844 379.05 399.842 379.05 399.84 379.05C399.838 379.05 399.836 379.05 399.834 379.05C399.832 379.05 399.83 379.05 399.828 379.05C399.826 379.05 399.824 379.05 399.822 379.05C399.819 379.05 399.817 379.05 399.815 379.05V392.268V405.487C399.817 405.487 399.819 405.487 399.822 405.487C399.824 405.487 399.826 405.487 399.828 405.487C399.83 405.487 399.832 405.487 399.834 405.487C399.836 405.487 399.838 405.487 399.84 405.487C399.842 405.487 399.844 405.487 399.846 405.487C399.848 405.487 399.85 405.487 399.852 405.487C399.854 405.487 399.857 405.487 399.859 405.487C399.861 405.487 399.863 405.487 399.865 405.487C399.867 405.487 399.869 405.487 399.871 405.487C399.873 405.487 399.875 405.487 399.877 405.487C399.879 405.487 399.881 405.487 399.883 405.487C399.885 405.487 399.887 405.487 399.889 405.487C399.892 405.487 399.894 405.487 399.896 405.487C399.898 405.487 399.9 405.487 399.902 405.487C399.904 405.487 399.906 405.487 399.908 405.487C399.91 405.487 399.912 405.487 399.914 405.487C399.916 405.487 399.918 405.487 399.92 405.487C399.922 405.487 399.924 405.487 399.927 405.487C399.929 405.487 399.931 405.487 399.933 405.487C399.935 405.487 399.937 405.487 399.939 405.487C399.941 405.487 399.943 405.487 399.945 405.487C399.947 405.487 399.949 405.487 399.951 405.487C399.953 405.487 399.955 405.487 399.957 405.487C399.959 405.487 399.961 405.487 399.964 405.487C399.966 405.487 399.968 405.487 399.97 405.487C399.972 405.487 399.974 405.487 399.976 405.487C399.978 405.487 399.98 405.487 399.982 405.487C399.984 405.487 399.986 405.487 399.988 405.487C399.99 405.487 399.992 405.487 399.994 405.487C399.996 405.487 399.999 405.487 400.001 405.487C400.003 405.487 400.005 405.487 400.007 405.487C400.009 405.487 400.011 405.487 400.013 405.487C400.015 405.487 400.017 405.487 400.019 405.487C400.021 405.487 400.023 405.487 400.025 405.487C400.027 405.487 400.029 405.487 400.031 405.487C400.034 405.487 400.036 405.487 400.038 405.487C400.04 405.487 400.042 405.487 400.044 405.487C400.046 405.487 400.048 405.487 400.05 405.487C400.052 405.487 400.054 405.487 400.056 405.487C400.058 405.487 400.06 405.487 400.062 405.487C400.064 405.487 400.066 405.487 400.069 405.487C400.071 405.487 400.073 405.487 400.075 405.487C400.077 405.487 400.079 405.487 400.081 405.487C400.083 405.487 400.085 405.487 400.087 405.487C400.089 405.487 400.091 405.487 400.093 405.487C400.095 405.487 400.097 405.487 400.099 405.487C400.101 405.487 400.103 405.487 400.106 405.487C400.108 405.487 400.11 405.487 400.112 405.487C400.114 405.487 400.116 405.487 400.118 405.487C400.12 405.487 400.122 405.487 400.124 405.487C400.126 405.487 400.128 405.487 400.13 405.487C400.132 405.487 400.134 405.487 400.136 405.487C400.138 405.487 400.141 405.487 400.143 405.487C400.145 405.487 400.147 405.487 400.149 405.487C400.151 405.487 400.153 405.487 400.155 405.487C400.157 405.487 400.159 405.487 400.161 405.487C400.163 405.487 400.165 405.487 400.167 405.487C400.169 405.487 400.171 405.487 400.173 405.487C400.176 405.487 400.178 405.487 400.18 405.487C400.182 405.487 400.184 405.487 400.186 405.487C400.188 405.487 400.19 405.487 400.192 405.487C400.194 405.487 400.196 405.487 400.198 405.487C400.2 405.487 400.202 405.487 400.204 405.487C400.206 405.487 400.208 405.487 400.211 405.487C400.213 405.487 400.215 405.487 400.217 405.487C400.219 405.487 400.221 405.487 400.223 405.487C400.225 405.487 400.227 405.487 400.229 405.487C400.231 405.487 400.233 405.487 400.235 405.487C400.237 405.487 400.239 405.487 400.241 405.487C400.243 405.487 400.246 405.487 400.248 405.487C400.25 405.487 400.252 405.487 400.254 405.487C400.256 405.487 400.258 405.487 400.26 405.487C400.262 405.487 400.264 405.487 400.266 405.487C400.268 405.487 400.27 405.487 400.272 405.487C400.274 405.487 400.276 405.487 400.278 405.487C400.28 405.487 400.283 405.487 400.285 405.487C400.287 405.487 400.289 405.487 400.291 405.487C400.293 405.487 400.295 405.487 400.297 405.487C400.299 405.487 400.301 405.487 400.303 405.487C400.305 405.487 400.307 405.487 400.309 405.487C400.311 405.487 400.313 405.487 400.315 405.487C400.318 405.487 400.32 405.487 400.322 405.487C400.324 405.487 400.326 405.487 400.328 405.487C400.33 405.487 400.332 405.487 400.334 405.487C400.336 405.487 400.338 405.487 400.34 405.487C400.342 405.487 400.344 405.487 400.346 405.487C400.348 405.487 400.35 405.487 400.353 405.487C400.355 405.487 400.357 405.487 400.359 405.487C400.361 405.487 400.363 405.487 400.365 405.487C400.367 405.487 400.369 405.487 400.371 405.487C400.373 405.487 400.375 405.487 400.377 405.487C400.379 405.487 400.381 405.487 400.383 405.487C400.385 405.487 400.388 405.487 400.39 405.487C400.392 405.487 400.394 405.487 400.396 405.487C400.398 405.487 400.4 405.487 400.402 405.487C400.404 405.487 400.406 405.487 400.408 405.487C400.41 405.487 400.412 405.487 400.414 405.487C400.416 405.487 400.418 405.487 400.42 405.487C400.422 405.487 400.425 405.487 400.427 405.487C400.429 405.487 400.431 405.487 400.433 405.487C400.435 405.487 400.437 405.487 400.439 405.487C400.441 405.487 400.443 405.487 400.445 405.487C400.447 405.487 400.449 405.487 400.451 405.487C400.453 405.487 400.455 405.487 400.457 405.487C400.46 405.487 400.462 405.487 400.464 405.487C400.466 405.487 400.468 405.487 400.47 405.487C400.472 405.487 400.474 405.487 400.476 405.487C400.478 405.487 400.48 405.487 400.482 405.487C400.484 405.487 400.486 405.487 400.488 405.487C400.49 405.487 400.492 405.487 400.495 405.487C400.497 405.487 400.499 405.487 400.501 405.487C400.503 405.487 400.505 405.487 400.507 405.487C400.509 405.487 400.511 405.487 400.513 405.487C400.515 405.487 400.517 405.487 400.519 405.487C400.521 405.487 400.523 405.487 400.525 405.487C400.527 405.487 400.53 405.487 400.532 405.487C400.534 405.487 400.536 405.487 400.538 405.487C400.54 405.487 400.542 405.487 400.544 405.487C400.546 405.487 400.548 405.487 400.55 405.487C400.552 405.487 400.554 405.487 400.556 405.487C400.558 405.487 400.56 405.487 400.562 405.487C400.565 405.487 400.567 405.487 400.569 405.487C400.571 405.487 400.573 405.487 400.575 405.487C400.577 405.487 400.579 405.487 400.581 405.487C400.583 405.487 400.585 405.487 400.587 405.487C400.589 405.487 400.591 405.487 400.593 405.487C400.595 405.487 400.597 405.487 400.599 405.487C400.602 405.487 400.604 405.487 400.606 405.487C400.608 405.487 400.61 405.487 400.612 405.487C400.614 405.487 400.616 405.487 400.618 405.487C400.62 405.487 400.622 405.487 400.624 405.487C400.626 405.487 400.628 405.487 400.63 405.487C400.632 405.487 400.634 405.487 400.637 405.487C400.639 405.487 400.641 405.487 400.643 405.487C400.645 405.487 400.647 405.487 400.649 405.487C400.651 405.487 400.653 405.487 400.655 405.487C400.657 405.487 400.659 405.487 400.661 405.487C400.663 405.487 400.665 405.487 400.667 405.487C400.669 405.487 400.672 405.487 400.674 405.487C400.676 405.487 400.678 405.487 400.68 405.487C400.682 405.487 400.684 405.487 400.686 405.487C400.688 405.487 400.69 405.487 400.692 405.487C400.694 405.487 400.696 405.487 400.698 405.487C400.7 405.487 400.702 405.487 400.704 405.487C400.707 405.487 400.709 405.487 400.711 405.487C400.713 405.487 400.715 405.487 400.717 405.487C400.719 405.487 400.721 405.487 400.723 405.487C400.725 405.487 400.727 405.487 400.729 405.487C400.731 405.487 400.733 405.487 400.735 405.487C400.737 405.487 400.739 405.487 400.741 405.487C400.744 405.487 400.746 405.487 400.748 405.487C400.75 405.487 400.752 405.487 400.754 405.487C400.756 405.487 400.758 405.487 400.76 405.487C400.762 405.487 400.764 405.487 400.766 405.487C400.768 405.487 400.77 405.487 400.772 405.487C400.774 405.487 400.776 405.487 400.779 405.487C400.781 405.487 400.783 405.487 400.785 405.487C400.787 405.487 400.789 405.487 400.791 405.487C400.793 405.487 400.795 405.487 400.797 405.487C400.799 405.487 400.801 405.487 400.803 405.487C400.805 405.487 400.807 405.487 400.809 405.487C400.811 405.487 400.814 405.487 400.816 405.487C400.818 405.487 400.82 405.487 400.822 405.487C400.824 405.487 400.826 405.487 400.828 405.487C400.83 405.487 400.832 405.487 400.834 405.487C400.836 405.487 400.838 405.487 400.84 405.487C400.842 405.487 400.844 405.487 400.846 405.487C400.849 405.487 400.851 405.487 400.853 405.487C400.855 405.487 400.857 405.487 400.859 405.487C400.861 405.487 400.863 405.487 400.865 405.487C400.867 405.487 400.869 405.487 400.871 405.487C400.873 405.487 400.875 405.487 400.877 405.487C400.879 405.487 400.881 405.487 400.884 405.487C400.886 405.487 400.888 405.487 400.89 405.487C400.892 405.487 400.894 405.487 400.896 405.487C400.898 405.487 400.9 405.487 400.902 405.487C400.904 405.487 400.906 405.487 400.908 405.487C400.91 405.487 400.912 405.487 400.914 405.487C400.916 405.487 400.918 405.487 400.921 405.487C400.923 405.487 400.925 405.487 400.927 405.487C400.929 405.487 400.931 405.487 400.933 405.487C400.935 405.487 400.937 405.487 400.939 405.487C400.941 405.487 400.943 405.487 400.945 405.487C400.947 405.487 400.949 405.487 400.951 405.487C400.953 405.487 400.956 405.487 400.958 405.487C400.96 405.487 400.962 405.487 400.964 405.487C400.966 405.487 400.968 405.487 400.97 405.487C400.972 405.487 400.974 405.487 400.976 405.487C400.978 405.487 400.98 405.487 400.982 405.487C400.984 405.487 400.986 405.487 400.988 405.487C400.991 405.487 400.993 405.487 400.995 405.487C400.997 405.487 400.999 405.487 401.001 405.487C401.003 405.487 401.005 405.487 401.007 405.487C401.009 405.487 401.011 405.487 401.013 405.487C401.015 405.487 401.017 405.487 401.019 405.487C401.021 405.487 401.023 405.487 401.026 405.487C401.028 405.487 401.03 405.487 401.032 405.487C401.034 405.487 401.036 405.487 401.038 405.487C401.04 405.487 401.042 405.487 401.044 405.487C401.046 405.487 401.048 405.487 401.05 405.487C401.052 405.487 401.054 405.487 401.056 405.487C401.058 405.487 401.06 405.487 401.063 405.487C401.065 405.487 401.067 405.487 401.069 405.487C401.071 405.487 401.073 405.487 401.075 405.487C401.077 405.487 401.079 405.487 401.081 405.487C401.083 405.487 401.085 405.487 401.087 405.487C401.089 405.487 401.091 405.487 401.093 405.487C401.095 405.487 401.098 405.487 401.1 405.487C401.102 405.487 401.104 405.487 401.106 405.487C401.108 405.487 401.11 405.487 401.112 405.487C401.114 405.487 401.116 405.487 401.118 405.487C401.12 405.487 401.122 405.487 401.124 405.487C401.126 405.487 401.128 405.487 401.13 405.487C401.133 405.487 401.135 405.487 401.137 405.487C401.139 405.487 401.141 405.487 401.143 405.487C401.145 405.487 401.147 405.487 401.149 405.487C401.151 405.487 401.153 405.487 401.155 405.487C401.157 405.487 401.159 405.487 401.161 405.487C401.163 405.487 401.165 405.487 401.168 405.487C401.17 405.487 401.172 405.487 401.174 405.487C401.176 405.487 401.178 405.487 401.18 405.487C401.182 405.487 401.184 405.487 401.186 405.487C401.188 405.487 401.19 405.487 401.192 405.487C401.194 405.487 401.196 405.487 401.198 405.487C401.2 405.487 401.203 405.487 401.205 405.487C401.207 405.487 401.209 405.487 401.211 405.487C401.213 405.487 401.215 405.487 401.217 405.487C401.219 405.487 401.221 405.487 401.223 405.487C401.225 405.487 401.227 405.487 401.229 405.487C401.231 405.487 401.233 405.487 401.235 405.487C401.237 405.487 401.24 405.487 401.242 405.487C401.244 405.487 401.246 405.487 401.248 405.487C401.25 405.487 401.252 405.487 401.254 405.487C401.256 405.487 401.258 405.487 401.26 405.487C401.262 405.487 401.264 405.487 401.266 405.487C401.268 405.487 401.27 405.487 401.272 405.487C401.275 405.487 401.277 405.487 401.279 405.487C401.281 405.487 401.283 405.487 401.285 405.487C401.287 405.487 401.289 405.487 401.291 405.487C401.293 405.487 401.295 405.487 401.297 405.487C401.299 405.487 401.301 405.487 401.303 405.487C401.305 405.487 401.307 405.487 401.31 405.487C401.312 405.487 401.314 405.487 401.316 405.487C401.318 405.487 401.32 405.487 401.322 405.487C401.324 405.487 401.326 405.487 401.328 405.487C401.33 405.487 401.332 405.487 401.334 405.487C401.336 405.487 401.338 405.487 401.34 405.487C401.342 405.487 401.345 405.487 401.347 405.487C401.349 405.487 401.351 405.487 401.353 405.487C401.355 405.487 401.357 405.487 401.359 405.487C401.361 405.487 401.363 405.487 401.365 405.487C401.367 405.487 401.369 405.487 401.371 405.487C401.373 405.487 401.375 405.487 401.377 405.487C401.38 405.487 401.382 405.487 401.384 405.487C401.386 405.487 401.388 405.487 401.39 405.487C401.392 405.487 401.394 405.487 401.396 405.487C401.398 405.487 401.4 405.487 401.402 405.487C401.404 405.487 401.406 405.487 401.408 405.487C401.41 405.487 401.412 405.487 401.414 405.487C401.417 405.487 401.419 405.487 401.421 405.487C401.423 405.487 401.425 405.487 401.427 405.487C401.429 405.487 401.431 405.487 401.433 405.487C401.435 405.487 401.437 405.487 401.439 405.487C401.441 405.487 401.443 405.487 401.445 405.487C401.447 405.487 401.449 405.487 401.452 405.487C401.454 405.487 401.456 405.487 401.458 405.487C401.46 405.487 401.462 405.487 401.464 405.487C401.466 405.487 401.468 405.487 401.47 405.487C401.472 405.487 401.474 405.487 401.476 405.487C401.478 405.487 401.48 405.487 401.482 405.487C401.484 405.487 401.487 405.487 401.489 405.487C401.491 405.487 401.493 405.487 401.495 405.487C401.497 405.487 401.499 405.487 401.501 405.487C401.503 405.487 401.505 405.487 401.507 405.487C401.509 405.487 401.511 405.487 401.513 405.487C401.515 405.487 401.517 405.487 401.519 405.487C401.522 405.487 401.524 405.487 401.526 405.487C401.528 405.487 401.53 405.487 401.532 405.487C401.534 405.487 401.536 405.487 401.538 405.487C401.54 405.487 401.542 405.487 401.544 405.487C401.546 405.487 401.548 405.487 401.55 405.487C401.552 405.487 401.554 405.487 401.556 405.487C401.559 405.487 401.561 405.487 401.563 405.487C401.565 405.487 401.567 405.487 401.569 405.487C401.571 405.487 401.573 405.487 401.575 405.487C401.577 405.487 401.579 405.487 401.581 405.487C401.583 405.487 401.585 405.487 401.587 405.487C401.589 405.487 401.591 405.487 401.594 405.487C401.596 405.487 401.598 405.487 401.6 405.487C401.602 405.487 401.604 405.487 401.606 405.487C401.608 405.487 401.61 405.487 401.612 405.487C401.614 405.487 401.616 405.487 401.618 405.487C401.62 405.487 401.622 405.487 401.624 405.487C401.626 405.487 401.629 405.487 401.631 405.487C401.633 405.487 401.635 405.487 401.637 405.487C401.639 405.487 401.641 405.487 401.643 405.487C401.645 405.487 401.647 405.487 401.649 405.487C401.651 405.487 401.653 405.487 401.655 405.487C401.657 405.487 401.659 405.487 401.661 405.487C401.664 405.487 401.666 405.487 401.668 405.487C401.67 405.487 401.672 405.487 401.674 405.487C401.676 405.487 401.678 405.487 401.68 405.487C401.682 405.487 401.684 405.487 401.686 405.487C401.688 405.487 401.69 405.487 401.692 405.487C401.694 405.487 401.696 405.487 401.699 405.487C401.701 405.487 401.703 405.487 401.705 405.487C401.707 405.487 401.709 405.487 401.711 405.487C401.713 405.487 401.715 405.487 401.717 405.487C401.719 405.487 401.721 405.487 401.723 405.487C401.725 405.487 401.727 405.487 401.729 405.487C401.731 405.487 401.733 405.487 401.736 405.487C401.738 405.487 401.74 405.487 401.742 405.487C401.744 405.487 401.746 405.487 401.748 405.487C401.75 405.487 401.752 405.487 401.754 405.487C401.756 405.487 401.758 405.487 401.76 405.487C401.762 405.487 401.764 405.487 401.766 405.487C401.768 405.487 401.771 405.487 401.773 405.487C401.775 405.487 401.777 405.487 401.779 405.487C401.781 405.487 401.783 405.487 401.785 405.487C401.787 405.487 401.789 405.487 401.791 405.487C401.793 405.487 401.795 405.487 401.797 405.487C401.799 405.487 401.801 405.487 401.803 405.487C401.806 405.487 401.808 405.487 401.81 405.487C401.812 405.487 401.814 405.487 401.816 405.487C401.818 405.487 401.82 405.487 401.822 405.487C401.824 405.487 401.826 405.487 401.828 405.487C401.83 405.487 401.832 405.487 401.834 405.487C401.836 405.487 401.838 405.487 401.841 405.487C401.843 405.487 401.845 405.487 401.847 405.487C401.849 405.487 401.851 405.487 401.853 405.487C401.855 405.487 401.857 405.487 401.859 405.487C401.861 405.487 401.863 405.487 401.865 405.487C401.867 405.487 401.869 405.487 401.871 405.487C401.873 405.487 401.875 405.487 401.878 405.487C401.88 405.487 401.882 405.487 401.884 405.487C401.886 405.487 401.888 405.487 401.89 405.487C401.892 405.487 401.894 405.487 401.896 405.487C401.898 405.487 401.9 405.487 401.902 405.487C401.904 405.487 401.906 405.487 401.908 405.487C401.91 405.487 401.913 405.487 401.915 405.487C401.917 405.487 401.919 405.487 401.921 405.487C401.923 405.487 401.925 405.487 401.927 405.487C401.929 405.487 401.931 405.487 401.933 405.487C401.935 405.487 401.937 405.487 401.939 405.487C401.941 405.487 401.943 405.487 401.945 405.487C401.948 405.487 401.95 405.487 401.952 405.487C401.954 405.487 401.956 405.487 401.958 405.487C401.96 405.487 401.962 405.487 401.964 405.487C401.966 405.487 401.968 405.487 401.97 405.487C401.972 405.487 401.974 405.487 401.976 405.487C401.978 405.487 401.98 405.487 401.983 405.487C401.985 405.487 401.987 405.487 401.989 405.487C401.991 405.487 401.993 405.487 401.995 405.487C401.997 405.487 401.999 405.487 402.001 405.487C402.003 405.487 402.005 405.487 402.007 405.487C402.009 405.487 402.011 405.487 402.013 405.487C402.015 405.487 402.018 405.487 402.02 405.487C402.022 405.487 402.024 405.487 402.026 405.487C402.028 405.487 402.03 405.487 402.032 405.487C402.034 405.487 402.036 405.487 402.038 405.487C402.04 405.487 402.042 405.487 402.044 405.487C402.046 405.487 402.048 405.487 402.05 405.487C402.052 405.487 402.055 405.487 402.057 405.487C402.059 405.487 402.061 405.487 402.063 405.487C402.065 405.487 402.067 405.487 402.069 405.487C402.071 405.487 402.073 405.487 402.075 405.487C402.077 405.487 402.079 405.487 402.081 405.487C402.083 405.487 402.085 405.487 402.087 405.487C402.09 405.487 402.092 405.487 402.094 405.487C402.096 405.487 402.098 405.487 402.1 405.487C402.102 405.487 402.104 405.487 402.106 405.487C402.108 405.487 402.11 405.487 402.112 405.487C402.114 405.487 402.116 405.487 402.118 405.487C402.12 405.487 402.122 405.487 402.125 405.487C402.127 405.487 402.129 405.487 402.131 405.487C402.133 405.487 402.135 405.487 402.137 405.487C402.139 405.487 402.141 405.487 402.143 405.487C402.145 405.487 402.147 405.487 402.149 405.487C402.151 405.487 402.153 405.487 402.155 405.487C402.157 405.487 402.16 405.487 402.162 405.487C402.164 405.487 402.166 405.487 402.168 405.487C402.17 405.487 402.172 405.487 402.174 405.487C402.176 405.487 402.178 405.487 402.18 405.487C402.182 405.487 402.184 405.487 402.186 405.487C402.188 405.487 402.19 405.487 402.192 405.487C402.194 405.487 402.197 405.487 402.199 405.487C402.201 405.487 402.203 405.487 402.205 405.487C402.207 405.487 402.209 405.487 402.211 405.487C402.213 405.487 402.215 405.487 402.217 405.487C402.219 405.487 402.221 405.487 402.223 405.487C402.225 405.487 402.227 405.487 402.229 405.487C402.232 405.487 402.234 405.487 402.236 405.487C402.238 405.487 402.24 405.487 402.242 405.487C402.244 405.487 402.246 405.487 402.248 405.487C402.25 405.487 402.252 405.487 402.254 405.487C402.256 405.487 402.258 405.487 402.26 405.487C402.262 405.487 402.264 405.487 402.267 405.487C402.269 405.487 402.271 405.487 402.273 405.487C402.275 405.487 402.277 405.487 402.279 405.487C402.281 405.487 402.283 405.487 402.285 405.487C402.287 405.487 402.289 405.487 402.291 405.487C402.293 405.487 402.295 405.487 402.297 405.487C402.299 405.487 402.302 405.487 402.304 405.487C402.306 405.487 402.308 405.487 402.31 405.487C402.312 405.487 402.314 405.487 402.316 405.487C402.318 405.487 402.32 405.487 402.322 405.487C402.324 405.487 402.326 405.487 402.328 405.487C402.33 405.487 402.332 405.487 402.334 405.487C402.337 405.487 402.339 405.487 402.341 405.487C402.343 405.487 402.345 405.487 402.347 405.487C402.349 405.487 402.351 405.487 402.353 405.487C402.355 405.487 402.357 405.487 402.359 405.487C402.361 405.487 402.363 405.487 402.365 405.487C402.367 405.487 402.369 405.487 402.371 405.487C402.374 405.487 402.376 405.487 402.378 405.487C402.38 405.487 402.382 405.487 402.384 405.487C402.386 405.487 402.388 405.487 402.39 405.487C402.392 405.487 402.394 405.487 402.396 405.487C402.398 405.487 402.4 405.487 402.402 405.487C402.404 405.487 402.406 405.487 402.409 405.487C402.411 405.487 402.413 405.487 402.415 405.487C402.417 405.487 402.419 405.487 402.421 405.487C402.423 405.487 402.425 405.487 402.427 405.487C402.429 405.487 402.431 405.487 402.433 405.487C402.435 405.487 402.437 405.487 402.439 405.487C402.441 405.487 402.444 405.487 402.446 405.487C402.448 405.487 402.45 405.487 402.452 405.487C402.454 405.487 402.456 405.487 402.458 405.487C402.46 405.487 402.462 405.487 402.464 405.487C402.466 405.487 402.468 405.487 402.47 405.487C402.472 405.487 402.474 405.487 402.476 405.487C402.479 405.487 402.481 405.487 402.483 405.487C402.485 405.487 402.487 405.487 402.489 405.487C402.491 405.487 402.493 405.487 402.495 405.487C402.497 405.487 402.499 405.487 402.501 405.487C402.503 405.487 402.505 405.487 402.507 405.487C402.509 405.487 402.511 405.487 402.513 405.487C402.516 405.487 402.518 405.487 402.52 405.487C402.522 405.487 402.524 405.487 402.526 405.487C402.528 405.487 402.53 405.487 402.532 405.487C402.534 405.487 402.536 405.487 402.538 405.487C402.54 405.487 402.542 405.487 402.544 405.487C402.546 405.487 402.548 405.487 402.551 405.487C402.553 405.487 402.555 405.487 402.557 405.487C402.559 405.487 402.561 405.487 402.563 405.487C402.565 405.487 402.567 405.487 402.569 405.487C402.571 405.487 402.573 405.487 402.575 405.487C402.577 405.487 402.579 405.487 402.581 405.487C402.583 405.487 402.586 405.487 402.588 405.487C402.59 405.487 402.592 405.487 402.594 405.487C402.596 405.487 402.598 405.487 402.6 405.487C402.602 405.487 402.604 405.487 402.606 405.487C402.608 405.487 402.61 405.487 402.612 405.487C402.614 405.487 402.616 405.487 402.618 405.487C402.621 405.487 402.623 405.487 402.625 405.487C402.627 405.487 402.629 405.487 402.631 405.487C402.633 405.487 402.635 405.487 402.637 405.487C402.639 405.487 402.641 405.487 402.643 405.487C402.645 405.487 402.647 405.487 402.649 405.487C402.651 405.487 402.653 405.487 402.656 405.487C402.658 405.487 402.66 405.487 402.662 405.487C402.664 405.487 402.666 405.487 402.668 405.487C402.67 405.487 402.672 405.487 402.674 405.487C402.676 405.487 402.678 405.487 402.68 405.487C402.682 405.487 402.684 405.487 402.686 405.487C402.688 405.487 402.69 405.487 402.693 405.487C402.695 405.487 402.697 405.487 402.699 405.487C402.701 405.487 402.703 405.487 402.705 405.487C402.707 405.487 402.709 405.487 402.711 405.487C402.713 405.487 402.715 405.487 402.717 405.487C402.719 405.487 402.721 405.487 402.723 405.487C402.725 405.487 402.728 405.487 402.73 405.487C402.732 405.487 402.734 405.487 402.736 405.487C402.738 405.487 402.74 405.487 402.742 405.487C402.744 405.487 402.746 405.487 402.748 405.487C402.75 405.487 402.752 405.487 402.754 405.487C402.756 405.487 402.758 405.487 402.76 405.487C402.763 405.487 402.765 405.487 402.767 405.487C402.769 405.487 402.771 405.487 402.773 405.487C402.775 405.487 402.777 405.487 402.779 405.487C402.781 405.487 402.783 405.487 402.785 405.487C402.787 405.487 402.789 405.487 402.791 405.487C402.793 405.487 402.795 405.487 402.798 405.487C402.8 405.487 402.802 405.487 402.804 405.487C402.806 405.487 402.808 405.487 402.81 405.487C402.812 405.487 402.814 405.487 402.816 405.487C402.818 405.487 402.82 405.487 402.822 405.487C402.824 405.487 402.826 405.487 402.828 405.487C402.83 405.487 402.833 405.487 402.835 405.487C402.837 405.487 402.839 405.487 402.841 405.487C402.843 405.487 402.845 405.487 402.847 405.487C402.849 405.487 402.851 405.487 402.853 405.487C402.855 405.487 402.857 405.487 402.859 405.487C402.861 405.487 402.863 405.487 402.865 405.487C402.867 405.487 402.87 405.487 402.872 405.487C402.874 405.487 402.876 405.487 402.878 405.487C402.88 405.487 402.882 405.487 402.884 405.487C402.886 405.487 402.888 405.487 402.89 405.487C402.892 405.487 402.894 405.487 402.896 405.487C402.898 405.487 402.9 405.487 402.902 405.487C402.905 405.487 402.907 405.487 402.909 405.487C402.911 405.487 402.913 405.487 402.915 405.487C402.917 405.487 402.919 405.487 402.921 405.487C402.923 405.487 402.925 405.487 402.927 405.487C402.929 405.487 402.931 405.487 402.933 405.487C402.935 405.487 402.937 405.487 402.94 405.487C402.942 405.487 402.944 405.487 402.946 405.487C402.948 405.487 402.95 405.487 402.952 405.487C402.954 405.487 402.956 405.487 402.958 405.487C402.96 405.487 402.962 405.487 402.964 405.487C402.966 405.487 402.968 405.487 402.97 405.487C402.972 405.487 402.975 405.487 402.977 405.487V392.268ZM399.815 392.268V379.05C400.144 379.05 400.348 379.076 400.401 379.084C400.456 379.092 400.412 379.088 400.255 379.049L397.049 391.873L393.843 404.697C395.585 405.133 397.627 405.487 399.815 405.487V392.268ZM397.049 391.873V378.655H390.727V391.873V405.092H397.049V391.873ZM390.727 391.873V378.655C380.014 378.655 368.18 379.204 355.251 380.281L356.349 393.454L357.447 406.627C369.807 405.597 380.893 405.092 390.727 405.092V391.873ZM356.349 393.454L355.507 380.262C342.659 381.082 329.818 382.585 316.987 384.769L319.205 397.801L321.423 410.832C333.354 408.801 345.276 407.406 357.191 406.646L356.349 393.454ZM319.205 397.801L317.216 384.732C304.522 386.664 292.875 389.314 282.329 392.735L286.407 405.308L290.485 417.882C299.433 414.98 309.651 412.625 321.193 410.869L319.205 397.801ZM422.793 407.679L430.724 397.104L430.679 397.071L430.634 397.038L422.793 407.679ZM411.333 393.849L399.099 398.854L399.239 399.197L399.399 399.532L411.333 393.849ZM418.051 349.197L408.226 340.354L408.217 340.364L408.209 340.373L418.051 349.197ZM481.67 348.407L472.489 357.916L472.575 358L472.663 358.081L481.67 348.407ZM480.09 401.357L489.14 410.991L489.216 410.919L489.292 410.846L480.09 401.357ZM442.55 413.607V400.388C436.919 400.388 433.275 399.018 430.724 397.104L422.793 407.679L414.862 418.254C422.848 424.244 432.375 426.825 442.55 426.825V413.607ZM422.793 407.679L430.634 397.038C427.354 394.62 424.953 391.704 423.268 388.166L411.333 393.849L399.399 399.532C402.983 407.059 408.221 413.362 414.951 418.321L422.793 407.679ZM411.333 393.849L423.568 388.844C421.794 384.508 420.996 380.408 420.996 376.462H407.777H394.558C394.558 384.108 396.131 391.599 399.099 398.854L411.333 393.849ZM407.777 376.462H420.996C420.996 369.085 423.282 363.165 427.893 358.021L418.051 349.197L408.209 340.373C399.122 350.509 394.558 362.765 394.558 376.462H407.777ZM418.051 349.197L427.876 358.04C432.062 353.389 437.981 350.561 447.292 350.561V337.343V324.124C431.841 324.124 418.265 329.199 408.226 340.354L418.051 349.197ZM447.292 337.343V350.561C460.648 350.561 468.216 353.791 472.489 357.916L481.67 348.407L490.852 338.897C479.846 328.271 464.495 324.124 447.292 324.124V337.343ZM481.67 348.407L472.663 358.081C478.008 363.058 479.911 367.858 479.911 372.906H493.129H506.348C506.348 359.514 500.612 347.981 490.678 338.732L481.67 348.407ZM493.129 372.906H479.911C479.911 379.325 477.431 385.522 470.887 391.867L480.09 401.357L489.292 410.846C500.135 400.332 506.348 387.562 506.348 372.906H493.129ZM480.09 401.357L471.039 391.723C465.582 396.849 456.779 400.388 442.55 400.388V413.607V426.825C460.987 426.825 477.211 422.198 489.14 410.991L480.09 401.357Z" fill="#16110B" mask="url(#path-1-outside-1_139_2)"/>
</svg>
