<svg width="512" height="512" viewBox="0 0 512 512" fill="none" xmlns="http://www.w3.org/2000/svg">
<mask id="path-1-outside-1_154_2" maskUnits="userSpaceOnUse" x="11.012" y="93.5181" width="493" height="331" fill="black">
<rect fill="white" x="11.012" y="93.5181" width="493" height="331"/>
<path d="M25.1575 402.147C36.7485 366.847 47.8127 332.469 58.3501 299.013C62.8284 285.314 67.4385 270.694 72.1803 255.151C76.9221 239.609 81.6639 224.066 86.4057 208.524C91.1475 192.718 95.6259 177.57 99.8408 163.081C104.056 148.592 107.612 135.684 110.51 124.357C124.999 124.357 138.697 123.566 151.606 121.986C158.191 121.195 164.909 120.405 171.758 119.615C178.871 118.824 186.115 118.166 193.491 117.639L191.121 137.001C190.594 140.689 190.067 144.509 189.54 148.461C189.013 152.149 188.486 155.969 187.959 159.92C187.432 163.872 186.774 167.955 185.984 172.17C185.193 176.121 184.535 180.204 184.008 184.419C182.954 192.586 181.373 204.045 179.266 218.797C177.159 233.286 174.656 249.092 171.758 266.216H176.895C184.535 246.195 190.857 229.598 195.862 216.427C200.868 202.991 204.951 192.059 208.112 183.629C212.59 171.248 217.464 158.735 222.733 146.09C228.001 133.445 232.348 123.698 235.772 116.849C242.095 116.322 249.603 115.532 258.296 114.478C267.253 113.161 276.21 111.712 285.166 110.131C294.386 108.551 302.289 107.233 308.875 106.18C305.187 128.308 301.763 150.7 298.601 173.355C295.704 195.747 293.069 217.217 290.698 237.765C288.591 258.049 286.747 276.358 285.166 292.691C283.586 309.023 282.137 325.225 280.82 341.294C279.502 357.1 278.185 372.774 276.868 388.317L208.112 400.567C208.112 400.04 208.507 394.112 209.297 382.785C210.088 371.457 211.405 357.363 213.249 340.504C215.093 323.644 216.937 307.706 218.781 292.691C220.625 277.411 222.469 264.898 224.313 255.151H220.757C214.171 275.172 206.136 297.037 196.653 320.746C187.432 344.455 178.344 370.667 169.387 399.381C160.167 399.645 152.264 400.04 145.678 400.567C139.092 400.83 131.453 401.225 122.76 401.752L135.404 255.151H129.477C129.214 258.049 128.028 263.713 125.921 272.143C123.813 280.309 121.311 289.793 118.413 300.594C115.515 311.131 112.486 321.668 109.324 332.206C97.4699 373.565 91.1475 395.43 90.3572 397.801L25.1575 402.147ZM286.407 405.308C289.305 384.497 292.335 363.554 295.496 342.479C298.92 321.405 302.345 301.12 305.77 281.626C309.458 261.869 312.882 244.087 316.044 228.281C319.468 211.158 322.893 193.771 326.317 176.121C329.742 158.471 333.298 140.689 336.986 122.776L406.138 113.688L385.59 202.991C381.902 218.534 378.082 235.262 374.131 253.176C370.443 270.826 367.018 287.949 363.857 304.545C360.695 321.141 358.193 335.894 356.349 348.802C362.935 348.275 369.916 348.012 377.292 348.012C384.931 347.748 391.649 347.616 397.444 347.616C397.708 353.675 398.235 360.13 399.025 366.979C399.815 373.565 400.606 379.36 401.396 384.365C402.45 389.107 402.977 391.742 402.977 392.268C401.923 392.268 400.869 392.268 399.815 392.268C399.025 392.268 398.103 392.137 397.049 391.873H390.727C380.453 391.873 368.994 392.4 356.349 393.454C343.967 394.244 331.586 395.693 319.205 397.801C307.087 399.645 296.154 402.147 286.407 405.308ZM442.55 413.607C434.647 413.607 428.061 411.631 422.793 407.679C417.788 403.991 413.968 399.381 411.333 393.849C408.962 388.053 407.777 382.258 407.777 376.462C407.777 365.925 411.202 356.837 418.051 349.197C425.164 341.294 434.911 337.343 447.292 337.343C462.571 337.343 474.031 341.031 481.67 348.407C489.31 355.519 493.129 363.686 493.129 372.906C493.129 383.443 488.783 392.927 480.09 401.357C471.396 409.523 458.883 413.607 442.55 413.607Z"/>
</mask>
<path d="M25.1575 402.147C36.7485 366.847 47.8127 332.469 58.3501 299.013C62.8284 285.314 67.4385 270.694 72.1803 255.151C76.9221 239.609 81.6639 224.066 86.4057 208.524C91.1475 192.718 95.6259 177.57 99.8408 163.081C104.056 148.592 107.612 135.684 110.51 124.357C124.999 124.357 138.697 123.566 151.606 121.986C158.191 121.195 164.909 120.405 171.758 119.615C178.871 118.824 186.115 118.166 193.491 117.639L191.121 137.001C190.594 140.689 190.067 144.509 189.54 148.461C189.013 152.149 188.486 155.969 187.959 159.92C187.432 163.872 186.774 167.955 185.984 172.17C185.193 176.121 184.535 180.204 184.008 184.419C182.954 192.586 181.373 204.045 179.266 218.797C177.159 233.286 174.656 249.092 171.758 266.216H176.895C184.535 246.195 190.857 229.598 195.862 216.427C200.868 202.991 204.951 192.059 208.112 183.629C212.59 171.248 217.464 158.735 222.733 146.09C228.001 133.445 232.348 123.698 235.772 116.849C242.095 116.322 249.603 115.532 258.296 114.478C267.253 113.161 276.21 111.712 285.166 110.131C294.386 108.551 302.289 107.233 308.875 106.18C305.187 128.308 301.763 150.7 298.601 173.355C295.704 195.747 293.069 217.217 290.698 237.765C288.591 258.049 286.747 276.358 285.166 292.691C283.586 309.023 282.137 325.225 280.82 341.294C279.502 357.1 278.185 372.774 276.868 388.317L208.112 400.567C208.112 400.04 208.507 394.112 209.297 382.785C210.088 371.457 211.405 357.363 213.249 340.504C215.093 323.644 216.937 307.706 218.781 292.691C220.625 277.411 222.469 264.898 224.313 255.151H220.757C214.171 275.172 206.136 297.037 196.653 320.746C187.432 344.455 178.344 370.667 169.387 399.381C160.167 399.645 152.264 400.04 145.678 400.567C139.092 400.83 131.453 401.225 122.76 401.752L135.404 255.151H129.477C129.214 258.049 128.028 263.713 125.921 272.143C123.813 280.309 121.311 289.793 118.413 300.594C115.515 311.131 112.486 321.668 109.324 332.206C97.4699 373.565 91.1475 395.43 90.3572 397.801L25.1575 402.147ZM286.407 405.308C289.305 384.497 292.335 363.554 295.496 342.479C298.92 321.405 302.345 301.12 305.77 281.626C309.458 261.869 312.882 244.087 316.044 228.281C319.468 211.158 322.893 193.771 326.317 176.121C329.742 158.471 333.298 140.689 336.986 122.776L406.138 113.688L385.59 202.991C381.902 218.534 378.082 235.262 374.131 253.176C370.443 270.826 367.018 287.949 363.857 304.545C360.695 321.141 358.193 335.894 356.349 348.802C362.935 348.275 369.916 348.012 377.292 348.012C384.931 347.748 391.649 347.616 397.444 347.616C397.708 353.675 398.235 360.13 399.025 366.979C399.815 373.565 400.606 379.36 401.396 384.365C402.45 389.107 402.977 391.742 402.977 392.268C401.923 392.268 400.869 392.268 399.815 392.268C399.025 392.268 398.103 392.137 397.049 391.873H390.727C380.453 391.873 368.994 392.4 356.349 393.454C343.967 394.244 331.586 395.693 319.205 397.801C307.087 399.645 296.154 402.147 286.407 405.308ZM442.55 413.607C434.647 413.607 428.061 411.631 422.793 407.679C417.788 403.991 413.968 399.381 411.333 393.849C408.962 388.053 407.777 382.258 407.777 376.462C407.777 365.925 411.202 356.837 418.051 349.197C425.164 341.294 434.911 337.343 447.292 337.343C462.571 337.343 474.031 341.031 481.67 348.407C489.31 355.519 493.129 363.686 493.129 372.906C493.129 383.443 488.783 392.927 480.09 401.357C471.396 409.523 458.883 413.607 442.55 413.607Z" fill="white"/>
<path d="M25.1575 402.147L15.6565 399.027L11.0321 413.111L25.8226 412.125L25.1575 402.147ZM58.3501 299.013L48.8451 295.906L48.8283 295.957L48.812 296.009L58.3501 299.013ZM72.1803 255.151L62.6156 252.233L62.6156 252.233L72.1803 255.151ZM86.4057 208.524L95.9705 211.442L95.9773 211.419L95.984 211.397L86.4057 208.524ZM99.8408 163.081L109.443 165.875L109.443 165.875L99.8408 163.081ZM110.51 124.357V114.357H102.746L100.822 121.878L110.51 124.357ZM151.606 121.986L150.414 112.057L150.402 112.058L150.39 112.06L151.606 121.986ZM171.758 119.615L170.654 109.676L170.633 109.678L170.612 109.681L171.758 119.615ZM193.491 117.639L203.417 118.854L204.893 106.799L192.779 107.664L193.491 117.639ZM191.121 137.001L201.02 138.416L201.034 138.316L201.046 138.217L191.121 137.001ZM189.54 148.461L199.439 149.875L199.446 149.829L199.452 149.782L189.54 148.461ZM187.959 159.92L197.872 161.242L197.872 161.242L187.959 159.92ZM185.984 172.17L195.789 174.131L195.801 174.072L195.812 174.013L185.984 172.17ZM184.008 184.419L193.926 185.699L193.928 185.679L193.931 185.66L184.008 184.419ZM179.266 218.797L189.162 220.237L189.164 220.224L189.166 220.212L179.266 218.797ZM171.758 266.216L161.898 264.547L159.924 276.216H171.758V266.216ZM176.895 266.216V276.216H183.783L186.238 269.781L176.895 266.216ZM195.862 216.427L205.21 219.979L205.222 219.948L205.233 219.918L195.862 216.427ZM208.112 183.629L217.475 187.14L217.496 187.086L217.516 187.03L208.112 183.629ZM222.733 146.09L231.963 149.936L231.963 149.936L222.733 146.09ZM235.772 116.849L234.942 106.883L229.342 107.35L226.828 112.377L235.772 116.849ZM258.296 114.478L259.499 124.405L259.625 124.39L259.751 124.371L258.296 114.478ZM285.166 110.131L283.477 100.275L283.453 100.279L283.428 100.283L285.166 110.131ZM308.875 106.18L318.739 107.824L321.025 94.1085L307.295 96.3053L308.875 106.18ZM298.601 173.355L288.697 171.973L288.69 172.022L288.684 172.072L298.601 173.355ZM290.698 237.765L280.764 236.618L280.758 236.675L280.752 236.731L290.698 237.765ZM280.82 341.294L290.785 342.124L290.786 342.111L280.82 341.294ZM276.868 388.317L278.622 398.162L286.184 396.815L286.832 389.161L276.868 388.317ZM208.112 400.567H198.112V412.506L209.866 410.412L208.112 400.567ZM209.297 382.785L199.322 382.089L209.297 382.785ZM213.249 340.504L223.19 341.591L223.19 341.591L213.249 340.504ZM218.781 292.691L228.706 293.909L228.708 293.899L228.709 293.889L218.781 292.691ZM224.313 255.151L234.139 257.01L236.382 245.151H224.313V255.151ZM220.757 255.151V245.151H213.519L211.258 252.027L220.757 255.151ZM196.653 320.746L187.368 317.032L187.35 317.077L187.333 317.122L196.653 320.746ZM169.387 399.381L169.673 409.377L176.808 409.173L178.934 402.359L169.387 399.381ZM145.678 400.567L146.078 410.559L146.277 410.551L146.476 410.535L145.678 400.567ZM122.76 401.752L112.797 400.893L111.801 412.435L123.364 411.734L122.76 401.752ZM135.404 255.151L145.367 256.011L146.304 245.151H135.404V255.151ZM129.477 255.151V245.151H120.345L119.518 254.246L129.477 255.151ZM125.921 272.143L135.604 274.642L135.613 274.605L135.622 274.568L125.921 272.143ZM118.413 300.594L128.055 303.245L128.063 303.215L128.071 303.185L118.413 300.594ZM109.324 332.206L99.7462 329.332L99.7285 329.391L99.7115 329.45L109.324 332.206ZM90.3572 397.801L91.0224 407.778L97.7211 407.332L99.8441 400.963L90.3572 397.801ZM25.1575 402.147L34.6584 405.267C46.2613 369.931 57.338 335.514 67.8882 302.017L58.3501 299.013L48.812 296.009C38.2875 329.424 27.2357 363.764 15.6565 399.027L25.1575 402.147ZM58.3501 299.013L67.855 302.12C72.3564 288.352 76.9864 273.667 81.7451 258.069L72.1803 255.151L62.6156 252.233C57.8907 267.72 53.3005 282.277 48.8451 295.906L58.3501 299.013ZM72.1803 255.151L81.7451 258.069C86.4869 242.527 91.2287 226.984 95.9705 211.442L86.4057 208.524L76.841 205.606C72.0992 221.148 67.3574 236.691 62.6156 252.233L72.1803 255.151ZM86.4057 208.524L95.984 211.397C100.733 195.567 105.219 180.393 109.443 165.875L99.8408 163.081L90.2389 160.288C86.0324 174.748 81.562 189.868 76.8275 205.65L86.4057 208.524ZM99.8408 163.081L109.443 165.875C113.68 151.309 117.267 138.293 120.198 126.835L110.51 124.357L100.822 121.878C97.9575 133.075 94.4316 145.876 90.2389 160.288L99.8408 163.081ZM110.51 124.357V134.357C125.36 134.357 139.467 133.547 152.821 131.912L151.606 121.986L150.39 112.06C137.928 113.586 124.638 114.357 110.51 114.357V124.357ZM151.606 121.986L152.797 131.914C159.367 131.126 166.07 130.338 172.904 129.549L171.758 119.615L170.612 109.681C163.748 110.473 157.016 111.265 150.414 112.057L151.606 121.986ZM171.758 119.615L172.862 129.554C179.841 128.778 186.954 128.131 194.204 127.614L193.491 117.639L192.779 107.664C185.276 108.2 177.901 108.871 170.654 109.676L171.758 119.615ZM193.491 117.639L183.566 116.424L181.195 135.786L191.121 137.001L201.046 138.217L203.417 118.854L193.491 117.639ZM191.121 137.001L181.221 135.587C180.689 139.308 180.158 143.159 179.628 147.139L189.54 148.461L199.452 149.782C199.975 145.86 200.498 142.071 201.02 138.416L191.121 137.001ZM189.54 148.461L179.64 147.047C179.109 150.768 178.578 154.618 178.047 158.598L187.959 159.92L197.872 161.242C198.395 157.319 198.917 153.53 199.439 149.875L189.54 148.461ZM187.959 159.92L178.047 158.598C177.545 162.363 176.915 166.272 176.155 170.327L185.984 172.17L195.812 174.013C196.633 169.638 197.32 165.38 197.872 161.242L187.959 159.92ZM185.984 172.17L176.178 170.209C175.337 174.411 174.64 178.735 174.085 183.179L184.008 184.419L193.931 185.66C194.429 181.674 195.049 177.831 195.789 174.131L185.984 172.17ZM184.008 184.419L174.09 183.14C173.045 191.239 171.472 202.646 169.367 217.383L179.266 218.797L189.166 220.212C191.275 205.444 192.863 193.933 193.926 185.699L184.008 184.419ZM179.266 218.797L169.37 217.358C167.276 231.758 164.786 247.486 161.898 264.547L171.758 266.216L181.618 267.884C184.526 250.698 187.041 234.815 189.162 220.237L179.266 218.797ZM171.758 266.216V276.216H176.895V266.216V256.216H171.758V266.216ZM176.895 266.216L186.238 269.781C193.879 249.757 200.203 233.156 205.21 219.979L195.862 216.427L186.514 212.874C181.511 226.04 175.191 242.632 167.552 262.65L176.895 266.216ZM195.862 216.427L205.233 219.918C210.237 206.486 214.318 195.561 217.475 187.14L208.112 183.629L198.749 180.118C195.584 188.557 191.498 199.497 186.492 212.935L195.862 216.427ZM208.112 183.629L217.516 187.03C221.938 174.805 226.753 162.44 231.963 149.936L222.733 146.09L213.502 142.244C208.174 155.03 203.243 167.691 198.708 180.228L208.112 183.629ZM222.733 146.09L231.963 149.936C237.201 137.366 241.445 127.865 244.717 121.321L235.772 116.849L226.828 112.377C223.251 119.531 218.802 129.524 213.502 142.244L222.733 146.09ZM235.772 116.849L236.603 126.814C243.086 126.274 250.725 125.469 259.499 124.405L258.296 114.478L257.093 104.551C248.481 105.594 241.103 106.37 234.942 106.883L235.772 116.849ZM258.296 114.478L259.751 124.371C268.803 123.04 277.854 121.576 286.904 119.979L285.166 110.131L283.428 100.283C274.565 101.847 265.703 103.281 256.841 104.584L258.296 114.478ZM285.166 110.131L286.856 119.987C296.053 118.411 303.917 117.1 310.455 116.054L308.875 106.18L307.295 96.3053C300.662 97.3667 292.72 98.6904 283.477 100.275L285.166 110.131ZM308.875 106.18L299.011 104.536C295.308 126.753 291.87 149.232 288.697 171.973L298.601 173.355L308.505 174.737C311.655 152.168 315.066 129.863 318.739 107.824L308.875 106.18ZM298.601 173.355L288.684 172.072C285.781 194.505 283.141 216.021 280.764 236.618L290.698 237.765L300.632 238.911C302.998 218.413 305.626 196.989 308.519 174.639L298.601 173.355ZM290.698 237.765L280.752 236.731C278.643 257.034 276.796 275.366 275.213 291.727L285.166 292.691L295.12 293.654C296.698 277.349 298.539 259.064 300.645 238.798L290.698 237.765ZM285.166 292.691L275.213 291.727C273.628 308.108 272.174 324.358 270.853 340.477L280.82 341.294L290.786 342.111C292.099 326.091 293.544 309.939 295.12 293.654L285.166 292.691ZM280.82 341.294L270.854 340.464C269.537 356.265 268.221 371.935 266.904 387.472L276.868 388.317L286.832 389.161C288.15 373.614 289.468 357.935 290.785 342.124L280.82 341.294ZM276.868 388.317L275.114 378.472L206.358 390.722L208.112 400.567L209.866 410.412L278.622 398.162L276.868 388.317ZM208.112 400.567H218.112C218.112 400.741 218.168 399.659 218.386 396.391C218.583 393.443 218.878 389.142 219.273 383.481L209.297 382.785L199.322 382.089C198.558 393.033 198.112 399.577 198.112 400.567H208.112ZM209.297 382.785L219.273 383.481C220.051 372.33 221.354 358.377 223.19 341.591L213.249 340.504L203.308 339.416C201.456 356.35 200.124 370.584 199.322 382.089L209.297 382.785ZM213.249 340.504L223.19 341.591C225.029 324.77 226.868 308.876 228.706 293.909L218.781 292.691L208.856 291.472C207.006 306.536 205.156 322.518 203.308 339.416L213.249 340.504ZM218.781 292.691L228.709 293.889C230.539 278.725 232.352 266.454 234.139 257.01L224.313 255.151L214.487 253.292C212.586 263.343 210.711 276.098 208.853 291.492L218.781 292.691ZM224.313 255.151V245.151H220.757V255.151V265.151H224.313V255.151ZM220.757 255.151L211.258 252.027C204.749 271.813 196.789 293.478 187.368 317.032L196.653 320.746L205.937 324.46C215.483 300.596 223.593 278.532 230.256 258.276L220.757 255.151ZM196.653 320.746L187.333 317.122C178.016 341.078 168.854 367.509 159.841 396.403L169.387 399.381L178.934 402.359C187.834 373.825 196.849 347.833 205.973 324.371L196.653 320.746ZM169.387 399.381L169.102 389.385C159.772 389.652 151.689 390.054 144.881 390.598L145.678 400.567L146.476 410.535C152.839 410.026 160.562 409.637 169.673 409.377L169.387 399.381ZM145.678 400.567L145.279 390.575C138.607 390.841 130.896 391.241 122.155 391.77L122.76 401.752L123.364 411.734C132.01 411.21 139.578 410.819 146.078 410.559L145.678 400.567ZM122.76 401.752L132.723 402.611L145.367 256.011L135.404 255.151L125.441 254.292L112.797 400.893L122.76 401.752ZM135.404 255.151V245.151H129.477V255.151V265.151H135.404V255.151ZM129.477 255.151L119.518 254.246C119.336 256.246 118.358 261.163 116.219 269.717L125.921 272.143L135.622 274.568C137.699 266.263 139.091 259.852 139.436 256.057L129.477 255.151ZM125.921 272.143L116.238 269.644C114.141 277.771 111.646 287.223 108.754 298.002L118.413 300.594L128.071 303.185C130.975 292.363 133.486 282.847 135.604 274.642L125.921 272.143ZM118.413 300.594L108.771 297.942C105.894 308.405 102.885 318.868 99.7462 329.332L109.324 332.206L118.903 335.079C122.086 324.468 125.137 313.857 128.055 303.245L118.413 300.594ZM109.324 332.206L99.7115 329.45C87.7954 371.024 81.5714 392.535 80.8704 394.638L90.3572 397.801L99.8441 400.963C100.724 398.324 107.144 376.105 118.937 334.961L109.324 332.206ZM90.3572 397.801L89.692 387.823L24.4923 392.169L25.1575 402.147L25.8226 412.125L91.0224 407.778L90.3572 397.801ZM286.407 405.308L276.503 403.929L274.3 419.748L289.492 414.821L286.407 405.308ZM295.496 342.479L285.625 340.876L285.615 340.936L285.606 340.996L295.496 342.479ZM305.77 281.626L295.939 279.791L295.93 279.844L295.92 279.896L305.77 281.626ZM316.044 228.281L325.849 230.242L325.849 230.242L316.044 228.281ZM326.317 176.121L336.134 178.026L336.134 178.026L326.317 176.121ZM336.986 122.776L335.683 112.861L328.627 113.789L327.192 120.759L336.986 122.776ZM406.138 113.688L415.883 115.93L419.112 101.896L404.835 103.773L406.138 113.688ZM385.59 202.991L395.32 205.3L395.328 205.267L395.335 205.234L385.59 202.991ZM374.131 253.176L364.365 251.021L364.353 251.076L364.342 251.13L374.131 253.176ZM363.857 304.545L354.033 302.674L354.033 302.674L363.857 304.545ZM356.349 348.802L346.449 347.388L344.681 359.767L357.146 358.77L356.349 348.802ZM377.292 348.012V358.012H377.464L377.636 358.006L377.292 348.012ZM397.444 347.616L407.435 347.182L407.019 337.616H397.444V347.616ZM399.025 366.979L389.091 368.125L389.094 368.148L389.096 368.17L399.025 366.979ZM401.396 384.365L391.518 385.925L391.567 386.232L391.634 386.535L401.396 384.365ZM402.977 392.268V402.268H412.977V392.268H402.977ZM397.049 391.873L399.475 382.172L398.28 381.873H397.049V391.873ZM356.349 393.454L356.986 403.434L357.083 403.427L357.179 403.419L356.349 393.454ZM319.205 397.801L320.709 407.687L320.796 407.673L320.883 407.659L319.205 397.801ZM286.407 405.308L296.312 406.687C299.205 385.912 302.229 365.003 305.385 343.963L295.496 342.479L285.606 340.996C282.44 362.105 279.406 383.083 276.503 403.929L286.407 405.308ZM295.496 342.479L305.366 344.083C308.785 323.048 312.202 302.806 315.619 283.357L305.77 281.626L295.92 279.896C292.488 299.435 289.056 319.762 285.625 340.876L295.496 342.479ZM305.77 281.626L315.6 283.461C319.282 263.736 322.698 245.998 325.849 230.242L316.044 228.281L306.238 226.32C303.066 242.177 299.634 260.002 295.939 279.791L305.77 281.626ZM316.044 228.281L325.849 230.242C329.278 213.1 332.706 195.694 336.134 178.026L326.317 176.121L316.501 174.217C313.079 191.848 309.658 209.216 306.238 226.32L316.044 228.281ZM326.317 176.121L336.134 178.026C339.552 160.414 343.101 142.669 346.781 124.793L336.986 122.776L327.192 120.759C323.496 138.71 319.933 156.529 316.501 174.217L326.317 176.121ZM336.986 122.776L338.29 132.691L407.441 123.602L406.138 113.688L404.835 103.773L335.683 112.861L336.986 122.776ZM406.138 113.688L396.392 111.445L375.845 200.749L385.59 202.991L395.335 205.234L415.883 115.93L406.138 113.688ZM385.59 202.991L375.86 200.683C372.158 216.284 368.327 233.064 364.365 251.021L374.131 253.176L383.896 255.33C387.838 237.46 391.646 220.784 395.32 205.3L385.59 202.991ZM374.131 253.176L364.342 251.13C360.643 268.834 357.206 286.016 354.033 302.674L363.857 304.545L373.68 306.416C376.829 289.882 380.242 272.817 383.919 255.221L374.131 253.176ZM363.857 304.545L354.033 302.674C350.851 319.38 348.32 334.29 346.449 347.388L356.349 348.802L366.248 350.216C368.065 337.498 370.54 322.902 373.68 306.416L363.857 304.545ZM356.349 348.802L357.146 358.77C363.438 358.267 370.152 358.012 377.292 358.012V348.012V338.012C369.68 338.012 362.431 338.283 355.551 338.834L356.349 348.802ZM377.292 348.012L377.636 358.006C385.195 357.745 391.793 357.616 397.444 357.616V347.616V337.616C391.505 337.616 384.668 337.751 376.947 338.018L377.292 348.012ZM397.444 347.616L387.454 348.051C387.729 354.377 388.277 361.071 389.091 368.125L399.025 366.979L408.959 365.833C408.193 359.189 407.687 352.974 407.435 347.182L397.444 347.616ZM399.025 366.979L389.096 368.17C389.897 374.844 390.704 380.767 391.518 385.925L401.396 384.365L411.274 382.806C410.507 377.954 409.734 372.285 408.954 365.787L399.025 366.979ZM401.396 384.365L391.634 386.535C392.156 388.882 392.533 390.645 392.776 391.859C392.898 392.472 392.973 392.88 393.014 393.122C393.034 393.246 393.036 393.265 393.029 393.212C393.026 393.184 393.015 393.1 393.005 392.975C392.996 392.871 392.977 392.613 392.977 392.268H402.977H412.977C412.977 391.168 412.783 390.082 412.742 389.834C412.65 389.286 412.528 388.64 412.387 387.936C412.103 386.515 411.69 384.591 411.158 382.196L401.396 384.365ZM402.977 392.268V382.268C402.975 382.268 402.972 382.268 402.97 382.268C402.968 382.268 402.966 382.268 402.964 382.268C402.962 382.268 402.96 382.268 402.958 382.268C402.956 382.268 402.954 382.268 402.952 382.268C402.95 382.268 402.948 382.268 402.946 382.268C402.944 382.268 402.942 382.268 402.94 382.268C402.937 382.268 402.935 382.268 402.933 382.268C402.931 382.268 402.929 382.268 402.927 382.268C402.925 382.268 402.923 382.268 402.921 382.268C402.919 382.268 402.917 382.268 402.915 382.268C402.913 382.268 402.911 382.268 402.909 382.268C402.907 382.268 402.905 382.268 402.902 382.268C402.9 382.268 402.898 382.268 402.896 382.268C402.894 382.268 402.892 382.268 402.89 382.268C402.888 382.268 402.886 382.268 402.884 382.268C402.882 382.268 402.88 382.268 402.878 382.268C402.876 382.268 402.874 382.268 402.872 382.268C402.87 382.268 402.867 382.268 402.865 382.268C402.863 382.268 402.861 382.268 402.859 382.268C402.857 382.268 402.855 382.268 402.853 382.268C402.851 382.268 402.849 382.268 402.847 382.268C402.845 382.268 402.843 382.268 402.841 382.268C402.839 382.268 402.837 382.268 402.835 382.268C402.833 382.268 402.83 382.268 402.828 382.268C402.826 382.268 402.824 382.268 402.822 382.268C402.82 382.268 402.818 382.268 402.816 382.268C402.814 382.268 402.812 382.268 402.81 382.268C402.808 382.268 402.806 382.268 402.804 382.268C402.802 382.268 402.8 382.268 402.798 382.268C402.795 382.268 402.793 382.268 402.791 382.268C402.789 382.268 402.787 382.268 402.785 382.268C402.783 382.268 402.781 382.268 402.779 382.268C402.777 382.268 402.775 382.268 402.773 382.268C402.771 382.268 402.769 382.268 402.767 382.268C402.765 382.268 402.763 382.268 402.76 382.268C402.758 382.268 402.756 382.268 402.754 382.268C402.752 382.268 402.75 382.268 402.748 382.268C402.746 382.268 402.744 382.268 402.742 382.268C402.74 382.268 402.738 382.268 402.736 382.268C402.734 382.268 402.732 382.268 402.73 382.268C402.728 382.268 402.725 382.268 402.723 382.268C402.721 382.268 402.719 382.268 402.717 382.268C402.715 382.268 402.713 382.268 402.711 382.268C402.709 382.268 402.707 382.268 402.705 382.268C402.703 382.268 402.701 382.268 402.699 382.268C402.697 382.268 402.695 382.268 402.693 382.268C402.69 382.268 402.688 382.268 402.686 382.268C402.684 382.268 402.682 382.268 402.68 382.268C402.678 382.268 402.676 382.268 402.674 382.268C402.672 382.268 402.67 382.268 402.668 382.268C402.666 382.268 402.664 382.268 402.662 382.268C402.66 382.268 402.658 382.268 402.656 382.268C402.653 382.268 402.651 382.268 402.649 382.268C402.647 382.268 402.645 382.268 402.643 382.268C402.641 382.268 402.639 382.268 402.637 382.268C402.635 382.268 402.633 382.268 402.631 382.268C402.629 382.268 402.627 382.268 402.625 382.268C402.623 382.268 402.621 382.268 402.618 382.268C402.616 382.268 402.614 382.268 402.612 382.268C402.61 382.268 402.608 382.268 402.606 382.268C402.604 382.268 402.602 382.268 402.6 382.268C402.598 382.268 402.596 382.268 402.594 382.268C402.592 382.268 402.59 382.268 402.588 382.268C402.586 382.268 402.583 382.268 402.581 382.268C402.579 382.268 402.577 382.268 402.575 382.268C402.573 382.268 402.571 382.268 402.569 382.268C402.567 382.268 402.565 382.268 402.563 382.268C402.561 382.268 402.559 382.268 402.557 382.268C402.555 382.268 402.553 382.268 402.551 382.268C402.548 382.268 402.546 382.268 402.544 382.268C402.542 382.268 402.54 382.268 402.538 382.268C402.536 382.268 402.534 382.268 402.532 382.268C402.53 382.268 402.528 382.268 402.526 382.268C402.524 382.268 402.522 382.268 402.52 382.268C402.518 382.268 402.516 382.268 402.513 382.268C402.511 382.268 402.509 382.268 402.507 382.268C402.505 382.268 402.503 382.268 402.501 382.268C402.499 382.268 402.497 382.268 402.495 382.268C402.493 382.268 402.491 382.268 402.489 382.268C402.487 382.268 402.485 382.268 402.483 382.268C402.481 382.268 402.479 382.268 402.476 382.268C402.474 382.268 402.472 382.268 402.47 382.268C402.468 382.268 402.466 382.268 402.464 382.268C402.462 382.268 402.46 382.268 402.458 382.268C402.456 382.268 402.454 382.268 402.452 382.268C402.45 382.268 402.448 382.268 402.446 382.268C402.444 382.268 402.441 382.268 402.439 382.268C402.437 382.268 402.435 382.268 402.433 382.268C402.431 382.268 402.429 382.268 402.427 382.268C402.425 382.268 402.423 382.268 402.421 382.268C402.419 382.268 402.417 382.268 402.415 382.268C402.413 382.268 402.411 382.268 402.409 382.268C402.406 382.268 402.404 382.268 402.402 382.268C402.4 382.268 402.398 382.268 402.396 382.268C402.394 382.268 402.392 382.268 402.39 382.268C402.388 382.268 402.386 382.268 402.384 382.268C402.382 382.268 402.38 382.268 402.378 382.268C402.376 382.268 402.374 382.268 402.371 382.268C402.369 382.268 402.367 382.268 402.365 382.268C402.363 382.268 402.361 382.268 402.359 382.268C402.357 382.268 402.355 382.268 402.353 382.268C402.351 382.268 402.349 382.268 402.347 382.268C402.345 382.268 402.343 382.268 402.341 382.268C402.339 382.268 402.337 382.268 402.334 382.268C402.332 382.268 402.33 382.268 402.328 382.268C402.326 382.268 402.324 382.268 402.322 382.268C402.32 382.268 402.318 382.268 402.316 382.268C402.314 382.268 402.312 382.268 402.31 382.268C402.308 382.268 402.306 382.268 402.304 382.268C402.302 382.268 402.299 382.268 402.297 382.268C402.295 382.268 402.293 382.268 402.291 382.268C402.289 382.268 402.287 382.268 402.285 382.268C402.283 382.268 402.281 382.268 402.279 382.268C402.277 382.268 402.275 382.268 402.273 382.268C402.271 382.268 402.269 382.268 402.267 382.268C402.264 382.268 402.262 382.268 402.26 382.268C402.258 382.268 402.256 382.268 402.254 382.268C402.252 382.268 402.25 382.268 402.248 382.268C402.246 382.268 402.244 382.268 402.242 382.268C402.24 382.268 402.238 382.268 402.236 382.268C402.234 382.268 402.232 382.268 402.229 382.268C402.227 382.268 402.225 382.268 402.223 382.268C402.221 382.268 402.219 382.268 402.217 382.268C402.215 382.268 402.213 382.268 402.211 382.268C402.209 382.268 402.207 382.268 402.205 382.268C402.203 382.268 402.201 382.268 402.199 382.268C402.197 382.268 402.194 382.268 402.192 382.268C402.19 382.268 402.188 382.268 402.186 382.268C402.184 382.268 402.182 382.268 402.18 382.268C402.178 382.268 402.176 382.268 402.174 382.268C402.172 382.268 402.17 382.268 402.168 382.268C402.166 382.268 402.164 382.268 402.162 382.268C402.16 382.268 402.157 382.268 402.155 382.268C402.153 382.268 402.151 382.268 402.149 382.268C402.147 382.268 402.145 382.268 402.143 382.268C402.141 382.268 402.139 382.268 402.137 382.268C402.135 382.268 402.133 382.268 402.131 382.268C402.129 382.268 402.127 382.268 402.125 382.268C402.122 382.268 402.12 382.268 402.118 382.268C402.116 382.268 402.114 382.268 402.112 382.268C402.11 382.268 402.108 382.268 402.106 382.268C402.104 382.268 402.102 382.268 402.1 382.268C402.098 382.268 402.096 382.268 402.094 382.268C402.092 382.268 402.09 382.268 402.087 382.268C402.085 382.268 402.083 382.268 402.081 382.268C402.079 382.268 402.077 382.268 402.075 382.268C402.073 382.268 402.071 382.268 402.069 382.268C402.067 382.268 402.065 382.268 402.063 382.268C402.061 382.268 402.059 382.268 402.057 382.268C402.055 382.268 402.052 382.268 402.05 382.268C402.048 382.268 402.046 382.268 402.044 382.268C402.042 382.268 402.04 382.268 402.038 382.268C402.036 382.268 402.034 382.268 402.032 382.268C402.03 382.268 402.028 382.268 402.026 382.268C402.024 382.268 402.022 382.268 402.02 382.268C402.018 382.268 402.015 382.268 402.013 382.268C402.011 382.268 402.009 382.268 402.007 382.268C402.005 382.268 402.003 382.268 402.001 382.268C401.999 382.268 401.997 382.268 401.995 382.268C401.993 382.268 401.991 382.268 401.989 382.268C401.987 382.268 401.985 382.268 401.983 382.268C401.98 382.268 401.978 382.268 401.976 382.268C401.974 382.268 401.972 382.268 401.97 382.268C401.968 382.268 401.966 382.268 401.964 382.268C401.962 382.268 401.96 382.268 401.958 382.268C401.956 382.268 401.954 382.268 401.952 382.268C401.95 382.268 401.948 382.268 401.945 382.268C401.943 382.268 401.941 382.268 401.939 382.268C401.937 382.268 401.935 382.268 401.933 382.268C401.931 382.268 401.929 382.268 401.927 382.268C401.925 382.268 401.923 382.268 401.921 382.268C401.919 382.268 401.917 382.268 401.915 382.268C401.913 382.268 401.91 382.268 401.908 382.268C401.906 382.268 401.904 382.268 401.902 382.268C401.9 382.268 401.898 382.268 401.896 382.268C401.894 382.268 401.892 382.268 401.89 382.268C401.888 382.268 401.886 382.268 401.884 382.268C401.882 382.268 401.88 382.268 401.878 382.268C401.875 382.268 401.873 382.268 401.871 382.268C401.869 382.268 401.867 382.268 401.865 382.268C401.863 382.268 401.861 382.268 401.859 382.268C401.857 382.268 401.855 382.268 401.853 382.268C401.851 382.268 401.849 382.268 401.847 382.268C401.845 382.268 401.843 382.268 401.841 382.268C401.838 382.268 401.836 382.268 401.834 382.268C401.832 382.268 401.83 382.268 401.828 382.268C401.826 382.268 401.824 382.268 401.822 382.268C401.82 382.268 401.818 382.268 401.816 382.268C401.814 382.268 401.812 382.268 401.81 382.268C401.808 382.268 401.806 382.268 401.803 382.268C401.801 382.268 401.799 382.268 401.797 382.268C401.795 382.268 401.793 382.268 401.791 382.268C401.789 382.268 401.787 382.268 401.785 382.268C401.783 382.268 401.781 382.268 401.779 382.268C401.777 382.268 401.775 382.268 401.773 382.268C401.771 382.268 401.768 382.268 401.766 382.268C401.764 382.268 401.762 382.268 401.76 382.268C401.758 382.268 401.756 382.268 401.754 382.268C401.752 382.268 401.75 382.268 401.748 382.268C401.746 382.268 401.744 382.268 401.742 382.268C401.74 382.268 401.738 382.268 401.736 382.268C401.733 382.268 401.731 382.268 401.729 382.268C401.727 382.268 401.725 382.268 401.723 382.268C401.721 382.268 401.719 382.268 401.717 382.268C401.715 382.268 401.713 382.268 401.711 382.268C401.709 382.268 401.707 382.268 401.705 382.268C401.703 382.268 401.701 382.268 401.699 382.268C401.696 382.268 401.694 382.268 401.692 382.268C401.69 382.268 401.688 382.268 401.686 382.268C401.684 382.268 401.682 382.268 401.68 382.268C401.678 382.268 401.676 382.268 401.674 382.268C401.672 382.268 401.67 382.268 401.668 382.268C401.666 382.268 401.664 382.268 401.661 382.268C401.659 382.268 401.657 382.268 401.655 382.268C401.653 382.268 401.651 382.268 401.649 382.268C401.647 382.268 401.645 382.268 401.643 382.268C401.641 382.268 401.639 382.268 401.637 382.268C401.635 382.268 401.633 382.268 401.631 382.268C401.629 382.268 401.626 382.268 401.624 382.268C401.622 382.268 401.62 382.268 401.618 382.268C401.616 382.268 401.614 382.268 401.612 382.268C401.61 382.268 401.608 382.268 401.606 382.268C401.604 382.268 401.602 382.268 401.6 382.268C401.598 382.268 401.596 382.268 401.594 382.268C401.591 382.268 401.589 382.268 401.587 382.268C401.585 382.268 401.583 382.268 401.581 382.268C401.579 382.268 401.577 382.268 401.575 382.268C401.573 382.268 401.571 382.268 401.569 382.268C401.567 382.268 401.565 382.268 401.563 382.268C401.561 382.268 401.559 382.268 401.556 382.268C401.554 382.268 401.552 382.268 401.55 382.268C401.548 382.268 401.546 382.268 401.544 382.268C401.542 382.268 401.54 382.268 401.538 382.268C401.536 382.268 401.534 382.268 401.532 382.268C401.53 382.268 401.528 382.268 401.526 382.268C401.524 382.268 401.522 382.268 401.519 382.268C401.517 382.268 401.515 382.268 401.513 382.268C401.511 382.268 401.509 382.268 401.507 382.268C401.505 382.268 401.503 382.268 401.501 382.268C401.499 382.268 401.497 382.268 401.495 382.268C401.493 382.268 401.491 382.268 401.489 382.268C401.487 382.268 401.484 382.268 401.482 382.268C401.48 382.268 401.478 382.268 401.476 382.268C401.474 382.268 401.472 382.268 401.47 382.268C401.468 382.268 401.466 382.268 401.464 382.268C401.462 382.268 401.46 382.268 401.458 382.268C401.456 382.268 401.454 382.268 401.452 382.268C401.449 382.268 401.447 382.268 401.445 382.268C401.443 382.268 401.441 382.268 401.439 382.268C401.437 382.268 401.435 382.268 401.433 382.268C401.431 382.268 401.429 382.268 401.427 382.268C401.425 382.268 401.423 382.268 401.421 382.268C401.419 382.268 401.417 382.268 401.414 382.268C401.412 382.268 401.41 382.268 401.408 382.268C401.406 382.268 401.404 382.268 401.402 382.268C401.4 382.268 401.398 382.268 401.396 382.268C401.394 382.268 401.392 382.268 401.39 382.268C401.388 382.268 401.386 382.268 401.384 382.268C401.382 382.268 401.38 382.268 401.377 382.268C401.375 382.268 401.373 382.268 401.371 382.268C401.369 382.268 401.367 382.268 401.365 382.268C401.363 382.268 401.361 382.268 401.359 382.268C401.357 382.268 401.355 382.268 401.353 382.268C401.351 382.268 401.349 382.268 401.347 382.268C401.345 382.268 401.342 382.268 401.34 382.268C401.338 382.268 401.336 382.268 401.334 382.268C401.332 382.268 401.33 382.268 401.328 382.268C401.326 382.268 401.324 382.268 401.322 382.268C401.32 382.268 401.318 382.268 401.316 382.268C401.314 382.268 401.312 382.268 401.31 382.268C401.307 382.268 401.305 382.268 401.303 382.268C401.301 382.268 401.299 382.268 401.297 382.268C401.295 382.268 401.293 382.268 401.291 382.268C401.289 382.268 401.287 382.268 401.285 382.268C401.283 382.268 401.281 382.268 401.279 382.268C401.277 382.268 401.275 382.268 401.272 382.268C401.27 382.268 401.268 382.268 401.266 382.268C401.264 382.268 401.262 382.268 401.26 382.268C401.258 382.268 401.256 382.268 401.254 382.268C401.252 382.268 401.25 382.268 401.248 382.268C401.246 382.268 401.244 382.268 401.242 382.268C401.24 382.268 401.237 382.268 401.235 382.268C401.233 382.268 401.231 382.268 401.229 382.268C401.227 382.268 401.225 382.268 401.223 382.268C401.221 382.268 401.219 382.268 401.217 382.268C401.215 382.268 401.213 382.268 401.211 382.268C401.209 382.268 401.207 382.268 401.205 382.268C401.203 382.268 401.2 382.268 401.198 382.268C401.196 382.268 401.194 382.268 401.192 382.268C401.19 382.268 401.188 382.268 401.186 382.268C401.184 382.268 401.182 382.268 401.18 382.268C401.178 382.268 401.176 382.268 401.174 382.268C401.172 382.268 401.17 382.268 401.168 382.268C401.165 382.268 401.163 382.268 401.161 382.268C401.159 382.268 401.157 382.268 401.155 382.268C401.153 382.268 401.151 382.268 401.149 382.268C401.147 382.268 401.145 382.268 401.143 382.268C401.141 382.268 401.139 382.268 401.137 382.268C401.135 382.268 401.133 382.268 401.13 382.268C401.128 382.268 401.126 382.268 401.124 382.268C401.122 382.268 401.12 382.268 401.118 382.268C401.116 382.268 401.114 382.268 401.112 382.268C401.11 382.268 401.108 382.268 401.106 382.268C401.104 382.268 401.102 382.268 401.1 382.268C401.098 382.268 401.095 382.268 401.093 382.268C401.091 382.268 401.089 382.268 401.087 382.268C401.085 382.268 401.083 382.268 401.081 382.268C401.079 382.268 401.077 382.268 401.075 382.268C401.073 382.268 401.071 382.268 401.069 382.268C401.067 382.268 401.065 382.268 401.063 382.268C401.06 382.268 401.058 382.268 401.056 382.268C401.054 382.268 401.052 382.268 401.05 382.268C401.048 382.268 401.046 382.268 401.044 382.268C401.042 382.268 401.04 382.268 401.038 382.268C401.036 382.268 401.034 382.268 401.032 382.268C401.03 382.268 401.028 382.268 401.026 382.268C401.023 382.268 401.021 382.268 401.019 382.268C401.017 382.268 401.015 382.268 401.013 382.268C401.011 382.268 401.009 382.268 401.007 382.268C401.005 382.268 401.003 382.268 401.001 382.268C400.999 382.268 400.997 382.268 400.995 382.268C400.993 382.268 400.991 382.268 400.988 382.268C400.986 382.268 400.984 382.268 400.982 382.268C400.98 382.268 400.978 382.268 400.976 382.268C400.974 382.268 400.972 382.268 400.97 382.268C400.968 382.268 400.966 382.268 400.964 382.268C400.962 382.268 400.96 382.268 400.958 382.268C400.956 382.268 400.953 382.268 400.951 382.268C400.949 382.268 400.947 382.268 400.945 382.268C400.943 382.268 400.941 382.268 400.939 382.268C400.937 382.268 400.935 382.268 400.933 382.268C400.931 382.268 400.929 382.268 400.927 382.268C400.925 382.268 400.923 382.268 400.921 382.268C400.918 382.268 400.916 382.268 400.914 382.268C400.912 382.268 400.91 382.268 400.908 382.268C400.906 382.268 400.904 382.268 400.902 382.268C400.9 382.268 400.898 382.268 400.896 382.268C400.894 382.268 400.892 382.268 400.89 382.268C400.888 382.268 400.886 382.268 400.884 382.268C400.881 382.268 400.879 382.268 400.877 382.268C400.875 382.268 400.873 382.268 400.871 382.268C400.869 382.268 400.867 382.268 400.865 382.268C400.863 382.268 400.861 382.268 400.859 382.268C400.857 382.268 400.855 382.268 400.853 382.268C400.851 382.268 400.849 382.268 400.846 382.268C400.844 382.268 400.842 382.268 400.84 382.268C400.838 382.268 400.836 382.268 400.834 382.268C400.832 382.268 400.83 382.268 400.828 382.268C400.826 382.268 400.824 382.268 400.822 382.268C400.82 382.268 400.818 382.268 400.816 382.268C400.814 382.268 400.811 382.268 400.809 382.268C400.807 382.268 400.805 382.268 400.803 382.268C400.801 382.268 400.799 382.268 400.797 382.268C400.795 382.268 400.793 382.268 400.791 382.268C400.789 382.268 400.787 382.268 400.785 382.268C400.783 382.268 400.781 382.268 400.779 382.268C400.776 382.268 400.774 382.268 400.772 382.268C400.77 382.268 400.768 382.268 400.766 382.268C400.764 382.268 400.762 382.268 400.76 382.268C400.758 382.268 400.756 382.268 400.754 382.268C400.752 382.268 400.75 382.268 400.748 382.268C400.746 382.268 400.744 382.268 400.741 382.268C400.739 382.268 400.737 382.268 400.735 382.268C400.733 382.268 400.731 382.268 400.729 382.268C400.727 382.268 400.725 382.268 400.723 382.268C400.721 382.268 400.719 382.268 400.717 382.268C400.715 382.268 400.713 382.268 400.711 382.268C400.709 382.268 400.707 382.268 400.704 382.268C400.702 382.268 400.7 382.268 400.698 382.268C400.696 382.268 400.694 382.268 400.692 382.268C400.69 382.268 400.688 382.268 400.686 382.268C400.684 382.268 400.682 382.268 400.68 382.268C400.678 382.268 400.676 382.268 400.674 382.268C400.672 382.268 400.669 382.268 400.667 382.268C400.665 382.268 400.663 382.268 400.661 382.268C400.659 382.268 400.657 382.268 400.655 382.268C400.653 382.268 400.651 382.268 400.649 382.268C400.647 382.268 400.645 382.268 400.643 382.268C400.641 382.268 400.639 382.268 400.637 382.268C400.634 382.268 400.632 382.268 400.63 382.268C400.628 382.268 400.626 382.268 400.624 382.268C400.622 382.268 400.62 382.268 400.618 382.268C400.616 382.268 400.614 382.268 400.612 382.268C400.61 382.268 400.608 382.268 400.606 382.268C400.604 382.268 400.602 382.268 400.599 382.268C400.597 382.268 400.595 382.268 400.593 382.268C400.591 382.268 400.589 382.268 400.587 382.268C400.585 382.268 400.583 382.268 400.581 382.268C400.579 382.268 400.577 382.268 400.575 382.268C400.573 382.268 400.571 382.268 400.569 382.268C400.567 382.268 400.565 382.268 400.562 382.268C400.56 382.268 400.558 382.268 400.556 382.268C400.554 382.268 400.552 382.268 400.55 382.268C400.548 382.268 400.546 382.268 400.544 382.268C400.542 382.268 400.54 382.268 400.538 382.268C400.536 382.268 400.534 382.268 400.532 382.268C400.53 382.268 400.527 382.268 400.525 382.268C400.523 382.268 400.521 382.268 400.519 382.268C400.517 382.268 400.515 382.268 400.513 382.268C400.511 382.268 400.509 382.268 400.507 382.268C400.505 382.268 400.503 382.268 400.501 382.268C400.499 382.268 400.497 382.268 400.495 382.268C400.492 382.268 400.49 382.268 400.488 382.268C400.486 382.268 400.484 382.268 400.482 382.268C400.48 382.268 400.478 382.268 400.476 382.268C400.474 382.268 400.472 382.268 400.47 382.268C400.468 382.268 400.466 382.268 400.464 382.268C400.462 382.268 400.46 382.268 400.457 382.268C400.455 382.268 400.453 382.268 400.451 382.268C400.449 382.268 400.447 382.268 400.445 382.268C400.443 382.268 400.441 382.268 400.439 382.268C400.437 382.268 400.435 382.268 400.433 382.268C400.431 382.268 400.429 382.268 400.427 382.268C400.425 382.268 400.422 382.268 400.42 382.268C400.418 382.268 400.416 382.268 400.414 382.268C400.412 382.268 400.41 382.268 400.408 382.268C400.406 382.268 400.404 382.268 400.402 382.268C400.4 382.268 400.398 382.268 400.396 382.268C400.394 382.268 400.392 382.268 400.39 382.268C400.388 382.268 400.385 382.268 400.383 382.268C400.381 382.268 400.379 382.268 400.377 382.268C400.375 382.268 400.373 382.268 400.371 382.268C400.369 382.268 400.367 382.268 400.365 382.268C400.363 382.268 400.361 382.268 400.359 382.268C400.357 382.268 400.355 382.268 400.353 382.268C400.35 382.268 400.348 382.268 400.346 382.268C400.344 382.268 400.342 382.268 400.34 382.268C400.338 382.268 400.336 382.268 400.334 382.268C400.332 382.268 400.33 382.268 400.328 382.268C400.326 382.268 400.324 382.268 400.322 382.268C400.32 382.268 400.318 382.268 400.315 382.268C400.313 382.268 400.311 382.268 400.309 382.268C400.307 382.268 400.305 382.268 400.303 382.268C400.301 382.268 400.299 382.268 400.297 382.268C400.295 382.268 400.293 382.268 400.291 382.268C400.289 382.268 400.287 382.268 400.285 382.268C400.283 382.268 400.28 382.268 400.278 382.268C400.276 382.268 400.274 382.268 400.272 382.268C400.27 382.268 400.268 382.268 400.266 382.268C400.264 382.268 400.262 382.268 400.26 382.268C400.258 382.268 400.256 382.268 400.254 382.268C400.252 382.268 400.25 382.268 400.248 382.268C400.246 382.268 400.243 382.268 400.241 382.268C400.239 382.268 400.237 382.268 400.235 382.268C400.233 382.268 400.231 382.268 400.229 382.268C400.227 382.268 400.225 382.268 400.223 382.268C400.221 382.268 400.219 382.268 400.217 382.268C400.215 382.268 400.213 382.268 400.211 382.268C400.208 382.268 400.206 382.268 400.204 382.268C400.202 382.268 400.2 382.268 400.198 382.268C400.196 382.268 400.194 382.268 400.192 382.268C400.19 382.268 400.188 382.268 400.186 382.268C400.184 382.268 400.182 382.268 400.18 382.268C400.178 382.268 400.176 382.268 400.173 382.268C400.171 382.268 400.169 382.268 400.167 382.268C400.165 382.268 400.163 382.268 400.161 382.268C400.159 382.268 400.157 382.268 400.155 382.268C400.153 382.268 400.151 382.268 400.149 382.268C400.147 382.268 400.145 382.268 400.143 382.268C400.141 382.268 400.138 382.268 400.136 382.268C400.134 382.268 400.132 382.268 400.13 382.268C400.128 382.268 400.126 382.268 400.124 382.268C400.122 382.268 400.12 382.268 400.118 382.268C400.116 382.268 400.114 382.268 400.112 382.268C400.11 382.268 400.108 382.268 400.106 382.268C400.103 382.268 400.101 382.268 400.099 382.268C400.097 382.268 400.095 382.268 400.093 382.268C400.091 382.268 400.089 382.268 400.087 382.268C400.085 382.268 400.083 382.268 400.081 382.268C400.079 382.268 400.077 382.268 400.075 382.268C400.073 382.268 400.071 382.268 400.069 382.268C400.066 382.268 400.064 382.268 400.062 382.268C400.06 382.268 400.058 382.268 400.056 382.268C400.054 382.268 400.052 382.268 400.05 382.268C400.048 382.268 400.046 382.268 400.044 382.268C400.042 382.268 400.04 382.268 400.038 382.268C400.036 382.268 400.034 382.268 400.031 382.268C400.029 382.268 400.027 382.268 400.025 382.268C400.023 382.268 400.021 382.268 400.019 382.268C400.017 382.268 400.015 382.268 400.013 382.268C400.011 382.268 400.009 382.268 400.007 382.268C400.005 382.268 400.003 382.268 400.001 382.268C399.999 382.268 399.996 382.268 399.994 382.268C399.992 382.268 399.99 382.268 399.988 382.268C399.986 382.268 399.984 382.268 399.982 382.268C399.98 382.268 399.978 382.268 399.976 382.268C399.974 382.268 399.972 382.268 399.97 382.268C399.968 382.268 399.966 382.268 399.964 382.268C399.961 382.268 399.959 382.268 399.957 382.268C399.955 382.268 399.953 382.268 399.951 382.268C399.949 382.268 399.947 382.268 399.945 382.268C399.943 382.268 399.941 382.268 399.939 382.268C399.937 382.268 399.935 382.268 399.933 382.268C399.931 382.268 399.929 382.268 399.927 382.268C399.924 382.268 399.922 382.268 399.92 382.268C399.918 382.268 399.916 382.268 399.914 382.268C399.912 382.268 399.91 382.268 399.908 382.268C399.906 382.268 399.904 382.268 399.902 382.268C399.9 382.268 399.898 382.268 399.896 382.268C399.894 382.268 399.892 382.268 399.889 382.268C399.887 382.268 399.885 382.268 399.883 382.268C399.881 382.268 399.879 382.268 399.877 382.268C399.875 382.268 399.873 382.268 399.871 382.268C399.869 382.268 399.867 382.268 399.865 382.268C399.863 382.268 399.861 382.268 399.859 382.268C399.857 382.268 399.854 382.268 399.852 382.268C399.85 382.268 399.848 382.268 399.846 382.268C399.844 382.268 399.842 382.268 399.84 382.268C399.838 382.268 399.836 382.268 399.834 382.268C399.832 382.268 399.83 382.268 399.828 382.268C399.826 382.268 399.824 382.268 399.822 382.268C399.819 382.268 399.817 382.268 399.815 382.268V392.268V402.268C399.817 402.268 399.819 402.268 399.822 402.268C399.824 402.268 399.826 402.268 399.828 402.268C399.83 402.268 399.832 402.268 399.834 402.268C399.836 402.268 399.838 402.268 399.84 402.268C399.842 402.268 399.844 402.268 399.846 402.268C399.848 402.268 399.85 402.268 399.852 402.268C399.854 402.268 399.857 402.268 399.859 402.268C399.861 402.268 399.863 402.268 399.865 402.268C399.867 402.268 399.869 402.268 399.871 402.268C399.873 402.268 399.875 402.268 399.877 402.268C399.879 402.268 399.881 402.268 399.883 402.268C399.885 402.268 399.887 402.268 399.889 402.268C399.892 402.268 399.894 402.268 399.896 402.268C399.898 402.268 399.9 402.268 399.902 402.268C399.904 402.268 399.906 402.268 399.908 402.268C399.91 402.268 399.912 402.268 399.914 402.268C399.916 402.268 399.918 402.268 399.92 402.268C399.922 402.268 399.924 402.268 399.927 402.268C399.929 402.268 399.931 402.268 399.933 402.268C399.935 402.268 399.937 402.268 399.939 402.268C399.941 402.268 399.943 402.268 399.945 402.268C399.947 402.268 399.949 402.268 399.951 402.268C399.953 402.268 399.955 402.268 399.957 402.268C399.959 402.268 399.961 402.268 399.964 402.268C399.966 402.268 399.968 402.268 399.97 402.268C399.972 402.268 399.974 402.268 399.976 402.268C399.978 402.268 399.98 402.268 399.982 402.268C399.984 402.268 399.986 402.268 399.988 402.268C399.99 402.268 399.992 402.268 399.994 402.268C399.996 402.268 399.999 402.268 400.001 402.268C400.003 402.268 400.005 402.268 400.007 402.268C400.009 402.268 400.011 402.268 400.013 402.268C400.015 402.268 400.017 402.268 400.019 402.268C400.021 402.268 400.023 402.268 400.025 402.268C400.027 402.268 400.029 402.268 400.031 402.268C400.034 402.268 400.036 402.268 400.038 402.268C400.04 402.268 400.042 402.268 400.044 402.268C400.046 402.268 400.048 402.268 400.05 402.268C400.052 402.268 400.054 402.268 400.056 402.268C400.058 402.268 400.06 402.268 400.062 402.268C400.064 402.268 400.066 402.268 400.069 402.268C400.071 402.268 400.073 402.268 400.075 402.268C400.077 402.268 400.079 402.268 400.081 402.268C400.083 402.268 400.085 402.268 400.087 402.268C400.089 402.268 400.091 402.268 400.093 402.268C400.095 402.268 400.097 402.268 400.099 402.268C400.101 402.268 400.103 402.268 400.106 402.268C400.108 402.268 400.11 402.268 400.112 402.268C400.114 402.268 400.116 402.268 400.118 402.268C400.12 402.268 400.122 402.268 400.124 402.268C400.126 402.268 400.128 402.268 400.13 402.268C400.132 402.268 400.134 402.268 400.136 402.268C400.138 402.268 400.141 402.268 400.143 402.268C400.145 402.268 400.147 402.268 400.149 402.268C400.151 402.268 400.153 402.268 400.155 402.268C400.157 402.268 400.159 402.268 400.161 402.268C400.163 402.268 400.165 402.268 400.167 402.268C400.169 402.268 400.171 402.268 400.173 402.268C400.176 402.268 400.178 402.268 400.18 402.268C400.182 402.268 400.184 402.268 400.186 402.268C400.188 402.268 400.19 402.268 400.192 402.268C400.194 402.268 400.196 402.268 400.198 402.268C400.2 402.268 400.202 402.268 400.204 402.268C400.206 402.268 400.208 402.268 400.211 402.268C400.213 402.268 400.215 402.268 400.217 402.268C400.219 402.268 400.221 402.268 400.223 402.268C400.225 402.268 400.227 402.268 400.229 402.268C400.231 402.268 400.233 402.268 400.235 402.268C400.237 402.268 400.239 402.268 400.241 402.268C400.243 402.268 400.246 402.268 400.248 402.268C400.25 402.268 400.252 402.268 400.254 402.268C400.256 402.268 400.258 402.268 400.26 402.268C400.262 402.268 400.264 402.268 400.266 402.268C400.268 402.268 400.27 402.268 400.272 402.268C400.274 402.268 400.276 402.268 400.278 402.268C400.28 402.268 400.283 402.268 400.285 402.268C400.287 402.268 400.289 402.268 400.291 402.268C400.293 402.268 400.295 402.268 400.297 402.268C400.299 402.268 400.301 402.268 400.303 402.268C400.305 402.268 400.307 402.268 400.309 402.268C400.311 402.268 400.313 402.268 400.315 402.268C400.318 402.268 400.32 402.268 400.322 402.268C400.324 402.268 400.326 402.268 400.328 402.268C400.33 402.268 400.332 402.268 400.334 402.268C400.336 402.268 400.338 402.268 400.34 402.268C400.342 402.268 400.344 402.268 400.346 402.268C400.348 402.268 400.35 402.268 400.353 402.268C400.355 402.268 400.357 402.268 400.359 402.268C400.361 402.268 400.363 402.268 400.365 402.268C400.367 402.268 400.369 402.268 400.371 402.268C400.373 402.268 400.375 402.268 400.377 402.268C400.379 402.268 400.381 402.268 400.383 402.268C400.385 402.268 400.388 402.268 400.39 402.268C400.392 402.268 400.394 402.268 400.396 402.268C400.398 402.268 400.4 402.268 400.402 402.268C400.404 402.268 400.406 402.268 400.408 402.268C400.41 402.268 400.412 402.268 400.414 402.268C400.416 402.268 400.418 402.268 400.42 402.268C400.422 402.268 400.425 402.268 400.427 402.268C400.429 402.268 400.431 402.268 400.433 402.268C400.435 402.268 400.437 402.268 400.439 402.268C400.441 402.268 400.443 402.268 400.445 402.268C400.447 402.268 400.449 402.268 400.451 402.268C400.453 402.268 400.455 402.268 400.457 402.268C400.46 402.268 400.462 402.268 400.464 402.268C400.466 402.268 400.468 402.268 400.47 402.268C400.472 402.268 400.474 402.268 400.476 402.268C400.478 402.268 400.48 402.268 400.482 402.268C400.484 402.268 400.486 402.268 400.488 402.268C400.49 402.268 400.492 402.268 400.495 402.268C400.497 402.268 400.499 402.268 400.501 402.268C400.503 402.268 400.505 402.268 400.507 402.268C400.509 402.268 400.511 402.268 400.513 402.268C400.515 402.268 400.517 402.268 400.519 402.268C400.521 402.268 400.523 402.268 400.525 402.268C400.527 402.268 400.53 402.268 400.532 402.268C400.534 402.268 400.536 402.268 400.538 402.268C400.54 402.268 400.542 402.268 400.544 402.268C400.546 402.268 400.548 402.268 400.55 402.268C400.552 402.268 400.554 402.268 400.556 402.268C400.558 402.268 400.56 402.268 400.562 402.268C400.565 402.268 400.567 402.268 400.569 402.268C400.571 402.268 400.573 402.268 400.575 402.268C400.577 402.268 400.579 402.268 400.581 402.268C400.583 402.268 400.585 402.268 400.587 402.268C400.589 402.268 400.591 402.268 400.593 402.268C400.595 402.268 400.597 402.268 400.599 402.268C400.602 402.268 400.604 402.268 400.606 402.268C400.608 402.268 400.61 402.268 400.612 402.268C400.614 402.268 400.616 402.268 400.618 402.268C400.62 402.268 400.622 402.268 400.624 402.268C400.626 402.268 400.628 402.268 400.63 402.268C400.632 402.268 400.634 402.268 400.637 402.268C400.639 402.268 400.641 402.268 400.643 402.268C400.645 402.268 400.647 402.268 400.649 402.268C400.651 402.268 400.653 402.268 400.655 402.268C400.657 402.268 400.659 402.268 400.661 402.268C400.663 402.268 400.665 402.268 400.667 402.268C400.669 402.268 400.672 402.268 400.674 402.268C400.676 402.268 400.678 402.268 400.68 402.268C400.682 402.268 400.684 402.268 400.686 402.268C400.688 402.268 400.69 402.268 400.692 402.268C400.694 402.268 400.696 402.268 400.698 402.268C400.7 402.268 400.702 402.268 400.704 402.268C400.707 402.268 400.709 402.268 400.711 402.268C400.713 402.268 400.715 402.268 400.717 402.268C400.719 402.268 400.721 402.268 400.723 402.268C400.725 402.268 400.727 402.268 400.729 402.268C400.731 402.268 400.733 402.268 400.735 402.268C400.737 402.268 400.739 402.268 400.741 402.268C400.744 402.268 400.746 402.268 400.748 402.268C400.75 402.268 400.752 402.268 400.754 402.268C400.756 402.268 400.758 402.268 400.76 402.268C400.762 402.268 400.764 402.268 400.766 402.268C400.768 402.268 400.77 402.268 400.772 402.268C400.774 402.268 400.776 402.268 400.779 402.268C400.781 402.268 400.783 402.268 400.785 402.268C400.787 402.268 400.789 402.268 400.791 402.268C400.793 402.268 400.795 402.268 400.797 402.268C400.799 402.268 400.801 402.268 400.803 402.268C400.805 402.268 400.807 402.268 400.809 402.268C400.811 402.268 400.814 402.268 400.816 402.268C400.818 402.268 400.82 402.268 400.822 402.268C400.824 402.268 400.826 402.268 400.828 402.268C400.83 402.268 400.832 402.268 400.834 402.268C400.836 402.268 400.838 402.268 400.84 402.268C400.842 402.268 400.844 402.268 400.846 402.268C400.849 402.268 400.851 402.268 400.853 402.268C400.855 402.268 400.857 402.268 400.859 402.268C400.861 402.268 400.863 402.268 400.865 402.268C400.867 402.268 400.869 402.268 400.871 402.268C400.873 402.268 400.875 402.268 400.877 402.268C400.879 402.268 400.881 402.268 400.884 402.268C400.886 402.268 400.888 402.268 400.89 402.268C400.892 402.268 400.894 402.268 400.896 402.268C400.898 402.268 400.9 402.268 400.902 402.268C400.904 402.268 400.906 402.268 400.908 402.268C400.91 402.268 400.912 402.268 400.914 402.268C400.916 402.268 400.918 402.268 400.921 402.268C400.923 402.268 400.925 402.268 400.927 402.268C400.929 402.268 400.931 402.268 400.933 402.268C400.935 402.268 400.937 402.268 400.939 402.268C400.941 402.268 400.943 402.268 400.945 402.268C400.947 402.268 400.949 402.268 400.951 402.268C400.953 402.268 400.956 402.268 400.958 402.268C400.96 402.268 400.962 402.268 400.964 402.268C400.966 402.268 400.968 402.268 400.97 402.268C400.972 402.268 400.974 402.268 400.976 402.268C400.978 402.268 400.98 402.268 400.982 402.268C400.984 402.268 400.986 402.268 400.988 402.268C400.991 402.268 400.993 402.268 400.995 402.268C400.997 402.268 400.999 402.268 401.001 402.268C401.003 402.268 401.005 402.268 401.007 402.268C401.009 402.268 401.011 402.268 401.013 402.268C401.015 402.268 401.017 402.268 401.019 402.268C401.021 402.268 401.023 402.268 401.026 402.268C401.028 402.268 401.03 402.268 401.032 402.268C401.034 402.268 401.036 402.268 401.038 402.268C401.04 402.268 401.042 402.268 401.044 402.268C401.046 402.268 401.048 402.268 401.05 402.268C401.052 402.268 401.054 402.268 401.056 402.268C401.058 402.268 401.06 402.268 401.063 402.268C401.065 402.268 401.067 402.268 401.069 402.268C401.071 402.268 401.073 402.268 401.075 402.268C401.077 402.268 401.079 402.268 401.081 402.268C401.083 402.268 401.085 402.268 401.087 402.268C401.089 402.268 401.091 402.268 401.093 402.268C401.095 402.268 401.098 402.268 401.1 402.268C401.102 402.268 401.104 402.268 401.106 402.268C401.108 402.268 401.11 402.268 401.112 402.268C401.114 402.268 401.116 402.268 401.118 402.268C401.12 402.268 401.122 402.268 401.124 402.268C401.126 402.268 401.128 402.268 401.13 402.268C401.133 402.268 401.135 402.268 401.137 402.268C401.139 402.268 401.141 402.268 401.143 402.268C401.145 402.268 401.147 402.268 401.149 402.268C401.151 402.268 401.153 402.268 401.155 402.268C401.157 402.268 401.159 402.268 401.161 402.268C401.163 402.268 401.165 402.268 401.168 402.268C401.17 402.268 401.172 402.268 401.174 402.268C401.176 402.268 401.178 402.268 401.18 402.268C401.182 402.268 401.184 402.268 401.186 402.268C401.188 402.268 401.19 402.268 401.192 402.268C401.194 402.268 401.196 402.268 401.198 402.268C401.2 402.268 401.203 402.268 401.205 402.268C401.207 402.268 401.209 402.268 401.211 402.268C401.213 402.268 401.215 402.268 401.217 402.268C401.219 402.268 401.221 402.268 401.223 402.268C401.225 402.268 401.227 402.268 401.229 402.268C401.231 402.268 401.233 402.268 401.235 402.268C401.237 402.268 401.24 402.268 401.242 402.268C401.244 402.268 401.246 402.268 401.248 402.268C401.25 402.268 401.252 402.268 401.254 402.268C401.256 402.268 401.258 402.268 401.26 402.268C401.262 402.268 401.264 402.268 401.266 402.268C401.268 402.268 401.27 402.268 401.272 402.268C401.275 402.268 401.277 402.268 401.279 402.268C401.281 402.268 401.283 402.268 401.285 402.268C401.287 402.268 401.289 402.268 401.291 402.268C401.293 402.268 401.295 402.268 401.297 402.268C401.299 402.268 401.301 402.268 401.303 402.268C401.305 402.268 401.307 402.268 401.31 402.268C401.312 402.268 401.314 402.268 401.316 402.268C401.318 402.268 401.32 402.268 401.322 402.268C401.324 402.268 401.326 402.268 401.328 402.268C401.33 402.268 401.332 402.268 401.334 402.268C401.336 402.268 401.338 402.268 401.34 402.268C401.342 402.268 401.345 402.268 401.347 402.268C401.349 402.268 401.351 402.268 401.353 402.268C401.355 402.268 401.357 402.268 401.359 402.268C401.361 402.268 401.363 402.268 401.365 402.268C401.367 402.268 401.369 402.268 401.371 402.268C401.373 402.268 401.375 402.268 401.377 402.268C401.38 402.268 401.382 402.268 401.384 402.268C401.386 402.268 401.388 402.268 401.39 402.268C401.392 402.268 401.394 402.268 401.396 402.268C401.398 402.268 401.4 402.268 401.402 402.268C401.404 402.268 401.406 402.268 401.408 402.268C401.41 402.268 401.412 402.268 401.414 402.268C401.417 402.268 401.419 402.268 401.421 402.268C401.423 402.268 401.425 402.268 401.427 402.268C401.429 402.268 401.431 402.268 401.433 402.268C401.435 402.268 401.437 402.268 401.439 402.268C401.441 402.268 401.443 402.268 401.445 402.268C401.447 402.268 401.449 402.268 401.452 402.268C401.454 402.268 401.456 402.268 401.458 402.268C401.46 402.268 401.462 402.268 401.464 402.268C401.466 402.268 401.468 402.268 401.47 402.268C401.472 402.268 401.474 402.268 401.476 402.268C401.478 402.268 401.48 402.268 401.482 402.268C401.484 402.268 401.487 402.268 401.489 402.268C401.491 402.268 401.493 402.268 401.495 402.268C401.497 402.268 401.499 402.268 401.501 402.268C401.503 402.268 401.505 402.268 401.507 402.268C401.509 402.268 401.511 402.268 401.513 402.268C401.515 402.268 401.517 402.268 401.519 402.268C401.522 402.268 401.524 402.268 401.526 402.268C401.528 402.268 401.53 402.268 401.532 402.268C401.534 402.268 401.536 402.268 401.538 402.268C401.54 402.268 401.542 402.268 401.544 402.268C401.546 402.268 401.548 402.268 401.55 402.268C401.552 402.268 401.554 402.268 401.556 402.268C401.559 402.268 401.561 402.268 401.563 402.268C401.565 402.268 401.567 402.268 401.569 402.268C401.571 402.268 401.573 402.268 401.575 402.268C401.577 402.268 401.579 402.268 401.581 402.268C401.583 402.268 401.585 402.268 401.587 402.268C401.589 402.268 401.591 402.268 401.594 402.268C401.596 402.268 401.598 402.268 401.6 402.268C401.602 402.268 401.604 402.268 401.606 402.268C401.608 402.268 401.61 402.268 401.612 402.268C401.614 402.268 401.616 402.268 401.618 402.268C401.62 402.268 401.622 402.268 401.624 402.268C401.626 402.268 401.629 402.268 401.631 402.268C401.633 402.268 401.635 402.268 401.637 402.268C401.639 402.268 401.641 402.268 401.643 402.268C401.645 402.268 401.647 402.268 401.649 402.268C401.651 402.268 401.653 402.268 401.655 402.268C401.657 402.268 401.659 402.268 401.661 402.268C401.664 402.268 401.666 402.268 401.668 402.268C401.67 402.268 401.672 402.268 401.674 402.268C401.676 402.268 401.678 402.268 401.68 402.268C401.682 402.268 401.684 402.268 401.686 402.268C401.688 402.268 401.69 402.268 401.692 402.268C401.694 402.268 401.696 402.268 401.699 402.268C401.701 402.268 401.703 402.268 401.705 402.268C401.707 402.268 401.709 402.268 401.711 402.268C401.713 402.268 401.715 402.268 401.717 402.268C401.719 402.268 401.721 402.268 401.723 402.268C401.725 402.268 401.727 402.268 401.729 402.268C401.731 402.268 401.733 402.268 401.736 402.268C401.738 402.268 401.74 402.268 401.742 402.268C401.744 402.268 401.746 402.268 401.748 402.268C401.75 402.268 401.752 402.268 401.754 402.268C401.756 402.268 401.758 402.268 401.76 402.268C401.762 402.268 401.764 402.268 401.766 402.268C401.768 402.268 401.771 402.268 401.773 402.268C401.775 402.268 401.777 402.268 401.779 402.268C401.781 402.268 401.783 402.268 401.785 402.268C401.787 402.268 401.789 402.268 401.791 402.268C401.793 402.268 401.795 402.268 401.797 402.268C401.799 402.268 401.801 402.268 401.803 402.268C401.806 402.268 401.808 402.268 401.81 402.268C401.812 402.268 401.814 402.268 401.816 402.268C401.818 402.268 401.82 402.268 401.822 402.268C401.824 402.268 401.826 402.268 401.828 402.268C401.83 402.268 401.832 402.268 401.834 402.268C401.836 402.268 401.838 402.268 401.841 402.268C401.843 402.268 401.845 402.268 401.847 402.268C401.849 402.268 401.851 402.268 401.853 402.268C401.855 402.268 401.857 402.268 401.859 402.268C401.861 402.268 401.863 402.268 401.865 402.268C401.867 402.268 401.869 402.268 401.871 402.268C401.873 402.268 401.875 402.268 401.878 402.268C401.88 402.268 401.882 402.268 401.884 402.268C401.886 402.268 401.888 402.268 401.89 402.268C401.892 402.268 401.894 402.268 401.896 402.268C401.898 402.268 401.9 402.268 401.902 402.268C401.904 402.268 401.906 402.268 401.908 402.268C401.91 402.268 401.913 402.268 401.915 402.268C401.917 402.268 401.919 402.268 401.921 402.268C401.923 402.268 401.925 402.268 401.927 402.268C401.929 402.268 401.931 402.268 401.933 402.268C401.935 402.268 401.937 402.268 401.939 402.268C401.941 402.268 401.943 402.268 401.945 402.268C401.948 402.268 401.95 402.268 401.952 402.268C401.954 402.268 401.956 402.268 401.958 402.268C401.96 402.268 401.962 402.268 401.964 402.268C401.966 402.268 401.968 402.268 401.97 402.268C401.972 402.268 401.974 402.268 401.976 402.268C401.978 402.268 401.98 402.268 401.983 402.268C401.985 402.268 401.987 402.268 401.989 402.268C401.991 402.268 401.993 402.268 401.995 402.268C401.997 402.268 401.999 402.268 402.001 402.268C402.003 402.268 402.005 402.268 402.007 402.268C402.009 402.268 402.011 402.268 402.013 402.268C402.015 402.268 402.018 402.268 402.02 402.268C402.022 402.268 402.024 402.268 402.026 402.268C402.028 402.268 402.03 402.268 402.032 402.268C402.034 402.268 402.036 402.268 402.038 402.268C402.04 402.268 402.042 402.268 402.044 402.268C402.046 402.268 402.048 402.268 402.05 402.268C402.052 402.268 402.055 402.268 402.057 402.268C402.059 402.268 402.061 402.268 402.063 402.268C402.065 402.268 402.067 402.268 402.069 402.268C402.071 402.268 402.073 402.268 402.075 402.268C402.077 402.268 402.079 402.268 402.081 402.268C402.083 402.268 402.085 402.268 402.087 402.268C402.09 402.268 402.092 402.268 402.094 402.268C402.096 402.268 402.098 402.268 402.1 402.268C402.102 402.268 402.104 402.268 402.106 402.268C402.108 402.268 402.11 402.268 402.112 402.268C402.114 402.268 402.116 402.268 402.118 402.268C402.12 402.268 402.122 402.268 402.125 402.268C402.127 402.268 402.129 402.268 402.131 402.268C402.133 402.268 402.135 402.268 402.137 402.268C402.139 402.268 402.141 402.268 402.143 402.268C402.145 402.268 402.147 402.268 402.149 402.268C402.151 402.268 402.153 402.268 402.155 402.268C402.157 402.268 402.16 402.268 402.162 402.268C402.164 402.268 402.166 402.268 402.168 402.268C402.17 402.268 402.172 402.268 402.174 402.268C402.176 402.268 402.178 402.268 402.18 402.268C402.182 402.268 402.184 402.268 402.186 402.268C402.188 402.268 402.19 402.268 402.192 402.268C402.194 402.268 402.197 402.268 402.199 402.268C402.201 402.268 402.203 402.268 402.205 402.268C402.207 402.268 402.209 402.268 402.211 402.268C402.213 402.268 402.215 402.268 402.217 402.268C402.219 402.268 402.221 402.268 402.223 402.268C402.225 402.268 402.227 402.268 402.229 402.268C402.232 402.268 402.234 402.268 402.236 402.268C402.238 402.268 402.24 402.268 402.242 402.268C402.244 402.268 402.246 402.268 402.248 402.268C402.25 402.268 402.252 402.268 402.254 402.268C402.256 402.268 402.258 402.268 402.26 402.268C402.262 402.268 402.264 402.268 402.267 402.268C402.269 402.268 402.271 402.268 402.273 402.268C402.275 402.268 402.277 402.268 402.279 402.268C402.281 402.268 402.283 402.268 402.285 402.268C402.287 402.268 402.289 402.268 402.291 402.268C402.293 402.268 402.295 402.268 402.297 402.268C402.299 402.268 402.302 402.268 402.304 402.268C402.306 402.268 402.308 402.268 402.31 402.268C402.312 402.268 402.314 402.268 402.316 402.268C402.318 402.268 402.32 402.268 402.322 402.268C402.324 402.268 402.326 402.268 402.328 402.268C402.33 402.268 402.332 402.268 402.334 402.268C402.337 402.268 402.339 402.268 402.341 402.268C402.343 402.268 402.345 402.268 402.347 402.268C402.349 402.268 402.351 402.268 402.353 402.268C402.355 402.268 402.357 402.268 402.359 402.268C402.361 402.268 402.363 402.268 402.365 402.268C402.367 402.268 402.369 402.268 402.371 402.268C402.374 402.268 402.376 402.268 402.378 402.268C402.38 402.268 402.382 402.268 402.384 402.268C402.386 402.268 402.388 402.268 402.39 402.268C402.392 402.268 402.394 402.268 402.396 402.268C402.398 402.268 402.4 402.268 402.402 402.268C402.404 402.268 402.406 402.268 402.409 402.268C402.411 402.268 402.413 402.268 402.415 402.268C402.417 402.268 402.419 402.268 402.421 402.268C402.423 402.268 402.425 402.268 402.427 402.268C402.429 402.268 402.431 402.268 402.433 402.268C402.435 402.268 402.437 402.268 402.439 402.268C402.441 402.268 402.444 402.268 402.446 402.268C402.448 402.268 402.45 402.268 402.452 402.268C402.454 402.268 402.456 402.268 402.458 402.268C402.46 402.268 402.462 402.268 402.464 402.268C402.466 402.268 402.468 402.268 402.47 402.268C402.472 402.268 402.474 402.268 402.476 402.268C402.479 402.268 402.481 402.268 402.483 402.268C402.485 402.268 402.487 402.268 402.489 402.268C402.491 402.268 402.493 402.268 402.495 402.268C402.497 402.268 402.499 402.268 402.501 402.268C402.503 402.268 402.505 402.268 402.507 402.268C402.509 402.268 402.511 402.268 402.513 402.268C402.516 402.268 402.518 402.268 402.52 402.268C402.522 402.268 402.524 402.268 402.526 402.268C402.528 402.268 402.53 402.268 402.532 402.268C402.534 402.268 402.536 402.268 402.538 402.268C402.54 402.268 402.542 402.268 402.544 402.268C402.546 402.268 402.548 402.268 402.551 402.268C402.553 402.268 402.555 402.268 402.557 402.268C402.559 402.268 402.561 402.268 402.563 402.268C402.565 402.268 402.567 402.268 402.569 402.268C402.571 402.268 402.573 402.268 402.575 402.268C402.577 402.268 402.579 402.268 402.581 402.268C402.583 402.268 402.586 402.268 402.588 402.268C402.59 402.268 402.592 402.268 402.594 402.268C402.596 402.268 402.598 402.268 402.6 402.268C402.602 402.268 402.604 402.268 402.606 402.268C402.608 402.268 402.61 402.268 402.612 402.268C402.614 402.268 402.616 402.268 402.618 402.268C402.621 402.268 402.623 402.268 402.625 402.268C402.627 402.268 402.629 402.268 402.631 402.268C402.633 402.268 402.635 402.268 402.637 402.268C402.639 402.268 402.641 402.268 402.643 402.268C402.645 402.268 402.647 402.268 402.649 402.268C402.651 402.268 402.653 402.268 402.656 402.268C402.658 402.268 402.66 402.268 402.662 402.268C402.664 402.268 402.666 402.268 402.668 402.268C402.67 402.268 402.672 402.268 402.674 402.268C402.676 402.268 402.678 402.268 402.68 402.268C402.682 402.268 402.684 402.268 402.686 402.268C402.688 402.268 402.69 402.268 402.693 402.268C402.695 402.268 402.697 402.268 402.699 402.268C402.701 402.268 402.703 402.268 402.705 402.268C402.707 402.268 402.709 402.268 402.711 402.268C402.713 402.268 402.715 402.268 402.717 402.268C402.719 402.268 402.721 402.268 402.723 402.268C402.725 402.268 402.728 402.268 402.73 402.268C402.732 402.268 402.734 402.268 402.736 402.268C402.738 402.268 402.74 402.268 402.742 402.268C402.744 402.268 402.746 402.268 402.748 402.268C402.75 402.268 402.752 402.268 402.754 402.268C402.756 402.268 402.758 402.268 402.76 402.268C402.763 402.268 402.765 402.268 402.767 402.268C402.769 402.268 402.771 402.268 402.773 402.268C402.775 402.268 402.777 402.268 402.779 402.268C402.781 402.268 402.783 402.268 402.785 402.268C402.787 402.268 402.789 402.268 402.791 402.268C402.793 402.268 402.795 402.268 402.798 402.268C402.8 402.268 402.802 402.268 402.804 402.268C402.806 402.268 402.808 402.268 402.81 402.268C402.812 402.268 402.814 402.268 402.816 402.268C402.818 402.268 402.82 402.268 402.822 402.268C402.824 402.268 402.826 402.268 402.828 402.268C402.83 402.268 402.833 402.268 402.835 402.268C402.837 402.268 402.839 402.268 402.841 402.268C402.843 402.268 402.845 402.268 402.847 402.268C402.849 402.268 402.851 402.268 402.853 402.268C402.855 402.268 402.857 402.268 402.859 402.268C402.861 402.268 402.863 402.268 402.865 402.268C402.867 402.268 402.87 402.268 402.872 402.268C402.874 402.268 402.876 402.268 402.878 402.268C402.88 402.268 402.882 402.268 402.884 402.268C402.886 402.268 402.888 402.268 402.89 402.268C402.892 402.268 402.894 402.268 402.896 402.268C402.898 402.268 402.9 402.268 402.902 402.268C402.905 402.268 402.907 402.268 402.909 402.268C402.911 402.268 402.913 402.268 402.915 402.268C402.917 402.268 402.919 402.268 402.921 402.268C402.923 402.268 402.925 402.268 402.927 402.268C402.929 402.268 402.931 402.268 402.933 402.268C402.935 402.268 402.937 402.268 402.94 402.268C402.942 402.268 402.944 402.268 402.946 402.268C402.948 402.268 402.95 402.268 402.952 402.268C402.954 402.268 402.956 402.268 402.958 402.268C402.96 402.268 402.962 402.268 402.964 402.268C402.966 402.268 402.968 402.268 402.97 402.268C402.972 402.268 402.975 402.268 402.977 402.268V392.268ZM399.815 392.268V382.268C399.968 382.268 400.018 382.281 399.945 382.27C399.875 382.26 399.721 382.234 399.475 382.172L397.049 391.873L394.624 401.575C396.198 401.968 397.967 402.268 399.815 402.268V392.268ZM397.049 391.873V381.873H390.727V391.873V401.873H397.049V391.873ZM390.727 391.873V381.873C380.121 381.873 368.378 382.417 355.518 383.488L356.349 393.454L357.179 403.419C369.609 402.384 380.785 401.873 390.727 401.873V391.873ZM356.349 393.454L355.712 383.474C342.977 384.287 330.249 385.777 317.527 387.942L319.205 397.801L320.883 407.659C332.924 405.609 344.958 404.201 356.986 403.434L356.349 393.454ZM319.205 397.801L317.7 387.914C305.147 389.825 293.674 392.439 283.322 395.796L286.407 405.308L289.492 414.821C298.635 411.855 309.027 409.464 320.709 407.687L319.205 397.801ZM422.793 407.679L428.793 399.679L428.759 399.654L428.725 399.629L422.793 407.679ZM411.333 393.849L402.078 397.635L402.184 397.895L402.305 398.148L411.333 393.849ZM418.051 349.197L410.618 342.507L410.612 342.514L410.605 342.522L418.051 349.197ZM481.67 348.407L474.724 355.601L474.789 355.664L474.856 355.726L481.67 348.407ZM480.09 401.357L486.936 408.645L486.994 408.591L487.051 408.536L480.09 401.357ZM442.55 413.607V403.607C436.366 403.607 432.005 402.089 428.793 399.679L422.793 407.679L416.793 415.679C424.117 421.173 432.929 423.607 442.55 423.607V413.607ZM422.793 407.679L428.725 399.629C425.024 396.902 422.278 393.573 420.362 389.55L411.333 393.849L402.305 398.148C405.658 405.189 410.551 411.08 416.861 415.73L422.793 407.679ZM411.333 393.849L420.589 390.063C418.67 385.371 417.777 380.858 417.777 376.462H407.777H397.777C397.777 383.658 399.255 390.735 402.078 397.635L411.333 393.849ZM407.777 376.462H417.777C417.777 368.316 420.34 361.624 425.497 355.872L418.051 349.197L410.605 342.522C402.063 352.049 397.777 363.534 397.777 376.462H407.777ZM418.051 349.197L425.484 355.887C430.382 350.444 437.233 347.343 447.292 347.343V337.343V327.343C432.588 327.343 419.945 332.144 410.618 342.507L418.051 349.197ZM447.292 337.343V347.343C461.116 347.343 469.631 350.684 474.724 355.601L481.67 348.407L488.616 341.213C478.43 331.378 464.026 327.343 447.292 327.343V337.343ZM481.67 348.407L474.856 355.726C480.759 361.222 483.129 366.842 483.129 372.906H493.129H503.129C503.129 360.53 497.86 349.817 488.484 341.088L481.67 348.407ZM493.129 372.906H483.129C483.129 380.327 480.195 387.325 473.128 394.178L480.09 401.357L487.051 408.536C497.371 398.529 503.129 386.559 503.129 372.906H493.129ZM480.09 401.357L473.243 394.068C466.998 399.935 457.292 403.607 442.55 403.607V413.607V423.607C460.475 423.607 475.795 419.112 486.936 408.645L480.09 401.357Z" fill="#B68736" mask="url(#path-1-outside-1_154_2)"/>
</svg>
