<svg width="430" height="430" viewBox="0 0 430 430" fill="none" xmlns="http://www.w3.org/2000/svg">
<mask id="path-1-outside-1_204_11" maskUnits="userSpaceOnUse" x="20.084" y="92.626" width="407" height="323" fill="black">
<rect fill="white" x="20.084" y="92.626" width="407" height="323"/>
<path d="M54.793 397.602C51.1049 397.602 47.4169 397.338 43.7288 396.811C40.0407 396.548 36.3527 396.153 32.6646 395.626L53.6075 289.331C56.2419 274.842 59.0079 259.563 61.9057 243.493C65.0669 227.16 68.0964 211.091 70.9942 195.285C73.8919 179.215 76.3945 164.331 78.502 150.633C80.8729 136.934 82.7169 125.343 84.0341 115.86C95.3617 113.752 106.821 111.776 118.412 109.932C130.003 108.088 141.858 107.166 153.976 107.166C173.47 107.166 188.881 111.25 200.208 119.416C211.536 127.319 219.702 137.856 224.708 151.028C229.713 163.936 232.215 178.162 232.215 193.704C232.215 207.666 230.24 222.418 226.288 237.961C222.337 253.24 216.673 268.519 209.297 283.798C202.184 298.814 193.622 313.04 183.612 326.475C168.069 347.286 149.102 364.409 126.71 377.844C104.582 391.016 80.6095 397.602 54.793 397.602ZM101.816 347.813C111.036 341.754 119.729 332.534 127.896 320.152C136.326 307.771 144.229 292.887 151.605 275.5C158.191 259.431 163.328 244.283 167.016 230.058C170.704 215.569 172.548 203.583 172.548 194.099C172.548 184.352 169.782 176.713 164.25 171.181C158.981 165.649 150.551 162.883 138.96 162.883C134.745 185.538 130.398 206.481 125.92 225.711C121.705 244.942 117.49 264.304 113.275 283.798C109.324 303.293 105.504 324.631 101.816 347.813ZM210.248 396.416C213.145 375.605 216.175 354.662 219.336 333.587C222.761 312.513 226.185 292.228 229.61 272.734C233.298 252.977 236.723 235.195 239.884 219.389C243.308 202.266 246.733 184.879 250.158 167.229C253.582 149.579 257.139 131.797 260.827 113.884L329.978 104.795L309.43 194.099C305.742 209.642 301.922 226.37 297.971 244.283C294.283 261.934 290.858 279.057 287.697 295.653C284.536 312.249 282.033 327.002 280.189 339.91C286.775 339.383 293.756 339.12 301.132 339.12C308.772 338.856 315.489 338.724 321.285 338.724C321.548 344.783 322.075 351.237 322.865 358.087C323.656 364.673 324.446 370.468 325.236 375.473C326.29 380.215 326.817 382.849 326.817 383.376C325.763 383.376 324.709 383.376 323.656 383.376C322.865 383.376 321.943 383.245 320.89 382.981H314.567C304.293 382.981 292.834 383.508 280.189 384.562C267.808 385.352 255.426 386.801 243.045 388.908C230.927 390.752 219.995 393.255 210.248 396.416ZM366.39 404.714C358.487 404.714 351.902 402.739 346.633 398.787C341.628 395.099 337.808 390.489 335.174 384.957C332.803 379.161 331.617 373.366 331.617 367.57C331.617 357.033 335.042 347.945 341.891 340.305C349.004 332.402 358.751 328.45 371.132 328.45C386.411 328.45 397.871 332.139 405.51 339.515C413.15 346.627 416.97 354.794 416.97 364.014C416.97 374.551 412.623 384.035 403.93 392.465C395.236 400.631 382.723 404.714 366.39 404.714Z"/>
</mask>
<path d="M54.793 397.602C51.1049 397.602 47.4169 397.338 43.7288 396.811C40.0407 396.548 36.3527 396.153 32.6646 395.626L53.6075 289.331C56.2419 274.842 59.0079 259.563 61.9057 243.493C65.0669 227.16 68.0964 211.091 70.9942 195.285C73.8919 179.215 76.3945 164.331 78.502 150.633C80.8729 136.934 82.7169 125.343 84.0341 115.86C95.3617 113.752 106.821 111.776 118.412 109.932C130.003 108.088 141.858 107.166 153.976 107.166C173.47 107.166 188.881 111.25 200.208 119.416C211.536 127.319 219.702 137.856 224.708 151.028C229.713 163.936 232.215 178.162 232.215 193.704C232.215 207.666 230.24 222.418 226.288 237.961C222.337 253.24 216.673 268.519 209.297 283.798C202.184 298.814 193.622 313.04 183.612 326.475C168.069 347.286 149.102 364.409 126.71 377.844C104.582 391.016 80.6095 397.602 54.793 397.602ZM101.816 347.813C111.036 341.754 119.729 332.534 127.896 320.152C136.326 307.771 144.229 292.887 151.605 275.5C158.191 259.431 163.328 244.283 167.016 230.058C170.704 215.569 172.548 203.583 172.548 194.099C172.548 184.352 169.782 176.713 164.25 171.181C158.981 165.649 150.551 162.883 138.96 162.883C134.745 185.538 130.398 206.481 125.92 225.711C121.705 244.942 117.49 264.304 113.275 283.798C109.324 303.293 105.504 324.631 101.816 347.813ZM210.248 396.416C213.145 375.605 216.175 354.662 219.336 333.587C222.761 312.513 226.185 292.228 229.61 272.734C233.298 252.977 236.723 235.195 239.884 219.389C243.308 202.266 246.733 184.879 250.158 167.229C253.582 149.579 257.139 131.797 260.827 113.884L329.978 104.795L309.43 194.099C305.742 209.642 301.922 226.37 297.971 244.283C294.283 261.934 290.858 279.057 287.697 295.653C284.536 312.249 282.033 327.002 280.189 339.91C286.775 339.383 293.756 339.12 301.132 339.12C308.772 338.856 315.489 338.724 321.285 338.724C321.548 344.783 322.075 351.237 322.865 358.087C323.656 364.673 324.446 370.468 325.236 375.473C326.29 380.215 326.817 382.849 326.817 383.376C325.763 383.376 324.709 383.376 323.656 383.376C322.865 383.376 321.943 383.245 320.89 382.981H314.567C304.293 382.981 292.834 383.508 280.189 384.562C267.808 385.352 255.426 386.801 243.045 388.908C230.927 390.752 219.995 393.255 210.248 396.416ZM366.39 404.714C358.487 404.714 351.902 402.739 346.633 398.787C341.628 395.099 337.808 390.489 335.174 384.957C332.803 379.161 331.617 373.366 331.617 367.57C331.617 357.033 335.042 347.945 341.891 340.305C349.004 332.402 358.751 328.45 371.132 328.45C386.411 328.45 397.871 332.139 405.51 339.515C413.15 346.627 416.97 354.794 416.97 364.014C416.97 374.551 412.623 384.035 403.93 392.465C395.236 400.631 382.723 404.714 366.39 404.714Z" fill="white"/>
<path d="M43.7288 396.811L45.143 386.912L44.7935 386.862L44.4413 386.837L43.7288 396.811ZM32.6646 395.626L22.8532 393.693L20.8156 404.035L31.2504 405.525L32.6646 395.626ZM53.6075 289.331L63.4189 291.264L63.4331 291.192L63.4462 291.119L53.6075 289.331ZM61.9057 243.493L52.0879 241.593L52.0758 241.656L52.0644 241.719L61.9057 243.493ZM70.9942 195.285L80.8302 197.088L80.8328 197.074L80.8354 197.059L70.9942 195.285ZM78.502 150.633L68.6485 148.927L68.6325 149.02L68.6183 149.112L78.502 150.633ZM84.0341 115.86L82.205 106.028L75.1205 107.346L74.1292 114.484L84.0341 115.86ZM118.412 109.932L116.841 100.057L116.841 100.057L118.412 109.932ZM200.208 119.416L194.36 127.528L194.423 127.573L194.486 127.617L200.208 119.416ZM224.708 151.028L215.36 154.58L215.372 154.612L215.384 154.643L224.708 151.028ZM226.288 237.961L235.97 240.465L235.975 240.445L235.98 240.425L226.288 237.961ZM209.297 283.798L200.291 279.451L200.275 279.484L200.259 279.518L209.297 283.798ZM183.612 326.475L191.624 332.458L191.631 332.45L183.612 326.475ZM126.71 377.844L131.825 386.437L131.84 386.428L131.855 386.419L126.71 377.844ZM101.816 347.813L91.9401 346.242L88.382 368.607L107.308 356.17L101.816 347.813ZM127.896 320.152L119.63 314.524L119.588 314.585L119.548 314.646L127.896 320.152ZM151.605 275.5L160.811 279.406L160.835 279.349L160.858 279.293L151.605 275.5ZM167.016 230.058L176.696 232.568L176.701 232.546L176.707 232.525L167.016 230.058ZM164.25 171.181L157.008 178.077L157.092 178.166L157.179 178.252L164.25 171.181ZM138.96 162.883V152.883H130.649L129.129 161.053L138.96 162.883ZM125.92 225.711L116.181 223.443L116.166 223.507L116.152 223.57L125.92 225.711ZM113.275 283.798L103.501 281.685L103.487 281.748L103.475 281.812L113.275 283.798ZM54.793 397.602V387.602C51.5829 387.602 48.3674 387.373 45.143 386.912L43.7288 396.811L42.3146 406.711C46.4663 407.304 50.627 407.602 54.793 407.602V397.602ZM43.7288 396.811L44.4413 386.837C40.9897 386.59 37.5357 386.22 34.0788 385.726L32.6646 395.626L31.2504 405.525C35.1696 406.085 39.0918 406.506 43.0163 406.786L43.7288 396.811ZM32.6646 395.626L42.476 397.559L63.4189 291.264L53.6075 289.331L43.7962 287.397L22.8532 393.693L32.6646 395.626ZM53.6075 289.331L63.4462 291.119C66.0815 276.625 68.8484 261.341 71.747 245.268L61.9057 243.493L52.0644 241.719C49.1674 257.784 46.4022 273.058 43.7688 287.542L53.6075 289.331ZM61.9057 243.493L71.7235 245.393C74.8907 229.029 77.9263 212.928 80.8302 197.088L70.9942 195.285L61.1581 193.482C58.2665 209.254 55.2431 225.291 52.0879 241.593L61.9057 243.493ZM70.9942 195.285L80.8354 197.059C83.7458 180.92 86.2631 165.95 88.3857 152.153L78.502 150.633L68.6183 149.112C66.5259 162.713 64.038 177.511 61.1529 193.51L70.9942 195.285ZM78.502 150.633L88.3555 152.338C90.7377 138.574 92.6014 126.866 93.939 117.235L84.0341 115.86L74.1292 114.484C72.8324 123.821 71.0081 135.294 68.6485 148.927L78.502 150.633ZM84.0341 115.86L85.8632 125.691C97.1035 123.6 108.477 121.639 119.983 119.808L118.412 109.932L116.841 100.057C105.165 101.914 93.62 103.905 82.205 106.028L84.0341 115.86ZM118.412 109.932L119.983 119.808C131.038 118.049 142.367 117.166 153.976 117.166V107.166V97.1664C141.349 97.1664 128.968 98.1273 116.841 100.057L118.412 109.932ZM153.976 107.166V117.166C172.179 117.166 185.291 120.99 194.36 127.528L200.208 119.416L206.056 111.304C192.47 101.51 174.761 97.1664 153.976 97.1664V107.166ZM200.208 119.416L194.486 127.617C204.131 134.346 211.053 143.247 215.36 154.58L224.708 151.028L234.055 147.476C228.352 132.466 218.941 120.292 205.93 111.215L200.208 119.416ZM224.708 151.028L215.384 154.643C219.891 166.266 222.215 179.247 222.215 193.704H232.215H242.215C242.215 177.076 239.535 161.607 234.031 147.413L224.708 151.028ZM232.215 193.704H222.215C222.215 206.723 220.373 220.643 216.596 235.497L226.288 237.961L235.98 240.425C240.106 224.194 242.215 208.609 242.215 193.704H232.215ZM226.288 237.961L216.607 235.457C212.831 250.056 207.403 264.719 200.291 279.451L209.297 283.798L218.302 288.146C225.942 272.32 231.842 256.425 235.97 240.465L226.288 237.961ZM209.297 283.798L200.259 279.518C193.432 293.931 185.212 307.59 175.593 320.5L183.612 326.475L191.631 332.45C202.033 318.489 210.936 303.697 218.334 288.079L209.297 283.798ZM183.612 326.475L175.6 320.491C160.84 340.255 142.848 356.5 121.565 369.269L126.71 377.844L131.855 386.419C155.356 372.319 175.299 354.317 191.624 332.458L183.612 326.475ZM126.71 377.844L121.595 369.251C101.018 381.5 78.8137 387.602 54.793 387.602V397.602V407.602C82.4052 407.602 108.145 400.532 131.825 386.437L126.71 377.844ZM101.816 347.813L107.308 356.17C117.983 349.155 127.572 338.805 136.244 325.658L127.896 320.152L119.548 314.646C111.887 326.262 104.09 334.353 96.3241 339.456L101.816 347.813ZM127.896 320.152L136.162 325.78C145.041 312.738 153.241 297.248 160.811 279.406L151.605 275.5L142.399 271.595C135.216 288.526 127.61 302.804 119.63 314.524L127.896 320.152ZM151.605 275.5L160.858 279.293C167.585 262.878 172.876 247.3 176.696 232.568L167.016 230.058L157.336 227.548C153.779 241.267 148.796 255.983 142.352 271.708L151.605 275.5ZM167.016 230.058L176.707 232.525C180.497 217.635 182.548 204.749 182.548 194.099H172.548H162.548C162.548 202.417 160.911 213.503 157.325 227.591L167.016 230.058ZM172.548 194.099H182.548C182.548 182.39 179.165 171.954 171.321 164.11L164.25 171.181L157.179 178.252C160.398 181.472 162.548 186.315 162.548 194.099H172.548ZM164.25 171.181L171.491 164.284C163.547 155.943 151.885 152.883 138.96 152.883V162.883V172.883C149.217 172.883 154.415 175.354 157.008 178.077L164.25 171.181ZM138.96 162.883L129.129 161.053C124.937 183.585 120.62 204.38 116.181 223.443L125.92 225.711L135.659 227.979C140.177 208.582 144.553 187.49 148.791 164.712L138.96 162.883ZM125.92 225.711L116.152 223.57C111.935 242.81 107.718 262.182 103.501 281.685L113.275 283.798L123.049 285.912C127.262 266.427 131.475 247.074 135.688 227.852L125.92 225.711ZM113.275 283.798L103.475 281.812C99.4906 301.466 95.6464 322.944 91.9401 346.242L101.816 347.813L111.692 349.384C115.361 326.317 119.157 305.119 123.076 285.785L113.275 283.798ZM210.248 396.416L200.343 395.037L198.141 410.856L213.333 405.929L210.248 396.416ZM219.336 333.587L209.465 331.983L209.456 332.044L209.447 332.104L219.336 333.587ZM229.61 272.734L219.78 270.899L219.77 270.952L219.761 271.004L229.61 272.734ZM239.884 219.389L249.69 221.35L249.69 221.35L239.884 219.389ZM250.158 167.229L259.975 169.134L259.975 169.134L250.158 167.229ZM260.827 113.884L259.524 103.969L252.467 104.897L251.032 111.867L260.827 113.884ZM329.978 104.795L339.723 107.038L342.952 93.0043L328.675 94.8807L329.978 104.795ZM309.43 194.099L319.16 196.408L319.168 196.375L319.176 196.342L309.43 194.099ZM297.971 244.283L288.206 242.129L288.194 242.184L288.182 242.238L297.971 244.283ZM287.697 295.653L277.874 293.782L277.874 293.782L287.697 295.653ZM280.189 339.91L270.29 338.496L268.521 350.875L280.987 349.878L280.189 339.91ZM301.132 339.12V349.12H301.304L301.477 349.114L301.132 339.12ZM321.285 338.724L331.275 338.29L330.859 328.724H321.285V338.724ZM322.865 358.087L312.931 359.233L312.934 359.256L312.937 359.278L322.865 358.087ZM325.236 375.473L315.359 377.033L315.407 377.34L315.474 377.643L325.236 375.473ZM326.817 383.376V393.376H336.817V383.376H326.817ZM320.89 382.981L323.315 373.28L322.121 372.981H320.89V382.981ZM280.189 384.562L280.826 394.541L280.923 394.535L281.02 394.527L280.189 384.562ZM243.045 388.908L244.549 398.795L244.636 398.781L244.723 398.767L243.045 388.908ZM210.248 396.416L220.152 397.795C223.045 377.019 226.069 356.111 229.225 335.071L219.336 333.587L209.447 332.104C206.28 353.213 203.246 374.191 200.343 395.037L210.248 396.416ZM219.336 333.587L229.207 335.191C232.625 314.156 236.042 293.913 239.459 274.465L229.61 272.734L219.761 271.004C216.328 290.543 212.896 310.87 209.465 331.983L219.336 333.587ZM229.61 272.734L239.44 274.569C243.122 254.844 246.539 237.105 249.69 221.35L239.884 219.389L230.078 217.428C226.907 233.285 223.474 251.109 219.78 270.899L229.61 272.734ZM239.884 219.389L249.69 221.35C253.118 204.208 256.546 186.802 259.975 169.134L250.158 167.229L240.341 165.324C236.92 182.956 233.499 200.324 230.078 217.428L239.884 219.389ZM250.158 167.229L259.975 169.134C263.392 151.522 266.941 133.777 270.621 115.9L260.827 113.884L251.032 111.867C247.337 129.817 243.773 147.636 240.341 165.324L250.158 167.229ZM260.827 113.884L262.13 123.799L331.281 114.71L329.978 104.795L328.675 94.8807L259.524 103.969L260.827 113.884ZM329.978 104.795L320.233 102.553L299.685 191.857L309.43 194.099L319.176 196.342L339.723 107.038L329.978 104.795ZM309.43 194.099L299.7 191.791C295.998 207.392 292.167 224.172 288.206 242.129L297.971 244.283L307.736 246.438C311.678 228.568 315.486 211.892 319.16 196.408L309.43 194.099ZM297.971 244.283L288.182 242.238C284.483 259.942 281.047 277.124 277.874 293.782L287.697 295.653L297.52 297.524C300.67 280.99 304.083 263.925 307.759 246.329L297.971 244.283ZM287.697 295.653L277.874 293.782C274.691 310.488 272.161 325.398 270.29 338.496L280.189 339.91L290.089 341.324C291.906 328.606 294.38 314.01 297.52 297.524L287.697 295.653ZM280.189 339.91L280.987 349.878C287.279 349.375 293.992 349.12 301.132 349.12V339.12V329.12C293.52 329.12 286.271 329.391 279.392 329.942L280.189 339.91ZM301.132 339.12L301.477 349.114C309.035 348.853 315.634 348.724 321.285 348.724V338.724V328.724C315.345 328.724 308.508 328.859 300.787 329.125L301.132 339.12ZM321.285 338.724L311.294 339.159C311.569 345.485 312.117 352.178 312.931 359.233L322.865 358.087L332.799 356.94C332.033 350.296 331.527 344.082 331.275 338.29L321.285 338.724ZM322.865 358.087L312.937 359.278C313.737 365.952 314.544 371.875 315.359 377.033L325.236 375.473L335.114 373.914C334.348 369.061 333.574 363.393 332.794 356.895L322.865 358.087ZM325.236 375.473L315.474 377.643C315.996 379.99 316.373 381.753 316.616 382.967C316.739 383.58 316.814 383.988 316.854 384.23C316.875 384.353 316.876 384.373 316.869 384.32C316.866 384.292 316.856 384.208 316.845 384.083C316.837 383.979 316.817 383.721 316.817 383.376H326.817H336.817C336.817 382.276 336.623 381.19 336.582 380.942C336.491 380.394 336.368 379.748 336.227 379.044C335.943 377.623 335.53 375.699 334.998 373.304L325.236 375.473ZM326.817 383.376V373.376C326.815 373.376 326.813 373.376 326.811 373.376C326.809 373.376 326.807 373.376 326.804 373.376C326.802 373.376 326.8 373.376 326.798 373.376C326.796 373.376 326.794 373.376 326.792 373.376C326.79 373.376 326.788 373.376 326.786 373.376C326.784 373.376 326.782 373.376 326.78 373.376C326.778 373.376 326.776 373.376 326.774 373.376C326.772 373.376 326.769 373.376 326.767 373.376C326.765 373.376 326.763 373.376 326.761 373.376C326.759 373.376 326.757 373.376 326.755 373.376C326.753 373.376 326.751 373.376 326.749 373.376C326.747 373.376 326.745 373.376 326.743 373.376C326.741 373.376 326.739 373.376 326.737 373.376C326.734 373.376 326.732 373.376 326.73 373.376C326.728 373.376 326.726 373.376 326.724 373.376C326.722 373.376 326.72 373.376 326.718 373.376C326.716 373.376 326.714 373.376 326.712 373.376C326.71 373.376 326.708 373.376 326.706 373.376C326.704 373.376 326.702 373.376 326.7 373.376C326.697 373.376 326.695 373.376 326.693 373.376C326.691 373.376 326.689 373.376 326.687 373.376C326.685 373.376 326.683 373.376 326.681 373.376C326.679 373.376 326.677 373.376 326.675 373.376C326.673 373.376 326.671 373.376 326.669 373.376C326.667 373.376 326.665 373.376 326.662 373.376C326.66 373.376 326.658 373.376 326.656 373.376C326.654 373.376 326.652 373.376 326.65 373.376C326.648 373.376 326.646 373.376 326.644 373.376C326.642 373.376 326.64 373.376 326.638 373.376C326.636 373.376 326.634 373.376 326.632 373.376C326.63 373.376 326.627 373.376 326.625 373.376C326.623 373.376 326.621 373.376 326.619 373.376C326.617 373.376 326.615 373.376 326.613 373.376C326.611 373.376 326.609 373.376 326.607 373.376C326.605 373.376 326.603 373.376 326.601 373.376C326.599 373.376 326.597 373.376 326.595 373.376C326.592 373.376 326.59 373.376 326.588 373.376C326.586 373.376 326.584 373.376 326.582 373.376C326.58 373.376 326.578 373.376 326.576 373.376C326.574 373.376 326.572 373.376 326.57 373.376C326.568 373.376 326.566 373.376 326.564 373.376C326.562 373.376 326.56 373.376 326.558 373.376C326.555 373.376 326.553 373.376 326.551 373.376C326.549 373.376 326.547 373.376 326.545 373.376C326.543 373.376 326.541 373.376 326.539 373.376C326.537 373.376 326.535 373.376 326.533 373.376C326.531 373.376 326.529 373.376 326.527 373.376C326.525 373.376 326.523 373.376 326.52 373.376C326.518 373.376 326.516 373.376 326.514 373.376C326.512 373.376 326.51 373.376 326.508 373.376C326.506 373.376 326.504 373.376 326.502 373.376C326.5 373.376 326.498 373.376 326.496 373.376C326.494 373.376 326.492 373.376 326.49 373.376C326.488 373.376 326.485 373.376 326.483 373.376C326.481 373.376 326.479 373.376 326.477 373.376C326.475 373.376 326.473 373.376 326.471 373.376C326.469 373.376 326.467 373.376 326.465 373.376C326.463 373.376 326.461 373.376 326.459 373.376C326.457 373.376 326.455 373.376 326.453 373.376C326.45 373.376 326.448 373.376 326.446 373.376C326.444 373.376 326.442 373.376 326.44 373.376C326.438 373.376 326.436 373.376 326.434 373.376C326.432 373.376 326.43 373.376 326.428 373.376C326.426 373.376 326.424 373.376 326.422 373.376C326.42 373.376 326.418 373.376 326.415 373.376C326.413 373.376 326.411 373.376 326.409 373.376C326.407 373.376 326.405 373.376 326.403 373.376C326.401 373.376 326.399 373.376 326.397 373.376C326.395 373.376 326.393 373.376 326.391 373.376C326.389 373.376 326.387 373.376 326.385 373.376C326.383 373.376 326.381 373.376 326.378 373.376C326.376 373.376 326.374 373.376 326.372 373.376C326.37 373.376 326.368 373.376 326.366 373.376C326.364 373.376 326.362 373.376 326.36 373.376C326.358 373.376 326.356 373.376 326.354 373.376C326.352 373.376 326.35 373.376 326.348 373.376C326.346 373.376 326.343 373.376 326.341 373.376C326.339 373.376 326.337 373.376 326.335 373.376C326.333 373.376 326.331 373.376 326.329 373.376C326.327 373.376 326.325 373.376 326.323 373.376C326.321 373.376 326.319 373.376 326.317 373.376C326.315 373.376 326.313 373.376 326.311 373.376C326.308 373.376 326.306 373.376 326.304 373.376C326.302 373.376 326.3 373.376 326.298 373.376C326.296 373.376 326.294 373.376 326.292 373.376C326.29 373.376 326.288 373.376 326.286 373.376C326.284 373.376 326.282 373.376 326.28 373.376C326.278 373.376 326.276 373.376 326.273 373.376C326.271 373.376 326.269 373.376 326.267 373.376C326.265 373.376 326.263 373.376 326.261 373.376C326.259 373.376 326.257 373.376 326.255 373.376C326.253 373.376 326.251 373.376 326.249 373.376C326.247 373.376 326.245 373.376 326.243 373.376C326.241 373.376 326.239 373.376 326.236 373.376C326.234 373.376 326.232 373.376 326.23 373.376C326.228 373.376 326.226 373.376 326.224 373.376C326.222 373.376 326.22 373.376 326.218 373.376C326.216 373.376 326.214 373.376 326.212 373.376C326.21 373.376 326.208 373.376 326.206 373.376C326.204 373.376 326.201 373.376 326.199 373.376C326.197 373.376 326.195 373.376 326.193 373.376C326.191 373.376 326.189 373.376 326.187 373.376C326.185 373.376 326.183 373.376 326.181 373.376C326.179 373.376 326.177 373.376 326.175 373.376C326.173 373.376 326.171 373.376 326.169 373.376C326.166 373.376 326.164 373.376 326.162 373.376C326.16 373.376 326.158 373.376 326.156 373.376C326.154 373.376 326.152 373.376 326.15 373.376C326.148 373.376 326.146 373.376 326.144 373.376C326.142 373.376 326.14 373.376 326.138 373.376C326.136 373.376 326.134 373.376 326.131 373.376C326.129 373.376 326.127 373.376 326.125 373.376C326.123 373.376 326.121 373.376 326.119 373.376C326.117 373.376 326.115 373.376 326.113 373.376C326.111 373.376 326.109 373.376 326.107 373.376C326.105 373.376 326.103 373.376 326.101 373.376C326.099 373.376 326.096 373.376 326.094 373.376C326.092 373.376 326.09 373.376 326.088 373.376C326.086 373.376 326.084 373.376 326.082 373.376C326.08 373.376 326.078 373.376 326.076 373.376C326.074 373.376 326.072 373.376 326.07 373.376C326.068 373.376 326.066 373.376 326.064 373.376C326.062 373.376 326.059 373.376 326.057 373.376C326.055 373.376 326.053 373.376 326.051 373.376C326.049 373.376 326.047 373.376 326.045 373.376C326.043 373.376 326.041 373.376 326.039 373.376C326.037 373.376 326.035 373.376 326.033 373.376C326.031 373.376 326.029 373.376 326.027 373.376C326.024 373.376 326.022 373.376 326.02 373.376C326.018 373.376 326.016 373.376 326.014 373.376C326.012 373.376 326.01 373.376 326.008 373.376C326.006 373.376 326.004 373.376 326.002 373.376C326 373.376 325.998 373.376 325.996 373.376C325.994 373.376 325.992 373.376 325.989 373.376C325.987 373.376 325.985 373.376 325.983 373.376C325.981 373.376 325.979 373.376 325.977 373.376C325.975 373.376 325.973 373.376 325.971 373.376C325.969 373.376 325.967 373.376 325.965 373.376C325.963 373.376 325.961 373.376 325.959 373.376C325.957 373.376 325.954 373.376 325.952 373.376C325.95 373.376 325.948 373.376 325.946 373.376C325.944 373.376 325.942 373.376 325.94 373.376C325.938 373.376 325.936 373.376 325.934 373.376C325.932 373.376 325.93 373.376 325.928 373.376C325.926 373.376 325.924 373.376 325.922 373.376C325.92 373.376 325.917 373.376 325.915 373.376C325.913 373.376 325.911 373.376 325.909 373.376C325.907 373.376 325.905 373.376 325.903 373.376C325.901 373.376 325.899 373.376 325.897 373.376C325.895 373.376 325.893 373.376 325.891 373.376C325.889 373.376 325.887 373.376 325.885 373.376C325.882 373.376 325.88 373.376 325.878 373.376C325.876 373.376 325.874 373.376 325.872 373.376C325.87 373.376 325.868 373.376 325.866 373.376C325.864 373.376 325.862 373.376 325.86 373.376C325.858 373.376 325.856 373.376 325.854 373.376C325.852 373.376 325.85 373.376 325.847 373.376C325.845 373.376 325.843 373.376 325.841 373.376C325.839 373.376 325.837 373.376 325.835 373.376C325.833 373.376 325.831 373.376 325.829 373.376C325.827 373.376 325.825 373.376 325.823 373.376C325.821 373.376 325.819 373.376 325.817 373.376C325.815 373.376 325.812 373.376 325.81 373.376C325.808 373.376 325.806 373.376 325.804 373.376C325.802 373.376 325.8 373.376 325.798 373.376C325.796 373.376 325.794 373.376 325.792 373.376C325.79 373.376 325.788 373.376 325.786 373.376C325.784 373.376 325.782 373.376 325.78 373.376C325.777 373.376 325.775 373.376 325.773 373.376C325.771 373.376 325.769 373.376 325.767 373.376C325.765 373.376 325.763 373.376 325.761 373.376C325.759 373.376 325.757 373.376 325.755 373.376C325.753 373.376 325.751 373.376 325.749 373.376C325.747 373.376 325.745 373.376 325.743 373.376C325.74 373.376 325.738 373.376 325.736 373.376C325.734 373.376 325.732 373.376 325.73 373.376C325.728 373.376 325.726 373.376 325.724 373.376C325.722 373.376 325.72 373.376 325.718 373.376C325.716 373.376 325.714 373.376 325.712 373.376C325.71 373.376 325.708 373.376 325.705 373.376C325.703 373.376 325.701 373.376 325.699 373.376C325.697 373.376 325.695 373.376 325.693 373.376C325.691 373.376 325.689 373.376 325.687 373.376C325.685 373.376 325.683 373.376 325.681 373.376C325.679 373.376 325.677 373.376 325.675 373.376C325.673 373.376 325.67 373.376 325.668 373.376C325.666 373.376 325.664 373.376 325.662 373.376C325.66 373.376 325.658 373.376 325.656 373.376C325.654 373.376 325.652 373.376 325.65 373.376C325.648 373.376 325.646 373.376 325.644 373.376C325.642 373.376 325.64 373.376 325.638 373.376C325.635 373.376 325.633 373.376 325.631 373.376C325.629 373.376 325.627 373.376 325.625 373.376C325.623 373.376 325.621 373.376 325.619 373.376C325.617 373.376 325.615 373.376 325.613 373.376C325.611 373.376 325.609 373.376 325.607 373.376C325.605 373.376 325.603 373.376 325.6 373.376C325.598 373.376 325.596 373.376 325.594 373.376C325.592 373.376 325.59 373.376 325.588 373.376C325.586 373.376 325.584 373.376 325.582 373.376C325.58 373.376 325.578 373.376 325.576 373.376C325.574 373.376 325.572 373.376 325.57 373.376C325.568 373.376 325.566 373.376 325.563 373.376C325.561 373.376 325.559 373.376 325.557 373.376C325.555 373.376 325.553 373.376 325.551 373.376C325.549 373.376 325.547 373.376 325.545 373.376C325.543 373.376 325.541 373.376 325.539 373.376C325.537 373.376 325.535 373.376 325.533 373.376C325.531 373.376 325.528 373.376 325.526 373.376C325.524 373.376 325.522 373.376 325.52 373.376C325.518 373.376 325.516 373.376 325.514 373.376C325.512 373.376 325.51 373.376 325.508 373.376C325.506 373.376 325.504 373.376 325.502 373.376C325.5 373.376 325.498 373.376 325.496 373.376C325.493 373.376 325.491 373.376 325.489 373.376C325.487 373.376 325.485 373.376 325.483 373.376C325.481 373.376 325.479 373.376 325.477 373.376C325.475 373.376 325.473 373.376 325.471 373.376C325.469 373.376 325.467 373.376 325.465 373.376C325.463 373.376 325.461 373.376 325.458 373.376C325.456 373.376 325.454 373.376 325.452 373.376C325.45 373.376 325.448 373.376 325.446 373.376C325.444 373.376 325.442 373.376 325.44 373.376C325.438 373.376 325.436 373.376 325.434 373.376C325.432 373.376 325.43 373.376 325.428 373.376C325.426 373.376 325.424 373.376 325.421 373.376C325.419 373.376 325.417 373.376 325.415 373.376C325.413 373.376 325.411 373.376 325.409 373.376C325.407 373.376 325.405 373.376 325.403 373.376C325.401 373.376 325.399 373.376 325.397 373.376C325.395 373.376 325.393 373.376 325.391 373.376C325.389 373.376 325.386 373.376 325.384 373.376C325.382 373.376 325.38 373.376 325.378 373.376C325.376 373.376 325.374 373.376 325.372 373.376C325.37 373.376 325.368 373.376 325.366 373.376C325.364 373.376 325.362 373.376 325.36 373.376C325.358 373.376 325.356 373.376 325.354 373.376C325.351 373.376 325.349 373.376 325.347 373.376C325.345 373.376 325.343 373.376 325.341 373.376C325.339 373.376 325.337 373.376 325.335 373.376C325.333 373.376 325.331 373.376 325.329 373.376C325.327 373.376 325.325 373.376 325.323 373.376C325.321 373.376 325.319 373.376 325.316 373.376C325.314 373.376 325.312 373.376 325.31 373.376C325.308 373.376 325.306 373.376 325.304 373.376C325.302 373.376 325.3 373.376 325.298 373.376C325.296 373.376 325.294 373.376 325.292 373.376C325.29 373.376 325.288 373.376 325.286 373.376C325.284 373.376 325.281 373.376 325.279 373.376C325.277 373.376 325.275 373.376 325.273 373.376C325.271 373.376 325.269 373.376 325.267 373.376C325.265 373.376 325.263 373.376 325.261 373.376C325.259 373.376 325.257 373.376 325.255 373.376C325.253 373.376 325.251 373.376 325.249 373.376C325.247 373.376 325.244 373.376 325.242 373.376C325.24 373.376 325.238 373.376 325.236 373.376C325.234 373.376 325.232 373.376 325.23 373.376C325.228 373.376 325.226 373.376 325.224 373.376C325.222 373.376 325.22 373.376 325.218 373.376C325.216 373.376 325.214 373.376 325.212 373.376C325.209 373.376 325.207 373.376 325.205 373.376C325.203 373.376 325.201 373.376 325.199 373.376C325.197 373.376 325.195 373.376 325.193 373.376C325.191 373.376 325.189 373.376 325.187 373.376C325.185 373.376 325.183 373.376 325.181 373.376C325.179 373.376 325.177 373.376 325.174 373.376C325.172 373.376 325.17 373.376 325.168 373.376C325.166 373.376 325.164 373.376 325.162 373.376C325.16 373.376 325.158 373.376 325.156 373.376C325.154 373.376 325.152 373.376 325.15 373.376C325.148 373.376 325.146 373.376 325.144 373.376C325.142 373.376 325.139 373.376 325.137 373.376C325.135 373.376 325.133 373.376 325.131 373.376C325.129 373.376 325.127 373.376 325.125 373.376C325.123 373.376 325.121 373.376 325.119 373.376C325.117 373.376 325.115 373.376 325.113 373.376C325.111 373.376 325.109 373.376 325.107 373.376C325.105 373.376 325.102 373.376 325.1 373.376C325.098 373.376 325.096 373.376 325.094 373.376C325.092 373.376 325.09 373.376 325.088 373.376C325.086 373.376 325.084 373.376 325.082 373.376C325.08 373.376 325.078 373.376 325.076 373.376C325.074 373.376 325.072 373.376 325.07 373.376C325.067 373.376 325.065 373.376 325.063 373.376C325.061 373.376 325.059 373.376 325.057 373.376C325.055 373.376 325.053 373.376 325.051 373.376C325.049 373.376 325.047 373.376 325.045 373.376C325.043 373.376 325.041 373.376 325.039 373.376C325.037 373.376 325.035 373.376 325.032 373.376C325.03 373.376 325.028 373.376 325.026 373.376C325.024 373.376 325.022 373.376 325.02 373.376C325.018 373.376 325.016 373.376 325.014 373.376C325.012 373.376 325.01 373.376 325.008 373.376C325.006 373.376 325.004 373.376 325.002 373.376C325 373.376 324.997 373.376 324.995 373.376C324.993 373.376 324.991 373.376 324.989 373.376C324.987 373.376 324.985 373.376 324.983 373.376C324.981 373.376 324.979 373.376 324.977 373.376C324.975 373.376 324.973 373.376 324.971 373.376C324.969 373.376 324.967 373.376 324.965 373.376C324.962 373.376 324.96 373.376 324.958 373.376C324.956 373.376 324.954 373.376 324.952 373.376C324.95 373.376 324.948 373.376 324.946 373.376C324.944 373.376 324.942 373.376 324.94 373.376C324.938 373.376 324.936 373.376 324.934 373.376C324.932 373.376 324.93 373.376 324.928 373.376C324.925 373.376 324.923 373.376 324.921 373.376C324.919 373.376 324.917 373.376 324.915 373.376C324.913 373.376 324.911 373.376 324.909 373.376C324.907 373.376 324.905 373.376 324.903 373.376C324.901 373.376 324.899 373.376 324.897 373.376C324.895 373.376 324.893 373.376 324.89 373.376C324.888 373.376 324.886 373.376 324.884 373.376C324.882 373.376 324.88 373.376 324.878 373.376C324.876 373.376 324.874 373.376 324.872 373.376C324.87 373.376 324.868 373.376 324.866 373.376C324.864 373.376 324.862 373.376 324.86 373.376C324.858 373.376 324.855 373.376 324.853 373.376C324.851 373.376 324.849 373.376 324.847 373.376C324.845 373.376 324.843 373.376 324.841 373.376C324.839 373.376 324.837 373.376 324.835 373.376C324.833 373.376 324.831 373.376 324.829 373.376C324.827 373.376 324.825 373.376 324.823 373.376C324.82 373.376 324.818 373.376 324.816 373.376C324.814 373.376 324.812 373.376 324.81 373.376C324.808 373.376 324.806 373.376 324.804 373.376C324.802 373.376 324.8 373.376 324.798 373.376C324.796 373.376 324.794 373.376 324.792 373.376C324.79 373.376 324.788 373.376 324.786 373.376C324.783 373.376 324.781 373.376 324.779 373.376C324.777 373.376 324.775 373.376 324.773 373.376C324.771 373.376 324.769 373.376 324.767 373.376C324.765 373.376 324.763 373.376 324.761 373.376C324.759 373.376 324.757 373.376 324.755 373.376C324.753 373.376 324.751 373.376 324.748 373.376C324.746 373.376 324.744 373.376 324.742 373.376C324.74 373.376 324.738 373.376 324.736 373.376C324.734 373.376 324.732 373.376 324.73 373.376C324.728 373.376 324.726 373.376 324.724 373.376C324.722 373.376 324.72 373.376 324.718 373.376C324.716 373.376 324.713 373.376 324.711 373.376C324.709 373.376 324.707 373.376 324.705 373.376C324.703 373.376 324.701 373.376 324.699 373.376C324.697 373.376 324.695 373.376 324.693 373.376C324.691 373.376 324.689 373.376 324.687 373.376C324.685 373.376 324.683 373.376 324.681 373.376C324.678 373.376 324.676 373.376 324.674 373.376C324.672 373.376 324.67 373.376 324.668 373.376C324.666 373.376 324.664 373.376 324.662 373.376C324.66 373.376 324.658 373.376 324.656 373.376C324.654 373.376 324.652 373.376 324.65 373.376C324.648 373.376 324.646 373.376 324.643 373.376C324.641 373.376 324.639 373.376 324.637 373.376C324.635 373.376 324.633 373.376 324.631 373.376C324.629 373.376 324.627 373.376 324.625 373.376C324.623 373.376 324.621 373.376 324.619 373.376C324.617 373.376 324.615 373.376 324.613 373.376C324.611 373.376 324.609 373.376 324.606 373.376C324.604 373.376 324.602 373.376 324.6 373.376C324.598 373.376 324.596 373.376 324.594 373.376C324.592 373.376 324.59 373.376 324.588 373.376C324.586 373.376 324.584 373.376 324.582 373.376C324.58 373.376 324.578 373.376 324.576 373.376C324.574 373.376 324.571 373.376 324.569 373.376C324.567 373.376 324.565 373.376 324.563 373.376C324.561 373.376 324.559 373.376 324.557 373.376C324.555 373.376 324.553 373.376 324.551 373.376C324.549 373.376 324.547 373.376 324.545 373.376C324.543 373.376 324.541 373.376 324.539 373.376C324.536 373.376 324.534 373.376 324.532 373.376C324.53 373.376 324.528 373.376 324.526 373.376C324.524 373.376 324.522 373.376 324.52 373.376C324.518 373.376 324.516 373.376 324.514 373.376C324.512 373.376 324.51 373.376 324.508 373.376C324.506 373.376 324.504 373.376 324.501 373.376C324.499 373.376 324.497 373.376 324.495 373.376C324.493 373.376 324.491 373.376 324.489 373.376C324.487 373.376 324.485 373.376 324.483 373.376C324.481 373.376 324.479 373.376 324.477 373.376C324.475 373.376 324.473 373.376 324.471 373.376C324.469 373.376 324.467 373.376 324.464 373.376C324.462 373.376 324.46 373.376 324.458 373.376C324.456 373.376 324.454 373.376 324.452 373.376C324.45 373.376 324.448 373.376 324.446 373.376C324.444 373.376 324.442 373.376 324.44 373.376C324.438 373.376 324.436 373.376 324.434 373.376C324.432 373.376 324.429 373.376 324.427 373.376C324.425 373.376 324.423 373.376 324.421 373.376C324.419 373.376 324.417 373.376 324.415 373.376C324.413 373.376 324.411 373.376 324.409 373.376C324.407 373.376 324.405 373.376 324.403 373.376C324.401 373.376 324.399 373.376 324.397 373.376C324.394 373.376 324.392 373.376 324.39 373.376C324.388 373.376 324.386 373.376 324.384 373.376C324.382 373.376 324.38 373.376 324.378 373.376C324.376 373.376 324.374 373.376 324.372 373.376C324.37 373.376 324.368 373.376 324.366 373.376C324.364 373.376 324.362 373.376 324.359 373.376C324.357 373.376 324.355 373.376 324.353 373.376C324.351 373.376 324.349 373.376 324.347 373.376C324.345 373.376 324.343 373.376 324.341 373.376C324.339 373.376 324.337 373.376 324.335 373.376C324.333 373.376 324.331 373.376 324.329 373.376C324.327 373.376 324.324 373.376 324.322 373.376C324.32 373.376 324.318 373.376 324.316 373.376C324.314 373.376 324.312 373.376 324.31 373.376C324.308 373.376 324.306 373.376 324.304 373.376C324.302 373.376 324.3 373.376 324.298 373.376C324.296 373.376 324.294 373.376 324.292 373.376C324.29 373.376 324.287 373.376 324.285 373.376C324.283 373.376 324.281 373.376 324.279 373.376C324.277 373.376 324.275 373.376 324.273 373.376C324.271 373.376 324.269 373.376 324.267 373.376C324.265 373.376 324.263 373.376 324.261 373.376C324.259 373.376 324.257 373.376 324.255 373.376C324.252 373.376 324.25 373.376 324.248 373.376C324.246 373.376 324.244 373.376 324.242 373.376C324.24 373.376 324.238 373.376 324.236 373.376C324.234 373.376 324.232 373.376 324.23 373.376C324.228 373.376 324.226 373.376 324.224 373.376C324.222 373.376 324.22 373.376 324.217 373.376C324.215 373.376 324.213 373.376 324.211 373.376C324.209 373.376 324.207 373.376 324.205 373.376C324.203 373.376 324.201 373.376 324.199 373.376C324.197 373.376 324.195 373.376 324.193 373.376C324.191 373.376 324.189 373.376 324.187 373.376C324.185 373.376 324.182 373.376 324.18 373.376C324.178 373.376 324.176 373.376 324.174 373.376C324.172 373.376 324.17 373.376 324.168 373.376C324.166 373.376 324.164 373.376 324.162 373.376C324.16 373.376 324.158 373.376 324.156 373.376C324.154 373.376 324.152 373.376 324.15 373.376C324.148 373.376 324.145 373.376 324.143 373.376C324.141 373.376 324.139 373.376 324.137 373.376C324.135 373.376 324.133 373.376 324.131 373.376C324.129 373.376 324.127 373.376 324.125 373.376C324.123 373.376 324.121 373.376 324.119 373.376C324.117 373.376 324.115 373.376 324.113 373.376C324.11 373.376 324.108 373.376 324.106 373.376C324.104 373.376 324.102 373.376 324.1 373.376C324.098 373.376 324.096 373.376 324.094 373.376C324.092 373.376 324.09 373.376 324.088 373.376C324.086 373.376 324.084 373.376 324.082 373.376C324.08 373.376 324.078 373.376 324.075 373.376C324.073 373.376 324.071 373.376 324.069 373.376C324.067 373.376 324.065 373.376 324.063 373.376C324.061 373.376 324.059 373.376 324.057 373.376C324.055 373.376 324.053 373.376 324.051 373.376C324.049 373.376 324.047 373.376 324.045 373.376C324.043 373.376 324.04 373.376 324.038 373.376C324.036 373.376 324.034 373.376 324.032 373.376C324.03 373.376 324.028 373.376 324.026 373.376C324.024 373.376 324.022 373.376 324.02 373.376C324.018 373.376 324.016 373.376 324.014 373.376C324.012 373.376 324.01 373.376 324.008 373.376C324.005 373.376 324.003 373.376 324.001 373.376C323.999 373.376 323.997 373.376 323.995 373.376C323.993 373.376 323.991 373.376 323.989 373.376C323.987 373.376 323.985 373.376 323.983 373.376C323.981 373.376 323.979 373.376 323.977 373.376C323.975 373.376 323.973 373.376 323.971 373.376C323.968 373.376 323.966 373.376 323.964 373.376C323.962 373.376 323.96 373.376 323.958 373.376C323.956 373.376 323.954 373.376 323.952 373.376C323.95 373.376 323.948 373.376 323.946 373.376C323.944 373.376 323.942 373.376 323.94 373.376C323.938 373.376 323.936 373.376 323.933 373.376C323.931 373.376 323.929 373.376 323.927 373.376C323.925 373.376 323.923 373.376 323.921 373.376C323.919 373.376 323.917 373.376 323.915 373.376C323.913 373.376 323.911 373.376 323.909 373.376C323.907 373.376 323.905 373.376 323.903 373.376C323.901 373.376 323.898 373.376 323.896 373.376C323.894 373.376 323.892 373.376 323.89 373.376C323.888 373.376 323.886 373.376 323.884 373.376C323.882 373.376 323.88 373.376 323.878 373.376C323.876 373.376 323.874 373.376 323.872 373.376C323.87 373.376 323.868 373.376 323.866 373.376C323.863 373.376 323.861 373.376 323.859 373.376C323.857 373.376 323.855 373.376 323.853 373.376C323.851 373.376 323.849 373.376 323.847 373.376C323.845 373.376 323.843 373.376 323.841 373.376C323.839 373.376 323.837 373.376 323.835 373.376C323.833 373.376 323.831 373.376 323.829 373.376C323.826 373.376 323.824 373.376 323.822 373.376C323.82 373.376 323.818 373.376 323.816 373.376C323.814 373.376 323.812 373.376 323.81 373.376C323.808 373.376 323.806 373.376 323.804 373.376C323.802 373.376 323.8 373.376 323.798 373.376C323.796 373.376 323.794 373.376 323.791 373.376C323.789 373.376 323.787 373.376 323.785 373.376C323.783 373.376 323.781 373.376 323.779 373.376C323.777 373.376 323.775 373.376 323.773 373.376C323.771 373.376 323.769 373.376 323.767 373.376C323.765 373.376 323.763 373.376 323.761 373.376C323.759 373.376 323.756 373.376 323.754 373.376C323.752 373.376 323.75 373.376 323.748 373.376C323.746 373.376 323.744 373.376 323.742 373.376C323.74 373.376 323.738 373.376 323.736 373.376C323.734 373.376 323.732 373.376 323.73 373.376C323.728 373.376 323.726 373.376 323.724 373.376C323.721 373.376 323.719 373.376 323.717 373.376C323.715 373.376 323.713 373.376 323.711 373.376C323.709 373.376 323.707 373.376 323.705 373.376C323.703 373.376 323.701 373.376 323.699 373.376C323.697 373.376 323.695 373.376 323.693 373.376C323.691 373.376 323.689 373.376 323.686 373.376C323.684 373.376 323.682 373.376 323.68 373.376C323.678 373.376 323.676 373.376 323.674 373.376C323.672 373.376 323.67 373.376 323.668 373.376C323.666 373.376 323.664 373.376 323.662 373.376C323.66 373.376 323.658 373.376 323.656 373.376V383.376V393.376C323.658 393.376 323.66 393.376 323.662 393.376C323.664 393.376 323.666 393.376 323.668 393.376C323.67 393.376 323.672 393.376 323.674 393.376C323.676 393.376 323.678 393.376 323.68 393.376C323.682 393.376 323.684 393.376 323.686 393.376C323.689 393.376 323.691 393.376 323.693 393.376C323.695 393.376 323.697 393.376 323.699 393.376C323.701 393.376 323.703 393.376 323.705 393.376C323.707 393.376 323.709 393.376 323.711 393.376C323.713 393.376 323.715 393.376 323.717 393.376C323.719 393.376 323.721 393.376 323.724 393.376C323.726 393.376 323.728 393.376 323.73 393.376C323.732 393.376 323.734 393.376 323.736 393.376C323.738 393.376 323.74 393.376 323.742 393.376C323.744 393.376 323.746 393.376 323.748 393.376C323.75 393.376 323.752 393.376 323.754 393.376C323.756 393.376 323.759 393.376 323.761 393.376C323.763 393.376 323.765 393.376 323.767 393.376C323.769 393.376 323.771 393.376 323.773 393.376C323.775 393.376 323.777 393.376 323.779 393.376C323.781 393.376 323.783 393.376 323.785 393.376C323.787 393.376 323.789 393.376 323.791 393.376C323.794 393.376 323.796 393.376 323.798 393.376C323.8 393.376 323.802 393.376 323.804 393.376C323.806 393.376 323.808 393.376 323.81 393.376C323.812 393.376 323.814 393.376 323.816 393.376C323.818 393.376 323.82 393.376 323.822 393.376C323.824 393.376 323.826 393.376 323.829 393.376C323.831 393.376 323.833 393.376 323.835 393.376C323.837 393.376 323.839 393.376 323.841 393.376C323.843 393.376 323.845 393.376 323.847 393.376C323.849 393.376 323.851 393.376 323.853 393.376C323.855 393.376 323.857 393.376 323.859 393.376C323.861 393.376 323.863 393.376 323.866 393.376C323.868 393.376 323.87 393.376 323.872 393.376C323.874 393.376 323.876 393.376 323.878 393.376C323.88 393.376 323.882 393.376 323.884 393.376C323.886 393.376 323.888 393.376 323.89 393.376C323.892 393.376 323.894 393.376 323.896 393.376C323.898 393.376 323.901 393.376 323.903 393.376C323.905 393.376 323.907 393.376 323.909 393.376C323.911 393.376 323.913 393.376 323.915 393.376C323.917 393.376 323.919 393.376 323.921 393.376C323.923 393.376 323.925 393.376 323.927 393.376C323.929 393.376 323.931 393.376 323.933 393.376C323.936 393.376 323.938 393.376 323.94 393.376C323.942 393.376 323.944 393.376 323.946 393.376C323.948 393.376 323.95 393.376 323.952 393.376C323.954 393.376 323.956 393.376 323.958 393.376C323.96 393.376 323.962 393.376 323.964 393.376C323.966 393.376 323.968 393.376 323.971 393.376C323.973 393.376 323.975 393.376 323.977 393.376C323.979 393.376 323.981 393.376 323.983 393.376C323.985 393.376 323.987 393.376 323.989 393.376C323.991 393.376 323.993 393.376 323.995 393.376C323.997 393.376 323.999 393.376 324.001 393.376C324.003 393.376 324.005 393.376 324.008 393.376C324.01 393.376 324.012 393.376 324.014 393.376C324.016 393.376 324.018 393.376 324.02 393.376C324.022 393.376 324.024 393.376 324.026 393.376C324.028 393.376 324.03 393.376 324.032 393.376C324.034 393.376 324.036 393.376 324.038 393.376C324.04 393.376 324.043 393.376 324.045 393.376C324.047 393.376 324.049 393.376 324.051 393.376C324.053 393.376 324.055 393.376 324.057 393.376C324.059 393.376 324.061 393.376 324.063 393.376C324.065 393.376 324.067 393.376 324.069 393.376C324.071 393.376 324.073 393.376 324.075 393.376C324.078 393.376 324.08 393.376 324.082 393.376C324.084 393.376 324.086 393.376 324.088 393.376C324.09 393.376 324.092 393.376 324.094 393.376C324.096 393.376 324.098 393.376 324.1 393.376C324.102 393.376 324.104 393.376 324.106 393.376C324.108 393.376 324.11 393.376 324.113 393.376C324.115 393.376 324.117 393.376 324.119 393.376C324.121 393.376 324.123 393.376 324.125 393.376C324.127 393.376 324.129 393.376 324.131 393.376C324.133 393.376 324.135 393.376 324.137 393.376C324.139 393.376 324.141 393.376 324.143 393.376C324.145 393.376 324.148 393.376 324.15 393.376C324.152 393.376 324.154 393.376 324.156 393.376C324.158 393.376 324.16 393.376 324.162 393.376C324.164 393.376 324.166 393.376 324.168 393.376C324.17 393.376 324.172 393.376 324.174 393.376C324.176 393.376 324.178 393.376 324.18 393.376C324.182 393.376 324.185 393.376 324.187 393.376C324.189 393.376 324.191 393.376 324.193 393.376C324.195 393.376 324.197 393.376 324.199 393.376C324.201 393.376 324.203 393.376 324.205 393.376C324.207 393.376 324.209 393.376 324.211 393.376C324.213 393.376 324.215 393.376 324.217 393.376C324.22 393.376 324.222 393.376 324.224 393.376C324.226 393.376 324.228 393.376 324.23 393.376C324.232 393.376 324.234 393.376 324.236 393.376C324.238 393.376 324.24 393.376 324.242 393.376C324.244 393.376 324.246 393.376 324.248 393.376C324.25 393.376 324.252 393.376 324.255 393.376C324.257 393.376 324.259 393.376 324.261 393.376C324.263 393.376 324.265 393.376 324.267 393.376C324.269 393.376 324.271 393.376 324.273 393.376C324.275 393.376 324.277 393.376 324.279 393.376C324.281 393.376 324.283 393.376 324.285 393.376C324.287 393.376 324.29 393.376 324.292 393.376C324.294 393.376 324.296 393.376 324.298 393.376C324.3 393.376 324.302 393.376 324.304 393.376C324.306 393.376 324.308 393.376 324.31 393.376C324.312 393.376 324.314 393.376 324.316 393.376C324.318 393.376 324.32 393.376 324.322 393.376C324.324 393.376 324.327 393.376 324.329 393.376C324.331 393.376 324.333 393.376 324.335 393.376C324.337 393.376 324.339 393.376 324.341 393.376C324.343 393.376 324.345 393.376 324.347 393.376C324.349 393.376 324.351 393.376 324.353 393.376C324.355 393.376 324.357 393.376 324.359 393.376C324.362 393.376 324.364 393.376 324.366 393.376C324.368 393.376 324.37 393.376 324.372 393.376C324.374 393.376 324.376 393.376 324.378 393.376C324.38 393.376 324.382 393.376 324.384 393.376C324.386 393.376 324.388 393.376 324.39 393.376C324.392 393.376 324.394 393.376 324.397 393.376C324.399 393.376 324.401 393.376 324.403 393.376C324.405 393.376 324.407 393.376 324.409 393.376C324.411 393.376 324.413 393.376 324.415 393.376C324.417 393.376 324.419 393.376 324.421 393.376C324.423 393.376 324.425 393.376 324.427 393.376C324.429 393.376 324.432 393.376 324.434 393.376C324.436 393.376 324.438 393.376 324.44 393.376C324.442 393.376 324.444 393.376 324.446 393.376C324.448 393.376 324.45 393.376 324.452 393.376C324.454 393.376 324.456 393.376 324.458 393.376C324.46 393.376 324.462 393.376 324.464 393.376C324.467 393.376 324.469 393.376 324.471 393.376C324.473 393.376 324.475 393.376 324.477 393.376C324.479 393.376 324.481 393.376 324.483 393.376C324.485 393.376 324.487 393.376 324.489 393.376C324.491 393.376 324.493 393.376 324.495 393.376C324.497 393.376 324.499 393.376 324.501 393.376C324.504 393.376 324.506 393.376 324.508 393.376C324.51 393.376 324.512 393.376 324.514 393.376C324.516 393.376 324.518 393.376 324.52 393.376C324.522 393.376 324.524 393.376 324.526 393.376C324.528 393.376 324.53 393.376 324.532 393.376C324.534 393.376 324.536 393.376 324.539 393.376C324.541 393.376 324.543 393.376 324.545 393.376C324.547 393.376 324.549 393.376 324.551 393.376C324.553 393.376 324.555 393.376 324.557 393.376C324.559 393.376 324.561 393.376 324.563 393.376C324.565 393.376 324.567 393.376 324.569 393.376C324.571 393.376 324.574 393.376 324.576 393.376C324.578 393.376 324.58 393.376 324.582 393.376C324.584 393.376 324.586 393.376 324.588 393.376C324.59 393.376 324.592 393.376 324.594 393.376C324.596 393.376 324.598 393.376 324.6 393.376C324.602 393.376 324.604 393.376 324.606 393.376C324.609 393.376 324.611 393.376 324.613 393.376C324.615 393.376 324.617 393.376 324.619 393.376C324.621 393.376 324.623 393.376 324.625 393.376C324.627 393.376 324.629 393.376 324.631 393.376C324.633 393.376 324.635 393.376 324.637 393.376C324.639 393.376 324.641 393.376 324.643 393.376C324.646 393.376 324.648 393.376 324.65 393.376C324.652 393.376 324.654 393.376 324.656 393.376C324.658 393.376 324.66 393.376 324.662 393.376C324.664 393.376 324.666 393.376 324.668 393.376C324.67 393.376 324.672 393.376 324.674 393.376C324.676 393.376 324.678 393.376 324.681 393.376C324.683 393.376 324.685 393.376 324.687 393.376C324.689 393.376 324.691 393.376 324.693 393.376C324.695 393.376 324.697 393.376 324.699 393.376C324.701 393.376 324.703 393.376 324.705 393.376C324.707 393.376 324.709 393.376 324.711 393.376C324.713 393.376 324.716 393.376 324.718 393.376C324.72 393.376 324.722 393.376 324.724 393.376C324.726 393.376 324.728 393.376 324.73 393.376C324.732 393.376 324.734 393.376 324.736 393.376C324.738 393.376 324.74 393.376 324.742 393.376C324.744 393.376 324.746 393.376 324.748 393.376C324.751 393.376 324.753 393.376 324.755 393.376C324.757 393.376 324.759 393.376 324.761 393.376C324.763 393.376 324.765 393.376 324.767 393.376C324.769 393.376 324.771 393.376 324.773 393.376C324.775 393.376 324.777 393.376 324.779 393.376C324.781 393.376 324.783 393.376 324.786 393.376C324.788 393.376 324.79 393.376 324.792 393.376C324.794 393.376 324.796 393.376 324.798 393.376C324.8 393.376 324.802 393.376 324.804 393.376C324.806 393.376 324.808 393.376 324.81 393.376C324.812 393.376 324.814 393.376 324.816 393.376C324.818 393.376 324.82 393.376 324.823 393.376C324.825 393.376 324.827 393.376 324.829 393.376C324.831 393.376 324.833 393.376 324.835 393.376C324.837 393.376 324.839 393.376 324.841 393.376C324.843 393.376 324.845 393.376 324.847 393.376C324.849 393.376 324.851 393.376 324.853 393.376C324.855 393.376 324.858 393.376 324.86 393.376C324.862 393.376 324.864 393.376 324.866 393.376C324.868 393.376 324.87 393.376 324.872 393.376C324.874 393.376 324.876 393.376 324.878 393.376C324.88 393.376 324.882 393.376 324.884 393.376C324.886 393.376 324.888 393.376 324.89 393.376C324.893 393.376 324.895 393.376 324.897 393.376C324.899 393.376 324.901 393.376 324.903 393.376C324.905 393.376 324.907 393.376 324.909 393.376C324.911 393.376 324.913 393.376 324.915 393.376C324.917 393.376 324.919 393.376 324.921 393.376C324.923 393.376 324.925 393.376 324.928 393.376C324.93 393.376 324.932 393.376 324.934 393.376C324.936 393.376 324.938 393.376 324.94 393.376C324.942 393.376 324.944 393.376 324.946 393.376C324.948 393.376 324.95 393.376 324.952 393.376C324.954 393.376 324.956 393.376 324.958 393.376C324.96 393.376 324.962 393.376 324.965 393.376C324.967 393.376 324.969 393.376 324.971 393.376C324.973 393.376 324.975 393.376 324.977 393.376C324.979 393.376 324.981 393.376 324.983 393.376C324.985 393.376 324.987 393.376 324.989 393.376C324.991 393.376 324.993 393.376 324.995 393.376C324.997 393.376 325 393.376 325.002 393.376C325.004 393.376 325.006 393.376 325.008 393.376C325.01 393.376 325.012 393.376 325.014 393.376C325.016 393.376 325.018 393.376 325.02 393.376C325.022 393.376 325.024 393.376 325.026 393.376C325.028 393.376 325.03 393.376 325.032 393.376C325.035 393.376 325.037 393.376 325.039 393.376C325.041 393.376 325.043 393.376 325.045 393.376C325.047 393.376 325.049 393.376 325.051 393.376C325.053 393.376 325.055 393.376 325.057 393.376C325.059 393.376 325.061 393.376 325.063 393.376C325.065 393.376 325.067 393.376 325.07 393.376C325.072 393.376 325.074 393.376 325.076 393.376C325.078 393.376 325.08 393.376 325.082 393.376C325.084 393.376 325.086 393.376 325.088 393.376C325.09 393.376 325.092 393.376 325.094 393.376C325.096 393.376 325.098 393.376 325.1 393.376C325.102 393.376 325.105 393.376 325.107 393.376C325.109 393.376 325.111 393.376 325.113 393.376C325.115 393.376 325.117 393.376 325.119 393.376C325.121 393.376 325.123 393.376 325.125 393.376C325.127 393.376 325.129 393.376 325.131 393.376C325.133 393.376 325.135 393.376 325.137 393.376C325.139 393.376 325.142 393.376 325.144 393.376C325.146 393.376 325.148 393.376 325.15 393.376C325.152 393.376 325.154 393.376 325.156 393.376C325.158 393.376 325.16 393.376 325.162 393.376C325.164 393.376 325.166 393.376 325.168 393.376C325.17 393.376 325.172 393.376 325.174 393.376C325.177 393.376 325.179 393.376 325.181 393.376C325.183 393.376 325.185 393.376 325.187 393.376C325.189 393.376 325.191 393.376 325.193 393.376C325.195 393.376 325.197 393.376 325.199 393.376C325.201 393.376 325.203 393.376 325.205 393.376C325.207 393.376 325.209 393.376 325.212 393.376C325.214 393.376 325.216 393.376 325.218 393.376C325.22 393.376 325.222 393.376 325.224 393.376C325.226 393.376 325.228 393.376 325.23 393.376C325.232 393.376 325.234 393.376 325.236 393.376C325.238 393.376 325.24 393.376 325.242 393.376C325.244 393.376 325.247 393.376 325.249 393.376C325.251 393.376 325.253 393.376 325.255 393.376C325.257 393.376 325.259 393.376 325.261 393.376C325.263 393.376 325.265 393.376 325.267 393.376C325.269 393.376 325.271 393.376 325.273 393.376C325.275 393.376 325.277 393.376 325.279 393.376C325.281 393.376 325.284 393.376 325.286 393.376C325.288 393.376 325.29 393.376 325.292 393.376C325.294 393.376 325.296 393.376 325.298 393.376C325.3 393.376 325.302 393.376 325.304 393.376C325.306 393.376 325.308 393.376 325.31 393.376C325.312 393.376 325.314 393.376 325.316 393.376C325.319 393.376 325.321 393.376 325.323 393.376C325.325 393.376 325.327 393.376 325.329 393.376C325.331 393.376 325.333 393.376 325.335 393.376C325.337 393.376 325.339 393.376 325.341 393.376C325.343 393.376 325.345 393.376 325.347 393.376C325.349 393.376 325.351 393.376 325.354 393.376C325.356 393.376 325.358 393.376 325.36 393.376C325.362 393.376 325.364 393.376 325.366 393.376C325.368 393.376 325.37 393.376 325.372 393.376C325.374 393.376 325.376 393.376 325.378 393.376C325.38 393.376 325.382 393.376 325.384 393.376C325.386 393.376 325.389 393.376 325.391 393.376C325.393 393.376 325.395 393.376 325.397 393.376C325.399 393.376 325.401 393.376 325.403 393.376C325.405 393.376 325.407 393.376 325.409 393.376C325.411 393.376 325.413 393.376 325.415 393.376C325.417 393.376 325.419 393.376 325.421 393.376C325.424 393.376 325.426 393.376 325.428 393.376C325.43 393.376 325.432 393.376 325.434 393.376C325.436 393.376 325.438 393.376 325.44 393.376C325.442 393.376 325.444 393.376 325.446 393.376C325.448 393.376 325.45 393.376 325.452 393.376C325.454 393.376 325.456 393.376 325.458 393.376C325.461 393.376 325.463 393.376 325.465 393.376C325.467 393.376 325.469 393.376 325.471 393.376C325.473 393.376 325.475 393.376 325.477 393.376C325.479 393.376 325.481 393.376 325.483 393.376C325.485 393.376 325.487 393.376 325.489 393.376C325.491 393.376 325.493 393.376 325.496 393.376C325.498 393.376 325.5 393.376 325.502 393.376C325.504 393.376 325.506 393.376 325.508 393.376C325.51 393.376 325.512 393.376 325.514 393.376C325.516 393.376 325.518 393.376 325.52 393.376C325.522 393.376 325.524 393.376 325.526 393.376C325.528 393.376 325.531 393.376 325.533 393.376C325.535 393.376 325.537 393.376 325.539 393.376C325.541 393.376 325.543 393.376 325.545 393.376C325.547 393.376 325.549 393.376 325.551 393.376C325.553 393.376 325.555 393.376 325.557 393.376C325.559 393.376 325.561 393.376 325.563 393.376C325.566 393.376 325.568 393.376 325.57 393.376C325.572 393.376 325.574 393.376 325.576 393.376C325.578 393.376 325.58 393.376 325.582 393.376C325.584 393.376 325.586 393.376 325.588 393.376C325.59 393.376 325.592 393.376 325.594 393.376C325.596 393.376 325.598 393.376 325.6 393.376C325.603 393.376 325.605 393.376 325.607 393.376C325.609 393.376 325.611 393.376 325.613 393.376C325.615 393.376 325.617 393.376 325.619 393.376C325.621 393.376 325.623 393.376 325.625 393.376C325.627 393.376 325.629 393.376 325.631 393.376C325.633 393.376 325.635 393.376 325.638 393.376C325.64 393.376 325.642 393.376 325.644 393.376C325.646 393.376 325.648 393.376 325.65 393.376C325.652 393.376 325.654 393.376 325.656 393.376C325.658 393.376 325.66 393.376 325.662 393.376C325.664 393.376 325.666 393.376 325.668 393.376C325.67 393.376 325.673 393.376 325.675 393.376C325.677 393.376 325.679 393.376 325.681 393.376C325.683 393.376 325.685 393.376 325.687 393.376C325.689 393.376 325.691 393.376 325.693 393.376C325.695 393.376 325.697 393.376 325.699 393.376C325.701 393.376 325.703 393.376 325.705 393.376C325.708 393.376 325.71 393.376 325.712 393.376C325.714 393.376 325.716 393.376 325.718 393.376C325.72 393.376 325.722 393.376 325.724 393.376C325.726 393.376 325.728 393.376 325.73 393.376C325.732 393.376 325.734 393.376 325.736 393.376C325.738 393.376 325.74 393.376 325.743 393.376C325.745 393.376 325.747 393.376 325.749 393.376C325.751 393.376 325.753 393.376 325.755 393.376C325.757 393.376 325.759 393.376 325.761 393.376C325.763 393.376 325.765 393.376 325.767 393.376C325.769 393.376 325.771 393.376 325.773 393.376C325.775 393.376 325.777 393.376 325.78 393.376C325.782 393.376 325.784 393.376 325.786 393.376C325.788 393.376 325.79 393.376 325.792 393.376C325.794 393.376 325.796 393.376 325.798 393.376C325.8 393.376 325.802 393.376 325.804 393.376C325.806 393.376 325.808 393.376 325.81 393.376C325.812 393.376 325.815 393.376 325.817 393.376C325.819 393.376 325.821 393.376 325.823 393.376C325.825 393.376 325.827 393.376 325.829 393.376C325.831 393.376 325.833 393.376 325.835 393.376C325.837 393.376 325.839 393.376 325.841 393.376C325.843 393.376 325.845 393.376 325.847 393.376C325.85 393.376 325.852 393.376 325.854 393.376C325.856 393.376 325.858 393.376 325.86 393.376C325.862 393.376 325.864 393.376 325.866 393.376C325.868 393.376 325.87 393.376 325.872 393.376C325.874 393.376 325.876 393.376 325.878 393.376C325.88 393.376 325.882 393.376 325.885 393.376C325.887 393.376 325.889 393.376 325.891 393.376C325.893 393.376 325.895 393.376 325.897 393.376C325.899 393.376 325.901 393.376 325.903 393.376C325.905 393.376 325.907 393.376 325.909 393.376C325.911 393.376 325.913 393.376 325.915 393.376C325.917 393.376 325.92 393.376 325.922 393.376C325.924 393.376 325.926 393.376 325.928 393.376C325.93 393.376 325.932 393.376 325.934 393.376C325.936 393.376 325.938 393.376 325.94 393.376C325.942 393.376 325.944 393.376 325.946 393.376C325.948 393.376 325.95 393.376 325.952 393.376C325.954 393.376 325.957 393.376 325.959 393.376C325.961 393.376 325.963 393.376 325.965 393.376C325.967 393.376 325.969 393.376 325.971 393.376C325.973 393.376 325.975 393.376 325.977 393.376C325.979 393.376 325.981 393.376 325.983 393.376C325.985 393.376 325.987 393.376 325.989 393.376C325.992 393.376 325.994 393.376 325.996 393.376C325.998 393.376 326 393.376 326.002 393.376C326.004 393.376 326.006 393.376 326.008 393.376C326.01 393.376 326.012 393.376 326.014 393.376C326.016 393.376 326.018 393.376 326.02 393.376C326.022 393.376 326.024 393.376 326.027 393.376C326.029 393.376 326.031 393.376 326.033 393.376C326.035 393.376 326.037 393.376 326.039 393.376C326.041 393.376 326.043 393.376 326.045 393.376C326.047 393.376 326.049 393.376 326.051 393.376C326.053 393.376 326.055 393.376 326.057 393.376C326.059 393.376 326.062 393.376 326.064 393.376C326.066 393.376 326.068 393.376 326.07 393.376C326.072 393.376 326.074 393.376 326.076 393.376C326.078 393.376 326.08 393.376 326.082 393.376C326.084 393.376 326.086 393.376 326.088 393.376C326.09 393.376 326.092 393.376 326.094 393.376C326.096 393.376 326.099 393.376 326.101 393.376C326.103 393.376 326.105 393.376 326.107 393.376C326.109 393.376 326.111 393.376 326.113 393.376C326.115 393.376 326.117 393.376 326.119 393.376C326.121 393.376 326.123 393.376 326.125 393.376C326.127 393.376 326.129 393.376 326.131 393.376C326.134 393.376 326.136 393.376 326.138 393.376C326.14 393.376 326.142 393.376 326.144 393.376C326.146 393.376 326.148 393.376 326.15 393.376C326.152 393.376 326.154 393.376 326.156 393.376C326.158 393.376 326.16 393.376 326.162 393.376C326.164 393.376 326.166 393.376 326.169 393.376C326.171 393.376 326.173 393.376 326.175 393.376C326.177 393.376 326.179 393.376 326.181 393.376C326.183 393.376 326.185 393.376 326.187 393.376C326.189 393.376 326.191 393.376 326.193 393.376C326.195 393.376 326.197 393.376 326.199 393.376C326.201 393.376 326.204 393.376 326.206 393.376C326.208 393.376 326.21 393.376 326.212 393.376C326.214 393.376 326.216 393.376 326.218 393.376C326.22 393.376 326.222 393.376 326.224 393.376C326.226 393.376 326.228 393.376 326.23 393.376C326.232 393.376 326.234 393.376 326.236 393.376C326.239 393.376 326.241 393.376 326.243 393.376C326.245 393.376 326.247 393.376 326.249 393.376C326.251 393.376 326.253 393.376 326.255 393.376C326.257 393.376 326.259 393.376 326.261 393.376C326.263 393.376 326.265 393.376 326.267 393.376C326.269 393.376 326.271 393.376 326.273 393.376C326.276 393.376 326.278 393.376 326.28 393.376C326.282 393.376 326.284 393.376 326.286 393.376C326.288 393.376 326.29 393.376 326.292 393.376C326.294 393.376 326.296 393.376 326.298 393.376C326.3 393.376 326.302 393.376 326.304 393.376C326.306 393.376 326.308 393.376 326.311 393.376C326.313 393.376 326.315 393.376 326.317 393.376C326.319 393.376 326.321 393.376 326.323 393.376C326.325 393.376 326.327 393.376 326.329 393.376C326.331 393.376 326.333 393.376 326.335 393.376C326.337 393.376 326.339 393.376 326.341 393.376C326.343 393.376 326.346 393.376 326.348 393.376C326.35 393.376 326.352 393.376 326.354 393.376C326.356 393.376 326.358 393.376 326.36 393.376C326.362 393.376 326.364 393.376 326.366 393.376C326.368 393.376 326.37 393.376 326.372 393.376C326.374 393.376 326.376 393.376 326.378 393.376C326.381 393.376 326.383 393.376 326.385 393.376C326.387 393.376 326.389 393.376 326.391 393.376C326.393 393.376 326.395 393.376 326.397 393.376C326.399 393.376 326.401 393.376 326.403 393.376C326.405 393.376 326.407 393.376 326.409 393.376C326.411 393.376 326.413 393.376 326.415 393.376C326.418 393.376 326.42 393.376 326.422 393.376C326.424 393.376 326.426 393.376 326.428 393.376C326.43 393.376 326.432 393.376 326.434 393.376C326.436 393.376 326.438 393.376 326.44 393.376C326.442 393.376 326.444 393.376 326.446 393.376C326.448 393.376 326.45 393.376 326.453 393.376C326.455 393.376 326.457 393.376 326.459 393.376C326.461 393.376 326.463 393.376 326.465 393.376C326.467 393.376 326.469 393.376 326.471 393.376C326.473 393.376 326.475 393.376 326.477 393.376C326.479 393.376 326.481 393.376 326.483 393.376C326.485 393.376 326.488 393.376 326.49 393.376C326.492 393.376 326.494 393.376 326.496 393.376C326.498 393.376 326.5 393.376 326.502 393.376C326.504 393.376 326.506 393.376 326.508 393.376C326.51 393.376 326.512 393.376 326.514 393.376C326.516 393.376 326.518 393.376 326.52 393.376C326.523 393.376 326.525 393.376 326.527 393.376C326.529 393.376 326.531 393.376 326.533 393.376C326.535 393.376 326.537 393.376 326.539 393.376C326.541 393.376 326.543 393.376 326.545 393.376C326.547 393.376 326.549 393.376 326.551 393.376C326.553 393.376 326.555 393.376 326.558 393.376C326.56 393.376 326.562 393.376 326.564 393.376C326.566 393.376 326.568 393.376 326.57 393.376C326.572 393.376 326.574 393.376 326.576 393.376C326.578 393.376 326.58 393.376 326.582 393.376C326.584 393.376 326.586 393.376 326.588 393.376C326.59 393.376 326.592 393.376 326.595 393.376C326.597 393.376 326.599 393.376 326.601 393.376C326.603 393.376 326.605 393.376 326.607 393.376C326.609 393.376 326.611 393.376 326.613 393.376C326.615 393.376 326.617 393.376 326.619 393.376C326.621 393.376 326.623 393.376 326.625 393.376C326.627 393.376 326.63 393.376 326.632 393.376C326.634 393.376 326.636 393.376 326.638 393.376C326.64 393.376 326.642 393.376 326.644 393.376C326.646 393.376 326.648 393.376 326.65 393.376C326.652 393.376 326.654 393.376 326.656 393.376C326.658 393.376 326.66 393.376 326.662 393.376C326.665 393.376 326.667 393.376 326.669 393.376C326.671 393.376 326.673 393.376 326.675 393.376C326.677 393.376 326.679 393.376 326.681 393.376C326.683 393.376 326.685 393.376 326.687 393.376C326.689 393.376 326.691 393.376 326.693 393.376C326.695 393.376 326.697 393.376 326.7 393.376C326.702 393.376 326.704 393.376 326.706 393.376C326.708 393.376 326.71 393.376 326.712 393.376C326.714 393.376 326.716 393.376 326.718 393.376C326.72 393.376 326.722 393.376 326.724 393.376C326.726 393.376 326.728 393.376 326.73 393.376C326.732 393.376 326.734 393.376 326.737 393.376C326.739 393.376 326.741 393.376 326.743 393.376C326.745 393.376 326.747 393.376 326.749 393.376C326.751 393.376 326.753 393.376 326.755 393.376C326.757 393.376 326.759 393.376 326.761 393.376C326.763 393.376 326.765 393.376 326.767 393.376C326.769 393.376 326.772 393.376 326.774 393.376C326.776 393.376 326.778 393.376 326.78 393.376C326.782 393.376 326.784 393.376 326.786 393.376C326.788 393.376 326.79 393.376 326.792 393.376C326.794 393.376 326.796 393.376 326.798 393.376C326.8 393.376 326.802 393.376 326.804 393.376C326.807 393.376 326.809 393.376 326.811 393.376C326.813 393.376 326.815 393.376 326.817 393.376V383.376ZM323.656 383.376V373.376C323.808 373.376 323.858 373.388 323.786 373.378C323.715 373.368 323.562 373.341 323.315 373.28L320.89 382.981L318.464 392.683C320.038 393.076 321.808 393.376 323.656 393.376V383.376ZM320.89 382.981V372.981H314.567V382.981V392.981H320.89V382.981ZM314.567 382.981V372.981C303.961 372.981 292.218 373.525 279.359 374.596L280.189 384.562L281.02 394.527C293.449 393.491 304.626 392.981 314.567 392.981V382.981ZM280.189 384.562L279.552 374.582C266.818 375.395 254.089 376.885 241.367 379.05L243.045 388.908L244.723 398.767C256.764 396.717 268.798 395.309 280.826 394.541L280.189 384.562ZM243.045 388.908L241.541 379.022C228.987 380.933 217.514 383.547 207.162 386.904L210.248 396.416L213.333 405.929C222.475 402.963 232.867 400.572 244.549 398.795L243.045 388.908ZM346.633 398.787L352.633 390.787L352.599 390.762L352.565 390.737L346.633 398.787ZM335.174 384.957L325.918 388.743L326.024 389.003L326.145 389.256L335.174 384.957ZM341.891 340.305L334.458 333.615L334.452 333.622L334.445 333.63L341.891 340.305ZM405.51 339.515L398.564 346.709L398.63 346.772L398.696 346.834L405.51 339.515ZM403.93 392.465L410.777 399.753L410.834 399.699L410.891 399.644L403.93 392.465ZM366.39 404.714V394.714C360.206 394.714 355.846 393.197 352.633 390.787L346.633 398.787L340.633 406.787C347.958 412.281 356.769 414.714 366.39 414.714V404.714ZM346.633 398.787L352.565 390.737C348.865 388.01 346.118 384.681 344.202 380.658L335.174 384.957L326.145 389.256C329.498 396.297 334.391 402.188 340.701 406.838L346.633 398.787ZM335.174 384.957L344.429 381.171C342.51 376.479 341.617 371.966 341.617 367.57H331.617H321.617C321.617 374.766 323.095 381.843 325.918 388.743L335.174 384.957ZM331.617 367.57H341.617C341.617 359.424 344.181 352.732 349.337 346.98L341.891 340.305L334.445 333.63C325.903 343.157 321.617 354.642 321.617 367.57H331.617ZM341.891 340.305L349.324 346.995C354.223 341.552 361.073 338.45 371.132 338.45V328.45V318.45C356.429 318.45 343.785 323.252 334.458 333.615L341.891 340.305ZM371.132 328.45V338.45C384.956 338.45 393.472 341.792 398.564 346.709L405.51 339.515L412.456 332.321C402.27 322.485 387.867 318.45 371.132 318.45V328.45ZM405.51 339.515L398.696 346.834C404.6 352.33 406.97 357.95 406.97 364.014H416.97H426.97C426.97 351.638 421.7 340.925 412.325 332.196L405.51 339.515ZM416.97 364.014H406.97C406.97 371.435 404.035 378.433 396.968 385.286L403.93 392.465L410.891 399.644C421.211 389.637 426.97 377.667 426.97 364.014H416.97ZM403.93 392.465L397.083 385.176C390.838 391.043 381.132 394.714 366.39 394.714V404.714V414.714C384.315 414.714 399.635 410.219 410.777 399.753L403.93 392.465Z" fill="#B68736" mask="url(#path-1-outside-1_204_11)"/>
</svg>
