<svg width="430" height="431" viewBox="0 0 430 431" fill="none" xmlns="http://www.w3.org/2000/svg">
<mask id="path-1-outside-1_204_8" maskUnits="userSpaceOnUse" x="20.0842" y="93.127" width="407" height="323" fill="black">
<rect fill="white" x="20.0842" y="93.127" width="407" height="323"/>
<path d="M54.7932 398.103C51.1052 398.103 47.4171 397.839 43.729 397.312C40.041 397.049 36.3529 396.654 32.6648 396.127L53.6078 289.832C56.2421 275.343 59.0082 260.064 61.9059 243.994C65.0671 227.661 68.0966 211.592 70.9944 195.786C73.8922 179.716 76.3948 164.832 78.5022 151.134C80.8731 137.435 82.7172 125.844 84.0343 116.361C95.362 114.253 106.821 112.277 118.412 110.433C130.003 108.589 141.858 107.667 153.976 107.667C173.47 107.667 188.881 111.751 200.209 119.917C211.536 127.82 219.703 138.357 224.708 151.529C229.713 164.437 232.216 178.663 232.216 194.205C232.216 208.167 230.24 222.919 226.288 238.462C222.337 253.741 216.673 269.02 209.297 284.299C202.184 299.315 193.623 313.541 183.612 326.976C168.07 347.787 149.102 364.91 126.711 378.345C104.582 391.517 80.6097 398.103 54.7932 398.103ZM101.816 348.314C111.036 342.255 119.73 333.035 127.896 320.653C136.326 308.272 144.229 293.388 151.605 276.001C158.191 259.932 163.328 244.784 167.016 230.559C170.704 216.07 172.548 204.084 172.548 194.6C172.548 184.853 169.782 177.214 164.25 171.682C158.981 166.15 150.551 163.383 138.96 163.383C134.745 186.039 130.399 206.982 125.92 226.212C121.705 245.443 117.49 264.805 113.275 284.299C109.324 303.794 105.504 325.132 101.816 348.314ZM210.248 396.917C213.146 376.106 216.175 355.163 219.336 334.088C222.761 313.014 226.185 292.729 229.61 273.235C233.298 253.478 236.723 235.696 239.884 219.89C243.309 202.767 246.733 185.38 250.158 167.73C253.583 150.08 257.139 132.298 260.827 114.385L329.978 105.296L309.43 194.6C305.742 210.143 301.923 226.871 297.971 244.784C294.283 262.434 290.858 279.558 287.697 296.154C284.536 312.75 282.033 327.503 280.189 340.411C286.775 339.884 293.756 339.62 301.132 339.62C308.772 339.357 315.489 339.225 321.285 339.225C321.548 345.284 322.075 351.738 322.866 358.588C323.656 365.174 324.446 370.969 325.236 375.974C326.29 380.716 326.817 383.35 326.817 383.877C325.763 383.877 324.71 383.877 323.656 383.877C322.866 383.877 321.944 383.746 320.89 383.482H314.567C304.294 383.482 292.834 384.009 280.189 385.063C267.808 385.853 255.427 387.302 243.045 389.409C230.927 391.253 219.995 393.756 210.248 396.917ZM366.391 405.215C358.488 405.215 351.902 403.24 346.633 399.288C341.628 395.6 337.808 390.99 335.174 385.458C332.803 379.662 331.618 373.867 331.618 368.071C331.618 357.534 335.042 348.445 341.891 340.806C349.004 332.903 358.751 328.951 371.133 328.951C386.412 328.951 397.871 332.639 405.511 340.016C413.15 347.128 416.97 355.295 416.97 364.515C416.97 375.052 412.623 384.536 403.93 392.966C395.237 401.132 382.724 405.215 366.391 405.215Z"/>
</mask>
<path d="M54.7932 398.103C51.1052 398.103 47.4171 397.839 43.729 397.312C40.041 397.049 36.3529 396.654 32.6648 396.127L53.6078 289.832C56.2421 275.343 59.0082 260.064 61.9059 243.994C65.0671 227.661 68.0966 211.592 70.9944 195.786C73.8922 179.716 76.3948 164.832 78.5022 151.134C80.8731 137.435 82.7172 125.844 84.0343 116.361C95.362 114.253 106.821 112.277 118.412 110.433C130.003 108.589 141.858 107.667 153.976 107.667C173.47 107.667 188.881 111.751 200.209 119.917C211.536 127.82 219.703 138.357 224.708 151.529C229.713 164.437 232.216 178.663 232.216 194.205C232.216 208.167 230.24 222.919 226.288 238.462C222.337 253.741 216.673 269.02 209.297 284.299C202.184 299.315 193.623 313.541 183.612 326.976C168.07 347.787 149.102 364.91 126.711 378.345C104.582 391.517 80.6097 398.103 54.7932 398.103ZM101.816 348.314C111.036 342.255 119.73 333.035 127.896 320.653C136.326 308.272 144.229 293.388 151.605 276.001C158.191 259.932 163.328 244.784 167.016 230.559C170.704 216.07 172.548 204.084 172.548 194.6C172.548 184.853 169.782 177.214 164.25 171.682C158.981 166.15 150.551 163.383 138.96 163.383C134.745 186.039 130.399 206.982 125.92 226.212C121.705 245.443 117.49 264.805 113.275 284.299C109.324 303.794 105.504 325.132 101.816 348.314ZM210.248 396.917C213.146 376.106 216.175 355.163 219.336 334.088C222.761 313.014 226.185 292.729 229.61 273.235C233.298 253.478 236.723 235.696 239.884 219.89C243.309 202.767 246.733 185.38 250.158 167.73C253.583 150.08 257.139 132.298 260.827 114.385L329.978 105.296L309.43 194.6C305.742 210.143 301.923 226.871 297.971 244.784C294.283 262.434 290.858 279.558 287.697 296.154C284.536 312.75 282.033 327.503 280.189 340.411C286.775 339.884 293.756 339.62 301.132 339.62C308.772 339.357 315.489 339.225 321.285 339.225C321.548 345.284 322.075 351.738 322.866 358.588C323.656 365.174 324.446 370.969 325.236 375.974C326.29 380.716 326.817 383.35 326.817 383.877C325.763 383.877 324.71 383.877 323.656 383.877C322.866 383.877 321.944 383.746 320.89 383.482H314.567C304.294 383.482 292.834 384.009 280.189 385.063C267.808 385.853 255.427 387.302 243.045 389.409C230.927 391.253 219.995 393.756 210.248 396.917ZM366.391 405.215C358.488 405.215 351.902 403.24 346.633 399.288C341.628 395.6 337.808 390.99 335.174 385.458C332.803 379.662 331.618 373.867 331.618 368.071C331.618 357.534 335.042 348.445 341.891 340.806C349.004 332.903 358.751 328.951 371.133 328.951C386.412 328.951 397.871 332.639 405.511 340.016C413.15 347.128 416.97 355.295 416.97 364.515C416.97 375.052 412.623 384.536 403.93 392.966C395.237 401.132 382.724 405.215 366.391 405.215Z" fill="white"/>
<path d="M43.729 397.312L45.1432 387.413L44.7937 387.363L44.4415 387.338L43.729 397.312ZM32.6648 396.127L22.8535 394.194L20.8158 404.536L31.2506 406.026L32.6648 396.127ZM53.6078 289.832L63.4192 291.765L63.4334 291.693L63.4465 291.62L53.6078 289.832ZM61.9059 243.994L52.0881 242.094L52.076 242.157L52.0647 242.219L61.9059 243.994ZM70.9944 195.786L80.8305 197.589L80.8331 197.575L80.8357 197.56L70.9944 195.786ZM78.5022 151.134L68.6487 149.428L68.6328 149.521L68.6185 149.613L78.5022 151.134ZM84.0343 116.361L82.2053 106.529L75.1208 107.847L74.1294 114.985L84.0343 116.361ZM118.412 110.433L116.841 100.558L116.841 100.558L118.412 110.433ZM200.209 119.917L194.36 128.029L194.423 128.074L194.487 128.118L200.209 119.917ZM224.708 151.529L215.36 155.081L215.372 155.113L215.384 155.144L224.708 151.529ZM226.288 238.462L235.97 240.966L235.975 240.946L235.98 240.926L226.288 238.462ZM209.297 284.299L200.291 279.952L200.275 279.985L200.26 280.019L209.297 284.299ZM183.612 326.976L191.624 332.959L191.631 332.95L183.612 326.976ZM126.711 378.345L131.825 386.938L131.84 386.929L131.856 386.92L126.711 378.345ZM101.816 348.314L91.9403 346.743L88.3822 369.108L107.308 356.671L101.816 348.314ZM127.896 320.653L119.63 315.025L119.589 315.086L119.548 315.147L127.896 320.653ZM151.605 276.001L160.811 279.907L160.835 279.85L160.858 279.794L151.605 276.001ZM167.016 230.559L176.696 233.069L176.701 233.047L176.707 233.026L167.016 230.559ZM164.25 171.682L157.008 178.578L157.093 178.667L157.179 178.753L164.25 171.682ZM138.96 163.383V153.383H130.649L129.129 161.554L138.96 163.383ZM125.92 226.212L116.181 223.944L116.166 224.008L116.152 224.071L125.92 226.212ZM113.275 284.299L103.501 282.186L103.488 282.249L103.475 282.313L113.275 284.299ZM54.7932 398.103V388.103C51.5831 388.103 48.3676 387.874 45.1432 387.413L43.729 397.312L42.3148 407.212C46.4666 407.805 50.6272 408.103 54.7932 408.103V398.103ZM43.729 397.312L44.4415 387.338C40.9899 387.091 37.5359 386.721 34.079 386.227L32.6648 396.127L31.2506 406.026C35.1699 406.586 39.092 407.007 43.0166 407.287L43.729 397.312ZM32.6648 396.127L42.4762 398.06L63.4192 291.765L53.6078 289.832L43.7964 287.898L22.8535 394.194L32.6648 396.127ZM53.6078 289.832L63.4465 291.62C66.0818 277.126 68.8487 261.842 71.7472 245.769L61.9059 243.994L52.0647 242.219C49.1677 258.285 46.4025 273.559 43.7691 288.043L53.6078 289.832ZM61.9059 243.994L71.7237 245.894C74.891 229.53 77.9266 213.429 80.8305 197.589L70.9944 195.786L61.1583 193.983C58.2667 209.755 55.2433 225.792 52.0881 242.094L61.9059 243.994ZM70.9944 195.786L80.8357 197.56C83.7461 181.421 86.2634 166.451 88.386 152.654L78.5022 151.134L68.6185 149.613C66.5262 163.214 64.0382 178.012 61.1531 194.011L70.9944 195.786ZM78.5022 151.134L88.3558 152.839C90.738 139.075 92.6017 127.367 93.9393 117.736L84.0343 116.361L74.1294 114.985C72.8327 124.321 71.0083 135.795 68.6487 149.428L78.5022 151.134ZM84.0343 116.361L85.8634 126.192C97.1037 124.101 108.477 122.14 119.984 120.309L118.412 110.433L116.841 100.558C105.166 102.415 93.6203 104.406 82.2053 106.529L84.0343 116.361ZM118.412 110.433L119.984 120.309C131.038 118.55 142.367 117.667 153.976 117.667V107.667V97.6673C141.349 97.6673 128.969 98.6282 116.841 100.558L118.412 110.433ZM153.976 107.667V117.667C172.179 117.667 185.291 121.491 194.36 128.029L200.209 119.917L206.057 111.805C192.47 102.011 174.761 97.6673 153.976 97.6673V107.667ZM200.209 119.917L194.487 128.118C204.131 134.847 211.053 143.748 215.36 155.081L224.708 151.529L234.056 147.977C228.352 132.967 218.941 120.793 205.93 111.716L200.209 119.917ZM224.708 151.529L215.384 155.144C219.891 166.767 222.216 179.748 222.216 194.205H232.216H242.216C242.216 177.577 239.535 162.108 234.031 147.914L224.708 151.529ZM232.216 194.205H222.216C222.216 207.224 220.373 221.144 216.597 235.998L226.288 238.462L235.98 240.926C240.107 224.695 242.216 209.11 242.216 194.205H232.216ZM226.288 238.462L216.607 235.958C212.831 250.557 207.403 265.22 200.291 279.952L209.297 284.299L218.302 288.647C225.943 272.821 231.842 256.926 235.97 240.966L226.288 238.462ZM209.297 284.299L200.26 280.019C193.432 294.432 185.213 308.091 175.593 321.001L183.612 326.976L191.631 332.95C202.033 318.99 210.937 304.198 218.334 288.58L209.297 284.299ZM183.612 326.976L175.6 320.992C160.84 340.756 142.848 357.001 121.566 369.77L126.711 378.345L131.856 386.92C155.356 372.82 175.299 354.818 191.624 332.959L183.612 326.976ZM126.711 378.345L121.596 369.752C101.019 382.001 78.814 388.103 54.7932 388.103V398.103V408.103C82.4055 408.103 108.146 401.033 131.825 386.938L126.711 378.345ZM101.816 348.314L107.308 356.671C117.983 349.656 127.572 339.306 136.244 326.159L127.896 320.653L119.548 315.147C111.887 326.763 104.09 334.854 96.3243 339.957L101.816 348.314ZM127.896 320.653L136.162 326.281C145.042 313.239 153.242 297.749 160.811 279.907L151.605 276.001L142.399 272.096C135.216 289.027 127.61 303.305 119.63 315.025L127.896 320.653ZM151.605 276.001L160.858 279.794C167.585 263.379 172.876 247.801 176.696 233.069L167.016 230.559L157.336 228.049C153.779 241.768 148.797 256.484 142.352 272.209L151.605 276.001ZM167.016 230.559L176.707 233.026C180.497 218.136 182.548 205.25 182.548 194.6H172.548H162.548C162.548 202.918 160.911 214.004 157.325 228.092L167.016 230.559ZM172.548 194.6H182.548C182.548 182.891 179.165 172.455 171.321 164.611L164.25 171.682L157.179 178.753C160.399 181.972 162.548 186.816 162.548 194.6H172.548ZM164.25 171.682L171.491 164.785C163.548 156.444 151.885 153.383 138.96 153.383V163.383V173.383C149.218 173.383 154.415 175.855 157.008 178.578L164.25 171.682ZM138.96 163.383L129.129 161.554C124.937 184.086 120.62 204.881 116.181 223.944L125.92 226.212L135.66 228.48C140.177 209.083 144.554 187.991 148.792 165.213L138.96 163.383ZM125.92 226.212L116.152 224.071C111.935 243.311 107.718 262.683 103.501 282.186L113.275 284.299L123.05 286.413C127.263 266.928 131.476 247.575 135.688 228.353L125.92 226.212ZM113.275 284.299L103.475 282.313C99.4909 301.967 95.6467 323.445 91.9403 346.743L101.816 348.314L111.692 349.885C115.362 326.818 119.157 305.62 123.076 286.286L113.275 284.299ZM210.248 396.917L200.343 395.538L198.141 411.357L213.333 406.429L210.248 396.917ZM219.336 334.088L209.466 332.484L209.456 332.545L209.447 332.605L219.336 334.088ZM229.61 273.235L219.78 271.4L219.77 271.453L219.761 271.505L229.61 273.235ZM239.884 219.89L249.69 221.851L249.69 221.851L239.884 219.89ZM250.158 167.73L259.975 169.635L259.975 169.635L250.158 167.73ZM260.827 114.385L259.524 104.47L252.468 105.398L251.032 112.368L260.827 114.385ZM329.978 105.296L339.724 107.539L342.953 93.5052L328.675 95.3817L329.978 105.296ZM309.43 194.6L319.16 196.909L319.168 196.876L319.176 196.843L309.43 194.6ZM297.971 244.784L288.206 242.63L288.194 242.685L288.183 242.739L297.971 244.784ZM287.697 296.154L277.874 294.283L277.874 294.283L287.697 296.154ZM280.189 340.411L270.29 338.997L268.521 351.376L280.987 350.379L280.189 340.411ZM301.132 339.62V349.62H301.305L301.477 349.615L301.132 339.62ZM321.285 339.225L331.276 338.791L330.86 329.225H321.285V339.225ZM322.866 358.588L312.931 359.734L312.934 359.757L312.937 359.779L322.866 358.588ZM325.236 375.974L315.359 377.534L315.407 377.841L315.475 378.144L325.236 375.974ZM326.817 383.877V393.877H336.817V383.877H326.817ZM320.89 383.482L323.315 373.781L322.121 373.482H320.89V383.482ZM280.189 385.063L280.826 395.042L280.923 395.036L281.02 395.028L280.189 385.063ZM243.045 389.409L244.55 399.296L244.637 399.282L244.723 399.268L243.045 389.409ZM210.248 396.917L220.152 398.296C223.045 377.52 226.07 356.612 229.226 335.572L219.336 334.088L209.447 332.605C206.281 353.714 203.246 374.692 200.343 395.538L210.248 396.917ZM219.336 334.088L229.207 335.692C232.625 314.657 236.043 294.414 239.459 274.966L229.61 273.235L219.761 271.505C216.328 291.044 212.897 311.371 209.466 332.484L219.336 334.088ZM229.61 273.235L239.44 275.07C243.122 255.345 246.539 237.606 249.69 221.851L239.884 219.89L230.078 217.929C226.907 233.786 223.474 251.61 219.78 271.4L229.61 273.235ZM239.884 219.89L249.69 221.851C253.118 204.709 256.547 187.303 259.975 169.635L250.158 167.73L240.341 165.825C236.92 183.457 233.499 200.825 230.078 217.929L239.884 219.89ZM250.158 167.73L259.975 169.635C263.392 152.023 266.941 134.278 270.622 116.401L260.827 114.385L251.032 112.368C247.337 130.318 243.773 148.137 240.341 165.825L250.158 167.73ZM260.827 114.385L262.13 124.3L331.281 115.211L329.978 105.296L328.675 95.3817L259.524 104.47L260.827 114.385ZM329.978 105.296L320.233 103.054L299.685 192.358L309.43 194.6L319.176 196.843L339.724 107.539L329.978 105.296ZM309.43 194.6L299.701 192.292C295.999 207.892 292.167 224.673 288.206 242.63L297.971 244.784L307.736 246.939C311.678 229.069 315.486 212.393 319.16 196.909L309.43 194.6ZM297.971 244.784L288.183 242.739C284.483 260.443 281.047 277.625 277.874 294.283L287.697 296.154L297.521 298.025C300.67 281.491 304.083 264.426 307.76 246.83L297.971 244.784ZM287.697 296.154L277.874 294.283C274.692 310.989 272.161 325.899 270.29 338.997L280.189 340.411L290.089 341.825C291.906 329.106 294.38 314.511 297.521 298.025L287.697 296.154ZM280.189 340.411L280.987 350.379C287.279 349.876 293.992 349.62 301.132 349.62V339.62V329.62C293.52 329.62 286.271 329.892 279.392 330.443L280.189 340.411ZM301.132 339.62L301.477 349.615C309.035 349.354 315.634 349.225 321.285 349.225V339.225V329.225C315.345 329.225 308.508 329.36 300.788 329.626L301.132 339.62ZM321.285 339.225L311.294 339.66C311.569 345.986 312.117 352.679 312.931 359.734L322.866 358.588L332.8 357.441C332.033 350.797 331.527 344.583 331.276 338.791L321.285 339.225ZM322.866 358.588L312.937 359.779C313.738 366.453 314.544 372.376 315.359 377.534L325.236 375.974L335.114 374.415C334.348 369.562 333.574 363.894 332.794 357.396L322.866 358.588ZM325.236 375.974L315.475 378.144C315.996 380.491 316.373 382.254 316.616 383.468C316.739 384.081 316.814 384.489 316.854 384.731C316.875 384.854 316.876 384.874 316.87 384.821C316.866 384.793 316.856 384.709 316.845 384.584C316.837 384.48 316.817 384.222 316.817 383.877H326.817H336.817C336.817 382.777 336.624 381.691 336.582 381.443C336.491 380.895 336.369 380.249 336.228 379.545C335.944 378.124 335.53 376.2 334.998 373.805L325.236 375.974ZM326.817 383.877V373.877C326.815 373.877 326.813 373.877 326.811 373.877C326.809 373.877 326.807 373.877 326.805 373.877C326.803 373.877 326.801 373.877 326.799 373.877C326.796 373.877 326.794 373.877 326.792 373.877C326.79 373.877 326.788 373.877 326.786 373.877C326.784 373.877 326.782 373.877 326.78 373.877C326.778 373.877 326.776 373.877 326.774 373.877C326.772 373.877 326.77 373.877 326.768 373.877C326.766 373.877 326.764 373.877 326.761 373.877C326.759 373.877 326.757 373.877 326.755 373.877C326.753 373.877 326.751 373.877 326.749 373.877C326.747 373.877 326.745 373.877 326.743 373.877C326.741 373.877 326.739 373.877 326.737 373.877C326.735 373.877 326.733 373.877 326.731 373.877C326.729 373.877 326.727 373.877 326.724 373.877C326.722 373.877 326.72 373.877 326.718 373.877C326.716 373.877 326.714 373.877 326.712 373.877C326.71 373.877 326.708 373.877 326.706 373.877C326.704 373.877 326.702 373.877 326.7 373.877C326.698 373.877 326.696 373.877 326.694 373.877C326.692 373.877 326.689 373.877 326.687 373.877C326.685 373.877 326.683 373.877 326.681 373.877C326.679 373.877 326.677 373.877 326.675 373.877C326.673 373.877 326.671 373.877 326.669 373.877C326.667 373.877 326.665 373.877 326.663 373.877C326.661 373.877 326.659 373.877 326.657 373.877C326.654 373.877 326.652 373.877 326.65 373.877C326.648 373.877 326.646 373.877 326.644 373.877C326.642 373.877 326.64 373.877 326.638 373.877C326.636 373.877 326.634 373.877 326.632 373.877C326.63 373.877 326.628 373.877 326.626 373.877C326.624 373.877 326.622 373.877 326.619 373.877C326.617 373.877 326.615 373.877 326.613 373.877C326.611 373.877 326.609 373.877 326.607 373.877C326.605 373.877 326.603 373.877 326.601 373.877C326.599 373.877 326.597 373.877 326.595 373.877C326.593 373.877 326.591 373.877 326.589 373.877C326.587 373.877 326.585 373.877 326.582 373.877C326.58 373.877 326.578 373.877 326.576 373.877C326.574 373.877 326.572 373.877 326.57 373.877C326.568 373.877 326.566 373.877 326.564 373.877C326.562 373.877 326.56 373.877 326.558 373.877C326.556 373.877 326.554 373.877 326.552 373.877C326.55 373.877 326.547 373.877 326.545 373.877C326.543 373.877 326.541 373.877 326.539 373.877C326.537 373.877 326.535 373.877 326.533 373.877C326.531 373.877 326.529 373.877 326.527 373.877C326.525 373.877 326.523 373.877 326.521 373.877C326.519 373.877 326.517 373.877 326.515 373.877C326.512 373.877 326.51 373.877 326.508 373.877C326.506 373.877 326.504 373.877 326.502 373.877C326.5 373.877 326.498 373.877 326.496 373.877C326.494 373.877 326.492 373.877 326.49 373.877C326.488 373.877 326.486 373.877 326.484 373.877C326.482 373.877 326.48 373.877 326.477 373.877C326.475 373.877 326.473 373.877 326.471 373.877C326.469 373.877 326.467 373.877 326.465 373.877C326.463 373.877 326.461 373.877 326.459 373.877C326.457 373.877 326.455 373.877 326.453 373.877C326.451 373.877 326.449 373.877 326.447 373.877C326.445 373.877 326.442 373.877 326.44 373.877C326.438 373.877 326.436 373.877 326.434 373.877C326.432 373.877 326.43 373.877 326.428 373.877C326.426 373.877 326.424 373.877 326.422 373.877C326.42 373.877 326.418 373.877 326.416 373.877C326.414 373.877 326.412 373.877 326.41 373.877C326.408 373.877 326.405 373.877 326.403 373.877C326.401 373.877 326.399 373.877 326.397 373.877C326.395 373.877 326.393 373.877 326.391 373.877C326.389 373.877 326.387 373.877 326.385 373.877C326.383 373.877 326.381 373.877 326.379 373.877C326.377 373.877 326.375 373.877 326.373 373.877C326.37 373.877 326.368 373.877 326.366 373.877C326.364 373.877 326.362 373.877 326.36 373.877C326.358 373.877 326.356 373.877 326.354 373.877C326.352 373.877 326.35 373.877 326.348 373.877C326.346 373.877 326.344 373.877 326.342 373.877C326.34 373.877 326.338 373.877 326.335 373.877C326.333 373.877 326.331 373.877 326.329 373.877C326.327 373.877 326.325 373.877 326.323 373.877C326.321 373.877 326.319 373.877 326.317 373.877C326.315 373.877 326.313 373.877 326.311 373.877C326.309 373.877 326.307 373.877 326.305 373.877C326.303 373.877 326.3 373.877 326.298 373.877C326.296 373.877 326.294 373.877 326.292 373.877C326.29 373.877 326.288 373.877 326.286 373.877C326.284 373.877 326.282 373.877 326.28 373.877C326.278 373.877 326.276 373.877 326.274 373.877C326.272 373.877 326.27 373.877 326.268 373.877C326.266 373.877 326.263 373.877 326.261 373.877C326.259 373.877 326.257 373.877 326.255 373.877C326.253 373.877 326.251 373.877 326.249 373.877C326.247 373.877 326.245 373.877 326.243 373.877C326.241 373.877 326.239 373.877 326.237 373.877C326.235 373.877 326.233 373.877 326.231 373.877C326.228 373.877 326.226 373.877 326.224 373.877C326.222 373.877 326.22 373.877 326.218 373.877C326.216 373.877 326.214 373.877 326.212 373.877C326.21 373.877 326.208 373.877 326.206 373.877C326.204 373.877 326.202 373.877 326.2 373.877C326.198 373.877 326.196 373.877 326.193 373.877C326.191 373.877 326.189 373.877 326.187 373.877C326.185 373.877 326.183 373.877 326.181 373.877C326.179 373.877 326.177 373.877 326.175 373.877C326.173 373.877 326.171 373.877 326.169 373.877C326.167 373.877 326.165 373.877 326.163 373.877C326.161 373.877 326.158 373.877 326.156 373.877C326.154 373.877 326.152 373.877 326.15 373.877C326.148 373.877 326.146 373.877 326.144 373.877C326.142 373.877 326.14 373.877 326.138 373.877C326.136 373.877 326.134 373.877 326.132 373.877C326.13 373.877 326.128 373.877 326.126 373.877C326.123 373.877 326.121 373.877 326.119 373.877C326.117 373.877 326.115 373.877 326.113 373.877C326.111 373.877 326.109 373.877 326.107 373.877C326.105 373.877 326.103 373.877 326.101 373.877C326.099 373.877 326.097 373.877 326.095 373.877C326.093 373.877 326.091 373.877 326.089 373.877C326.086 373.877 326.084 373.877 326.082 373.877C326.08 373.877 326.078 373.877 326.076 373.877C326.074 373.877 326.072 373.877 326.07 373.877C326.068 373.877 326.066 373.877 326.064 373.877C326.062 373.877 326.06 373.877 326.058 373.877C326.056 373.877 326.054 373.877 326.051 373.877C326.049 373.877 326.047 373.877 326.045 373.877C326.043 373.877 326.041 373.877 326.039 373.877C326.037 373.877 326.035 373.877 326.033 373.877C326.031 373.877 326.029 373.877 326.027 373.877C326.025 373.877 326.023 373.877 326.021 373.877C326.019 373.877 326.016 373.877 326.014 373.877C326.012 373.877 326.01 373.877 326.008 373.877C326.006 373.877 326.004 373.877 326.002 373.877C326 373.877 325.998 373.877 325.996 373.877C325.994 373.877 325.992 373.877 325.99 373.877C325.988 373.877 325.986 373.877 325.984 373.877C325.981 373.877 325.979 373.877 325.977 373.877C325.975 373.877 325.973 373.877 325.971 373.877C325.969 373.877 325.967 373.877 325.965 373.877C325.963 373.877 325.961 373.877 325.959 373.877C325.957 373.877 325.955 373.877 325.953 373.877C325.951 373.877 325.949 373.877 325.946 373.877C325.944 373.877 325.942 373.877 325.94 373.877C325.938 373.877 325.936 373.877 325.934 373.877C325.932 373.877 325.93 373.877 325.928 373.877C325.926 373.877 325.924 373.877 325.922 373.877C325.92 373.877 325.918 373.877 325.916 373.877C325.914 373.877 325.912 373.877 325.909 373.877C325.907 373.877 325.905 373.877 325.903 373.877C325.901 373.877 325.899 373.877 325.897 373.877C325.895 373.877 325.893 373.877 325.891 373.877C325.889 373.877 325.887 373.877 325.885 373.877C325.883 373.877 325.881 373.877 325.879 373.877C325.877 373.877 325.874 373.877 325.872 373.877C325.87 373.877 325.868 373.877 325.866 373.877C325.864 373.877 325.862 373.877 325.86 373.877C325.858 373.877 325.856 373.877 325.854 373.877C325.852 373.877 325.85 373.877 325.848 373.877C325.846 373.877 325.844 373.877 325.842 373.877C325.839 373.877 325.837 373.877 325.835 373.877C325.833 373.877 325.831 373.877 325.829 373.877C325.827 373.877 325.825 373.877 325.823 373.877C325.821 373.877 325.819 373.877 325.817 373.877C325.815 373.877 325.813 373.877 325.811 373.877C325.809 373.877 325.807 373.877 325.804 373.877C325.802 373.877 325.8 373.877 325.798 373.877C325.796 373.877 325.794 373.877 325.792 373.877C325.79 373.877 325.788 373.877 325.786 373.877C325.784 373.877 325.782 373.877 325.78 373.877C325.778 373.877 325.776 373.877 325.774 373.877C325.772 373.877 325.77 373.877 325.767 373.877C325.765 373.877 325.763 373.877 325.761 373.877C325.759 373.877 325.757 373.877 325.755 373.877C325.753 373.877 325.751 373.877 325.749 373.877C325.747 373.877 325.745 373.877 325.743 373.877C325.741 373.877 325.739 373.877 325.737 373.877C325.735 373.877 325.732 373.877 325.73 373.877C325.728 373.877 325.726 373.877 325.724 373.877C325.722 373.877 325.72 373.877 325.718 373.877C325.716 373.877 325.714 373.877 325.712 373.877C325.71 373.877 325.708 373.877 325.706 373.877C325.704 373.877 325.702 373.877 325.7 373.877C325.697 373.877 325.695 373.877 325.693 373.877C325.691 373.877 325.689 373.877 325.687 373.877C325.685 373.877 325.683 373.877 325.681 373.877C325.679 373.877 325.677 373.877 325.675 373.877C325.673 373.877 325.671 373.877 325.669 373.877C325.667 373.877 325.665 373.877 325.662 373.877C325.66 373.877 325.658 373.877 325.656 373.877C325.654 373.877 325.652 373.877 325.65 373.877C325.648 373.877 325.646 373.877 325.644 373.877C325.642 373.877 325.64 373.877 325.638 373.877C325.636 373.877 325.634 373.877 325.632 373.877C325.63 373.877 325.627 373.877 325.625 373.877C325.623 373.877 325.621 373.877 325.619 373.877C325.617 373.877 325.615 373.877 325.613 373.877C325.611 373.877 325.609 373.877 325.607 373.877C325.605 373.877 325.603 373.877 325.601 373.877C325.599 373.877 325.597 373.877 325.595 373.877C325.593 373.877 325.59 373.877 325.588 373.877C325.586 373.877 325.584 373.877 325.582 373.877C325.58 373.877 325.578 373.877 325.576 373.877C325.574 373.877 325.572 373.877 325.57 373.877C325.568 373.877 325.566 373.877 325.564 373.877C325.562 373.877 325.56 373.877 325.558 373.877C325.555 373.877 325.553 373.877 325.551 373.877C325.549 373.877 325.547 373.877 325.545 373.877C325.543 373.877 325.541 373.877 325.539 373.877C325.537 373.877 325.535 373.877 325.533 373.877C325.531 373.877 325.529 373.877 325.527 373.877C325.525 373.877 325.523 373.877 325.52 373.877C325.518 373.877 325.516 373.877 325.514 373.877C325.512 373.877 325.51 373.877 325.508 373.877C325.506 373.877 325.504 373.877 325.502 373.877C325.5 373.877 325.498 373.877 325.496 373.877C325.494 373.877 325.492 373.877 325.49 373.877C325.488 373.877 325.485 373.877 325.483 373.877C325.481 373.877 325.479 373.877 325.477 373.877C325.475 373.877 325.473 373.877 325.471 373.877C325.469 373.877 325.467 373.877 325.465 373.877C325.463 373.877 325.461 373.877 325.459 373.877C325.457 373.877 325.455 373.877 325.453 373.877C325.451 373.877 325.448 373.877 325.446 373.877C325.444 373.877 325.442 373.877 325.44 373.877C325.438 373.877 325.436 373.877 325.434 373.877C325.432 373.877 325.43 373.877 325.428 373.877C325.426 373.877 325.424 373.877 325.422 373.877C325.42 373.877 325.418 373.877 325.416 373.877C325.413 373.877 325.411 373.877 325.409 373.877C325.407 373.877 325.405 373.877 325.403 373.877C325.401 373.877 325.399 373.877 325.397 373.877C325.395 373.877 325.393 373.877 325.391 373.877C325.389 373.877 325.387 373.877 325.385 373.877C325.383 373.877 325.381 373.877 325.378 373.877C325.376 373.877 325.374 373.877 325.372 373.877C325.37 373.877 325.368 373.877 325.366 373.877C325.364 373.877 325.362 373.877 325.36 373.877C325.358 373.877 325.356 373.877 325.354 373.877C325.352 373.877 325.35 373.877 325.348 373.877C325.346 373.877 325.343 373.877 325.341 373.877C325.339 373.877 325.337 373.877 325.335 373.877C325.333 373.877 325.331 373.877 325.329 373.877C325.327 373.877 325.325 373.877 325.323 373.877C325.321 373.877 325.319 373.877 325.317 373.877C325.315 373.877 325.313 373.877 325.311 373.877C325.308 373.877 325.306 373.877 325.304 373.877C325.302 373.877 325.3 373.877 325.298 373.877C325.296 373.877 325.294 373.877 325.292 373.877C325.29 373.877 325.288 373.877 325.286 373.877C325.284 373.877 325.282 373.877 325.28 373.877C325.278 373.877 325.276 373.877 325.274 373.877C325.271 373.877 325.269 373.877 325.267 373.877C325.265 373.877 325.263 373.877 325.261 373.877C325.259 373.877 325.257 373.877 325.255 373.877C325.253 373.877 325.251 373.877 325.249 373.877C325.247 373.877 325.245 373.877 325.243 373.877C325.241 373.877 325.239 373.877 325.236 373.877C325.234 373.877 325.232 373.877 325.23 373.877C325.228 373.877 325.226 373.877 325.224 373.877C325.222 373.877 325.22 373.877 325.218 373.877C325.216 373.877 325.214 373.877 325.212 373.877C325.21 373.877 325.208 373.877 325.206 373.877C325.204 373.877 325.201 373.877 325.199 373.877C325.197 373.877 325.195 373.877 325.193 373.877C325.191 373.877 325.189 373.877 325.187 373.877C325.185 373.877 325.183 373.877 325.181 373.877C325.179 373.877 325.177 373.877 325.175 373.877C325.173 373.877 325.171 373.877 325.169 373.877C325.166 373.877 325.164 373.877 325.162 373.877C325.16 373.877 325.158 373.877 325.156 373.877C325.154 373.877 325.152 373.877 325.15 373.877C325.148 373.877 325.146 373.877 325.144 373.877C325.142 373.877 325.14 373.877 325.138 373.877C325.136 373.877 325.134 373.877 325.132 373.877C325.129 373.877 325.127 373.877 325.125 373.877C325.123 373.877 325.121 373.877 325.119 373.877C325.117 373.877 325.115 373.877 325.113 373.877C325.111 373.877 325.109 373.877 325.107 373.877C325.105 373.877 325.103 373.877 325.101 373.877C325.099 373.877 325.097 373.877 325.094 373.877C325.092 373.877 325.09 373.877 325.088 373.877C325.086 373.877 325.084 373.877 325.082 373.877C325.08 373.877 325.078 373.877 325.076 373.877C325.074 373.877 325.072 373.877 325.07 373.877C325.068 373.877 325.066 373.877 325.064 373.877C325.062 373.877 325.059 373.877 325.057 373.877C325.055 373.877 325.053 373.877 325.051 373.877C325.049 373.877 325.047 373.877 325.045 373.877C325.043 373.877 325.041 373.877 325.039 373.877C325.037 373.877 325.035 373.877 325.033 373.877C325.031 373.877 325.029 373.877 325.027 373.877C325.024 373.877 325.022 373.877 325.02 373.877C325.018 373.877 325.016 373.877 325.014 373.877C325.012 373.877 325.01 373.877 325.008 373.877C325.006 373.877 325.004 373.877 325.002 373.877C325 373.877 324.998 373.877 324.996 373.877C324.994 373.877 324.992 373.877 324.989 373.877C324.987 373.877 324.985 373.877 324.983 373.877C324.981 373.877 324.979 373.877 324.977 373.877C324.975 373.877 324.973 373.877 324.971 373.877C324.969 373.877 324.967 373.877 324.965 373.877C324.963 373.877 324.961 373.877 324.959 373.877C324.957 373.877 324.955 373.877 324.952 373.877C324.95 373.877 324.948 373.877 324.946 373.877C324.944 373.877 324.942 373.877 324.94 373.877C324.938 373.877 324.936 373.877 324.934 373.877C324.932 373.877 324.93 373.877 324.928 373.877C324.926 373.877 324.924 373.877 324.922 373.877C324.92 373.877 324.917 373.877 324.915 373.877C324.913 373.877 324.911 373.877 324.909 373.877C324.907 373.877 324.905 373.877 324.903 373.877C324.901 373.877 324.899 373.877 324.897 373.877C324.895 373.877 324.893 373.877 324.891 373.877C324.889 373.877 324.887 373.877 324.885 373.877C324.882 373.877 324.88 373.877 324.878 373.877C324.876 373.877 324.874 373.877 324.872 373.877C324.87 373.877 324.868 373.877 324.866 373.877C324.864 373.877 324.862 373.877 324.86 373.877C324.858 373.877 324.856 373.877 324.854 373.877C324.852 373.877 324.85 373.877 324.847 373.877C324.845 373.877 324.843 373.877 324.841 373.877C324.839 373.877 324.837 373.877 324.835 373.877C324.833 373.877 324.831 373.877 324.829 373.877C324.827 373.877 324.825 373.877 324.823 373.877C324.821 373.877 324.819 373.877 324.817 373.877C324.815 373.877 324.813 373.877 324.81 373.877C324.808 373.877 324.806 373.877 324.804 373.877C324.802 373.877 324.8 373.877 324.798 373.877C324.796 373.877 324.794 373.877 324.792 373.877C324.79 373.877 324.788 373.877 324.786 373.877C324.784 373.877 324.782 373.877 324.78 373.877C324.778 373.877 324.775 373.877 324.773 373.877C324.771 373.877 324.769 373.877 324.767 373.877C324.765 373.877 324.763 373.877 324.761 373.877C324.759 373.877 324.757 373.877 324.755 373.877C324.753 373.877 324.751 373.877 324.749 373.877C324.747 373.877 324.745 373.877 324.743 373.877C324.74 373.877 324.738 373.877 324.736 373.877C324.734 373.877 324.732 373.877 324.73 373.877C324.728 373.877 324.726 373.877 324.724 373.877C324.722 373.877 324.72 373.877 324.718 373.877C324.716 373.877 324.714 373.877 324.712 373.877C324.71 373.877 324.708 373.877 324.705 373.877C324.703 373.877 324.701 373.877 324.699 373.877C324.697 373.877 324.695 373.877 324.693 373.877C324.691 373.877 324.689 373.877 324.687 373.877C324.685 373.877 324.683 373.877 324.681 373.877C324.679 373.877 324.677 373.877 324.675 373.877C324.673 373.877 324.67 373.877 324.668 373.877C324.666 373.877 324.664 373.877 324.662 373.877C324.66 373.877 324.658 373.877 324.656 373.877C324.654 373.877 324.652 373.877 324.65 373.877C324.648 373.877 324.646 373.877 324.644 373.877C324.642 373.877 324.64 373.877 324.638 373.877C324.636 373.877 324.633 373.877 324.631 373.877C324.629 373.877 324.627 373.877 324.625 373.877C324.623 373.877 324.621 373.877 324.619 373.877C324.617 373.877 324.615 373.877 324.613 373.877C324.611 373.877 324.609 373.877 324.607 373.877C324.605 373.877 324.603 373.877 324.601 373.877C324.598 373.877 324.596 373.877 324.594 373.877C324.592 373.877 324.59 373.877 324.588 373.877C324.586 373.877 324.584 373.877 324.582 373.877C324.58 373.877 324.578 373.877 324.576 373.877C324.574 373.877 324.572 373.877 324.57 373.877C324.568 373.877 324.566 373.877 324.563 373.877C324.561 373.877 324.559 373.877 324.557 373.877C324.555 373.877 324.553 373.877 324.551 373.877C324.549 373.877 324.547 373.877 324.545 373.877C324.543 373.877 324.541 373.877 324.539 373.877C324.537 373.877 324.535 373.877 324.533 373.877C324.531 373.877 324.528 373.877 324.526 373.877C324.524 373.877 324.522 373.877 324.52 373.877C324.518 373.877 324.516 373.877 324.514 373.877C324.512 373.877 324.51 373.877 324.508 373.877C324.506 373.877 324.504 373.877 324.502 373.877C324.5 373.877 324.498 373.877 324.496 373.877C324.494 373.877 324.491 373.877 324.489 373.877C324.487 373.877 324.485 373.877 324.483 373.877C324.481 373.877 324.479 373.877 324.477 373.877C324.475 373.877 324.473 373.877 324.471 373.877C324.469 373.877 324.467 373.877 324.465 373.877C324.463 373.877 324.461 373.877 324.459 373.877C324.456 373.877 324.454 373.877 324.452 373.877C324.45 373.877 324.448 373.877 324.446 373.877C324.444 373.877 324.442 373.877 324.44 373.877C324.438 373.877 324.436 373.877 324.434 373.877C324.432 373.877 324.43 373.877 324.428 373.877C324.426 373.877 324.424 373.877 324.421 373.877C324.419 373.877 324.417 373.877 324.415 373.877C324.413 373.877 324.411 373.877 324.409 373.877C324.407 373.877 324.405 373.877 324.403 373.877C324.401 373.877 324.399 373.877 324.397 373.877C324.395 373.877 324.393 373.877 324.391 373.877C324.389 373.877 324.386 373.877 324.384 373.877C324.382 373.877 324.38 373.877 324.378 373.877C324.376 373.877 324.374 373.877 324.372 373.877C324.37 373.877 324.368 373.877 324.366 373.877C324.364 373.877 324.362 373.877 324.36 373.877C324.358 373.877 324.356 373.877 324.354 373.877C324.351 373.877 324.349 373.877 324.347 373.877C324.345 373.877 324.343 373.877 324.341 373.877C324.339 373.877 324.337 373.877 324.335 373.877C324.333 373.877 324.331 373.877 324.329 373.877C324.327 373.877 324.325 373.877 324.323 373.877C324.321 373.877 324.319 373.877 324.317 373.877C324.314 373.877 324.312 373.877 324.31 373.877C324.308 373.877 324.306 373.877 324.304 373.877C324.302 373.877 324.3 373.877 324.298 373.877C324.296 373.877 324.294 373.877 324.292 373.877C324.29 373.877 324.288 373.877 324.286 373.877C324.284 373.877 324.282 373.877 324.279 373.877C324.277 373.877 324.275 373.877 324.273 373.877C324.271 373.877 324.269 373.877 324.267 373.877C324.265 373.877 324.263 373.877 324.261 373.877C324.259 373.877 324.257 373.877 324.255 373.877C324.253 373.877 324.251 373.877 324.249 373.877C324.247 373.877 324.244 373.877 324.242 373.877C324.24 373.877 324.238 373.877 324.236 373.877C324.234 373.877 324.232 373.877 324.23 373.877C324.228 373.877 324.226 373.877 324.224 373.877C324.222 373.877 324.22 373.877 324.218 373.877C324.216 373.877 324.214 373.877 324.212 373.877C324.209 373.877 324.207 373.877 324.205 373.877C324.203 373.877 324.201 373.877 324.199 373.877C324.197 373.877 324.195 373.877 324.193 373.877C324.191 373.877 324.189 373.877 324.187 373.877C324.185 373.877 324.183 373.877 324.181 373.877C324.179 373.877 324.177 373.877 324.175 373.877C324.172 373.877 324.17 373.877 324.168 373.877C324.166 373.877 324.164 373.877 324.162 373.877C324.16 373.877 324.158 373.877 324.156 373.877C324.154 373.877 324.152 373.877 324.15 373.877C324.148 373.877 324.146 373.877 324.144 373.877C324.142 373.877 324.14 373.877 324.137 373.877C324.135 373.877 324.133 373.877 324.131 373.877C324.129 373.877 324.127 373.877 324.125 373.877C324.123 373.877 324.121 373.877 324.119 373.877C324.117 373.877 324.115 373.877 324.113 373.877C324.111 373.877 324.109 373.877 324.107 373.877C324.105 373.877 324.102 373.877 324.1 373.877C324.098 373.877 324.096 373.877 324.094 373.877C324.092 373.877 324.09 373.877 324.088 373.877C324.086 373.877 324.084 373.877 324.082 373.877C324.08 373.877 324.078 373.877 324.076 373.877C324.074 373.877 324.072 373.877 324.07 373.877C324.067 373.877 324.065 373.877 324.063 373.877C324.061 373.877 324.059 373.877 324.057 373.877C324.055 373.877 324.053 373.877 324.051 373.877C324.049 373.877 324.047 373.877 324.045 373.877C324.043 373.877 324.041 373.877 324.039 373.877C324.037 373.877 324.035 373.877 324.032 373.877C324.03 373.877 324.028 373.877 324.026 373.877C324.024 373.877 324.022 373.877 324.02 373.877C324.018 373.877 324.016 373.877 324.014 373.877C324.012 373.877 324.01 373.877 324.008 373.877C324.006 373.877 324.004 373.877 324.002 373.877C324 373.877 323.998 373.877 323.995 373.877C323.993 373.877 323.991 373.877 323.989 373.877C323.987 373.877 323.985 373.877 323.983 373.877C323.981 373.877 323.979 373.877 323.977 373.877C323.975 373.877 323.973 373.877 323.971 373.877C323.969 373.877 323.967 373.877 323.965 373.877C323.963 373.877 323.96 373.877 323.958 373.877C323.956 373.877 323.954 373.877 323.952 373.877C323.95 373.877 323.948 373.877 323.946 373.877C323.944 373.877 323.942 373.877 323.94 373.877C323.938 373.877 323.936 373.877 323.934 373.877C323.932 373.877 323.93 373.877 323.928 373.877C323.925 373.877 323.923 373.877 323.921 373.877C323.919 373.877 323.917 373.877 323.915 373.877C323.913 373.877 323.911 373.877 323.909 373.877C323.907 373.877 323.905 373.877 323.903 373.877C323.901 373.877 323.899 373.877 323.897 373.877C323.895 373.877 323.893 373.877 323.89 373.877C323.888 373.877 323.886 373.877 323.884 373.877C323.882 373.877 323.88 373.877 323.878 373.877C323.876 373.877 323.874 373.877 323.872 373.877C323.87 373.877 323.868 373.877 323.866 373.877C323.864 373.877 323.862 373.877 323.86 373.877C323.858 373.877 323.856 373.877 323.853 373.877C323.851 373.877 323.849 373.877 323.847 373.877C323.845 373.877 323.843 373.877 323.841 373.877C323.839 373.877 323.837 373.877 323.835 373.877C323.833 373.877 323.831 373.877 323.829 373.877C323.827 373.877 323.825 373.877 323.823 373.877C323.821 373.877 323.818 373.877 323.816 373.877C323.814 373.877 323.812 373.877 323.81 373.877C323.808 373.877 323.806 373.877 323.804 373.877C323.802 373.877 323.8 373.877 323.798 373.877C323.796 373.877 323.794 373.877 323.792 373.877C323.79 373.877 323.788 373.877 323.786 373.877C323.783 373.877 323.781 373.877 323.779 373.877C323.777 373.877 323.775 373.877 323.773 373.877C323.771 373.877 323.769 373.877 323.767 373.877C323.765 373.877 323.763 373.877 323.761 373.877C323.759 373.877 323.757 373.877 323.755 373.877C323.753 373.877 323.751 373.877 323.748 373.877C323.746 373.877 323.744 373.877 323.742 373.877C323.74 373.877 323.738 373.877 323.736 373.877C323.734 373.877 323.732 373.877 323.73 373.877C323.728 373.877 323.726 373.877 323.724 373.877C323.722 373.877 323.72 373.877 323.718 373.877C323.716 373.877 323.713 373.877 323.711 373.877C323.709 373.877 323.707 373.877 323.705 373.877C323.703 373.877 323.701 373.877 323.699 373.877C323.697 373.877 323.695 373.877 323.693 373.877C323.691 373.877 323.689 373.877 323.687 373.877C323.685 373.877 323.683 373.877 323.681 373.877C323.679 373.877 323.676 373.877 323.674 373.877C323.672 373.877 323.67 373.877 323.668 373.877C323.666 373.877 323.664 373.877 323.662 373.877C323.66 373.877 323.658 373.877 323.656 373.877V383.877V393.877C323.658 393.877 323.66 393.877 323.662 393.877C323.664 393.877 323.666 393.877 323.668 393.877C323.67 393.877 323.672 393.877 323.674 393.877C323.676 393.877 323.679 393.877 323.681 393.877C323.683 393.877 323.685 393.877 323.687 393.877C323.689 393.877 323.691 393.877 323.693 393.877C323.695 393.877 323.697 393.877 323.699 393.877C323.701 393.877 323.703 393.877 323.705 393.877C323.707 393.877 323.709 393.877 323.711 393.877C323.713 393.877 323.716 393.877 323.718 393.877C323.72 393.877 323.722 393.877 323.724 393.877C323.726 393.877 323.728 393.877 323.73 393.877C323.732 393.877 323.734 393.877 323.736 393.877C323.738 393.877 323.74 393.877 323.742 393.877C323.744 393.877 323.746 393.877 323.748 393.877C323.751 393.877 323.753 393.877 323.755 393.877C323.757 393.877 323.759 393.877 323.761 393.877C323.763 393.877 323.765 393.877 323.767 393.877C323.769 393.877 323.771 393.877 323.773 393.877C323.775 393.877 323.777 393.877 323.779 393.877C323.781 393.877 323.783 393.877 323.786 393.877C323.788 393.877 323.79 393.877 323.792 393.877C323.794 393.877 323.796 393.877 323.798 393.877C323.8 393.877 323.802 393.877 323.804 393.877C323.806 393.877 323.808 393.877 323.81 393.877C323.812 393.877 323.814 393.877 323.816 393.877C323.818 393.877 323.821 393.877 323.823 393.877C323.825 393.877 323.827 393.877 323.829 393.877C323.831 393.877 323.833 393.877 323.835 393.877C323.837 393.877 323.839 393.877 323.841 393.877C323.843 393.877 323.845 393.877 323.847 393.877C323.849 393.877 323.851 393.877 323.853 393.877C323.856 393.877 323.858 393.877 323.86 393.877C323.862 393.877 323.864 393.877 323.866 393.877C323.868 393.877 323.87 393.877 323.872 393.877C323.874 393.877 323.876 393.877 323.878 393.877C323.88 393.877 323.882 393.877 323.884 393.877C323.886 393.877 323.888 393.877 323.89 393.877C323.893 393.877 323.895 393.877 323.897 393.877C323.899 393.877 323.901 393.877 323.903 393.877C323.905 393.877 323.907 393.877 323.909 393.877C323.911 393.877 323.913 393.877 323.915 393.877C323.917 393.877 323.919 393.877 323.921 393.877C323.923 393.877 323.925 393.877 323.928 393.877C323.93 393.877 323.932 393.877 323.934 393.877C323.936 393.877 323.938 393.877 323.94 393.877C323.942 393.877 323.944 393.877 323.946 393.877C323.948 393.877 323.95 393.877 323.952 393.877C323.954 393.877 323.956 393.877 323.958 393.877C323.96 393.877 323.963 393.877 323.965 393.877C323.967 393.877 323.969 393.877 323.971 393.877C323.973 393.877 323.975 393.877 323.977 393.877C323.979 393.877 323.981 393.877 323.983 393.877C323.985 393.877 323.987 393.877 323.989 393.877C323.991 393.877 323.993 393.877 323.995 393.877C323.998 393.877 324 393.877 324.002 393.877C324.004 393.877 324.006 393.877 324.008 393.877C324.01 393.877 324.012 393.877 324.014 393.877C324.016 393.877 324.018 393.877 324.02 393.877C324.022 393.877 324.024 393.877 324.026 393.877C324.028 393.877 324.03 393.877 324.032 393.877C324.035 393.877 324.037 393.877 324.039 393.877C324.041 393.877 324.043 393.877 324.045 393.877C324.047 393.877 324.049 393.877 324.051 393.877C324.053 393.877 324.055 393.877 324.057 393.877C324.059 393.877 324.061 393.877 324.063 393.877C324.065 393.877 324.067 393.877 324.07 393.877C324.072 393.877 324.074 393.877 324.076 393.877C324.078 393.877 324.08 393.877 324.082 393.877C324.084 393.877 324.086 393.877 324.088 393.877C324.09 393.877 324.092 393.877 324.094 393.877C324.096 393.877 324.098 393.877 324.1 393.877C324.102 393.877 324.105 393.877 324.107 393.877C324.109 393.877 324.111 393.877 324.113 393.877C324.115 393.877 324.117 393.877 324.119 393.877C324.121 393.877 324.123 393.877 324.125 393.877C324.127 393.877 324.129 393.877 324.131 393.877C324.133 393.877 324.135 393.877 324.137 393.877C324.14 393.877 324.142 393.877 324.144 393.877C324.146 393.877 324.148 393.877 324.15 393.877C324.152 393.877 324.154 393.877 324.156 393.877C324.158 393.877 324.16 393.877 324.162 393.877C324.164 393.877 324.166 393.877 324.168 393.877C324.17 393.877 324.172 393.877 324.175 393.877C324.177 393.877 324.179 393.877 324.181 393.877C324.183 393.877 324.185 393.877 324.187 393.877C324.189 393.877 324.191 393.877 324.193 393.877C324.195 393.877 324.197 393.877 324.199 393.877C324.201 393.877 324.203 393.877 324.205 393.877C324.207 393.877 324.209 393.877 324.212 393.877C324.214 393.877 324.216 393.877 324.218 393.877C324.22 393.877 324.222 393.877 324.224 393.877C324.226 393.877 324.228 393.877 324.23 393.877C324.232 393.877 324.234 393.877 324.236 393.877C324.238 393.877 324.24 393.877 324.242 393.877C324.244 393.877 324.247 393.877 324.249 393.877C324.251 393.877 324.253 393.877 324.255 393.877C324.257 393.877 324.259 393.877 324.261 393.877C324.263 393.877 324.265 393.877 324.267 393.877C324.269 393.877 324.271 393.877 324.273 393.877C324.275 393.877 324.277 393.877 324.279 393.877C324.282 393.877 324.284 393.877 324.286 393.877C324.288 393.877 324.29 393.877 324.292 393.877C324.294 393.877 324.296 393.877 324.298 393.877C324.3 393.877 324.302 393.877 324.304 393.877C324.306 393.877 324.308 393.877 324.31 393.877C324.312 393.877 324.314 393.877 324.317 393.877C324.319 393.877 324.321 393.877 324.323 393.877C324.325 393.877 324.327 393.877 324.329 393.877C324.331 393.877 324.333 393.877 324.335 393.877C324.337 393.877 324.339 393.877 324.341 393.877C324.343 393.877 324.345 393.877 324.347 393.877C324.349 393.877 324.351 393.877 324.354 393.877C324.356 393.877 324.358 393.877 324.36 393.877C324.362 393.877 324.364 393.877 324.366 393.877C324.368 393.877 324.37 393.877 324.372 393.877C324.374 393.877 324.376 393.877 324.378 393.877C324.38 393.877 324.382 393.877 324.384 393.877C324.386 393.877 324.389 393.877 324.391 393.877C324.393 393.877 324.395 393.877 324.397 393.877C324.399 393.877 324.401 393.877 324.403 393.877C324.405 393.877 324.407 393.877 324.409 393.877C324.411 393.877 324.413 393.877 324.415 393.877C324.417 393.877 324.419 393.877 324.421 393.877C324.424 393.877 324.426 393.877 324.428 393.877C324.43 393.877 324.432 393.877 324.434 393.877C324.436 393.877 324.438 393.877 324.44 393.877C324.442 393.877 324.444 393.877 324.446 393.877C324.448 393.877 324.45 393.877 324.452 393.877C324.454 393.877 324.456 393.877 324.459 393.877C324.461 393.877 324.463 393.877 324.465 393.877C324.467 393.877 324.469 393.877 324.471 393.877C324.473 393.877 324.475 393.877 324.477 393.877C324.479 393.877 324.481 393.877 324.483 393.877C324.485 393.877 324.487 393.877 324.489 393.877C324.491 393.877 324.494 393.877 324.496 393.877C324.498 393.877 324.5 393.877 324.502 393.877C324.504 393.877 324.506 393.877 324.508 393.877C324.51 393.877 324.512 393.877 324.514 393.877C324.516 393.877 324.518 393.877 324.52 393.877C324.522 393.877 324.524 393.877 324.526 393.877C324.528 393.877 324.531 393.877 324.533 393.877C324.535 393.877 324.537 393.877 324.539 393.877C324.541 393.877 324.543 393.877 324.545 393.877C324.547 393.877 324.549 393.877 324.551 393.877C324.553 393.877 324.555 393.877 324.557 393.877C324.559 393.877 324.561 393.877 324.563 393.877C324.566 393.877 324.568 393.877 324.57 393.877C324.572 393.877 324.574 393.877 324.576 393.877C324.578 393.877 324.58 393.877 324.582 393.877C324.584 393.877 324.586 393.877 324.588 393.877C324.59 393.877 324.592 393.877 324.594 393.877C324.596 393.877 324.598 393.877 324.601 393.877C324.603 393.877 324.605 393.877 324.607 393.877C324.609 393.877 324.611 393.877 324.613 393.877C324.615 393.877 324.617 393.877 324.619 393.877C324.621 393.877 324.623 393.877 324.625 393.877C324.627 393.877 324.629 393.877 324.631 393.877C324.633 393.877 324.636 393.877 324.638 393.877C324.64 393.877 324.642 393.877 324.644 393.877C324.646 393.877 324.648 393.877 324.65 393.877C324.652 393.877 324.654 393.877 324.656 393.877C324.658 393.877 324.66 393.877 324.662 393.877C324.664 393.877 324.666 393.877 324.668 393.877C324.67 393.877 324.673 393.877 324.675 393.877C324.677 393.877 324.679 393.877 324.681 393.877C324.683 393.877 324.685 393.877 324.687 393.877C324.689 393.877 324.691 393.877 324.693 393.877C324.695 393.877 324.697 393.877 324.699 393.877C324.701 393.877 324.703 393.877 324.705 393.877C324.708 393.877 324.71 393.877 324.712 393.877C324.714 393.877 324.716 393.877 324.718 393.877C324.72 393.877 324.722 393.877 324.724 393.877C324.726 393.877 324.728 393.877 324.73 393.877C324.732 393.877 324.734 393.877 324.736 393.877C324.738 393.877 324.74 393.877 324.743 393.877C324.745 393.877 324.747 393.877 324.749 393.877C324.751 393.877 324.753 393.877 324.755 393.877C324.757 393.877 324.759 393.877 324.761 393.877C324.763 393.877 324.765 393.877 324.767 393.877C324.769 393.877 324.771 393.877 324.773 393.877C324.775 393.877 324.778 393.877 324.78 393.877C324.782 393.877 324.784 393.877 324.786 393.877C324.788 393.877 324.79 393.877 324.792 393.877C324.794 393.877 324.796 393.877 324.798 393.877C324.8 393.877 324.802 393.877 324.804 393.877C324.806 393.877 324.808 393.877 324.81 393.877C324.813 393.877 324.815 393.877 324.817 393.877C324.819 393.877 324.821 393.877 324.823 393.877C324.825 393.877 324.827 393.877 324.829 393.877C324.831 393.877 324.833 393.877 324.835 393.877C324.837 393.877 324.839 393.877 324.841 393.877C324.843 393.877 324.845 393.877 324.847 393.877C324.85 393.877 324.852 393.877 324.854 393.877C324.856 393.877 324.858 393.877 324.86 393.877C324.862 393.877 324.864 393.877 324.866 393.877C324.868 393.877 324.87 393.877 324.872 393.877C324.874 393.877 324.876 393.877 324.878 393.877C324.88 393.877 324.882 393.877 324.885 393.877C324.887 393.877 324.889 393.877 324.891 393.877C324.893 393.877 324.895 393.877 324.897 393.877C324.899 393.877 324.901 393.877 324.903 393.877C324.905 393.877 324.907 393.877 324.909 393.877C324.911 393.877 324.913 393.877 324.915 393.877C324.917 393.877 324.92 393.877 324.922 393.877C324.924 393.877 324.926 393.877 324.928 393.877C324.93 393.877 324.932 393.877 324.934 393.877C324.936 393.877 324.938 393.877 324.94 393.877C324.942 393.877 324.944 393.877 324.946 393.877C324.948 393.877 324.95 393.877 324.952 393.877C324.955 393.877 324.957 393.877 324.959 393.877C324.961 393.877 324.963 393.877 324.965 393.877C324.967 393.877 324.969 393.877 324.971 393.877C324.973 393.877 324.975 393.877 324.977 393.877C324.979 393.877 324.981 393.877 324.983 393.877C324.985 393.877 324.987 393.877 324.989 393.877C324.992 393.877 324.994 393.877 324.996 393.877C324.998 393.877 325 393.877 325.002 393.877C325.004 393.877 325.006 393.877 325.008 393.877C325.01 393.877 325.012 393.877 325.014 393.877C325.016 393.877 325.018 393.877 325.02 393.877C325.022 393.877 325.024 393.877 325.027 393.877C325.029 393.877 325.031 393.877 325.033 393.877C325.035 393.877 325.037 393.877 325.039 393.877C325.041 393.877 325.043 393.877 325.045 393.877C325.047 393.877 325.049 393.877 325.051 393.877C325.053 393.877 325.055 393.877 325.057 393.877C325.059 393.877 325.062 393.877 325.064 393.877C325.066 393.877 325.068 393.877 325.07 393.877C325.072 393.877 325.074 393.877 325.076 393.877C325.078 393.877 325.08 393.877 325.082 393.877C325.084 393.877 325.086 393.877 325.088 393.877C325.09 393.877 325.092 393.877 325.094 393.877C325.097 393.877 325.099 393.877 325.101 393.877C325.103 393.877 325.105 393.877 325.107 393.877C325.109 393.877 325.111 393.877 325.113 393.877C325.115 393.877 325.117 393.877 325.119 393.877C325.121 393.877 325.123 393.877 325.125 393.877C325.127 393.877 325.129 393.877 325.132 393.877C325.134 393.877 325.136 393.877 325.138 393.877C325.14 393.877 325.142 393.877 325.144 393.877C325.146 393.877 325.148 393.877 325.15 393.877C325.152 393.877 325.154 393.877 325.156 393.877C325.158 393.877 325.16 393.877 325.162 393.877C325.164 393.877 325.166 393.877 325.169 393.877C325.171 393.877 325.173 393.877 325.175 393.877C325.177 393.877 325.179 393.877 325.181 393.877C325.183 393.877 325.185 393.877 325.187 393.877C325.189 393.877 325.191 393.877 325.193 393.877C325.195 393.877 325.197 393.877 325.199 393.877C325.201 393.877 325.204 393.877 325.206 393.877C325.208 393.877 325.21 393.877 325.212 393.877C325.214 393.877 325.216 393.877 325.218 393.877C325.22 393.877 325.222 393.877 325.224 393.877C325.226 393.877 325.228 393.877 325.23 393.877C325.232 393.877 325.234 393.877 325.236 393.877C325.239 393.877 325.241 393.877 325.243 393.877C325.245 393.877 325.247 393.877 325.249 393.877C325.251 393.877 325.253 393.877 325.255 393.877C325.257 393.877 325.259 393.877 325.261 393.877C325.263 393.877 325.265 393.877 325.267 393.877C325.269 393.877 325.271 393.877 325.274 393.877C325.276 393.877 325.278 393.877 325.28 393.877C325.282 393.877 325.284 393.877 325.286 393.877C325.288 393.877 325.29 393.877 325.292 393.877C325.294 393.877 325.296 393.877 325.298 393.877C325.3 393.877 325.302 393.877 325.304 393.877C325.306 393.877 325.308 393.877 325.311 393.877C325.313 393.877 325.315 393.877 325.317 393.877C325.319 393.877 325.321 393.877 325.323 393.877C325.325 393.877 325.327 393.877 325.329 393.877C325.331 393.877 325.333 393.877 325.335 393.877C325.337 393.877 325.339 393.877 325.341 393.877C325.343 393.877 325.346 393.877 325.348 393.877C325.35 393.877 325.352 393.877 325.354 393.877C325.356 393.877 325.358 393.877 325.36 393.877C325.362 393.877 325.364 393.877 325.366 393.877C325.368 393.877 325.37 393.877 325.372 393.877C325.374 393.877 325.376 393.877 325.378 393.877C325.381 393.877 325.383 393.877 325.385 393.877C325.387 393.877 325.389 393.877 325.391 393.877C325.393 393.877 325.395 393.877 325.397 393.877C325.399 393.877 325.401 393.877 325.403 393.877C325.405 393.877 325.407 393.877 325.409 393.877C325.411 393.877 325.413 393.877 325.416 393.877C325.418 393.877 325.42 393.877 325.422 393.877C325.424 393.877 325.426 393.877 325.428 393.877C325.43 393.877 325.432 393.877 325.434 393.877C325.436 393.877 325.438 393.877 325.44 393.877C325.442 393.877 325.444 393.877 325.446 393.877C325.448 393.877 325.451 393.877 325.453 393.877C325.455 393.877 325.457 393.877 325.459 393.877C325.461 393.877 325.463 393.877 325.465 393.877C325.467 393.877 325.469 393.877 325.471 393.877C325.473 393.877 325.475 393.877 325.477 393.877C325.479 393.877 325.481 393.877 325.483 393.877C325.485 393.877 325.488 393.877 325.49 393.877C325.492 393.877 325.494 393.877 325.496 393.877C325.498 393.877 325.5 393.877 325.502 393.877C325.504 393.877 325.506 393.877 325.508 393.877C325.51 393.877 325.512 393.877 325.514 393.877C325.516 393.877 325.518 393.877 325.52 393.877C325.523 393.877 325.525 393.877 325.527 393.877C325.529 393.877 325.531 393.877 325.533 393.877C325.535 393.877 325.537 393.877 325.539 393.877C325.541 393.877 325.543 393.877 325.545 393.877C325.547 393.877 325.549 393.877 325.551 393.877C325.553 393.877 325.555 393.877 325.558 393.877C325.56 393.877 325.562 393.877 325.564 393.877C325.566 393.877 325.568 393.877 325.57 393.877C325.572 393.877 325.574 393.877 325.576 393.877C325.578 393.877 325.58 393.877 325.582 393.877C325.584 393.877 325.586 393.877 325.588 393.877C325.59 393.877 325.593 393.877 325.595 393.877C325.597 393.877 325.599 393.877 325.601 393.877C325.603 393.877 325.605 393.877 325.607 393.877C325.609 393.877 325.611 393.877 325.613 393.877C325.615 393.877 325.617 393.877 325.619 393.877C325.621 393.877 325.623 393.877 325.625 393.877C325.627 393.877 325.63 393.877 325.632 393.877C325.634 393.877 325.636 393.877 325.638 393.877C325.64 393.877 325.642 393.877 325.644 393.877C325.646 393.877 325.648 393.877 325.65 393.877C325.652 393.877 325.654 393.877 325.656 393.877C325.658 393.877 325.66 393.877 325.662 393.877C325.665 393.877 325.667 393.877 325.669 393.877C325.671 393.877 325.673 393.877 325.675 393.877C325.677 393.877 325.679 393.877 325.681 393.877C325.683 393.877 325.685 393.877 325.687 393.877C325.689 393.877 325.691 393.877 325.693 393.877C325.695 393.877 325.697 393.877 325.7 393.877C325.702 393.877 325.704 393.877 325.706 393.877C325.708 393.877 325.71 393.877 325.712 393.877C325.714 393.877 325.716 393.877 325.718 393.877C325.72 393.877 325.722 393.877 325.724 393.877C325.726 393.877 325.728 393.877 325.73 393.877C325.732 393.877 325.735 393.877 325.737 393.877C325.739 393.877 325.741 393.877 325.743 393.877C325.745 393.877 325.747 393.877 325.749 393.877C325.751 393.877 325.753 393.877 325.755 393.877C325.757 393.877 325.759 393.877 325.761 393.877C325.763 393.877 325.765 393.877 325.767 393.877C325.77 393.877 325.772 393.877 325.774 393.877C325.776 393.877 325.778 393.877 325.78 393.877C325.782 393.877 325.784 393.877 325.786 393.877C325.788 393.877 325.79 393.877 325.792 393.877C325.794 393.877 325.796 393.877 325.798 393.877C325.8 393.877 325.802 393.877 325.804 393.877C325.807 393.877 325.809 393.877 325.811 393.877C325.813 393.877 325.815 393.877 325.817 393.877C325.819 393.877 325.821 393.877 325.823 393.877C325.825 393.877 325.827 393.877 325.829 393.877C325.831 393.877 325.833 393.877 325.835 393.877C325.837 393.877 325.839 393.877 325.842 393.877C325.844 393.877 325.846 393.877 325.848 393.877C325.85 393.877 325.852 393.877 325.854 393.877C325.856 393.877 325.858 393.877 325.86 393.877C325.862 393.877 325.864 393.877 325.866 393.877C325.868 393.877 325.87 393.877 325.872 393.877C325.874 393.877 325.877 393.877 325.879 393.877C325.881 393.877 325.883 393.877 325.885 393.877C325.887 393.877 325.889 393.877 325.891 393.877C325.893 393.877 325.895 393.877 325.897 393.877C325.899 393.877 325.901 393.877 325.903 393.877C325.905 393.877 325.907 393.877 325.909 393.877C325.912 393.877 325.914 393.877 325.916 393.877C325.918 393.877 325.92 393.877 325.922 393.877C325.924 393.877 325.926 393.877 325.928 393.877C325.93 393.877 325.932 393.877 325.934 393.877C325.936 393.877 325.938 393.877 325.94 393.877C325.942 393.877 325.944 393.877 325.946 393.877C325.949 393.877 325.951 393.877 325.953 393.877C325.955 393.877 325.957 393.877 325.959 393.877C325.961 393.877 325.963 393.877 325.965 393.877C325.967 393.877 325.969 393.877 325.971 393.877C325.973 393.877 325.975 393.877 325.977 393.877C325.979 393.877 325.981 393.877 325.984 393.877C325.986 393.877 325.988 393.877 325.99 393.877C325.992 393.877 325.994 393.877 325.996 393.877C325.998 393.877 326 393.877 326.002 393.877C326.004 393.877 326.006 393.877 326.008 393.877C326.01 393.877 326.012 393.877 326.014 393.877C326.016 393.877 326.019 393.877 326.021 393.877C326.023 393.877 326.025 393.877 326.027 393.877C326.029 393.877 326.031 393.877 326.033 393.877C326.035 393.877 326.037 393.877 326.039 393.877C326.041 393.877 326.043 393.877 326.045 393.877C326.047 393.877 326.049 393.877 326.051 393.877C326.054 393.877 326.056 393.877 326.058 393.877C326.06 393.877 326.062 393.877 326.064 393.877C326.066 393.877 326.068 393.877 326.07 393.877C326.072 393.877 326.074 393.877 326.076 393.877C326.078 393.877 326.08 393.877 326.082 393.877C326.084 393.877 326.086 393.877 326.089 393.877C326.091 393.877 326.093 393.877 326.095 393.877C326.097 393.877 326.099 393.877 326.101 393.877C326.103 393.877 326.105 393.877 326.107 393.877C326.109 393.877 326.111 393.877 326.113 393.877C326.115 393.877 326.117 393.877 326.119 393.877C326.121 393.877 326.123 393.877 326.126 393.877C326.128 393.877 326.13 393.877 326.132 393.877C326.134 393.877 326.136 393.877 326.138 393.877C326.14 393.877 326.142 393.877 326.144 393.877C326.146 393.877 326.148 393.877 326.15 393.877C326.152 393.877 326.154 393.877 326.156 393.877C326.158 393.877 326.161 393.877 326.163 393.877C326.165 393.877 326.167 393.877 326.169 393.877C326.171 393.877 326.173 393.877 326.175 393.877C326.177 393.877 326.179 393.877 326.181 393.877C326.183 393.877 326.185 393.877 326.187 393.877C326.189 393.877 326.191 393.877 326.193 393.877C326.196 393.877 326.198 393.877 326.2 393.877C326.202 393.877 326.204 393.877 326.206 393.877C326.208 393.877 326.21 393.877 326.212 393.877C326.214 393.877 326.216 393.877 326.218 393.877C326.22 393.877 326.222 393.877 326.224 393.877C326.226 393.877 326.228 393.877 326.231 393.877C326.233 393.877 326.235 393.877 326.237 393.877C326.239 393.877 326.241 393.877 326.243 393.877C326.245 393.877 326.247 393.877 326.249 393.877C326.251 393.877 326.253 393.877 326.255 393.877C326.257 393.877 326.259 393.877 326.261 393.877C326.263 393.877 326.266 393.877 326.268 393.877C326.27 393.877 326.272 393.877 326.274 393.877C326.276 393.877 326.278 393.877 326.28 393.877C326.282 393.877 326.284 393.877 326.286 393.877C326.288 393.877 326.29 393.877 326.292 393.877C326.294 393.877 326.296 393.877 326.298 393.877C326.3 393.877 326.303 393.877 326.305 393.877C326.307 393.877 326.309 393.877 326.311 393.877C326.313 393.877 326.315 393.877 326.317 393.877C326.319 393.877 326.321 393.877 326.323 393.877C326.325 393.877 326.327 393.877 326.329 393.877C326.331 393.877 326.333 393.877 326.335 393.877C326.338 393.877 326.34 393.877 326.342 393.877C326.344 393.877 326.346 393.877 326.348 393.877C326.35 393.877 326.352 393.877 326.354 393.877C326.356 393.877 326.358 393.877 326.36 393.877C326.362 393.877 326.364 393.877 326.366 393.877C326.368 393.877 326.37 393.877 326.373 393.877C326.375 393.877 326.377 393.877 326.379 393.877C326.381 393.877 326.383 393.877 326.385 393.877C326.387 393.877 326.389 393.877 326.391 393.877C326.393 393.877 326.395 393.877 326.397 393.877C326.399 393.877 326.401 393.877 326.403 393.877C326.405 393.877 326.408 393.877 326.41 393.877C326.412 393.877 326.414 393.877 326.416 393.877C326.418 393.877 326.42 393.877 326.422 393.877C326.424 393.877 326.426 393.877 326.428 393.877C326.43 393.877 326.432 393.877 326.434 393.877C326.436 393.877 326.438 393.877 326.44 393.877C326.442 393.877 326.445 393.877 326.447 393.877C326.449 393.877 326.451 393.877 326.453 393.877C326.455 393.877 326.457 393.877 326.459 393.877C326.461 393.877 326.463 393.877 326.465 393.877C326.467 393.877 326.469 393.877 326.471 393.877C326.473 393.877 326.475 393.877 326.477 393.877C326.48 393.877 326.482 393.877 326.484 393.877C326.486 393.877 326.488 393.877 326.49 393.877C326.492 393.877 326.494 393.877 326.496 393.877C326.498 393.877 326.5 393.877 326.502 393.877C326.504 393.877 326.506 393.877 326.508 393.877C326.51 393.877 326.512 393.877 326.515 393.877C326.517 393.877 326.519 393.877 326.521 393.877C326.523 393.877 326.525 393.877 326.527 393.877C326.529 393.877 326.531 393.877 326.533 393.877C326.535 393.877 326.537 393.877 326.539 393.877C326.541 393.877 326.543 393.877 326.545 393.877C326.547 393.877 326.55 393.877 326.552 393.877C326.554 393.877 326.556 393.877 326.558 393.877C326.56 393.877 326.562 393.877 326.564 393.877C326.566 393.877 326.568 393.877 326.57 393.877C326.572 393.877 326.574 393.877 326.576 393.877C326.578 393.877 326.58 393.877 326.582 393.877C326.585 393.877 326.587 393.877 326.589 393.877C326.591 393.877 326.593 393.877 326.595 393.877C326.597 393.877 326.599 393.877 326.601 393.877C326.603 393.877 326.605 393.877 326.607 393.877C326.609 393.877 326.611 393.877 326.613 393.877C326.615 393.877 326.617 393.877 326.619 393.877C326.622 393.877 326.624 393.877 326.626 393.877C326.628 393.877 326.63 393.877 326.632 393.877C326.634 393.877 326.636 393.877 326.638 393.877C326.64 393.877 326.642 393.877 326.644 393.877C326.646 393.877 326.648 393.877 326.65 393.877C326.652 393.877 326.654 393.877 326.657 393.877C326.659 393.877 326.661 393.877 326.663 393.877C326.665 393.877 326.667 393.877 326.669 393.877C326.671 393.877 326.673 393.877 326.675 393.877C326.677 393.877 326.679 393.877 326.681 393.877C326.683 393.877 326.685 393.877 326.687 393.877C326.689 393.877 326.692 393.877 326.694 393.877C326.696 393.877 326.698 393.877 326.7 393.877C326.702 393.877 326.704 393.877 326.706 393.877C326.708 393.877 326.71 393.877 326.712 393.877C326.714 393.877 326.716 393.877 326.718 393.877C326.72 393.877 326.722 393.877 326.724 393.877C326.727 393.877 326.729 393.877 326.731 393.877C326.733 393.877 326.735 393.877 326.737 393.877C326.739 393.877 326.741 393.877 326.743 393.877C326.745 393.877 326.747 393.877 326.749 393.877C326.751 393.877 326.753 393.877 326.755 393.877C326.757 393.877 326.759 393.877 326.761 393.877C326.764 393.877 326.766 393.877 326.768 393.877C326.77 393.877 326.772 393.877 326.774 393.877C326.776 393.877 326.778 393.877 326.78 393.877C326.782 393.877 326.784 393.877 326.786 393.877C326.788 393.877 326.79 393.877 326.792 393.877C326.794 393.877 326.796 393.877 326.799 393.877C326.801 393.877 326.803 393.877 326.805 393.877C326.807 393.877 326.809 393.877 326.811 393.877C326.813 393.877 326.815 393.877 326.817 393.877V383.877ZM323.656 383.877V373.877C323.809 373.877 323.859 373.889 323.786 373.879C323.715 373.869 323.562 373.842 323.315 373.781L320.89 383.482L318.464 393.184C320.039 393.577 321.808 393.877 323.656 393.877V383.877ZM320.89 383.482V373.482H314.567V383.482V393.482H320.89V383.482ZM314.567 383.482V373.482C303.961 373.482 292.219 374.026 279.359 375.097L280.189 385.063L281.02 395.028C293.45 393.992 304.626 393.482 314.567 393.482V383.482ZM280.189 385.063L279.552 375.083C266.818 375.896 254.089 377.386 241.367 379.551L243.045 389.409L244.723 399.268C256.764 397.218 268.798 395.81 280.826 395.042L280.189 385.063ZM243.045 389.409L241.541 379.523C228.987 381.434 217.514 384.048 207.163 387.405L210.248 396.917L213.333 406.429C222.475 403.464 232.867 401.073 244.55 399.296L243.045 389.409ZM346.633 399.288L352.633 391.288L352.599 391.263L352.565 391.238L346.633 399.288ZM335.174 385.458L325.918 389.244L326.025 389.504L326.145 389.757L335.174 385.458ZM341.891 340.806L334.458 334.116L334.452 334.123L334.446 334.13L341.891 340.806ZM405.511 340.016L398.565 347.21L398.63 347.273L398.696 347.335L405.511 340.016ZM403.93 392.966L410.777 400.254L410.835 400.2L410.891 400.145L403.93 392.966ZM366.391 405.215V395.215C360.206 395.215 355.846 393.698 352.633 391.288L346.633 399.288L340.633 407.288C347.958 412.782 356.769 415.215 366.391 415.215V405.215ZM346.633 399.288L352.565 391.238C348.865 388.511 346.118 385.182 344.202 381.159L335.174 385.458L326.145 389.757C329.498 396.798 334.391 402.689 340.701 407.339L346.633 399.288ZM335.174 385.458L344.429 381.672C342.51 376.98 341.618 372.467 341.618 368.071H331.618H321.618C321.618 375.267 323.096 382.344 325.918 389.244L335.174 385.458ZM331.618 368.071H341.618C341.618 359.925 344.181 353.233 349.337 347.481L341.891 340.806L334.446 334.13C325.903 343.658 321.618 355.143 321.618 368.071H331.618ZM341.891 340.806L349.324 347.496C354.223 342.053 361.074 338.951 371.133 338.951V328.951V318.951C356.429 318.951 343.785 323.753 334.458 334.116L341.891 340.806ZM371.133 328.951V338.951C384.956 338.951 393.472 342.293 398.565 347.21L405.511 340.016L412.457 332.822C402.27 322.986 387.867 318.951 371.133 318.951V328.951ZM405.511 340.016L398.696 347.335C404.6 352.831 406.97 358.451 406.97 364.515H416.97H426.97C426.97 352.139 421.7 341.426 412.325 332.697L405.511 340.016ZM416.97 364.515H406.97C406.97 371.936 404.035 378.934 396.969 385.787L403.93 392.966L410.891 400.145C421.211 390.138 426.97 378.168 426.97 364.515H416.97ZM403.93 392.966L397.083 385.677C390.838 391.544 381.132 395.215 366.391 395.215V405.215V415.215C384.315 415.215 399.635 410.72 410.777 400.254L403.93 392.966Z" fill="#7A3205" mask="url(#path-1-outside-1_204_8)"/>
</svg>
