<svg width="512" height="512" viewBox="0 0 512 512" fill="none" xmlns="http://www.w3.org/2000/svg">
<mask id="path-1-outside-1_204_5" maskUnits="userSpaceOnUse" x="11.012" y="93.5186" width="493" height="331" fill="black">
<rect fill="white" x="11.012" y="93.5186" width="493" height="331"/>
<path d="M25.1575 402.148C36.7485 366.848 47.8127 332.47 58.3501 299.013C62.8284 285.315 67.4385 270.694 72.1803 255.152C76.9221 239.609 81.6639 224.067 86.4057 208.524C91.1475 192.718 95.6259 177.571 99.8408 163.082C104.056 148.593 107.612 135.685 110.51 124.357C124.999 124.357 138.697 123.567 151.606 121.986C158.191 121.196 164.909 120.406 171.758 119.615C178.871 118.825 186.115 118.166 193.491 117.64L191.121 137.002C190.594 140.69 190.067 144.51 189.54 148.461C189.013 152.149 188.486 155.969 187.959 159.921C187.432 163.872 186.774 167.955 185.984 172.17C185.193 176.122 184.535 180.205 184.008 184.42C182.954 192.586 181.373 204.046 179.266 218.798C177.159 233.287 174.656 249.093 171.758 266.216H176.895C184.535 246.195 190.857 229.599 195.862 216.427C200.868 202.992 204.951 192.059 208.112 183.63C212.59 171.248 217.464 158.735 222.733 146.09C228.001 133.446 232.348 123.699 235.772 116.849C242.095 116.322 249.603 115.532 258.296 114.478C267.253 113.161 276.21 111.712 285.166 110.132C294.386 108.551 302.289 107.234 308.875 106.18C305.187 128.309 301.763 150.7 298.601 173.356C295.704 195.748 293.069 217.217 290.698 237.765C288.591 258.05 286.747 276.358 285.166 292.691C283.586 309.024 282.137 325.225 280.82 341.295C279.502 357.101 278.185 372.775 276.868 388.317L208.112 400.567C208.112 400.04 208.507 394.113 209.297 382.785C210.088 371.458 211.405 357.364 213.249 340.504C215.093 323.644 216.937 307.707 218.781 292.691C220.625 277.412 222.469 264.899 224.313 255.152H220.757C214.171 275.173 206.136 297.038 196.653 320.747C187.432 344.456 178.344 370.667 169.387 399.382C160.167 399.645 152.264 400.04 145.678 400.567C139.092 400.83 131.453 401.226 122.76 401.753L135.404 255.152H129.477C129.214 258.05 128.028 263.713 125.921 272.143C123.813 280.31 121.311 289.793 118.413 300.594C115.515 311.131 112.486 321.669 109.324 332.206C97.4699 373.565 91.1475 395.43 90.3572 397.801L25.1575 402.148ZM286.407 405.309C289.305 384.498 292.335 363.555 295.496 342.48C298.92 321.405 302.345 301.121 305.77 281.627C309.458 261.869 312.882 244.088 316.044 228.282C319.468 211.158 322.893 193.772 326.317 176.122C329.742 158.472 333.298 140.69 336.986 122.776L406.138 113.688L385.59 202.992C381.902 218.535 378.082 235.263 374.131 253.176C370.443 270.826 367.018 287.949 363.857 304.546C360.695 321.142 358.193 335.894 356.349 348.802C362.935 348.276 369.916 348.012 377.292 348.012C384.931 347.749 391.649 347.617 397.444 347.617C397.708 353.676 398.235 360.13 399.025 366.979C399.815 373.565 400.606 379.361 401.396 384.366C402.45 389.108 402.977 391.742 402.977 392.269C401.923 392.269 400.869 392.269 399.815 392.269C399.025 392.269 398.103 392.137 397.049 391.874H390.727C380.453 391.874 368.994 392.401 356.349 393.454C343.967 394.245 331.586 395.694 319.205 397.801C307.087 399.645 296.154 402.148 286.407 405.309ZM442.55 413.607C434.647 413.607 428.061 411.631 422.793 407.68C417.788 403.992 413.968 399.382 411.333 393.85C408.962 388.054 407.777 382.258 407.777 376.463C407.777 365.926 411.202 356.837 418.051 349.198C425.164 341.295 434.911 337.343 447.292 337.343C462.571 337.343 474.031 341.031 481.67 348.407C489.31 355.52 493.129 363.686 493.129 372.907C493.129 383.444 488.783 392.927 480.09 401.357C471.396 409.524 458.883 413.607 442.55 413.607Z"/>
</mask>
<path d="M25.1575 402.148C36.7485 366.848 47.8127 332.47 58.3501 299.013C62.8284 285.315 67.4385 270.694 72.1803 255.152C76.9221 239.609 81.6639 224.067 86.4057 208.524C91.1475 192.718 95.6259 177.571 99.8408 163.082C104.056 148.593 107.612 135.685 110.51 124.357C124.999 124.357 138.697 123.567 151.606 121.986C158.191 121.196 164.909 120.406 171.758 119.615C178.871 118.825 186.115 118.166 193.491 117.64L191.121 137.002C190.594 140.69 190.067 144.51 189.54 148.461C189.013 152.149 188.486 155.969 187.959 159.921C187.432 163.872 186.774 167.955 185.984 172.17C185.193 176.122 184.535 180.205 184.008 184.42C182.954 192.586 181.373 204.046 179.266 218.798C177.159 233.287 174.656 249.093 171.758 266.216H176.895C184.535 246.195 190.857 229.599 195.862 216.427C200.868 202.992 204.951 192.059 208.112 183.63C212.59 171.248 217.464 158.735 222.733 146.09C228.001 133.446 232.348 123.699 235.772 116.849C242.095 116.322 249.603 115.532 258.296 114.478C267.253 113.161 276.21 111.712 285.166 110.132C294.386 108.551 302.289 107.234 308.875 106.18C305.187 128.309 301.763 150.7 298.601 173.356C295.704 195.748 293.069 217.217 290.698 237.765C288.591 258.05 286.747 276.358 285.166 292.691C283.586 309.024 282.137 325.225 280.82 341.295C279.502 357.101 278.185 372.775 276.868 388.317L208.112 400.567C208.112 400.04 208.507 394.113 209.297 382.785C210.088 371.458 211.405 357.364 213.249 340.504C215.093 323.644 216.937 307.707 218.781 292.691C220.625 277.412 222.469 264.899 224.313 255.152H220.757C214.171 275.173 206.136 297.038 196.653 320.747C187.432 344.456 178.344 370.667 169.387 399.382C160.167 399.645 152.264 400.04 145.678 400.567C139.092 400.83 131.453 401.226 122.76 401.753L135.404 255.152H129.477C129.214 258.05 128.028 263.713 125.921 272.143C123.813 280.31 121.311 289.793 118.413 300.594C115.515 311.131 112.486 321.669 109.324 332.206C97.4699 373.565 91.1475 395.43 90.3572 397.801L25.1575 402.148ZM286.407 405.309C289.305 384.498 292.335 363.555 295.496 342.48C298.92 321.405 302.345 301.121 305.77 281.627C309.458 261.869 312.882 244.088 316.044 228.282C319.468 211.158 322.893 193.772 326.317 176.122C329.742 158.472 333.298 140.69 336.986 122.776L406.138 113.688L385.59 202.992C381.902 218.535 378.082 235.263 374.131 253.176C370.443 270.826 367.018 287.949 363.857 304.546C360.695 321.142 358.193 335.894 356.349 348.802C362.935 348.276 369.916 348.012 377.292 348.012C384.931 347.749 391.649 347.617 397.444 347.617C397.708 353.676 398.235 360.13 399.025 366.979C399.815 373.565 400.606 379.361 401.396 384.366C402.45 389.108 402.977 391.742 402.977 392.269C401.923 392.269 400.869 392.269 399.815 392.269C399.025 392.269 398.103 392.137 397.049 391.874H390.727C380.453 391.874 368.994 392.401 356.349 393.454C343.967 394.245 331.586 395.694 319.205 397.801C307.087 399.645 296.154 402.148 286.407 405.309ZM442.55 413.607C434.647 413.607 428.061 411.631 422.793 407.68C417.788 403.992 413.968 399.382 411.333 393.85C408.962 388.054 407.777 382.258 407.777 376.463C407.777 365.926 411.202 356.837 418.051 349.198C425.164 341.295 434.911 337.343 447.292 337.343C462.571 337.343 474.031 341.031 481.67 348.407C489.31 355.52 493.129 363.686 493.129 372.907C493.129 383.444 488.783 392.927 480.09 401.357C471.396 409.524 458.883 413.607 442.55 413.607Z" fill="white"/>
<path d="M25.1575 402.148L15.6565 399.028L11.0321 413.112L25.8226 412.126L25.1575 402.148ZM58.3501 299.013L48.8451 295.906L48.8283 295.958L48.812 296.009L58.3501 299.013ZM72.1803 255.152L62.6156 252.234L62.6156 252.234L72.1803 255.152ZM86.4057 208.524L95.9705 211.442L95.9773 211.42L95.984 211.398L86.4057 208.524ZM99.8408 163.082L109.443 165.875L109.443 165.875L99.8408 163.082ZM110.51 124.357V114.357H102.746L100.822 121.879L110.51 124.357ZM151.606 121.986L150.414 112.057L150.402 112.059L150.39 112.06L151.606 121.986ZM171.758 119.615L170.654 109.676L170.633 109.679L170.612 109.681L171.758 119.615ZM193.491 117.64L203.417 118.855L204.893 106.8L192.779 107.665L193.491 117.64ZM191.121 137.002L201.02 138.416L201.034 138.317L201.046 138.217L191.121 137.002ZM189.54 148.461L199.439 149.875L199.446 149.829L199.452 149.783L189.54 148.461ZM187.959 159.921L197.872 161.242L197.872 161.242L187.959 159.921ZM185.984 172.17L195.789 174.131L195.801 174.072L195.812 174.013L185.984 172.17ZM184.008 184.42L193.926 185.7L193.928 185.68L193.931 185.66L184.008 184.42ZM179.266 218.798L189.162 220.237L189.164 220.225L189.166 220.212L179.266 218.798ZM171.758 266.216L161.898 264.547L159.924 276.216H171.758V266.216ZM176.895 266.216V276.216H183.783L186.238 269.781L176.895 266.216ZM195.862 216.427L205.21 219.979L205.222 219.949L205.233 219.918L195.862 216.427ZM208.112 183.63L217.475 187.141L217.496 187.086L217.516 187.031L208.112 183.63ZM222.733 146.09L231.963 149.936L231.963 149.936L222.733 146.09ZM235.772 116.849L234.942 106.884L229.342 107.35L226.828 112.377L235.772 116.849ZM258.296 114.478L259.499 124.406L259.625 124.39L259.751 124.372L258.296 114.478ZM285.166 110.132L283.477 100.275L283.453 100.28L283.428 100.284L285.166 110.132ZM308.875 106.18L318.739 107.824L321.025 94.109L307.295 96.3058L308.875 106.18ZM298.601 173.356L288.697 171.974L288.69 172.023L288.684 172.072L298.601 173.356ZM290.698 237.765L280.764 236.619L280.758 236.675L280.752 236.732L290.698 237.765ZM280.82 341.295L290.785 342.125L290.786 342.111L280.82 341.295ZM276.868 388.317L278.622 398.162L286.184 396.815L286.832 389.162L276.868 388.317ZM208.112 400.567H198.112V412.506L209.866 410.412L208.112 400.567ZM209.297 382.785L199.322 382.089L209.297 382.785ZM213.249 340.504L223.19 341.591L223.19 341.591L213.249 340.504ZM218.781 292.691L228.706 293.91L228.708 293.9L228.709 293.889L218.781 292.691ZM224.313 255.152L234.139 257.011L236.382 245.152H224.313V255.152ZM220.757 255.152V245.152H213.519L211.258 252.027L220.757 255.152ZM196.653 320.747L187.368 317.033L187.35 317.077L187.333 317.122L196.653 320.747ZM169.387 399.382L169.673 409.378L176.808 409.174L178.934 402.359L169.387 399.382ZM145.678 400.567L146.078 410.559L146.277 410.551L146.476 410.535L145.678 400.567ZM122.76 401.753L112.797 400.893L111.801 412.435L123.364 411.734L122.76 401.753ZM135.404 255.152L145.367 256.011L146.304 245.152H135.404V255.152ZM129.477 255.152V245.152H120.345L119.518 254.246L129.477 255.152ZM125.921 272.143L135.604 274.642L135.613 274.605L135.622 274.569L125.921 272.143ZM118.413 300.594L128.055 303.246L128.063 303.216L128.071 303.185L118.413 300.594ZM109.324 332.206L99.7462 329.333L99.7285 329.392L99.7115 329.451L109.324 332.206ZM90.3572 397.801L91.0224 407.779L97.7211 407.332L99.8441 400.963L90.3572 397.801ZM25.1575 402.148L34.6584 405.267C46.2613 369.931 57.338 335.514 67.8882 302.018L58.3501 299.013L48.812 296.009C38.2875 329.425 27.2357 363.764 15.6565 399.028L25.1575 402.148ZM58.3501 299.013L67.855 302.121C72.3564 288.352 76.9864 273.668 81.7451 258.07L72.1803 255.152L62.6156 252.234C57.8907 267.721 53.3005 282.278 48.8451 295.906L58.3501 299.013ZM72.1803 255.152L81.7451 258.07C86.4869 242.527 91.2287 226.985 95.9705 211.442L86.4057 208.524L76.841 205.606C72.0992 221.149 67.3574 236.691 62.6156 252.234L72.1803 255.152ZM86.4057 208.524L95.984 211.398C100.733 195.567 105.219 180.393 109.443 165.875L99.8408 163.082L90.2389 160.289C86.0324 174.748 81.562 189.869 76.8275 205.651L86.4057 208.524ZM99.8408 163.082L109.443 165.875C113.68 151.31 117.267 138.294 120.198 126.835L110.51 124.357L100.822 121.879C97.9575 133.076 94.4316 145.876 90.2389 160.289L99.8408 163.082ZM110.51 124.357V134.357C125.36 134.357 139.467 133.547 152.821 131.912L151.606 121.986L150.39 112.06C137.928 113.586 124.638 114.357 110.51 114.357V124.357ZM151.606 121.986L152.797 131.915C159.367 131.127 166.07 130.338 172.904 129.549L171.758 119.615L170.612 109.681C163.748 110.473 157.016 111.265 150.414 112.057L151.606 121.986ZM171.758 119.615L172.862 129.554C179.841 128.779 186.954 128.132 194.204 127.614L193.491 117.64L192.779 107.665C185.276 108.201 177.901 108.871 170.654 109.676L171.758 119.615ZM193.491 117.64L183.566 116.424L181.195 135.786L191.121 137.002L201.046 138.217L203.417 118.855L193.491 117.64ZM191.121 137.002L181.221 135.588C180.689 139.309 180.158 143.159 179.628 147.14L189.54 148.461L199.452 149.783C199.975 145.86 200.498 142.071 201.02 138.416L191.121 137.002ZM189.54 148.461L179.64 147.047C179.109 150.768 178.578 154.619 178.047 158.599L187.959 159.921L197.872 161.242C198.395 157.319 198.917 153.531 199.439 149.875L189.54 148.461ZM187.959 159.921L178.047 158.599C177.545 162.364 176.915 166.273 176.155 170.327L185.984 172.17L195.812 174.013C196.633 169.638 197.32 165.381 197.872 161.242L187.959 159.921ZM185.984 172.17L176.178 170.209C175.337 174.412 174.64 178.736 174.085 183.18L184.008 184.42L193.931 185.66C194.429 181.674 195.049 177.832 195.789 174.131L185.984 172.17ZM184.008 184.42L174.09 183.14C173.045 191.24 171.472 202.647 169.367 217.384L179.266 218.798L189.166 220.212C191.275 205.445 192.863 193.933 193.926 185.7L184.008 184.42ZM179.266 218.798L169.37 217.359C167.276 231.758 164.786 247.487 161.898 264.547L171.758 266.216L181.618 267.885C184.526 250.699 187.041 234.815 189.162 220.237L179.266 218.798ZM171.758 266.216V276.216H176.895V266.216V256.216H171.758V266.216ZM176.895 266.216L186.238 269.781C193.879 249.758 200.203 233.157 205.21 219.979L195.862 216.427L186.514 212.875C181.511 226.041 175.191 242.632 167.552 262.651L176.895 266.216ZM195.862 216.427L205.233 219.918C210.237 206.486 214.318 195.561 217.475 187.141L208.112 183.63L198.749 180.118C195.584 188.558 191.498 199.498 186.492 212.936L195.862 216.427ZM208.112 183.63L217.516 187.031C221.938 174.805 226.753 162.44 231.963 149.936L222.733 146.09L213.502 142.244C208.174 155.03 203.243 167.691 198.708 180.228L208.112 183.63ZM222.733 146.09L231.963 149.936C237.201 137.367 241.445 127.866 244.717 121.321L235.772 116.849L226.828 112.377C223.251 119.531 218.802 129.524 213.502 142.244L222.733 146.09ZM235.772 116.849L236.603 126.815C243.086 126.274 250.725 125.469 259.499 124.406L258.296 114.478L257.093 104.551C248.481 105.595 241.103 106.37 234.942 106.884L235.772 116.849ZM258.296 114.478L259.751 124.372C268.803 123.041 277.854 121.577 286.904 119.98L285.166 110.132L283.428 100.284C274.565 101.848 265.703 103.282 256.841 104.585L258.296 114.478ZM285.166 110.132L286.856 119.988C296.053 118.411 303.917 117.101 310.455 116.055L308.875 106.18L307.295 96.3058C300.662 97.3672 292.72 98.6909 283.477 100.275L285.166 110.132ZM308.875 106.18L299.011 104.536C295.308 126.753 291.87 149.233 288.697 171.974L298.601 173.356L308.505 174.738C311.655 152.168 315.066 129.864 318.739 107.824L308.875 106.18ZM298.601 173.356L288.684 172.072C285.781 194.506 283.141 216.021 280.764 236.619L290.698 237.765L300.632 238.911C302.998 218.413 305.626 196.989 308.519 174.639L298.601 173.356ZM290.698 237.765L280.752 236.732C278.643 257.034 276.796 275.367 275.213 291.728L285.166 292.691L295.12 293.654C296.698 277.35 298.539 259.065 300.645 238.799L290.698 237.765ZM285.166 292.691L275.213 291.728C273.628 308.109 272.174 324.359 270.853 340.478L280.82 341.295L290.786 342.111C292.099 326.092 293.544 309.939 295.12 293.654L285.166 292.691ZM280.82 341.295L270.854 340.464C269.537 356.266 268.221 371.935 266.904 387.473L276.868 388.317L286.832 389.162C288.15 373.615 289.468 357.936 290.785 342.125L280.82 341.295ZM276.868 388.317L275.114 378.472L206.358 390.722L208.112 400.567L209.866 410.412L278.622 398.162L276.868 388.317ZM208.112 400.567H218.112C218.112 400.742 218.168 399.66 218.386 396.392C218.583 393.444 218.878 389.142 219.273 383.481L209.297 382.785L199.322 382.089C198.558 393.034 198.112 399.577 198.112 400.567H208.112ZM209.297 382.785L219.273 383.481C220.051 372.331 221.354 358.378 223.19 341.591L213.249 340.504L203.308 339.417C201.456 356.35 200.124 370.584 199.322 382.089L209.297 382.785ZM213.249 340.504L223.19 341.591C225.029 324.771 226.868 308.877 228.706 293.91L218.781 292.691L208.856 291.472C207.006 306.537 205.156 322.518 203.308 339.417L213.249 340.504ZM218.781 292.691L228.709 293.889C230.539 278.725 232.352 266.454 234.139 257.011L224.313 255.152L214.487 253.293C212.586 263.343 210.711 276.098 208.853 291.493L218.781 292.691ZM224.313 255.152V245.152H220.757V255.152V265.152H224.313V255.152ZM220.757 255.152L211.258 252.027C204.749 271.813 196.789 293.479 187.368 317.033L196.653 320.747L205.937 324.461C215.483 300.596 223.593 278.532 230.256 258.277L220.757 255.152ZM196.653 320.747L187.333 317.122C178.016 341.078 168.854 367.51 159.841 396.404L169.387 399.382L178.934 402.359C187.834 373.825 196.849 347.833 205.973 324.371L196.653 320.747ZM169.387 399.382L169.102 389.386C159.772 389.652 151.689 390.054 144.881 390.599L145.678 400.567L146.476 410.535C152.839 410.026 160.562 409.638 169.673 409.378L169.387 399.382ZM145.678 400.567L145.279 390.575C138.607 390.842 130.896 391.241 122.155 391.771L122.76 401.753L123.364 411.734C132.01 411.21 139.578 410.819 146.078 410.559L145.678 400.567ZM122.76 401.753L132.723 402.612L145.367 256.011L135.404 255.152L125.441 254.292L112.797 400.893L122.76 401.753ZM135.404 255.152V245.152H129.477V255.152V265.152H135.404V255.152ZM129.477 255.152L119.518 254.246C119.336 256.247 118.358 261.163 116.219 269.718L125.921 272.143L135.622 274.569C137.699 266.263 139.091 259.852 139.436 256.057L129.477 255.152ZM125.921 272.143L116.238 269.644C114.141 277.772 111.646 287.224 108.754 298.003L118.413 300.594L128.071 303.185C130.975 292.363 133.486 282.847 135.604 274.642L125.921 272.143ZM118.413 300.594L108.771 297.942C105.894 308.405 102.885 318.868 99.7462 329.333L109.324 332.206L118.903 335.08C122.086 324.469 125.137 313.858 128.055 303.246L118.413 300.594ZM109.324 332.206L99.7115 329.451C87.7954 371.025 81.5714 392.536 80.8704 394.639L90.3572 397.801L99.8441 400.963C100.724 398.324 107.144 376.106 118.937 334.961L109.324 332.206ZM90.3572 397.801L89.692 387.823L24.4923 392.17L25.1575 402.148L25.8226 412.126L91.0224 407.779L90.3572 397.801ZM286.407 405.309L276.503 403.93L274.3 419.748L289.492 414.821L286.407 405.309ZM295.496 342.48L285.625 340.876L285.615 340.936L285.606 340.997L295.496 342.48ZM305.77 281.627L295.939 279.792L295.93 279.844L295.92 279.897L305.77 281.627ZM316.044 228.282L325.849 230.243L325.849 230.243L316.044 228.282ZM326.317 176.122L336.134 178.027L336.134 178.027L326.317 176.122ZM336.986 122.776L335.683 112.862L328.627 113.789L327.192 120.76L336.986 122.776ZM406.138 113.688L415.883 115.93L419.112 101.897L404.835 103.773L406.138 113.688ZM385.59 202.992L395.32 205.301L395.328 205.268L395.335 205.234L385.59 202.992ZM374.131 253.176L364.365 251.022L364.353 251.076L364.342 251.131L374.131 253.176ZM363.857 304.546L354.033 302.674L354.033 302.674L363.857 304.546ZM356.349 348.802L346.449 347.388L344.681 359.768L357.146 358.771L356.349 348.802ZM377.292 348.012V358.012H377.464L377.636 358.006L377.292 348.012ZM397.444 347.617L407.435 347.183L407.019 337.617H397.444V347.617ZM399.025 366.979L389.091 368.126L389.094 368.148L389.096 368.171L399.025 366.979ZM401.396 384.366L391.518 385.926L391.567 386.232L391.634 386.535L401.396 384.366ZM402.977 392.269V402.269H412.977V392.269H402.977ZM397.049 391.874L399.475 382.172L398.28 381.874H397.049V391.874ZM356.349 393.454L356.986 403.434L357.083 403.428L357.179 403.42L356.349 393.454ZM319.205 397.801L320.709 407.687L320.796 407.674L320.883 407.659L319.205 397.801ZM286.407 405.309L296.312 406.688C299.205 385.912 302.229 365.004 305.385 343.963L295.496 342.48L285.606 340.997C282.44 362.105 279.406 383.083 276.503 403.93L286.407 405.309ZM295.496 342.48L305.366 344.084C308.785 323.048 312.202 302.806 315.619 283.357L305.77 281.627L295.92 279.897C292.488 299.436 289.056 319.762 285.625 340.876L295.496 342.48ZM305.77 281.627L315.6 283.462C319.282 263.737 322.698 245.998 325.849 230.243L316.044 228.282L306.238 226.32C303.066 242.177 299.634 260.002 295.939 279.792L305.77 281.627ZM316.044 228.282L325.849 230.243C329.278 213.1 332.706 195.695 336.134 178.027L326.317 176.122L316.501 174.217C313.079 191.849 309.658 209.217 306.238 226.32L316.044 228.282ZM326.317 176.122L336.134 178.027C339.552 160.414 343.101 142.67 346.781 124.793L336.986 122.776L327.192 120.76C323.496 138.71 319.933 156.529 316.501 174.217L326.317 176.122ZM336.986 122.776L338.29 132.691L407.441 123.603L406.138 113.688L404.835 103.773L335.683 112.862L336.986 122.776ZM406.138 113.688L396.392 111.446L375.845 200.75L385.59 202.992L395.335 205.234L415.883 115.93L406.138 113.688ZM385.59 202.992L375.86 200.683C372.158 216.284 368.327 233.064 364.365 251.022L374.131 253.176L383.896 255.33C387.838 237.461 391.646 220.785 395.32 205.301L385.59 202.992ZM374.131 253.176L364.342 251.131C360.643 268.835 357.206 286.016 354.033 302.674L363.857 304.546L373.68 306.417C376.829 289.882 380.242 272.817 383.919 255.221L374.131 253.176ZM363.857 304.546L354.033 302.674C350.851 319.381 348.32 334.29 346.449 347.388L356.349 348.802L366.248 350.217C368.065 337.498 370.54 322.903 373.68 306.417L363.857 304.546ZM356.349 348.802L357.146 358.771C363.438 358.267 370.152 358.012 377.292 358.012V348.012V338.012C369.68 338.012 362.431 338.284 355.551 338.834L356.349 348.802ZM377.292 348.012L377.636 358.006C385.195 357.746 391.793 357.617 397.444 357.617V347.617V337.617C391.505 337.617 384.668 337.752 376.947 338.018L377.292 348.012ZM397.444 347.617L387.454 348.051C387.729 354.378 388.277 361.071 389.091 368.126L399.025 366.979L408.959 365.833C408.193 359.189 407.687 352.974 407.435 347.183L397.444 347.617ZM399.025 366.979L389.096 368.171C389.897 374.844 390.704 380.767 391.518 385.926L401.396 384.366L411.274 382.806C410.507 377.954 409.734 372.286 408.954 365.788L399.025 366.979ZM401.396 384.366L391.634 386.535C392.156 388.882 392.533 390.646 392.776 391.859C392.898 392.472 392.973 392.88 393.014 393.123C393.034 393.246 393.036 393.265 393.029 393.213C393.026 393.185 393.015 393.1 393.005 392.976C392.996 392.872 392.977 392.614 392.977 392.269H402.977H412.977C412.977 391.169 412.783 390.083 412.742 389.835C412.65 389.287 412.528 388.641 412.387 387.937C412.103 386.516 411.69 384.591 411.158 382.197L401.396 384.366ZM402.977 392.269V382.269C402.975 382.269 402.972 382.269 402.97 382.269C402.968 382.269 402.966 382.269 402.964 382.269C402.962 382.269 402.96 382.269 402.958 382.269C402.956 382.269 402.954 382.269 402.952 382.269C402.95 382.269 402.948 382.269 402.946 382.269C402.944 382.269 402.942 382.269 402.94 382.269C402.937 382.269 402.935 382.269 402.933 382.269C402.931 382.269 402.929 382.269 402.927 382.269C402.925 382.269 402.923 382.269 402.921 382.269C402.919 382.269 402.917 382.269 402.915 382.269C402.913 382.269 402.911 382.269 402.909 382.269C402.907 382.269 402.905 382.269 402.902 382.269C402.9 382.269 402.898 382.269 402.896 382.269C402.894 382.269 402.892 382.269 402.89 382.269C402.888 382.269 402.886 382.269 402.884 382.269C402.882 382.269 402.88 382.269 402.878 382.269C402.876 382.269 402.874 382.269 402.872 382.269C402.87 382.269 402.867 382.269 402.865 382.269C402.863 382.269 402.861 382.269 402.859 382.269C402.857 382.269 402.855 382.269 402.853 382.269C402.851 382.269 402.849 382.269 402.847 382.269C402.845 382.269 402.843 382.269 402.841 382.269C402.839 382.269 402.837 382.269 402.835 382.269C402.833 382.269 402.83 382.269 402.828 382.269C402.826 382.269 402.824 382.269 402.822 382.269C402.82 382.269 402.818 382.269 402.816 382.269C402.814 382.269 402.812 382.269 402.81 382.269C402.808 382.269 402.806 382.269 402.804 382.269C402.802 382.269 402.8 382.269 402.798 382.269C402.795 382.269 402.793 382.269 402.791 382.269C402.789 382.269 402.787 382.269 402.785 382.269C402.783 382.269 402.781 382.269 402.779 382.269C402.777 382.269 402.775 382.269 402.773 382.269C402.771 382.269 402.769 382.269 402.767 382.269C402.765 382.269 402.763 382.269 402.76 382.269C402.758 382.269 402.756 382.269 402.754 382.269C402.752 382.269 402.75 382.269 402.748 382.269C402.746 382.269 402.744 382.269 402.742 382.269C402.74 382.269 402.738 382.269 402.736 382.269C402.734 382.269 402.732 382.269 402.73 382.269C402.728 382.269 402.725 382.269 402.723 382.269C402.721 382.269 402.719 382.269 402.717 382.269C402.715 382.269 402.713 382.269 402.711 382.269C402.709 382.269 402.707 382.269 402.705 382.269C402.703 382.269 402.701 382.269 402.699 382.269C402.697 382.269 402.695 382.269 402.693 382.269C402.69 382.269 402.688 382.269 402.686 382.269C402.684 382.269 402.682 382.269 402.68 382.269C402.678 382.269 402.676 382.269 402.674 382.269C402.672 382.269 402.67 382.269 402.668 382.269C402.666 382.269 402.664 382.269 402.662 382.269C402.66 382.269 402.658 382.269 402.656 382.269C402.653 382.269 402.651 382.269 402.649 382.269C402.647 382.269 402.645 382.269 402.643 382.269C402.641 382.269 402.639 382.269 402.637 382.269C402.635 382.269 402.633 382.269 402.631 382.269C402.629 382.269 402.627 382.269 402.625 382.269C402.623 382.269 402.621 382.269 402.618 382.269C402.616 382.269 402.614 382.269 402.612 382.269C402.61 382.269 402.608 382.269 402.606 382.269C402.604 382.269 402.602 382.269 402.6 382.269C402.598 382.269 402.596 382.269 402.594 382.269C402.592 382.269 402.59 382.269 402.588 382.269C402.586 382.269 402.583 382.269 402.581 382.269C402.579 382.269 402.577 382.269 402.575 382.269C402.573 382.269 402.571 382.269 402.569 382.269C402.567 382.269 402.565 382.269 402.563 382.269C402.561 382.269 402.559 382.269 402.557 382.269C402.555 382.269 402.553 382.269 402.551 382.269C402.548 382.269 402.546 382.269 402.544 382.269C402.542 382.269 402.54 382.269 402.538 382.269C402.536 382.269 402.534 382.269 402.532 382.269C402.53 382.269 402.528 382.269 402.526 382.269C402.524 382.269 402.522 382.269 402.52 382.269C402.518 382.269 402.516 382.269 402.513 382.269C402.511 382.269 402.509 382.269 402.507 382.269C402.505 382.269 402.503 382.269 402.501 382.269C402.499 382.269 402.497 382.269 402.495 382.269C402.493 382.269 402.491 382.269 402.489 382.269C402.487 382.269 402.485 382.269 402.483 382.269C402.481 382.269 402.479 382.269 402.476 382.269C402.474 382.269 402.472 382.269 402.47 382.269C402.468 382.269 402.466 382.269 402.464 382.269C402.462 382.269 402.46 382.269 402.458 382.269C402.456 382.269 402.454 382.269 402.452 382.269C402.45 382.269 402.448 382.269 402.446 382.269C402.444 382.269 402.441 382.269 402.439 382.269C402.437 382.269 402.435 382.269 402.433 382.269C402.431 382.269 402.429 382.269 402.427 382.269C402.425 382.269 402.423 382.269 402.421 382.269C402.419 382.269 402.417 382.269 402.415 382.269C402.413 382.269 402.411 382.269 402.409 382.269C402.406 382.269 402.404 382.269 402.402 382.269C402.4 382.269 402.398 382.269 402.396 382.269C402.394 382.269 402.392 382.269 402.39 382.269C402.388 382.269 402.386 382.269 402.384 382.269C402.382 382.269 402.38 382.269 402.378 382.269C402.376 382.269 402.374 382.269 402.371 382.269C402.369 382.269 402.367 382.269 402.365 382.269C402.363 382.269 402.361 382.269 402.359 382.269C402.357 382.269 402.355 382.269 402.353 382.269C402.351 382.269 402.349 382.269 402.347 382.269C402.345 382.269 402.343 382.269 402.341 382.269C402.339 382.269 402.337 382.269 402.334 382.269C402.332 382.269 402.33 382.269 402.328 382.269C402.326 382.269 402.324 382.269 402.322 382.269C402.32 382.269 402.318 382.269 402.316 382.269C402.314 382.269 402.312 382.269 402.31 382.269C402.308 382.269 402.306 382.269 402.304 382.269C402.302 382.269 402.299 382.269 402.297 382.269C402.295 382.269 402.293 382.269 402.291 382.269C402.289 382.269 402.287 382.269 402.285 382.269C402.283 382.269 402.281 382.269 402.279 382.269C402.277 382.269 402.275 382.269 402.273 382.269C402.271 382.269 402.269 382.269 402.267 382.269C402.264 382.269 402.262 382.269 402.26 382.269C402.258 382.269 402.256 382.269 402.254 382.269C402.252 382.269 402.25 382.269 402.248 382.269C402.246 382.269 402.244 382.269 402.242 382.269C402.24 382.269 402.238 382.269 402.236 382.269C402.234 382.269 402.232 382.269 402.229 382.269C402.227 382.269 402.225 382.269 402.223 382.269C402.221 382.269 402.219 382.269 402.217 382.269C402.215 382.269 402.213 382.269 402.211 382.269C402.209 382.269 402.207 382.269 402.205 382.269C402.203 382.269 402.201 382.269 402.199 382.269C402.197 382.269 402.194 382.269 402.192 382.269C402.19 382.269 402.188 382.269 402.186 382.269C402.184 382.269 402.182 382.269 402.18 382.269C402.178 382.269 402.176 382.269 402.174 382.269C402.172 382.269 402.17 382.269 402.168 382.269C402.166 382.269 402.164 382.269 402.162 382.269C402.16 382.269 402.157 382.269 402.155 382.269C402.153 382.269 402.151 382.269 402.149 382.269C402.147 382.269 402.145 382.269 402.143 382.269C402.141 382.269 402.139 382.269 402.137 382.269C402.135 382.269 402.133 382.269 402.131 382.269C402.129 382.269 402.127 382.269 402.125 382.269C402.122 382.269 402.12 382.269 402.118 382.269C402.116 382.269 402.114 382.269 402.112 382.269C402.11 382.269 402.108 382.269 402.106 382.269C402.104 382.269 402.102 382.269 402.1 382.269C402.098 382.269 402.096 382.269 402.094 382.269C402.092 382.269 402.09 382.269 402.087 382.269C402.085 382.269 402.083 382.269 402.081 382.269C402.079 382.269 402.077 382.269 402.075 382.269C402.073 382.269 402.071 382.269 402.069 382.269C402.067 382.269 402.065 382.269 402.063 382.269C402.061 382.269 402.059 382.269 402.057 382.269C402.055 382.269 402.052 382.269 402.05 382.269C402.048 382.269 402.046 382.269 402.044 382.269C402.042 382.269 402.04 382.269 402.038 382.269C402.036 382.269 402.034 382.269 402.032 382.269C402.03 382.269 402.028 382.269 402.026 382.269C402.024 382.269 402.022 382.269 402.02 382.269C402.018 382.269 402.015 382.269 402.013 382.269C402.011 382.269 402.009 382.269 402.007 382.269C402.005 382.269 402.003 382.269 402.001 382.269C401.999 382.269 401.997 382.269 401.995 382.269C401.993 382.269 401.991 382.269 401.989 382.269C401.987 382.269 401.985 382.269 401.983 382.269C401.98 382.269 401.978 382.269 401.976 382.269C401.974 382.269 401.972 382.269 401.97 382.269C401.968 382.269 401.966 382.269 401.964 382.269C401.962 382.269 401.96 382.269 401.958 382.269C401.956 382.269 401.954 382.269 401.952 382.269C401.95 382.269 401.948 382.269 401.945 382.269C401.943 382.269 401.941 382.269 401.939 382.269C401.937 382.269 401.935 382.269 401.933 382.269C401.931 382.269 401.929 382.269 401.927 382.269C401.925 382.269 401.923 382.269 401.921 382.269C401.919 382.269 401.917 382.269 401.915 382.269C401.913 382.269 401.91 382.269 401.908 382.269C401.906 382.269 401.904 382.269 401.902 382.269C401.9 382.269 401.898 382.269 401.896 382.269C401.894 382.269 401.892 382.269 401.89 382.269C401.888 382.269 401.886 382.269 401.884 382.269C401.882 382.269 401.88 382.269 401.878 382.269C401.875 382.269 401.873 382.269 401.871 382.269C401.869 382.269 401.867 382.269 401.865 382.269C401.863 382.269 401.861 382.269 401.859 382.269C401.857 382.269 401.855 382.269 401.853 382.269C401.851 382.269 401.849 382.269 401.847 382.269C401.845 382.269 401.843 382.269 401.841 382.269C401.838 382.269 401.836 382.269 401.834 382.269C401.832 382.269 401.83 382.269 401.828 382.269C401.826 382.269 401.824 382.269 401.822 382.269C401.82 382.269 401.818 382.269 401.816 382.269C401.814 382.269 401.812 382.269 401.81 382.269C401.808 382.269 401.806 382.269 401.803 382.269C401.801 382.269 401.799 382.269 401.797 382.269C401.795 382.269 401.793 382.269 401.791 382.269C401.789 382.269 401.787 382.269 401.785 382.269C401.783 382.269 401.781 382.269 401.779 382.269C401.777 382.269 401.775 382.269 401.773 382.269C401.771 382.269 401.768 382.269 401.766 382.269C401.764 382.269 401.762 382.269 401.76 382.269C401.758 382.269 401.756 382.269 401.754 382.269C401.752 382.269 401.75 382.269 401.748 382.269C401.746 382.269 401.744 382.269 401.742 382.269C401.74 382.269 401.738 382.269 401.736 382.269C401.733 382.269 401.731 382.269 401.729 382.269C401.727 382.269 401.725 382.269 401.723 382.269C401.721 382.269 401.719 382.269 401.717 382.269C401.715 382.269 401.713 382.269 401.711 382.269C401.709 382.269 401.707 382.269 401.705 382.269C401.703 382.269 401.701 382.269 401.699 382.269C401.696 382.269 401.694 382.269 401.692 382.269C401.69 382.269 401.688 382.269 401.686 382.269C401.684 382.269 401.682 382.269 401.68 382.269C401.678 382.269 401.676 382.269 401.674 382.269C401.672 382.269 401.67 382.269 401.668 382.269C401.666 382.269 401.664 382.269 401.661 382.269C401.659 382.269 401.657 382.269 401.655 382.269C401.653 382.269 401.651 382.269 401.649 382.269C401.647 382.269 401.645 382.269 401.643 382.269C401.641 382.269 401.639 382.269 401.637 382.269C401.635 382.269 401.633 382.269 401.631 382.269C401.629 382.269 401.626 382.269 401.624 382.269C401.622 382.269 401.62 382.269 401.618 382.269C401.616 382.269 401.614 382.269 401.612 382.269C401.61 382.269 401.608 382.269 401.606 382.269C401.604 382.269 401.602 382.269 401.6 382.269C401.598 382.269 401.596 382.269 401.594 382.269C401.591 382.269 401.589 382.269 401.587 382.269C401.585 382.269 401.583 382.269 401.581 382.269C401.579 382.269 401.577 382.269 401.575 382.269C401.573 382.269 401.571 382.269 401.569 382.269C401.567 382.269 401.565 382.269 401.563 382.269C401.561 382.269 401.559 382.269 401.556 382.269C401.554 382.269 401.552 382.269 401.55 382.269C401.548 382.269 401.546 382.269 401.544 382.269C401.542 382.269 401.54 382.269 401.538 382.269C401.536 382.269 401.534 382.269 401.532 382.269C401.53 382.269 401.528 382.269 401.526 382.269C401.524 382.269 401.522 382.269 401.519 382.269C401.517 382.269 401.515 382.269 401.513 382.269C401.511 382.269 401.509 382.269 401.507 382.269C401.505 382.269 401.503 382.269 401.501 382.269C401.499 382.269 401.497 382.269 401.495 382.269C401.493 382.269 401.491 382.269 401.489 382.269C401.487 382.269 401.484 382.269 401.482 382.269C401.48 382.269 401.478 382.269 401.476 382.269C401.474 382.269 401.472 382.269 401.47 382.269C401.468 382.269 401.466 382.269 401.464 382.269C401.462 382.269 401.46 382.269 401.458 382.269C401.456 382.269 401.454 382.269 401.452 382.269C401.449 382.269 401.447 382.269 401.445 382.269C401.443 382.269 401.441 382.269 401.439 382.269C401.437 382.269 401.435 382.269 401.433 382.269C401.431 382.269 401.429 382.269 401.427 382.269C401.425 382.269 401.423 382.269 401.421 382.269C401.419 382.269 401.417 382.269 401.414 382.269C401.412 382.269 401.41 382.269 401.408 382.269C401.406 382.269 401.404 382.269 401.402 382.269C401.4 382.269 401.398 382.269 401.396 382.269C401.394 382.269 401.392 382.269 401.39 382.269C401.388 382.269 401.386 382.269 401.384 382.269C401.382 382.269 401.38 382.269 401.377 382.269C401.375 382.269 401.373 382.269 401.371 382.269C401.369 382.269 401.367 382.269 401.365 382.269C401.363 382.269 401.361 382.269 401.359 382.269C401.357 382.269 401.355 382.269 401.353 382.269C401.351 382.269 401.349 382.269 401.347 382.269C401.345 382.269 401.342 382.269 401.34 382.269C401.338 382.269 401.336 382.269 401.334 382.269C401.332 382.269 401.33 382.269 401.328 382.269C401.326 382.269 401.324 382.269 401.322 382.269C401.32 382.269 401.318 382.269 401.316 382.269C401.314 382.269 401.312 382.269 401.31 382.269C401.307 382.269 401.305 382.269 401.303 382.269C401.301 382.269 401.299 382.269 401.297 382.269C401.295 382.269 401.293 382.269 401.291 382.269C401.289 382.269 401.287 382.269 401.285 382.269C401.283 382.269 401.281 382.269 401.279 382.269C401.277 382.269 401.275 382.269 401.272 382.269C401.27 382.269 401.268 382.269 401.266 382.269C401.264 382.269 401.262 382.269 401.26 382.269C401.258 382.269 401.256 382.269 401.254 382.269C401.252 382.269 401.25 382.269 401.248 382.269C401.246 382.269 401.244 382.269 401.242 382.269C401.24 382.269 401.237 382.269 401.235 382.269C401.233 382.269 401.231 382.269 401.229 382.269C401.227 382.269 401.225 382.269 401.223 382.269C401.221 382.269 401.219 382.269 401.217 382.269C401.215 382.269 401.213 382.269 401.211 382.269C401.209 382.269 401.207 382.269 401.205 382.269C401.203 382.269 401.2 382.269 401.198 382.269C401.196 382.269 401.194 382.269 401.192 382.269C401.19 382.269 401.188 382.269 401.186 382.269C401.184 382.269 401.182 382.269 401.18 382.269C401.178 382.269 401.176 382.269 401.174 382.269C401.172 382.269 401.17 382.269 401.168 382.269C401.165 382.269 401.163 382.269 401.161 382.269C401.159 382.269 401.157 382.269 401.155 382.269C401.153 382.269 401.151 382.269 401.149 382.269C401.147 382.269 401.145 382.269 401.143 382.269C401.141 382.269 401.139 382.269 401.137 382.269C401.135 382.269 401.133 382.269 401.13 382.269C401.128 382.269 401.126 382.269 401.124 382.269C401.122 382.269 401.12 382.269 401.118 382.269C401.116 382.269 401.114 382.269 401.112 382.269C401.11 382.269 401.108 382.269 401.106 382.269C401.104 382.269 401.102 382.269 401.1 382.269C401.098 382.269 401.095 382.269 401.093 382.269C401.091 382.269 401.089 382.269 401.087 382.269C401.085 382.269 401.083 382.269 401.081 382.269C401.079 382.269 401.077 382.269 401.075 382.269C401.073 382.269 401.071 382.269 401.069 382.269C401.067 382.269 401.065 382.269 401.063 382.269C401.06 382.269 401.058 382.269 401.056 382.269C401.054 382.269 401.052 382.269 401.05 382.269C401.048 382.269 401.046 382.269 401.044 382.269C401.042 382.269 401.04 382.269 401.038 382.269C401.036 382.269 401.034 382.269 401.032 382.269C401.03 382.269 401.028 382.269 401.026 382.269C401.023 382.269 401.021 382.269 401.019 382.269C401.017 382.269 401.015 382.269 401.013 382.269C401.011 382.269 401.009 382.269 401.007 382.269C401.005 382.269 401.003 382.269 401.001 382.269C400.999 382.269 400.997 382.269 400.995 382.269C400.993 382.269 400.991 382.269 400.988 382.269C400.986 382.269 400.984 382.269 400.982 382.269C400.98 382.269 400.978 382.269 400.976 382.269C400.974 382.269 400.972 382.269 400.97 382.269C400.968 382.269 400.966 382.269 400.964 382.269C400.962 382.269 400.96 382.269 400.958 382.269C400.956 382.269 400.953 382.269 400.951 382.269C400.949 382.269 400.947 382.269 400.945 382.269C400.943 382.269 400.941 382.269 400.939 382.269C400.937 382.269 400.935 382.269 400.933 382.269C400.931 382.269 400.929 382.269 400.927 382.269C400.925 382.269 400.923 382.269 400.921 382.269C400.918 382.269 400.916 382.269 400.914 382.269C400.912 382.269 400.91 382.269 400.908 382.269C400.906 382.269 400.904 382.269 400.902 382.269C400.9 382.269 400.898 382.269 400.896 382.269C400.894 382.269 400.892 382.269 400.89 382.269C400.888 382.269 400.886 382.269 400.884 382.269C400.881 382.269 400.879 382.269 400.877 382.269C400.875 382.269 400.873 382.269 400.871 382.269C400.869 382.269 400.867 382.269 400.865 382.269C400.863 382.269 400.861 382.269 400.859 382.269C400.857 382.269 400.855 382.269 400.853 382.269C400.851 382.269 400.849 382.269 400.846 382.269C400.844 382.269 400.842 382.269 400.84 382.269C400.838 382.269 400.836 382.269 400.834 382.269C400.832 382.269 400.83 382.269 400.828 382.269C400.826 382.269 400.824 382.269 400.822 382.269C400.82 382.269 400.818 382.269 400.816 382.269C400.814 382.269 400.811 382.269 400.809 382.269C400.807 382.269 400.805 382.269 400.803 382.269C400.801 382.269 400.799 382.269 400.797 382.269C400.795 382.269 400.793 382.269 400.791 382.269C400.789 382.269 400.787 382.269 400.785 382.269C400.783 382.269 400.781 382.269 400.779 382.269C400.776 382.269 400.774 382.269 400.772 382.269C400.77 382.269 400.768 382.269 400.766 382.269C400.764 382.269 400.762 382.269 400.76 382.269C400.758 382.269 400.756 382.269 400.754 382.269C400.752 382.269 400.75 382.269 400.748 382.269C400.746 382.269 400.744 382.269 400.741 382.269C400.739 382.269 400.737 382.269 400.735 382.269C400.733 382.269 400.731 382.269 400.729 382.269C400.727 382.269 400.725 382.269 400.723 382.269C400.721 382.269 400.719 382.269 400.717 382.269C400.715 382.269 400.713 382.269 400.711 382.269C400.709 382.269 400.707 382.269 400.704 382.269C400.702 382.269 400.7 382.269 400.698 382.269C400.696 382.269 400.694 382.269 400.692 382.269C400.69 382.269 400.688 382.269 400.686 382.269C400.684 382.269 400.682 382.269 400.68 382.269C400.678 382.269 400.676 382.269 400.674 382.269C400.672 382.269 400.669 382.269 400.667 382.269C400.665 382.269 400.663 382.269 400.661 382.269C400.659 382.269 400.657 382.269 400.655 382.269C400.653 382.269 400.651 382.269 400.649 382.269C400.647 382.269 400.645 382.269 400.643 382.269C400.641 382.269 400.639 382.269 400.637 382.269C400.634 382.269 400.632 382.269 400.63 382.269C400.628 382.269 400.626 382.269 400.624 382.269C400.622 382.269 400.62 382.269 400.618 382.269C400.616 382.269 400.614 382.269 400.612 382.269C400.61 382.269 400.608 382.269 400.606 382.269C400.604 382.269 400.602 382.269 400.599 382.269C400.597 382.269 400.595 382.269 400.593 382.269C400.591 382.269 400.589 382.269 400.587 382.269C400.585 382.269 400.583 382.269 400.581 382.269C400.579 382.269 400.577 382.269 400.575 382.269C400.573 382.269 400.571 382.269 400.569 382.269C400.567 382.269 400.565 382.269 400.562 382.269C400.56 382.269 400.558 382.269 400.556 382.269C400.554 382.269 400.552 382.269 400.55 382.269C400.548 382.269 400.546 382.269 400.544 382.269C400.542 382.269 400.54 382.269 400.538 382.269C400.536 382.269 400.534 382.269 400.532 382.269C400.53 382.269 400.527 382.269 400.525 382.269C400.523 382.269 400.521 382.269 400.519 382.269C400.517 382.269 400.515 382.269 400.513 382.269C400.511 382.269 400.509 382.269 400.507 382.269C400.505 382.269 400.503 382.269 400.501 382.269C400.499 382.269 400.497 382.269 400.495 382.269C400.492 382.269 400.49 382.269 400.488 382.269C400.486 382.269 400.484 382.269 400.482 382.269C400.48 382.269 400.478 382.269 400.476 382.269C400.474 382.269 400.472 382.269 400.47 382.269C400.468 382.269 400.466 382.269 400.464 382.269C400.462 382.269 400.46 382.269 400.457 382.269C400.455 382.269 400.453 382.269 400.451 382.269C400.449 382.269 400.447 382.269 400.445 382.269C400.443 382.269 400.441 382.269 400.439 382.269C400.437 382.269 400.435 382.269 400.433 382.269C400.431 382.269 400.429 382.269 400.427 382.269C400.425 382.269 400.422 382.269 400.42 382.269C400.418 382.269 400.416 382.269 400.414 382.269C400.412 382.269 400.41 382.269 400.408 382.269C400.406 382.269 400.404 382.269 400.402 382.269C400.4 382.269 400.398 382.269 400.396 382.269C400.394 382.269 400.392 382.269 400.39 382.269C400.388 382.269 400.385 382.269 400.383 382.269C400.381 382.269 400.379 382.269 400.377 382.269C400.375 382.269 400.373 382.269 400.371 382.269C400.369 382.269 400.367 382.269 400.365 382.269C400.363 382.269 400.361 382.269 400.359 382.269C400.357 382.269 400.355 382.269 400.353 382.269C400.35 382.269 400.348 382.269 400.346 382.269C400.344 382.269 400.342 382.269 400.34 382.269C400.338 382.269 400.336 382.269 400.334 382.269C400.332 382.269 400.33 382.269 400.328 382.269C400.326 382.269 400.324 382.269 400.322 382.269C400.32 382.269 400.318 382.269 400.315 382.269C400.313 382.269 400.311 382.269 400.309 382.269C400.307 382.269 400.305 382.269 400.303 382.269C400.301 382.269 400.299 382.269 400.297 382.269C400.295 382.269 400.293 382.269 400.291 382.269C400.289 382.269 400.287 382.269 400.285 382.269C400.283 382.269 400.28 382.269 400.278 382.269C400.276 382.269 400.274 382.269 400.272 382.269C400.27 382.269 400.268 382.269 400.266 382.269C400.264 382.269 400.262 382.269 400.26 382.269C400.258 382.269 400.256 382.269 400.254 382.269C400.252 382.269 400.25 382.269 400.248 382.269C400.246 382.269 400.243 382.269 400.241 382.269C400.239 382.269 400.237 382.269 400.235 382.269C400.233 382.269 400.231 382.269 400.229 382.269C400.227 382.269 400.225 382.269 400.223 382.269C400.221 382.269 400.219 382.269 400.217 382.269C400.215 382.269 400.213 382.269 400.211 382.269C400.208 382.269 400.206 382.269 400.204 382.269C400.202 382.269 400.2 382.269 400.198 382.269C400.196 382.269 400.194 382.269 400.192 382.269C400.19 382.269 400.188 382.269 400.186 382.269C400.184 382.269 400.182 382.269 400.18 382.269C400.178 382.269 400.176 382.269 400.173 382.269C400.171 382.269 400.169 382.269 400.167 382.269C400.165 382.269 400.163 382.269 400.161 382.269C400.159 382.269 400.157 382.269 400.155 382.269C400.153 382.269 400.151 382.269 400.149 382.269C400.147 382.269 400.145 382.269 400.143 382.269C400.141 382.269 400.138 382.269 400.136 382.269C400.134 382.269 400.132 382.269 400.13 382.269C400.128 382.269 400.126 382.269 400.124 382.269C400.122 382.269 400.12 382.269 400.118 382.269C400.116 382.269 400.114 382.269 400.112 382.269C400.11 382.269 400.108 382.269 400.106 382.269C400.103 382.269 400.101 382.269 400.099 382.269C400.097 382.269 400.095 382.269 400.093 382.269C400.091 382.269 400.089 382.269 400.087 382.269C400.085 382.269 400.083 382.269 400.081 382.269C400.079 382.269 400.077 382.269 400.075 382.269C400.073 382.269 400.071 382.269 400.069 382.269C400.066 382.269 400.064 382.269 400.062 382.269C400.06 382.269 400.058 382.269 400.056 382.269C400.054 382.269 400.052 382.269 400.05 382.269C400.048 382.269 400.046 382.269 400.044 382.269C400.042 382.269 400.04 382.269 400.038 382.269C400.036 382.269 400.034 382.269 400.031 382.269C400.029 382.269 400.027 382.269 400.025 382.269C400.023 382.269 400.021 382.269 400.019 382.269C400.017 382.269 400.015 382.269 400.013 382.269C400.011 382.269 400.009 382.269 400.007 382.269C400.005 382.269 400.003 382.269 400.001 382.269C399.999 382.269 399.996 382.269 399.994 382.269C399.992 382.269 399.99 382.269 399.988 382.269C399.986 382.269 399.984 382.269 399.982 382.269C399.98 382.269 399.978 382.269 399.976 382.269C399.974 382.269 399.972 382.269 399.97 382.269C399.968 382.269 399.966 382.269 399.964 382.269C399.961 382.269 399.959 382.269 399.957 382.269C399.955 382.269 399.953 382.269 399.951 382.269C399.949 382.269 399.947 382.269 399.945 382.269C399.943 382.269 399.941 382.269 399.939 382.269C399.937 382.269 399.935 382.269 399.933 382.269C399.931 382.269 399.929 382.269 399.927 382.269C399.924 382.269 399.922 382.269 399.92 382.269C399.918 382.269 399.916 382.269 399.914 382.269C399.912 382.269 399.91 382.269 399.908 382.269C399.906 382.269 399.904 382.269 399.902 382.269C399.9 382.269 399.898 382.269 399.896 382.269C399.894 382.269 399.892 382.269 399.889 382.269C399.887 382.269 399.885 382.269 399.883 382.269C399.881 382.269 399.879 382.269 399.877 382.269C399.875 382.269 399.873 382.269 399.871 382.269C399.869 382.269 399.867 382.269 399.865 382.269C399.863 382.269 399.861 382.269 399.859 382.269C399.857 382.269 399.854 382.269 399.852 382.269C399.85 382.269 399.848 382.269 399.846 382.269C399.844 382.269 399.842 382.269 399.84 382.269C399.838 382.269 399.836 382.269 399.834 382.269C399.832 382.269 399.83 382.269 399.828 382.269C399.826 382.269 399.824 382.269 399.822 382.269C399.819 382.269 399.817 382.269 399.815 382.269V392.269V402.269C399.817 402.269 399.819 402.269 399.822 402.269C399.824 402.269 399.826 402.269 399.828 402.269C399.83 402.269 399.832 402.269 399.834 402.269C399.836 402.269 399.838 402.269 399.84 402.269C399.842 402.269 399.844 402.269 399.846 402.269C399.848 402.269 399.85 402.269 399.852 402.269C399.854 402.269 399.857 402.269 399.859 402.269C399.861 402.269 399.863 402.269 399.865 402.269C399.867 402.269 399.869 402.269 399.871 402.269C399.873 402.269 399.875 402.269 399.877 402.269C399.879 402.269 399.881 402.269 399.883 402.269C399.885 402.269 399.887 402.269 399.889 402.269C399.892 402.269 399.894 402.269 399.896 402.269C399.898 402.269 399.9 402.269 399.902 402.269C399.904 402.269 399.906 402.269 399.908 402.269C399.91 402.269 399.912 402.269 399.914 402.269C399.916 402.269 399.918 402.269 399.92 402.269C399.922 402.269 399.924 402.269 399.927 402.269C399.929 402.269 399.931 402.269 399.933 402.269C399.935 402.269 399.937 402.269 399.939 402.269C399.941 402.269 399.943 402.269 399.945 402.269C399.947 402.269 399.949 402.269 399.951 402.269C399.953 402.269 399.955 402.269 399.957 402.269C399.959 402.269 399.961 402.269 399.964 402.269C399.966 402.269 399.968 402.269 399.97 402.269C399.972 402.269 399.974 402.269 399.976 402.269C399.978 402.269 399.98 402.269 399.982 402.269C399.984 402.269 399.986 402.269 399.988 402.269C399.99 402.269 399.992 402.269 399.994 402.269C399.996 402.269 399.999 402.269 400.001 402.269C400.003 402.269 400.005 402.269 400.007 402.269C400.009 402.269 400.011 402.269 400.013 402.269C400.015 402.269 400.017 402.269 400.019 402.269C400.021 402.269 400.023 402.269 400.025 402.269C400.027 402.269 400.029 402.269 400.031 402.269C400.034 402.269 400.036 402.269 400.038 402.269C400.04 402.269 400.042 402.269 400.044 402.269C400.046 402.269 400.048 402.269 400.05 402.269C400.052 402.269 400.054 402.269 400.056 402.269C400.058 402.269 400.06 402.269 400.062 402.269C400.064 402.269 400.066 402.269 400.069 402.269C400.071 402.269 400.073 402.269 400.075 402.269C400.077 402.269 400.079 402.269 400.081 402.269C400.083 402.269 400.085 402.269 400.087 402.269C400.089 402.269 400.091 402.269 400.093 402.269C400.095 402.269 400.097 402.269 400.099 402.269C400.101 402.269 400.103 402.269 400.106 402.269C400.108 402.269 400.11 402.269 400.112 402.269C400.114 402.269 400.116 402.269 400.118 402.269C400.12 402.269 400.122 402.269 400.124 402.269C400.126 402.269 400.128 402.269 400.13 402.269C400.132 402.269 400.134 402.269 400.136 402.269C400.138 402.269 400.141 402.269 400.143 402.269C400.145 402.269 400.147 402.269 400.149 402.269C400.151 402.269 400.153 402.269 400.155 402.269C400.157 402.269 400.159 402.269 400.161 402.269C400.163 402.269 400.165 402.269 400.167 402.269C400.169 402.269 400.171 402.269 400.173 402.269C400.176 402.269 400.178 402.269 400.18 402.269C400.182 402.269 400.184 402.269 400.186 402.269C400.188 402.269 400.19 402.269 400.192 402.269C400.194 402.269 400.196 402.269 400.198 402.269C400.2 402.269 400.202 402.269 400.204 402.269C400.206 402.269 400.208 402.269 400.211 402.269C400.213 402.269 400.215 402.269 400.217 402.269C400.219 402.269 400.221 402.269 400.223 402.269C400.225 402.269 400.227 402.269 400.229 402.269C400.231 402.269 400.233 402.269 400.235 402.269C400.237 402.269 400.239 402.269 400.241 402.269C400.243 402.269 400.246 402.269 400.248 402.269C400.25 402.269 400.252 402.269 400.254 402.269C400.256 402.269 400.258 402.269 400.26 402.269C400.262 402.269 400.264 402.269 400.266 402.269C400.268 402.269 400.27 402.269 400.272 402.269C400.274 402.269 400.276 402.269 400.278 402.269C400.28 402.269 400.283 402.269 400.285 402.269C400.287 402.269 400.289 402.269 400.291 402.269C400.293 402.269 400.295 402.269 400.297 402.269C400.299 402.269 400.301 402.269 400.303 402.269C400.305 402.269 400.307 402.269 400.309 402.269C400.311 402.269 400.313 402.269 400.315 402.269C400.318 402.269 400.32 402.269 400.322 402.269C400.324 402.269 400.326 402.269 400.328 402.269C400.33 402.269 400.332 402.269 400.334 402.269C400.336 402.269 400.338 402.269 400.34 402.269C400.342 402.269 400.344 402.269 400.346 402.269C400.348 402.269 400.35 402.269 400.353 402.269C400.355 402.269 400.357 402.269 400.359 402.269C400.361 402.269 400.363 402.269 400.365 402.269C400.367 402.269 400.369 402.269 400.371 402.269C400.373 402.269 400.375 402.269 400.377 402.269C400.379 402.269 400.381 402.269 400.383 402.269C400.385 402.269 400.388 402.269 400.39 402.269C400.392 402.269 400.394 402.269 400.396 402.269C400.398 402.269 400.4 402.269 400.402 402.269C400.404 402.269 400.406 402.269 400.408 402.269C400.41 402.269 400.412 402.269 400.414 402.269C400.416 402.269 400.418 402.269 400.42 402.269C400.422 402.269 400.425 402.269 400.427 402.269C400.429 402.269 400.431 402.269 400.433 402.269C400.435 402.269 400.437 402.269 400.439 402.269C400.441 402.269 400.443 402.269 400.445 402.269C400.447 402.269 400.449 402.269 400.451 402.269C400.453 402.269 400.455 402.269 400.457 402.269C400.46 402.269 400.462 402.269 400.464 402.269C400.466 402.269 400.468 402.269 400.47 402.269C400.472 402.269 400.474 402.269 400.476 402.269C400.478 402.269 400.48 402.269 400.482 402.269C400.484 402.269 400.486 402.269 400.488 402.269C400.49 402.269 400.492 402.269 400.495 402.269C400.497 402.269 400.499 402.269 400.501 402.269C400.503 402.269 400.505 402.269 400.507 402.269C400.509 402.269 400.511 402.269 400.513 402.269C400.515 402.269 400.517 402.269 400.519 402.269C400.521 402.269 400.523 402.269 400.525 402.269C400.527 402.269 400.53 402.269 400.532 402.269C400.534 402.269 400.536 402.269 400.538 402.269C400.54 402.269 400.542 402.269 400.544 402.269C400.546 402.269 400.548 402.269 400.55 402.269C400.552 402.269 400.554 402.269 400.556 402.269C400.558 402.269 400.56 402.269 400.562 402.269C400.565 402.269 400.567 402.269 400.569 402.269C400.571 402.269 400.573 402.269 400.575 402.269C400.577 402.269 400.579 402.269 400.581 402.269C400.583 402.269 400.585 402.269 400.587 402.269C400.589 402.269 400.591 402.269 400.593 402.269C400.595 402.269 400.597 402.269 400.599 402.269C400.602 402.269 400.604 402.269 400.606 402.269C400.608 402.269 400.61 402.269 400.612 402.269C400.614 402.269 400.616 402.269 400.618 402.269C400.62 402.269 400.622 402.269 400.624 402.269C400.626 402.269 400.628 402.269 400.63 402.269C400.632 402.269 400.634 402.269 400.637 402.269C400.639 402.269 400.641 402.269 400.643 402.269C400.645 402.269 400.647 402.269 400.649 402.269C400.651 402.269 400.653 402.269 400.655 402.269C400.657 402.269 400.659 402.269 400.661 402.269C400.663 402.269 400.665 402.269 400.667 402.269C400.669 402.269 400.672 402.269 400.674 402.269C400.676 402.269 400.678 402.269 400.68 402.269C400.682 402.269 400.684 402.269 400.686 402.269C400.688 402.269 400.69 402.269 400.692 402.269C400.694 402.269 400.696 402.269 400.698 402.269C400.7 402.269 400.702 402.269 400.704 402.269C400.707 402.269 400.709 402.269 400.711 402.269C400.713 402.269 400.715 402.269 400.717 402.269C400.719 402.269 400.721 402.269 400.723 402.269C400.725 402.269 400.727 402.269 400.729 402.269C400.731 402.269 400.733 402.269 400.735 402.269C400.737 402.269 400.739 402.269 400.741 402.269C400.744 402.269 400.746 402.269 400.748 402.269C400.75 402.269 400.752 402.269 400.754 402.269C400.756 402.269 400.758 402.269 400.76 402.269C400.762 402.269 400.764 402.269 400.766 402.269C400.768 402.269 400.77 402.269 400.772 402.269C400.774 402.269 400.776 402.269 400.779 402.269C400.781 402.269 400.783 402.269 400.785 402.269C400.787 402.269 400.789 402.269 400.791 402.269C400.793 402.269 400.795 402.269 400.797 402.269C400.799 402.269 400.801 402.269 400.803 402.269C400.805 402.269 400.807 402.269 400.809 402.269C400.811 402.269 400.814 402.269 400.816 402.269C400.818 402.269 400.82 402.269 400.822 402.269C400.824 402.269 400.826 402.269 400.828 402.269C400.83 402.269 400.832 402.269 400.834 402.269C400.836 402.269 400.838 402.269 400.84 402.269C400.842 402.269 400.844 402.269 400.846 402.269C400.849 402.269 400.851 402.269 400.853 402.269C400.855 402.269 400.857 402.269 400.859 402.269C400.861 402.269 400.863 402.269 400.865 402.269C400.867 402.269 400.869 402.269 400.871 402.269C400.873 402.269 400.875 402.269 400.877 402.269C400.879 402.269 400.881 402.269 400.884 402.269C400.886 402.269 400.888 402.269 400.89 402.269C400.892 402.269 400.894 402.269 400.896 402.269C400.898 402.269 400.9 402.269 400.902 402.269C400.904 402.269 400.906 402.269 400.908 402.269C400.91 402.269 400.912 402.269 400.914 402.269C400.916 402.269 400.918 402.269 400.921 402.269C400.923 402.269 400.925 402.269 400.927 402.269C400.929 402.269 400.931 402.269 400.933 402.269C400.935 402.269 400.937 402.269 400.939 402.269C400.941 402.269 400.943 402.269 400.945 402.269C400.947 402.269 400.949 402.269 400.951 402.269C400.953 402.269 400.956 402.269 400.958 402.269C400.96 402.269 400.962 402.269 400.964 402.269C400.966 402.269 400.968 402.269 400.97 402.269C400.972 402.269 400.974 402.269 400.976 402.269C400.978 402.269 400.98 402.269 400.982 402.269C400.984 402.269 400.986 402.269 400.988 402.269C400.991 402.269 400.993 402.269 400.995 402.269C400.997 402.269 400.999 402.269 401.001 402.269C401.003 402.269 401.005 402.269 401.007 402.269C401.009 402.269 401.011 402.269 401.013 402.269C401.015 402.269 401.017 402.269 401.019 402.269C401.021 402.269 401.023 402.269 401.026 402.269C401.028 402.269 401.03 402.269 401.032 402.269C401.034 402.269 401.036 402.269 401.038 402.269C401.04 402.269 401.042 402.269 401.044 402.269C401.046 402.269 401.048 402.269 401.05 402.269C401.052 402.269 401.054 402.269 401.056 402.269C401.058 402.269 401.06 402.269 401.063 402.269C401.065 402.269 401.067 402.269 401.069 402.269C401.071 402.269 401.073 402.269 401.075 402.269C401.077 402.269 401.079 402.269 401.081 402.269C401.083 402.269 401.085 402.269 401.087 402.269C401.089 402.269 401.091 402.269 401.093 402.269C401.095 402.269 401.098 402.269 401.1 402.269C401.102 402.269 401.104 402.269 401.106 402.269C401.108 402.269 401.11 402.269 401.112 402.269C401.114 402.269 401.116 402.269 401.118 402.269C401.12 402.269 401.122 402.269 401.124 402.269C401.126 402.269 401.128 402.269 401.13 402.269C401.133 402.269 401.135 402.269 401.137 402.269C401.139 402.269 401.141 402.269 401.143 402.269C401.145 402.269 401.147 402.269 401.149 402.269C401.151 402.269 401.153 402.269 401.155 402.269C401.157 402.269 401.159 402.269 401.161 402.269C401.163 402.269 401.165 402.269 401.168 402.269C401.17 402.269 401.172 402.269 401.174 402.269C401.176 402.269 401.178 402.269 401.18 402.269C401.182 402.269 401.184 402.269 401.186 402.269C401.188 402.269 401.19 402.269 401.192 402.269C401.194 402.269 401.196 402.269 401.198 402.269C401.2 402.269 401.203 402.269 401.205 402.269C401.207 402.269 401.209 402.269 401.211 402.269C401.213 402.269 401.215 402.269 401.217 402.269C401.219 402.269 401.221 402.269 401.223 402.269C401.225 402.269 401.227 402.269 401.229 402.269C401.231 402.269 401.233 402.269 401.235 402.269C401.237 402.269 401.24 402.269 401.242 402.269C401.244 402.269 401.246 402.269 401.248 402.269C401.25 402.269 401.252 402.269 401.254 402.269C401.256 402.269 401.258 402.269 401.26 402.269C401.262 402.269 401.264 402.269 401.266 402.269C401.268 402.269 401.27 402.269 401.272 402.269C401.275 402.269 401.277 402.269 401.279 402.269C401.281 402.269 401.283 402.269 401.285 402.269C401.287 402.269 401.289 402.269 401.291 402.269C401.293 402.269 401.295 402.269 401.297 402.269C401.299 402.269 401.301 402.269 401.303 402.269C401.305 402.269 401.307 402.269 401.31 402.269C401.312 402.269 401.314 402.269 401.316 402.269C401.318 402.269 401.32 402.269 401.322 402.269C401.324 402.269 401.326 402.269 401.328 402.269C401.33 402.269 401.332 402.269 401.334 402.269C401.336 402.269 401.338 402.269 401.34 402.269C401.342 402.269 401.345 402.269 401.347 402.269C401.349 402.269 401.351 402.269 401.353 402.269C401.355 402.269 401.357 402.269 401.359 402.269C401.361 402.269 401.363 402.269 401.365 402.269C401.367 402.269 401.369 402.269 401.371 402.269C401.373 402.269 401.375 402.269 401.377 402.269C401.38 402.269 401.382 402.269 401.384 402.269C401.386 402.269 401.388 402.269 401.39 402.269C401.392 402.269 401.394 402.269 401.396 402.269C401.398 402.269 401.4 402.269 401.402 402.269C401.404 402.269 401.406 402.269 401.408 402.269C401.41 402.269 401.412 402.269 401.414 402.269C401.417 402.269 401.419 402.269 401.421 402.269C401.423 402.269 401.425 402.269 401.427 402.269C401.429 402.269 401.431 402.269 401.433 402.269C401.435 402.269 401.437 402.269 401.439 402.269C401.441 402.269 401.443 402.269 401.445 402.269C401.447 402.269 401.449 402.269 401.452 402.269C401.454 402.269 401.456 402.269 401.458 402.269C401.46 402.269 401.462 402.269 401.464 402.269C401.466 402.269 401.468 402.269 401.47 402.269C401.472 402.269 401.474 402.269 401.476 402.269C401.478 402.269 401.48 402.269 401.482 402.269C401.484 402.269 401.487 402.269 401.489 402.269C401.491 402.269 401.493 402.269 401.495 402.269C401.497 402.269 401.499 402.269 401.501 402.269C401.503 402.269 401.505 402.269 401.507 402.269C401.509 402.269 401.511 402.269 401.513 402.269C401.515 402.269 401.517 402.269 401.519 402.269C401.522 402.269 401.524 402.269 401.526 402.269C401.528 402.269 401.53 402.269 401.532 402.269C401.534 402.269 401.536 402.269 401.538 402.269C401.54 402.269 401.542 402.269 401.544 402.269C401.546 402.269 401.548 402.269 401.55 402.269C401.552 402.269 401.554 402.269 401.556 402.269C401.559 402.269 401.561 402.269 401.563 402.269C401.565 402.269 401.567 402.269 401.569 402.269C401.571 402.269 401.573 402.269 401.575 402.269C401.577 402.269 401.579 402.269 401.581 402.269C401.583 402.269 401.585 402.269 401.587 402.269C401.589 402.269 401.591 402.269 401.594 402.269C401.596 402.269 401.598 402.269 401.6 402.269C401.602 402.269 401.604 402.269 401.606 402.269C401.608 402.269 401.61 402.269 401.612 402.269C401.614 402.269 401.616 402.269 401.618 402.269C401.62 402.269 401.622 402.269 401.624 402.269C401.626 402.269 401.629 402.269 401.631 402.269C401.633 402.269 401.635 402.269 401.637 402.269C401.639 402.269 401.641 402.269 401.643 402.269C401.645 402.269 401.647 402.269 401.649 402.269C401.651 402.269 401.653 402.269 401.655 402.269C401.657 402.269 401.659 402.269 401.661 402.269C401.664 402.269 401.666 402.269 401.668 402.269C401.67 402.269 401.672 402.269 401.674 402.269C401.676 402.269 401.678 402.269 401.68 402.269C401.682 402.269 401.684 402.269 401.686 402.269C401.688 402.269 401.69 402.269 401.692 402.269C401.694 402.269 401.696 402.269 401.699 402.269C401.701 402.269 401.703 402.269 401.705 402.269C401.707 402.269 401.709 402.269 401.711 402.269C401.713 402.269 401.715 402.269 401.717 402.269C401.719 402.269 401.721 402.269 401.723 402.269C401.725 402.269 401.727 402.269 401.729 402.269C401.731 402.269 401.733 402.269 401.736 402.269C401.738 402.269 401.74 402.269 401.742 402.269C401.744 402.269 401.746 402.269 401.748 402.269C401.75 402.269 401.752 402.269 401.754 402.269C401.756 402.269 401.758 402.269 401.76 402.269C401.762 402.269 401.764 402.269 401.766 402.269C401.768 402.269 401.771 402.269 401.773 402.269C401.775 402.269 401.777 402.269 401.779 402.269C401.781 402.269 401.783 402.269 401.785 402.269C401.787 402.269 401.789 402.269 401.791 402.269C401.793 402.269 401.795 402.269 401.797 402.269C401.799 402.269 401.801 402.269 401.803 402.269C401.806 402.269 401.808 402.269 401.81 402.269C401.812 402.269 401.814 402.269 401.816 402.269C401.818 402.269 401.82 402.269 401.822 402.269C401.824 402.269 401.826 402.269 401.828 402.269C401.83 402.269 401.832 402.269 401.834 402.269C401.836 402.269 401.838 402.269 401.841 402.269C401.843 402.269 401.845 402.269 401.847 402.269C401.849 402.269 401.851 402.269 401.853 402.269C401.855 402.269 401.857 402.269 401.859 402.269C401.861 402.269 401.863 402.269 401.865 402.269C401.867 402.269 401.869 402.269 401.871 402.269C401.873 402.269 401.875 402.269 401.878 402.269C401.88 402.269 401.882 402.269 401.884 402.269C401.886 402.269 401.888 402.269 401.89 402.269C401.892 402.269 401.894 402.269 401.896 402.269C401.898 402.269 401.9 402.269 401.902 402.269C401.904 402.269 401.906 402.269 401.908 402.269C401.91 402.269 401.913 402.269 401.915 402.269C401.917 402.269 401.919 402.269 401.921 402.269C401.923 402.269 401.925 402.269 401.927 402.269C401.929 402.269 401.931 402.269 401.933 402.269C401.935 402.269 401.937 402.269 401.939 402.269C401.941 402.269 401.943 402.269 401.945 402.269C401.948 402.269 401.95 402.269 401.952 402.269C401.954 402.269 401.956 402.269 401.958 402.269C401.96 402.269 401.962 402.269 401.964 402.269C401.966 402.269 401.968 402.269 401.97 402.269C401.972 402.269 401.974 402.269 401.976 402.269C401.978 402.269 401.98 402.269 401.983 402.269C401.985 402.269 401.987 402.269 401.989 402.269C401.991 402.269 401.993 402.269 401.995 402.269C401.997 402.269 401.999 402.269 402.001 402.269C402.003 402.269 402.005 402.269 402.007 402.269C402.009 402.269 402.011 402.269 402.013 402.269C402.015 402.269 402.018 402.269 402.02 402.269C402.022 402.269 402.024 402.269 402.026 402.269C402.028 402.269 402.03 402.269 402.032 402.269C402.034 402.269 402.036 402.269 402.038 402.269C402.04 402.269 402.042 402.269 402.044 402.269C402.046 402.269 402.048 402.269 402.05 402.269C402.052 402.269 402.055 402.269 402.057 402.269C402.059 402.269 402.061 402.269 402.063 402.269C402.065 402.269 402.067 402.269 402.069 402.269C402.071 402.269 402.073 402.269 402.075 402.269C402.077 402.269 402.079 402.269 402.081 402.269C402.083 402.269 402.085 402.269 402.087 402.269C402.09 402.269 402.092 402.269 402.094 402.269C402.096 402.269 402.098 402.269 402.1 402.269C402.102 402.269 402.104 402.269 402.106 402.269C402.108 402.269 402.11 402.269 402.112 402.269C402.114 402.269 402.116 402.269 402.118 402.269C402.12 402.269 402.122 402.269 402.125 402.269C402.127 402.269 402.129 402.269 402.131 402.269C402.133 402.269 402.135 402.269 402.137 402.269C402.139 402.269 402.141 402.269 402.143 402.269C402.145 402.269 402.147 402.269 402.149 402.269C402.151 402.269 402.153 402.269 402.155 402.269C402.157 402.269 402.16 402.269 402.162 402.269C402.164 402.269 402.166 402.269 402.168 402.269C402.17 402.269 402.172 402.269 402.174 402.269C402.176 402.269 402.178 402.269 402.18 402.269C402.182 402.269 402.184 402.269 402.186 402.269C402.188 402.269 402.19 402.269 402.192 402.269C402.194 402.269 402.197 402.269 402.199 402.269C402.201 402.269 402.203 402.269 402.205 402.269C402.207 402.269 402.209 402.269 402.211 402.269C402.213 402.269 402.215 402.269 402.217 402.269C402.219 402.269 402.221 402.269 402.223 402.269C402.225 402.269 402.227 402.269 402.229 402.269C402.232 402.269 402.234 402.269 402.236 402.269C402.238 402.269 402.24 402.269 402.242 402.269C402.244 402.269 402.246 402.269 402.248 402.269C402.25 402.269 402.252 402.269 402.254 402.269C402.256 402.269 402.258 402.269 402.26 402.269C402.262 402.269 402.264 402.269 402.267 402.269C402.269 402.269 402.271 402.269 402.273 402.269C402.275 402.269 402.277 402.269 402.279 402.269C402.281 402.269 402.283 402.269 402.285 402.269C402.287 402.269 402.289 402.269 402.291 402.269C402.293 402.269 402.295 402.269 402.297 402.269C402.299 402.269 402.302 402.269 402.304 402.269C402.306 402.269 402.308 402.269 402.31 402.269C402.312 402.269 402.314 402.269 402.316 402.269C402.318 402.269 402.32 402.269 402.322 402.269C402.324 402.269 402.326 402.269 402.328 402.269C402.33 402.269 402.332 402.269 402.334 402.269C402.337 402.269 402.339 402.269 402.341 402.269C402.343 402.269 402.345 402.269 402.347 402.269C402.349 402.269 402.351 402.269 402.353 402.269C402.355 402.269 402.357 402.269 402.359 402.269C402.361 402.269 402.363 402.269 402.365 402.269C402.367 402.269 402.369 402.269 402.371 402.269C402.374 402.269 402.376 402.269 402.378 402.269C402.38 402.269 402.382 402.269 402.384 402.269C402.386 402.269 402.388 402.269 402.39 402.269C402.392 402.269 402.394 402.269 402.396 402.269C402.398 402.269 402.4 402.269 402.402 402.269C402.404 402.269 402.406 402.269 402.409 402.269C402.411 402.269 402.413 402.269 402.415 402.269C402.417 402.269 402.419 402.269 402.421 402.269C402.423 402.269 402.425 402.269 402.427 402.269C402.429 402.269 402.431 402.269 402.433 402.269C402.435 402.269 402.437 402.269 402.439 402.269C402.441 402.269 402.444 402.269 402.446 402.269C402.448 402.269 402.45 402.269 402.452 402.269C402.454 402.269 402.456 402.269 402.458 402.269C402.46 402.269 402.462 402.269 402.464 402.269C402.466 402.269 402.468 402.269 402.47 402.269C402.472 402.269 402.474 402.269 402.476 402.269C402.479 402.269 402.481 402.269 402.483 402.269C402.485 402.269 402.487 402.269 402.489 402.269C402.491 402.269 402.493 402.269 402.495 402.269C402.497 402.269 402.499 402.269 402.501 402.269C402.503 402.269 402.505 402.269 402.507 402.269C402.509 402.269 402.511 402.269 402.513 402.269C402.516 402.269 402.518 402.269 402.52 402.269C402.522 402.269 402.524 402.269 402.526 402.269C402.528 402.269 402.53 402.269 402.532 402.269C402.534 402.269 402.536 402.269 402.538 402.269C402.54 402.269 402.542 402.269 402.544 402.269C402.546 402.269 402.548 402.269 402.551 402.269C402.553 402.269 402.555 402.269 402.557 402.269C402.559 402.269 402.561 402.269 402.563 402.269C402.565 402.269 402.567 402.269 402.569 402.269C402.571 402.269 402.573 402.269 402.575 402.269C402.577 402.269 402.579 402.269 402.581 402.269C402.583 402.269 402.586 402.269 402.588 402.269C402.59 402.269 402.592 402.269 402.594 402.269C402.596 402.269 402.598 402.269 402.6 402.269C402.602 402.269 402.604 402.269 402.606 402.269C402.608 402.269 402.61 402.269 402.612 402.269C402.614 402.269 402.616 402.269 402.618 402.269C402.621 402.269 402.623 402.269 402.625 402.269C402.627 402.269 402.629 402.269 402.631 402.269C402.633 402.269 402.635 402.269 402.637 402.269C402.639 402.269 402.641 402.269 402.643 402.269C402.645 402.269 402.647 402.269 402.649 402.269C402.651 402.269 402.653 402.269 402.656 402.269C402.658 402.269 402.66 402.269 402.662 402.269C402.664 402.269 402.666 402.269 402.668 402.269C402.67 402.269 402.672 402.269 402.674 402.269C402.676 402.269 402.678 402.269 402.68 402.269C402.682 402.269 402.684 402.269 402.686 402.269C402.688 402.269 402.69 402.269 402.693 402.269C402.695 402.269 402.697 402.269 402.699 402.269C402.701 402.269 402.703 402.269 402.705 402.269C402.707 402.269 402.709 402.269 402.711 402.269C402.713 402.269 402.715 402.269 402.717 402.269C402.719 402.269 402.721 402.269 402.723 402.269C402.725 402.269 402.728 402.269 402.73 402.269C402.732 402.269 402.734 402.269 402.736 402.269C402.738 402.269 402.74 402.269 402.742 402.269C402.744 402.269 402.746 402.269 402.748 402.269C402.75 402.269 402.752 402.269 402.754 402.269C402.756 402.269 402.758 402.269 402.76 402.269C402.763 402.269 402.765 402.269 402.767 402.269C402.769 402.269 402.771 402.269 402.773 402.269C402.775 402.269 402.777 402.269 402.779 402.269C402.781 402.269 402.783 402.269 402.785 402.269C402.787 402.269 402.789 402.269 402.791 402.269C402.793 402.269 402.795 402.269 402.798 402.269C402.8 402.269 402.802 402.269 402.804 402.269C402.806 402.269 402.808 402.269 402.81 402.269C402.812 402.269 402.814 402.269 402.816 402.269C402.818 402.269 402.82 402.269 402.822 402.269C402.824 402.269 402.826 402.269 402.828 402.269C402.83 402.269 402.833 402.269 402.835 402.269C402.837 402.269 402.839 402.269 402.841 402.269C402.843 402.269 402.845 402.269 402.847 402.269C402.849 402.269 402.851 402.269 402.853 402.269C402.855 402.269 402.857 402.269 402.859 402.269C402.861 402.269 402.863 402.269 402.865 402.269C402.867 402.269 402.87 402.269 402.872 402.269C402.874 402.269 402.876 402.269 402.878 402.269C402.88 402.269 402.882 402.269 402.884 402.269C402.886 402.269 402.888 402.269 402.89 402.269C402.892 402.269 402.894 402.269 402.896 402.269C402.898 402.269 402.9 402.269 402.902 402.269C402.905 402.269 402.907 402.269 402.909 402.269C402.911 402.269 402.913 402.269 402.915 402.269C402.917 402.269 402.919 402.269 402.921 402.269C402.923 402.269 402.925 402.269 402.927 402.269C402.929 402.269 402.931 402.269 402.933 402.269C402.935 402.269 402.937 402.269 402.94 402.269C402.942 402.269 402.944 402.269 402.946 402.269C402.948 402.269 402.95 402.269 402.952 402.269C402.954 402.269 402.956 402.269 402.958 402.269C402.96 402.269 402.962 402.269 402.964 402.269C402.966 402.269 402.968 402.269 402.97 402.269C402.972 402.269 402.975 402.269 402.977 402.269V392.269ZM399.815 392.269V382.269C399.968 382.269 400.018 382.281 399.945 382.271C399.875 382.261 399.721 382.234 399.475 382.172L397.049 391.874L394.624 401.575C396.198 401.969 397.967 402.269 399.815 402.269V392.269ZM397.049 391.874V381.874H390.727V391.874V401.874H397.049V391.874ZM390.727 391.874V381.874C380.121 381.874 368.378 382.417 355.518 383.489L356.349 393.454L357.179 403.42C369.609 402.384 380.785 401.874 390.727 401.874V391.874ZM356.349 393.454L355.712 383.475C342.977 384.288 330.249 385.777 317.527 387.943L319.205 397.801L320.883 407.659C332.924 405.61 344.958 404.202 356.986 403.434L356.349 393.454ZM319.205 397.801L317.7 387.915C305.147 389.825 293.674 392.439 283.322 395.797L286.407 405.309L289.492 414.821C298.635 411.856 309.027 409.465 320.709 407.687L319.205 397.801ZM422.793 407.68L428.793 399.68L428.759 399.654L428.725 399.629L422.793 407.68ZM411.333 393.85L402.078 397.636L402.184 397.896L402.305 398.149L411.333 393.85ZM418.051 349.198L410.618 342.508L410.612 342.515L410.605 342.522L418.051 349.198ZM481.67 348.407L474.724 355.601L474.789 355.664L474.856 355.726L481.67 348.407ZM480.09 401.357L486.936 408.646L486.994 408.592L487.051 408.536L480.09 401.357ZM442.55 413.607V403.607C436.366 403.607 432.005 402.089 428.793 399.68L422.793 407.68L416.793 415.68C424.117 421.173 432.929 423.607 442.55 423.607V413.607ZM422.793 407.68L428.725 399.629C425.024 396.903 422.278 393.573 420.362 389.55L411.333 393.85L402.305 398.149C405.658 405.19 410.551 411.081 416.861 415.73L422.793 407.68ZM411.333 393.85L420.589 390.063C418.67 385.372 417.777 380.859 417.777 376.463H407.777H397.777C397.777 383.658 399.255 390.736 402.078 397.636L411.333 393.85ZM407.777 376.463H417.777C417.777 368.316 420.34 361.624 425.497 355.873L418.051 349.198L410.605 342.522C402.063 352.05 397.777 363.535 397.777 376.463H407.777ZM418.051 349.198L425.484 355.887C430.382 350.444 437.233 347.343 447.292 347.343V337.343V327.343C432.588 327.343 419.945 332.145 410.618 342.508L418.051 349.198ZM447.292 337.343V347.343C461.116 347.343 469.631 350.684 474.724 355.601L481.67 348.407L488.616 341.213C478.43 331.378 464.026 327.343 447.292 327.343V337.343ZM481.67 348.407L474.856 355.726C480.759 361.223 483.129 366.842 483.129 372.907H493.129H503.129C503.129 360.53 497.86 349.817 488.484 341.088L481.67 348.407ZM493.129 372.907H483.129C483.129 380.328 480.195 387.326 473.128 394.178L480.09 401.357L487.051 408.536C497.371 398.529 503.129 386.56 503.129 372.907H493.129ZM480.09 401.357L473.243 394.069C466.998 399.936 457.292 403.607 442.55 403.607V413.607V423.607C460.475 423.607 475.795 419.112 486.936 408.646L480.09 401.357Z" fill="#B68736" mask="url(#path-1-outside-1_204_5)"/>
</svg>
